M48
;Layer_Color=9474304
;FILE_FORMAT=4:4
METRIC,LZ
;TYPE=PLATED
T01F00S00C0.3000
T02F00S00C0.4000
T03F00S00C0.5000
T05F00S00C0.7000
T06F00S00C0.7112
T07F00S00C0.8000
T08F00S00C1.0000
T09F00S00C1.5000
T10F00S00C1.6000
T11F00S00C3.2000
;TYPE=NON_PLATED
T12F00S00C0.6500
T13F00S00C0.8500
%
T01
X00451Y001735
X00493Y00149
X00486Y00142
X001144Y001851
X001044
X0009675Y002525
X000965Y0025875
Y00265
Y0027125
Y002775
X00389516Y0028055
X00394836Y0028587
X00382778Y00259334
X00407196Y00234816
X00408Y00222
X00422769Y00222071
X004155Y002295
X004305
Y0021475
X00441008Y00211992
X00438Y00222
X004155Y002145
X00423Y00207
Y00237
X00467868Y00189992
T02
X0025Y00095
Y00153208
X002425Y001675
X00309Y00174
X00334Y00175
X00361973Y00170027
X00365Y0008027
Y00065
X00343Y00094
X002975Y0013993
X00425Y001325
X00453901Y00133524
X0050327Y0015573
X00512318Y00165354
X00562Y00165
X00559Y0014
X00587Y00157
X00581Y00101
Y0009
X00569
X00532976
X00504
X00493
Y00101
X0053965Y0006285
X0054Y0003
X0056
X00515
X00439856Y00035143
X0019Y0004
X0017473
X002Y001
X00107Y00118
X00087Y00117
X00126Y00177
Y00193
X00103632Y002159
X00086Y00215
X00075Y00225
X00064767Y00189016
X00015Y0019973
Y00215
X00115Y0025
X0016002Y00249428
X00175Y00225
X0019Y00235
X00215
X002325Y0025
X0023Y002975
X002325Y0031
X0017
X00147712Y00318787
X00128Y00311
X00135Y00353
X00147
X00125Y00365
Y003775
Y0039
X00112Y00358
X00071Y00363
X0007Y00375
X00181Y00377
X00222Y00402
X00225Y0046
X00205
X00185
X00185Y0044
X00165
X00115Y00485
X00095
Y00535
X00109142Y00549142
X00155Y00555
Y00575
X0007Y0052
X0005
X0003
X0001
X00175Y00275
X001975Y001975
X00244755Y00220002
X0024Y002425
X0026Y00245
X0026943Y0025373
X00295Y00255
X00305Y00245
X0031Y00277
X00341027Y00288027
X00349Y00297
X00366Y00283
X00358973Y00274027
X00359799Y00223243
X00389557Y0022285
X00324Y00221
X00307Y00204
X0028Y0021
X0027Y001975
X00241Y00264
X00256Y00327
X00253919Y00350072
X00269765Y00353294
X00281765
X0028157Y0032827
X00395Y00307574
X0044Y003075
X004475Y003
X00481Y00276
X00495Y0027
X00506099Y00220524
X00522Y00225
X00521935Y00212497
X00514Y00203
X00485317Y00211871
X00478Y00222
X00562Y00225
X00562375Y00212611
X00559Y002
X0058Y0035973
Y00375
X00522045Y00370337
X00483Y00332
X00484994Y0041077
X00449Y00401
Y00386
X00433
X00446Y00436
X0041Y00427
X0039
X00369Y00386
Y00375
X00315Y00460024
X00295Y0046
X00275
X00271Y00515
Y00535
X0032Y005
X0034
X003555Y0055725
X00405Y00555
X0042
X0043545Y0056965
X00445732Y00515732
X00405Y0053
X00484994Y0049077
X0052Y00555
X0058Y00485
Y0046973
X00579Y00618
X00559
X0052465Y0062045
X0043665Y0062045
X00424Y00582
X00205Y00585
X00185
X0011Y0059
X00095858Y00604142
X0007Y00615
X0005
X0003
X0001
T03
X00498921Y00117518
T05
X0008Y00065
X001
X00545Y0031
Y0033
Y0035
Y0037
Y00425
Y00445
Y00465
Y00485
T06
X004025Y003325
X00501Y00438
X00563Y00496
X00522Y0024
T07
X0007Y00105
X00155Y00065
X00175
X00195
X0020065Y0051695
X00185Y0054
T08
X0003Y0032
X000554
X00035Y00355
Y003804
X000454Y0045
X0002
X0024Y00435
X002654
X003346
X0036
T09
X000491Y005679
T10
X000236Y005424
X000746
Y005934
X000236
T11
X0003Y00035
X0056Y0058
T12
X005079Y00065
X005657
T13
X0005Y00635
M30
