G04*
G04 #@! TF.GenerationSoftware,Altium Limited,Altium Designer,24.2.2 (26)*
G04*
G04 Layer_Color=32896*
%FSLAX44Y44*%
%MOMM*%
G71*
G04*
G04 #@! TF.SameCoordinates,57E06D6A-15B4-4B42-AE12-48CE37104189*
G04*
G04*
G04 #@! TF.FilePolarity,Positive*
G04*
G01*
G75*
%ADD10C,0.2000*%
%ADD17C,0.3048*%
%ADD18C,0.1270*%
%ADD20C,0.2540*%
D10*
X467290Y405670D02*
G03*
X467290Y405670I-1000J0D01*
G01*
X530500Y148000D02*
G03*
X530500Y148000I-1000J0D01*
G01*
D17*
X550000Y144000D02*
Y162000D01*
X564500D01*
X570000D02*
X584500D01*
X570000Y144000D02*
X584500D01*
Y162000D01*
X550000Y144000D02*
X564500D01*
X237000Y391500D02*
X255000D01*
Y377000D02*
Y391500D01*
Y357000D02*
Y371500D01*
X237000Y357000D02*
Y371500D01*
Y357000D02*
X255000D01*
X237000Y377000D02*
Y391500D01*
X408010Y52300D02*
Y77700D01*
X467700Y52300D02*
Y77700D01*
X408010D02*
X427060D01*
X408010Y52300D02*
X427060D01*
X448650D02*
X467700D01*
X448650Y77700D02*
X467700D01*
X368500Y597000D02*
Y615000D01*
X383000D01*
X388500D02*
X403000D01*
X388500Y597000D02*
X403000D01*
Y615000D01*
X368500Y597000D02*
X383000D01*
X403000Y577000D02*
Y595000D01*
X388500Y577000D02*
X403000D01*
X368500D02*
X383000D01*
X368500Y595000D02*
X383000D01*
X368500Y577000D02*
Y595000D01*
X388500D02*
X403000D01*
X96000Y366000D02*
X114000D01*
X96000D02*
Y380500D01*
Y386000D02*
Y400500D01*
X114000Y386000D02*
Y400500D01*
X96000D02*
X114000D01*
Y366000D02*
Y380500D01*
X524337Y321337D02*
Y339337D01*
X509837Y321337D02*
X524337D01*
X489837D02*
X504337D01*
X489837Y339337D02*
X504337D01*
X489837Y321337D02*
Y339337D01*
X509837D02*
X524337D01*
X452000Y239272D02*
X464728Y252000D01*
X441747Y249525D02*
X452000Y239272D01*
X427605Y263667D02*
X437858Y253414D01*
X440333Y276395D02*
X450586Y266142D01*
X427605Y263667D02*
X440333Y276395D01*
X454475Y262253D02*
X464728Y252000D01*
X463667Y252605D02*
X476395Y265333D01*
X453414Y262858D02*
X463667Y252605D01*
X439272Y277000D02*
X449525Y266747D01*
X452000Y289728D02*
X462253Y279475D01*
X439272Y277000D02*
X452000Y289728D01*
X466142Y275586D02*
X476395Y265333D01*
X524337Y341337D02*
Y359337D01*
X509837Y341337D02*
X524337D01*
X489837D02*
X504337D01*
X489837Y359337D02*
X504337D01*
X489837Y341337D02*
Y359337D01*
X509837D02*
X524337D01*
X181000Y328500D02*
X199000D01*
Y314000D02*
Y328500D01*
Y294000D02*
Y308500D01*
X181000Y294000D02*
Y308500D01*
Y294000D02*
X199000D01*
X181000Y314000D02*
Y328500D01*
X441000Y541000D02*
Y559000D01*
X455500D01*
X461000D02*
X475500D01*
X461000Y541000D02*
X475500D01*
Y559000D01*
X441000Y541000D02*
X455500D01*
X478000Y447000D02*
X496000D01*
Y432500D02*
Y447000D01*
Y412500D02*
Y427000D01*
X478000Y412500D02*
Y427000D01*
Y412500D02*
X496000D01*
X478000Y432500D02*
Y447000D01*
X181000Y249500D02*
X199000D01*
X181000D02*
Y264000D01*
Y269500D02*
Y284000D01*
X199000Y269500D02*
Y284000D01*
X181000D02*
X199000D01*
Y249500D02*
Y264000D01*
X206000Y249500D02*
X224000D01*
X206000D02*
Y264000D01*
Y269500D02*
Y284000D01*
X224000Y269500D02*
Y284000D01*
X206000D02*
X224000D01*
Y249500D02*
Y264000D01*
X478000Y485500D02*
X496000D01*
Y471000D02*
Y485500D01*
Y451000D02*
Y465500D01*
X478000Y451000D02*
Y465500D01*
Y451000D02*
X496000D01*
X478000Y471000D02*
Y485500D01*
X76000Y366000D02*
X94000D01*
X76000D02*
Y380500D01*
Y386000D02*
Y400500D01*
X94000Y386000D02*
Y400500D01*
X76000D02*
X94000D01*
Y366000D02*
Y380500D01*
X206000Y328500D02*
X224000D01*
Y314000D02*
Y328500D01*
Y294000D02*
Y308500D01*
X206000Y294000D02*
Y308500D01*
Y294000D02*
X224000D01*
X206000Y314000D02*
Y328500D01*
D18*
X471500Y426800D02*
Y470800D01*
X421500Y426800D02*
Y470800D01*
X523400Y115000D02*
Y131000D01*
X554600Y115000D02*
Y131000D01*
D20*
X586121Y173922D02*
Y184078D01*
X581042D01*
X579350Y182386D01*
Y179000D01*
X581042Y177307D01*
X586121D01*
X582735D02*
X579350Y173922D01*
X575964Y182386D02*
X574271Y184078D01*
X570886D01*
X569193Y182386D01*
Y180693D01*
X570886Y179000D01*
X569193Y177307D01*
Y175614D01*
X570886Y173922D01*
X574271D01*
X575964Y175614D01*
Y177307D01*
X574271Y179000D01*
X575964Y180693D01*
Y182386D01*
X574271Y179000D02*
X570886D01*
X565807Y182386D02*
X564114Y184078D01*
X560729D01*
X559036Y182386D01*
Y175614D01*
X560729Y173922D01*
X564114D01*
X565807Y175614D01*
Y182386D01*
X555650D02*
X553958Y184078D01*
X550572D01*
X548879Y182386D01*
Y180693D01*
X550572Y179000D01*
X552265D01*
X550572D01*
X548879Y177307D01*
Y175614D01*
X550572Y173922D01*
X553958D01*
X555650Y175614D01*
X291301Y55078D02*
X298072D01*
X294687D01*
Y44922D01*
X301458D02*
Y55078D01*
X306536D01*
X308229Y53386D01*
Y50000D01*
X306536Y48307D01*
X301458D01*
X318386Y44922D02*
X311614D01*
X318386Y51693D01*
Y53386D01*
X316693Y55078D01*
X313307D01*
X311614Y53386D01*
X321771D02*
X323464Y55078D01*
X326850D01*
X328542Y53386D01*
Y46614D01*
X326850Y44922D01*
X323464D01*
X321771Y46614D01*
Y53386D01*
X338699Y44922D02*
X331928D01*
X338699Y51693D01*
Y53386D01*
X337006Y55078D01*
X333621D01*
X331928Y53386D01*
X511301Y525078D02*
X518072D01*
X514687D01*
Y514922D01*
X521458D02*
Y525078D01*
X526536D01*
X528229Y523386D01*
Y520000D01*
X526536Y518307D01*
X521458D01*
X538386Y514922D02*
X531614D01*
X538386Y521693D01*
Y523386D01*
X536693Y525078D01*
X533307D01*
X531614Y523386D01*
X541771D02*
X543464Y525078D01*
X546850D01*
X548542Y523386D01*
Y516614D01*
X546850Y514922D01*
X543464D01*
X541771Y516614D01*
Y523386D01*
X551928D02*
X553621Y525078D01*
X557006D01*
X558699Y523386D01*
Y521693D01*
X557006Y520000D01*
X555313D01*
X557006D01*
X558699Y518307D01*
Y516614D01*
X557006Y514922D01*
X553621D01*
X551928Y516614D01*
X404922Y441379D02*
X413386D01*
X415078Y443072D01*
Y446458D01*
X413386Y448150D01*
X404922D01*
X406614Y451536D02*
X404922Y453229D01*
Y456614D01*
X406614Y458307D01*
X408307D01*
X410000Y456614D01*
Y454922D01*
Y456614D01*
X411693Y458307D01*
X413386D01*
X415078Y456614D01*
Y453229D01*
X413386Y451536D01*
X406614Y461693D02*
X404922Y463386D01*
Y466771D01*
X406614Y468464D01*
X413386D01*
X415078Y466771D01*
Y463386D01*
X413386Y461693D01*
X406614D01*
X415078Y476928D02*
X404922D01*
X410000Y471850D01*
Y478621D01*
X251301Y345078D02*
X258072D01*
X254687D01*
Y334922D01*
X261458D02*
Y345078D01*
X266536D01*
X268229Y343386D01*
Y340000D01*
X266536Y338307D01*
X261458D01*
X271614Y343386D02*
X273307Y345078D01*
X276693D01*
X278386Y343386D01*
Y341693D01*
X276693Y340000D01*
X275000D01*
X276693D01*
X278386Y338307D01*
Y336614D01*
X276693Y334922D01*
X273307D01*
X271614Y336614D01*
X281771Y343386D02*
X283464Y345078D01*
X286849D01*
X288542Y343386D01*
Y336614D01*
X286849Y334922D01*
X283464D01*
X281771Y336614D01*
Y343386D01*
X291928D02*
X293621Y345078D01*
X297006D01*
X298699Y343386D01*
Y336614D01*
X297006Y334922D01*
X293621D01*
X291928Y336614D01*
Y343386D01*
X509922Y106379D02*
X518386D01*
X520078Y108072D01*
Y111458D01*
X518386Y113151D01*
X509922D01*
X511614Y116536D02*
X509922Y118229D01*
Y121614D01*
X511614Y123307D01*
X513307D01*
X515000Y121614D01*
X516693Y123307D01*
X518386D01*
X520078Y121614D01*
Y118229D01*
X518386Y116536D01*
X516693D01*
X515000Y118229D01*
X513307Y116536D01*
X511614D01*
X515000Y118229D02*
Y121614D01*
X511614Y126693D02*
X509922Y128386D01*
Y131771D01*
X511614Y133464D01*
X518386D01*
X520078Y131771D01*
Y128386D01*
X518386Y126693D01*
X511614D01*
Y136849D02*
X509922Y138542D01*
Y141928D01*
X511614Y143621D01*
X518386D01*
X520078Y141928D01*
Y138542D01*
X518386Y136849D01*
X511614D01*
X418150Y95078D02*
X411379D01*
Y90000D01*
X414765D01*
X411379D01*
Y84922D01*
X421536Y93386D02*
X423229Y95078D01*
X426614D01*
X428307Y93386D01*
Y91693D01*
X426614Y90000D01*
X428307Y88307D01*
Y86614D01*
X426614Y84922D01*
X423229D01*
X421536Y86614D01*
Y88307D01*
X423229Y90000D01*
X421536Y91693D01*
Y93386D01*
X423229Y90000D02*
X426614D01*
X431693Y93386D02*
X433386Y95078D01*
X436771D01*
X438464Y93386D01*
Y86614D01*
X436771Y84922D01*
X433386D01*
X431693Y86614D01*
Y93386D01*
X441850D02*
X443542Y95078D01*
X446928D01*
X448621Y93386D01*
Y86614D01*
X446928Y84922D01*
X443542D01*
X441850Y86614D01*
Y93386D01*
X107994Y345078D02*
X114765D01*
X111379D01*
Y334922D01*
X118151D02*
Y345078D01*
X123229D01*
X124922Y343386D01*
Y340000D01*
X123229Y338307D01*
X118151D01*
X128307Y343386D02*
X130000Y345078D01*
X133386D01*
X135078Y343386D01*
Y341693D01*
X133386Y340000D01*
X131693D01*
X133386D01*
X135078Y338307D01*
Y336614D01*
X133386Y334922D01*
X130000D01*
X128307Y336614D01*
X138464Y343386D02*
X140157Y345078D01*
X143542D01*
X145235Y343386D01*
Y336614D01*
X143542Y334922D01*
X140157D01*
X138464Y336614D01*
Y343386D01*
X148621Y334922D02*
X152006D01*
X150313D01*
Y345078D01*
X148621Y343386D01*
X437379Y343922D02*
Y354078D01*
X442458D01*
X444151Y352386D01*
Y349000D01*
X442458Y347307D01*
X437379D01*
X440765D02*
X444151Y343922D01*
X447536Y352386D02*
X449229Y354078D01*
X452614D01*
X454307Y352386D01*
Y350693D01*
X452614Y349000D01*
X450922D01*
X452614D01*
X454307Y347307D01*
Y345614D01*
X452614Y343922D01*
X449229D01*
X447536Y345614D01*
X457693Y352386D02*
X459386Y354078D01*
X462771D01*
X464464Y352386D01*
Y345614D01*
X462771Y343922D01*
X459386D01*
X457693Y345614D01*
Y352386D01*
X467850Y345614D02*
X469542Y343922D01*
X472928D01*
X474621Y345614D01*
Y352386D01*
X472928Y354078D01*
X469542D01*
X467850Y352386D01*
Y350693D01*
X469542Y349000D01*
X474621D01*
X476379Y249922D02*
Y260078D01*
X481458D01*
X483150Y258386D01*
Y255000D01*
X481458Y253307D01*
X476379D01*
X479765D02*
X483150Y249922D01*
X486536Y258386D02*
X488229Y260078D01*
X491614D01*
X493307Y258386D01*
Y256693D01*
X491614Y255000D01*
X489922D01*
X491614D01*
X493307Y253307D01*
Y251614D01*
X491614Y249922D01*
X488229D01*
X486536Y251614D01*
X496693Y258386D02*
X498386Y260078D01*
X501771D01*
X503464Y258386D01*
Y251614D01*
X501771Y249922D01*
X498386D01*
X496693Y251614D01*
Y258386D01*
X506850Y260078D02*
X513621D01*
Y258386D01*
X506850Y251614D01*
Y249922D01*
X466379Y234922D02*
Y245078D01*
X471458D01*
X473150Y243386D01*
Y240000D01*
X471458Y238307D01*
X466379D01*
X469765D02*
X473150Y234922D01*
X476536Y243386D02*
X478229Y245078D01*
X481614D01*
X483307Y243386D01*
Y241693D01*
X481614Y240000D01*
X479922D01*
X481614D01*
X483307Y238307D01*
Y236614D01*
X481614Y234922D01*
X478229D01*
X476536Y236614D01*
X486693Y243386D02*
X488386Y245078D01*
X491771D01*
X493464Y243386D01*
Y236614D01*
X491771Y234922D01*
X488386D01*
X486693Y236614D01*
Y243386D01*
X503621Y245078D02*
X500235Y243386D01*
X496850Y240000D01*
Y236614D01*
X498542Y234922D01*
X501928D01*
X503621Y236614D01*
Y238307D01*
X501928Y240000D01*
X496850D01*
X437379Y324922D02*
Y335078D01*
X442458D01*
X444151Y333386D01*
Y330000D01*
X442458Y328307D01*
X437379D01*
X440765D02*
X444151Y324922D01*
X447536Y333386D02*
X449229Y335078D01*
X452614D01*
X454307Y333386D01*
Y331693D01*
X452614Y330000D01*
X450922D01*
X452614D01*
X454307Y328307D01*
Y326614D01*
X452614Y324922D01*
X449229D01*
X447536Y326614D01*
X457693Y333386D02*
X459386Y335078D01*
X462771D01*
X464464Y333386D01*
Y326614D01*
X462771Y324922D01*
X459386D01*
X457693Y326614D01*
Y333386D01*
X467850D02*
X469542Y335078D01*
X472928D01*
X474621Y333386D01*
Y331693D01*
X472928Y330000D01*
X474621Y328307D01*
Y326614D01*
X472928Y324922D01*
X469542D01*
X467850Y326614D01*
Y328307D01*
X469542Y330000D01*
X467850Y331693D01*
Y333386D01*
X469542Y330000D02*
X472928D01*
X366379Y559922D02*
Y570078D01*
X371458D01*
X373150Y568386D01*
Y565000D01*
X371458Y563307D01*
X366379D01*
X369765D02*
X373150Y559922D01*
X381614D02*
Y570078D01*
X376536Y565000D01*
X383307D01*
X386693Y568386D02*
X388386Y570078D01*
X391771D01*
X393464Y568386D01*
Y561614D01*
X391771Y559922D01*
X388386D01*
X386693Y561614D01*
Y568386D01*
X396850D02*
X398542Y570078D01*
X401928D01*
X403621Y568386D01*
Y561614D01*
X401928Y559922D01*
X398542D01*
X396850Y561614D01*
Y568386D01*
X366379Y624922D02*
Y635078D01*
X371458D01*
X373150Y633386D01*
Y630000D01*
X371458Y628307D01*
X366379D01*
X369765D02*
X373150Y624922D01*
X381614D02*
Y635078D01*
X376536Y630000D01*
X383307D01*
X386693Y633386D02*
X388386Y635078D01*
X391771D01*
X393464Y633386D01*
Y626614D01*
X391771Y624922D01*
X388386D01*
X386693Y626614D01*
Y633386D01*
X403621Y624922D02*
X396850D01*
X403621Y631693D01*
Y633386D01*
X401928Y635078D01*
X398542D01*
X396850Y633386D01*
M02*
