G04*
G04 #@! TF.GenerationSoftware,Altium Limited,Altium Designer,24.2.2 (26)*
G04*
G04 Layer_Physical_Order=2*
G04 Layer_Color=16711680*
%FSLAX44Y44*%
%MOMM*%
G71*
G04*
G04 #@! TF.SameCoordinates,57E06D6A-15B4-4B42-AE12-48CE37104189*
G04*
G04*
G04 #@! TF.FilePolarity,Positive*
G04*
G01*
G75*
%ADD11C,0.2500*%
%ADD79R,1.1000X1.1000*%
G04:AMPARAMS|DCode=80|XSize=1.21mm|YSize=0.58mm|CornerRadius=0.0725mm|HoleSize=0mm|Usage=FLASHONLY|Rotation=270.000|XOffset=0mm|YOffset=0mm|HoleType=Round|Shape=RoundedRectangle|*
%AMROUNDEDRECTD80*
21,1,1.2100,0.4350,0,0,270.0*
21,1,1.0650,0.5800,0,0,270.0*
1,1,0.1450,-0.2175,-0.5325*
1,1,0.1450,-0.2175,0.5325*
1,1,0.1450,0.2175,0.5325*
1,1,0.1450,0.2175,-0.5325*
%
%ADD80ROUNDEDRECTD80*%
%ADD110R,1.1000X1.1000*%
%ADD122C,0.5000*%
%ADD123C,0.2300*%
%ADD124C,0.3500*%
%ADD125C,0.7500*%
%ADD126C,1.0000*%
%ADD129R,1.2080X1.2080*%
%ADD130C,1.2080*%
%ADD131C,6.0000*%
%ADD132C,1.2000*%
%ADD133R,1.2000X1.2000*%
%ADD134R,1.3080X1.3080*%
%ADD135C,1.3080*%
G04:AMPARAMS|DCode=136|XSize=1.8mm|YSize=1mm|CornerRadius=0.25mm|HoleSize=0mm|Usage=FLASHONLY|Rotation=90.000|XOffset=0mm|YOffset=0mm|HoleType=Round|Shape=RoundedRectangle|*
%AMROUNDEDRECTD136*
21,1,1.8000,0.5000,0,0,90.0*
21,1,1.3000,1.0000,0,0,90.0*
1,1,0.5000,0.2500,0.6500*
1,1,0.5000,0.2500,-0.6500*
1,1,0.5000,-0.2500,-0.6500*
1,1,0.5000,-0.2500,0.6500*
%
%ADD136ROUNDEDRECTD136*%
%ADD137O,1.0000X2.1000*%
%ADD138C,0.6500*%
%ADD139R,1.5240X1.5240*%
%ADD140C,1.5240*%
%ADD141R,1.5240X1.5240*%
%ADD142C,2.4000*%
%ADD143R,2.5000X2.5000*%
%ADD144C,0.8000*%
%ADD145C,0.6000*%
%ADD146C,1.2700*%
%ADD147C,1.0000*%
%ADD148C,1.6000*%
%ADD149R,2.4500X1.6500*%
%ADD150R,1.6500X2.4500*%
%ADD151R,0.4100X1.5700*%
%ADD152P,1.5556X4X360.0*%
G36*
X600000Y5000D02*
X45625D01*
X45073Y7300D01*
X46522Y8038D01*
X50536Y10955D01*
X54045Y14463D01*
X56962Y18478D01*
X59214Y22899D01*
X60748Y27618D01*
X61524Y32519D01*
Y37481D01*
X60748Y42382D01*
X59214Y47101D01*
X58045Y49397D01*
X59929Y50765D01*
X95347Y15347D01*
X96710Y14301D01*
X98297Y13644D01*
X100000Y13420D01*
X405000D01*
X406703Y13644D01*
X408290Y14301D01*
X409653Y15347D01*
X423003Y28697D01*
X428705Y22995D01*
X429788Y22271D01*
X431065Y22017D01*
X440355D01*
X441632Y22271D01*
X442715Y22995D01*
X461383Y41662D01*
X519000D01*
X520277Y41916D01*
X521360Y42640D01*
X527360Y48640D01*
X528084Y49723D01*
X528338Y51000D01*
Y65617D01*
X543474Y80753D01*
X545774Y79800D01*
Y72829D01*
X541152Y68207D01*
X540749Y68374D01*
X538551D01*
X536521Y67533D01*
X534967Y65979D01*
X534126Y63949D01*
Y61751D01*
X534967Y59721D01*
X536521Y58167D01*
X538551Y57326D01*
X540749D01*
X542779Y58167D01*
X544333Y59721D01*
X545174Y61751D01*
Y63949D01*
X545007Y64352D01*
X550428Y69772D01*
X551019Y70657D01*
X551226Y71700D01*
Y102942D01*
X551553Y103006D01*
X552296Y103504D01*
X552794Y104248D01*
X552968Y105125D01*
Y115775D01*
X552794Y116652D01*
X552296Y117396D01*
X551553Y117893D01*
X550675Y118068D01*
X546325D01*
X545448Y117893D01*
X545241Y117755D01*
X544607Y117396D01*
X542893D01*
X542259Y117755D01*
X542052Y117893D01*
X541175Y118068D01*
X536825D01*
X535947Y117893D01*
X535741Y117755D01*
X535107Y117396D01*
X533393D01*
X532759Y117755D01*
X532552Y117893D01*
X531675Y118068D01*
X527325D01*
X526447Y117893D01*
X525704Y117396D01*
X525206Y116652D01*
X525032Y115775D01*
Y105125D01*
X525206Y104248D01*
X525704Y103504D01*
X526447Y103006D01*
X526774Y102942D01*
Y95018D01*
X526981Y93975D01*
X527572Y93091D01*
X528071Y92592D01*
X527452Y91099D01*
Y88901D01*
X528293Y86871D01*
X529847Y85317D01*
X531877Y84476D01*
X534075D01*
X534805Y84778D01*
X536108Y82829D01*
X525228Y71948D01*
X523103Y72829D01*
Y95000D01*
X522790Y96570D01*
X521901Y97901D01*
X516586Y103217D01*
Y106164D01*
X516273Y107734D01*
X515384Y109065D01*
X512058Y112392D01*
X510727Y113281D01*
X510210Y113384D01*
X505445Y118149D01*
Y118377D01*
X505000Y120036D01*
X504141Y121524D01*
X502926Y122739D01*
X501439Y123597D01*
X499780Y124042D01*
X498062D01*
X496403Y123597D01*
X494915Y122739D01*
X493700Y121524D01*
X492841Y120036D01*
X492397Y118377D01*
Y116659D01*
X492841Y115000D01*
X493700Y113512D01*
X494915Y112298D01*
X496403Y111439D01*
X498062Y110994D01*
X499780D01*
X500738Y111251D01*
X505400Y106589D01*
X506731Y105700D01*
X507248Y105597D01*
X508380Y104465D01*
Y101517D01*
X508692Y99947D01*
X509582Y98616D01*
X514897Y93301D01*
Y66135D01*
X512674Y65950D01*
X512553Y66242D01*
X511947Y67704D01*
X510604Y69047D01*
X508850Y69774D01*
X506950D01*
X505196Y69047D01*
X503853Y67704D01*
X503126Y65950D01*
Y64050D01*
X503853Y62296D01*
X505196Y60953D01*
X506950Y60226D01*
X508850D01*
X510604Y60953D01*
X511947Y62296D01*
X512553Y63758D01*
X512674Y64050D01*
X514897Y63865D01*
Y56628D01*
X514372Y56103D01*
X496386D01*
X495928Y58403D01*
X496890Y58801D01*
X498253Y59847D01*
X499299Y61210D01*
X499956Y62797D01*
X500180Y64500D01*
Y75500D01*
X499956Y77203D01*
X499299Y78790D01*
X498253Y80153D01*
X496890Y81199D01*
X495303Y81856D01*
X493600Y82080D01*
X491897Y81856D01*
X490310Y81199D01*
X488947Y80153D01*
X487901Y78790D01*
X487244Y77203D01*
X487020Y75500D01*
Y64500D01*
X487244Y62797D01*
X487901Y61210D01*
X488947Y59847D01*
X490310Y58801D01*
X491272Y58403D01*
X490814Y56103D01*
X486699D01*
X474901Y67901D01*
X473570Y68790D01*
X472000Y69103D01*
X464144D01*
Y74144D01*
X445856D01*
Y55856D01*
X464144D01*
Y60897D01*
X470301D01*
X480560Y50638D01*
X479607Y48338D01*
X460000D01*
X458723Y48084D01*
X457640Y47360D01*
X438972Y28693D01*
X432448D01*
X427074Y34067D01*
X427290Y35710D01*
Y55856D01*
X429854D01*
Y74144D01*
X411566D01*
Y55856D01*
X414130D01*
Y38436D01*
X402274Y26580D01*
X102726D01*
X74130Y55176D01*
X75083Y57476D01*
X87524D01*
Y72524D01*
X72476D01*
Y60083D01*
X70176Y59130D01*
X66580Y62726D01*
Y90651D01*
X71461Y95532D01*
X73676Y96125D01*
X75848Y97379D01*
X77621Y99152D01*
X78875Y101324D01*
X79524Y103746D01*
Y106254D01*
X78875Y108676D01*
X77621Y110848D01*
X75848Y112621D01*
X73676Y113875D01*
X71254Y114524D01*
X68746D01*
X66324Y113875D01*
X64152Y112621D01*
X62379Y110848D01*
X61125Y108676D01*
X60476Y106254D01*
Y103746D01*
X60600Y103282D01*
X55347Y98029D01*
X54301Y96666D01*
X53644Y95079D01*
X53420Y93376D01*
Y60000D01*
X53509Y59326D01*
X51330Y58252D01*
X50536Y59045D01*
X46522Y61962D01*
X42101Y64215D01*
X37382Y65748D01*
X32481Y66524D01*
X27519D01*
X22618Y65748D01*
X17899Y64215D01*
X13478Y61962D01*
X9463Y59045D01*
X5955Y55536D01*
X3038Y51522D01*
X2300Y50073D01*
X0Y50626D01*
Y650000D01*
X600000D01*
Y5000D01*
D02*
G37*
%LPC*%
G36*
X51149Y640774D02*
X48851D01*
X46729Y639895D01*
X45105Y638271D01*
X44226Y636148D01*
Y633852D01*
X45105Y631729D01*
X46729Y630105D01*
X48851Y629226D01*
X51149D01*
X53271Y630105D01*
X54895Y631729D01*
X55774Y633852D01*
Y636148D01*
X54895Y638271D01*
X53271Y639895D01*
X51149Y640774D01*
D02*
G37*
G36*
X384524Y613024D02*
X370476D01*
Y598976D01*
X373397D01*
Y593024D01*
X370476D01*
Y590103D01*
X231000D01*
X229430Y589790D01*
X228099Y588901D01*
X188200Y549002D01*
X186254Y549524D01*
X183746D01*
X181324Y548875D01*
X179152Y547621D01*
X177379Y545848D01*
X176125Y543676D01*
X175476Y541254D01*
Y538746D01*
X176125Y536324D01*
X177379Y534152D01*
X179152Y532379D01*
X181324Y531125D01*
X183746Y530476D01*
X186254D01*
X188676Y531125D01*
X190848Y532379D01*
X192621Y534152D01*
X193875Y536324D01*
X194524Y538746D01*
Y541254D01*
X194002Y543200D01*
X232699Y581897D01*
X370476D01*
Y578976D01*
X384524D01*
Y593024D01*
X381603D01*
Y598976D01*
X384524D01*
Y613024D01*
D02*
G37*
G36*
X525749Y625974D02*
X523551D01*
X521521Y625133D01*
X519967Y623579D01*
X519820Y623225D01*
X471623Y575027D01*
X439159D01*
X438740Y575349D01*
X437153Y576006D01*
X435450Y576230D01*
X429295D01*
X428342Y578530D01*
X428683Y578871D01*
X429524Y580901D01*
Y583099D01*
X428683Y585129D01*
X427971Y585841D01*
Y588132D01*
X427659Y589702D01*
X426769Y591033D01*
X408901Y608901D01*
X407570Y609790D01*
X406000Y610103D01*
X401024D01*
Y613024D01*
X386976D01*
Y598976D01*
X401024D01*
Y601897D01*
X404301D01*
X419766Y586432D01*
Y585578D01*
X419317Y585129D01*
X418476Y583099D01*
Y580901D01*
X419317Y578871D01*
X419658Y578530D01*
X418705Y576230D01*
X399377D01*
Y578976D01*
X401024D01*
Y593024D01*
X386976D01*
Y578976D01*
X386976Y578976D01*
X386973Y578484D01*
X385000Y576580D01*
X383297Y576356D01*
X382993Y576230D01*
X253350D01*
X251647Y576006D01*
X250060Y575349D01*
X248697Y574303D01*
X200868Y526474D01*
X199396D01*
X196974Y525825D01*
X194802Y524571D01*
X193029Y522798D01*
X191775Y520626D01*
X191126Y518204D01*
Y515696D01*
X191775Y513274D01*
X193029Y511102D01*
X194802Y509329D01*
X196974Y508075D01*
X199396Y507426D01*
X201904D01*
X204326Y508075D01*
X206498Y509329D01*
X208271Y511102D01*
X209525Y513274D01*
X210174Y515696D01*
Y517168D01*
X256076Y563070D01*
X380897D01*
Y490000D01*
X381209Y488430D01*
X382099Y487099D01*
X412099Y457099D01*
X413430Y456209D01*
X415000Y455897D01*
X479976D01*
Y452976D01*
X494024D01*
Y455897D01*
X501000D01*
X502570Y456209D01*
X503901Y457099D01*
X538699Y491897D01*
X556277D01*
X556699Y491165D01*
X558165Y489699D01*
X559961Y488663D01*
X561963Y488126D01*
X564037D01*
X566039Y488663D01*
X567835Y489699D01*
X569301Y491165D01*
X570337Y492961D01*
X570874Y494963D01*
Y497037D01*
X570337Y499039D01*
X569301Y500835D01*
X567835Y502301D01*
X566039Y503337D01*
X564037Y503874D01*
X561963D01*
X559961Y503337D01*
X558165Y502301D01*
X556699Y500835D01*
X556277Y500103D01*
X537000D01*
X535430Y499790D01*
X534099Y498901D01*
X499301Y464103D01*
X495650D01*
X494024Y465729D01*
X494024Y466581D01*
X495040Y468460D01*
X495040Y468903D01*
Y475230D01*
X487000D01*
X478960D01*
Y468903D01*
X478960Y468460D01*
X479976Y466581D01*
X479976Y466403D01*
X479390Y464103D01*
X469338D01*
Y468126D01*
X469574D01*
Y486874D01*
X463675D01*
Y515428D01*
X463363Y516998D01*
X462473Y518329D01*
X457302Y523500D01*
X469401Y535599D01*
X470290Y536930D01*
X470603Y538500D01*
Y542976D01*
X473524D01*
Y545897D01*
X483000D01*
X484570Y546209D01*
X485901Y547099D01*
X489700Y550897D01*
X516291D01*
X516871Y550317D01*
X518901Y549476D01*
X521099D01*
X523129Y550317D01*
X524683Y551871D01*
X525524Y553901D01*
Y556099D01*
X524683Y558129D01*
X523129Y559683D01*
X521099Y560524D01*
X518901D01*
X516871Y559683D01*
X516291Y559103D01*
X488000D01*
X486430Y558791D01*
X485099Y557901D01*
X481301Y554103D01*
X473524D01*
Y557024D01*
X459476D01*
Y542976D01*
X462397D01*
Y540199D01*
X451500Y529302D01*
X425524Y555278D01*
Y556099D01*
X424683Y558129D01*
X423129Y559683D01*
X421099Y560524D01*
X418901D01*
X416871Y559683D01*
X415317Y558129D01*
X414476Y556099D01*
Y553901D01*
X415317Y551871D01*
X416871Y550317D01*
X418901Y549476D01*
X419722D01*
X445642Y523556D01*
X444689Y521256D01*
X444633D01*
X442603Y520415D01*
X441049Y518861D01*
X440799Y518256D01*
X438086Y517717D01*
X409103Y546699D01*
Y551291D01*
X409683Y551871D01*
X410524Y553901D01*
Y556099D01*
X409683Y558129D01*
X408129Y559683D01*
X406099Y560524D01*
X403901D01*
X401871Y559683D01*
X400317Y558129D01*
X399476Y556099D01*
Y553901D01*
X400317Y551871D01*
X400897Y551291D01*
Y545000D01*
X401209Y543430D01*
X402099Y542099D01*
X406549Y537649D01*
X406530Y537559D01*
X405421Y535524D01*
X403901D01*
X401871Y534683D01*
X400317Y533129D01*
X399476Y531099D01*
Y528901D01*
X400317Y526871D01*
X401871Y525317D01*
X403901Y524476D01*
X404722D01*
X435897Y493301D01*
Y486874D01*
X423426D01*
Y468126D01*
X462662D01*
Y464103D01*
X416699D01*
X389103Y491699D01*
Y563070D01*
X435450D01*
X437153Y563294D01*
X438740Y563951D01*
X439159Y564273D01*
X445897D01*
Y557024D01*
X442976D01*
Y542976D01*
X457024D01*
Y557024D01*
X454103D01*
Y564273D01*
X460306D01*
X460442Y564182D01*
X462500Y563773D01*
X464558Y564182D01*
X464693Y564273D01*
X473850D01*
X475908Y564682D01*
X477652Y565848D01*
X527425Y615620D01*
X527779Y615767D01*
X529333Y617321D01*
X530174Y619351D01*
Y621549D01*
X529333Y623579D01*
X527779Y625133D01*
X525749Y625974D01*
D02*
G37*
G36*
X66600Y585400D02*
X31600D01*
Y550400D01*
X66600D01*
Y585400D01*
D02*
G37*
G36*
X562481Y611524D02*
X557519D01*
X552618Y610748D01*
X547899Y609215D01*
X543478Y606962D01*
X539464Y604045D01*
X535955Y600536D01*
X533038Y596522D01*
X530786Y592101D01*
X529252Y587382D01*
X528476Y582481D01*
Y577519D01*
X529252Y572618D01*
X530786Y567899D01*
X533038Y563478D01*
X535955Y559464D01*
X539464Y555955D01*
X543478Y553038D01*
X547899Y550786D01*
X552618Y549252D01*
X557519Y548476D01*
X562481D01*
X567382Y549252D01*
X572101Y550786D01*
X576522Y553038D01*
X580536Y555955D01*
X584045Y559464D01*
X586962Y563478D01*
X589214Y567899D01*
X590748Y572618D01*
X591524Y577519D01*
Y582481D01*
X590748Y587382D01*
X589214Y592101D01*
X586962Y596522D01*
X584045Y600536D01*
X580536Y604045D01*
X576522Y606962D01*
X572101Y609215D01*
X567382Y610748D01*
X562481Y611524D01*
D02*
G37*
G36*
X590790Y534790D02*
X581270D01*
Y521270D01*
X590790D01*
Y534790D01*
D02*
G37*
G36*
X578730D02*
X569210D01*
Y521270D01*
X578730D01*
Y534790D01*
D02*
G37*
G36*
X590790Y518730D02*
X581270D01*
Y505210D01*
X590790D01*
Y518730D01*
D02*
G37*
G36*
X578730D02*
X569210D01*
Y505210D01*
X578730D01*
Y518730D01*
D02*
G37*
G36*
X495040Y484540D02*
X488270D01*
Y477770D01*
X495040D01*
Y484540D01*
D02*
G37*
G36*
X485730D02*
X478960D01*
Y477770D01*
X485730D01*
Y484540D01*
D02*
G37*
G36*
X545996Y472564D02*
X544004D01*
X542080Y472048D01*
X540356Y471053D01*
X538947Y469644D01*
X537952Y467920D01*
X537436Y465996D01*
Y464004D01*
X537952Y462080D01*
X538947Y460356D01*
X540356Y458947D01*
X542080Y457952D01*
X544004Y457436D01*
X545996D01*
X547920Y457952D01*
X549644Y458947D01*
X551053Y460356D01*
X552048Y462080D01*
X552564Y464004D01*
Y465996D01*
X552048Y467920D01*
X551053Y469644D01*
X549644Y471053D01*
X547920Y472048D01*
X545996Y472564D01*
D02*
G37*
G36*
X46604Y459144D02*
X44196D01*
X41871Y458521D01*
X39785Y457317D01*
X38083Y455615D01*
X36879Y453529D01*
X36256Y451204D01*
Y448796D01*
X36879Y446470D01*
X38083Y444385D01*
X39785Y442683D01*
X41871Y441479D01*
X44196Y440856D01*
X46604D01*
X48930Y441479D01*
X51015Y442683D01*
X52717Y444385D01*
X53921Y446470D01*
X54544Y448796D01*
Y451204D01*
X53921Y453529D01*
X52717Y455615D01*
X51015Y457317D01*
X48930Y458521D01*
X46604Y459144D01*
D02*
G37*
G36*
X29144D02*
X10856D01*
Y440856D01*
X29144D01*
Y459144D01*
D02*
G37*
G36*
X545996Y452564D02*
X544004D01*
X542080Y452048D01*
X540356Y451053D01*
X538947Y449644D01*
X537952Y447920D01*
X537436Y445996D01*
Y444004D01*
X537952Y442080D01*
X538947Y440356D01*
X540356Y438947D01*
X542080Y437952D01*
X544004Y437436D01*
X545996D01*
X547920Y437952D01*
X549644Y438947D01*
X551053Y440356D01*
X552048Y442080D01*
X552564Y444004D01*
Y445996D01*
X552048Y447920D01*
X551053Y449644D01*
X549644Y451053D01*
X547920Y452048D01*
X545996Y452564D01*
D02*
G37*
G36*
X478000Y451103D02*
X312000D01*
X310430Y450790D01*
X309099Y449901D01*
X293301Y434103D01*
X275603D01*
X275053Y434653D01*
X274544Y435043D01*
Y436204D01*
X273921Y438530D01*
X272717Y440615D01*
X271014Y442317D01*
X268930Y443521D01*
X266604Y444144D01*
X264196D01*
X261870Y443521D01*
X259785Y442317D01*
X258083Y440615D01*
X256879Y438530D01*
X256256Y436204D01*
Y433796D01*
X256879Y431470D01*
X258083Y429385D01*
X259785Y427683D01*
X261870Y426479D01*
X264196Y425856D01*
X265357D01*
X265747Y425347D01*
X285747Y405347D01*
X287110Y404301D01*
X288697Y403644D01*
X290400Y403420D01*
X362274D01*
X395920Y369774D01*
Y336851D01*
X395163Y335539D01*
X394626Y333537D01*
Y331463D01*
X395163Y329461D01*
X396199Y327665D01*
X397665Y326199D01*
X399461Y325163D01*
X401463Y324626D01*
X403537D01*
X405539Y325163D01*
X407335Y326199D01*
X408801Y327665D01*
X409520Y328912D01*
X478300D01*
X478317Y328871D01*
X479871Y327317D01*
X481901Y326476D01*
X484099D01*
X486129Y327317D01*
X487683Y328871D01*
X488524Y330901D01*
Y333099D01*
X487683Y335129D01*
X486129Y336683D01*
X484099Y337524D01*
X481901D01*
X479871Y336683D01*
X478776Y335588D01*
X409809D01*
X409080Y336851D01*
Y372500D01*
X408950Y373492D01*
X411062Y374632D01*
X424347Y361347D01*
X425710Y360301D01*
X427297Y359644D01*
X429000Y359420D01*
X491231D01*
X491813Y357361D01*
X491813Y357361D01*
X491813D01*
X491813Y357361D01*
Y343313D01*
X491920D01*
Y337361D01*
X491813D01*
Y323313D01*
X492757D01*
Y320663D01*
X492981Y318960D01*
X493638Y317373D01*
X494684Y316010D01*
X505347Y305347D01*
X506710Y304301D01*
X508297Y303644D01*
X510000Y303420D01*
X537436D01*
Y302436D01*
X552564D01*
Y317564D01*
X537436D01*
Y316580D01*
X512726D01*
X508279Y321027D01*
X509246Y323313D01*
X510227Y323313D01*
X522361D01*
Y326662D01*
X538193D01*
X538947Y325356D01*
X540356Y323947D01*
X542080Y322952D01*
X544004Y322436D01*
X545996D01*
X547920Y322952D01*
X549644Y323947D01*
X551053Y325356D01*
X552048Y327080D01*
X552564Y329004D01*
Y330996D01*
X552048Y332920D01*
X551053Y334644D01*
X549644Y336053D01*
X547920Y337048D01*
X545996Y337564D01*
X544004D01*
X542080Y337048D01*
X540356Y336053D01*
X538947Y334644D01*
X538193Y333338D01*
X522361D01*
Y337361D01*
X508313D01*
Y326901D01*
X506013Y325666D01*
X505917Y325729D01*
Y329837D01*
X505861Y330265D01*
Y337361D01*
X505080D01*
Y343313D01*
X505861D01*
Y357361D01*
X505080D01*
Y369500D01*
X504856Y371203D01*
X504580Y371869D01*
Y377274D01*
X544742Y417436D01*
X552564D01*
Y432564D01*
X544124D01*
X544000Y432580D01*
X543876Y432564D01*
X537436D01*
Y428742D01*
X493347Y384653D01*
X492301Y383290D01*
X491644Y381703D01*
X491420Y380000D01*
Y372580D01*
X459338D01*
X458641Y374880D01*
X458928Y375072D01*
X461428Y377572D01*
X462019Y378457D01*
X462226Y379500D01*
Y410726D01*
X469574D01*
Y429474D01*
X469338D01*
Y442897D01*
X476301D01*
X479976Y439222D01*
X479976Y431419D01*
X478960Y429540D01*
X478960Y429097D01*
Y422770D01*
X487000D01*
X495040D01*
Y429097D01*
X495040Y429540D01*
X496020Y431117D01*
X496633Y431429D01*
X497961Y430663D01*
X499963Y430126D01*
X502037D01*
X504039Y430663D01*
X505835Y431699D01*
X507301Y433165D01*
X508337Y434961D01*
X508874Y436963D01*
Y439037D01*
X508337Y441039D01*
X507301Y442835D01*
X505835Y444301D01*
X504039Y445337D01*
X502037Y445874D01*
X499963D01*
X497961Y445337D01*
X496324Y444392D01*
X496088Y444455D01*
X494024Y445024D01*
Y445024D01*
X485778D01*
X480901Y449901D01*
X479570Y450790D01*
X478000Y451103D01*
D02*
G37*
G36*
X249144Y444144D02*
X230856D01*
Y425856D01*
X249144D01*
Y444144D01*
D02*
G37*
G36*
X495040Y420230D02*
X488270D01*
Y413460D01*
X495040D01*
Y420230D01*
D02*
G37*
G36*
X485730D02*
X478960D01*
Y413460D01*
X485730D01*
Y420230D01*
D02*
G37*
G36*
X113040Y399540D02*
X106270D01*
Y392770D01*
X113040D01*
Y399540D01*
D02*
G37*
G36*
X103730D02*
X96960D01*
Y392770D01*
X103730D01*
Y399540D01*
D02*
G37*
G36*
X93040D02*
X86270D01*
Y392770D01*
X93040D01*
Y399540D01*
D02*
G37*
G36*
X83730D02*
X76960D01*
Y392770D01*
X83730D01*
Y399540D01*
D02*
G37*
G36*
X254040Y390540D02*
X247270D01*
Y383770D01*
X254040D01*
Y390540D01*
D02*
G37*
G36*
X244730D02*
X237960D01*
Y383770D01*
X244730D01*
Y390540D01*
D02*
G37*
G36*
X113040Y390230D02*
X105000D01*
X96960D01*
Y383903D01*
X96960Y383460D01*
X97976Y381581D01*
X97976Y381160D01*
Y378338D01*
X93650D01*
X92024Y379964D01*
X92024Y381581D01*
X93040Y383460D01*
X93040Y383903D01*
Y390230D01*
X85000D01*
X76960D01*
Y383903D01*
X76960Y383460D01*
X77976Y381581D01*
X77976Y381160D01*
Y378338D01*
X74474D01*
X73129Y379683D01*
X71099Y380524D01*
X68901D01*
X66871Y379683D01*
X65317Y378129D01*
X64476Y376099D01*
Y373901D01*
X65317Y371871D01*
X66871Y370317D01*
X68901Y369476D01*
X71099D01*
X73129Y370317D01*
X74474Y371662D01*
X77976D01*
Y367976D01*
X92024D01*
Y371662D01*
X97976D01*
Y367976D01*
X112024D01*
X112024Y381581D01*
X113040Y383460D01*
X113040Y383903D01*
Y390230D01*
D02*
G37*
G36*
X44144Y389544D02*
X25856D01*
Y371256D01*
X44144D01*
Y389544D01*
D02*
G37*
G36*
X254040Y381230D02*
X246000D01*
X237960D01*
Y374903D01*
X237960Y374460D01*
X238976Y372581D01*
X238976Y372160D01*
Y358976D01*
X237194Y357726D01*
X231129D01*
X216928Y371928D01*
X216043Y372519D01*
X215000Y372726D01*
X142515D01*
X141472Y372519D01*
X140587Y371928D01*
X140587Y371928D01*
X129386Y360726D01*
X116850D01*
X116683Y361129D01*
X115129Y362683D01*
X113099Y363524D01*
X110901D01*
X108871Y362683D01*
X107317Y361129D01*
X106476Y359099D01*
Y356901D01*
X107317Y354871D01*
X108871Y353317D01*
X110901Y352476D01*
X113099D01*
X115129Y353317D01*
X116683Y354871D01*
X116850Y355274D01*
X128691D01*
X129476Y354099D01*
Y351901D01*
X130317Y349871D01*
X131662Y348526D01*
Y343000D01*
X131916Y341723D01*
X132640Y340640D01*
X138140Y335140D01*
X139223Y334416D01*
X140500Y334162D01*
X156226D01*
Y327726D01*
X166662D01*
Y320000D01*
Y314474D01*
X165317Y313129D01*
X164476Y311099D01*
Y308901D01*
X165317Y306871D01*
X166871Y305317D01*
X168901Y304476D01*
X171099D01*
X173129Y305317D01*
X174683Y306871D01*
X175524Y308901D01*
Y311099D01*
X174683Y313129D01*
X173950Y313862D01*
X174816Y316162D01*
X182976D01*
Y312476D01*
X197024D01*
Y326524D01*
X185576D01*
X183774Y327726D01*
X183774Y328756D01*
Y347274D01*
X156226D01*
Y340838D01*
X141883D01*
X138338Y344383D01*
Y348526D01*
X139683Y349871D01*
X139755Y350045D01*
X142245D01*
X142317Y349871D01*
X143871Y348317D01*
X145901Y347476D01*
X148099D01*
X150129Y348317D01*
X151474Y349662D01*
X193117D01*
X207640Y335140D01*
X208722Y334416D01*
X210000Y334162D01*
X218726D01*
Y327726D01*
X216924Y326524D01*
X207976D01*
Y312476D01*
X222024D01*
Y316162D01*
X226739D01*
X227765Y314032D01*
X227737Y313862D01*
X226779Y313221D01*
X226055Y312139D01*
X225801Y310861D01*
X226055Y309584D01*
X226779Y308501D01*
X225747Y306517D01*
X225548Y306338D01*
X222024D01*
Y310024D01*
X207976D01*
Y306338D01*
X197024D01*
Y310024D01*
X182976D01*
Y295976D01*
X197024D01*
Y299662D01*
X207976D01*
Y295976D01*
X222024D01*
Y297280D01*
X222176Y297372D01*
X224179Y296527D01*
X224583Y296143D01*
X225317Y294371D01*
X226871Y292817D01*
X228901Y291976D01*
X231099D01*
X233129Y292817D01*
X234683Y294371D01*
X235524Y296401D01*
Y298599D01*
X234683Y300629D01*
X233136Y302176D01*
X233136Y302218D01*
X233597Y304467D01*
X233601Y304477D01*
X235629Y305317D01*
X237183Y306871D01*
X238024Y308901D01*
Y311099D01*
X237183Y313129D01*
X235838Y314474D01*
Y320000D01*
Y327726D01*
X246274D01*
Y347274D01*
X218726D01*
Y340838D01*
X211383D01*
X196860Y355360D01*
X195777Y356084D01*
X194500Y356338D01*
X151474D01*
X150129Y357683D01*
X148099Y358524D01*
X145901D01*
X143871Y357683D01*
X142317Y356129D01*
X142245Y355955D01*
X139755D01*
X139683Y356129D01*
X138129Y357683D01*
X137547Y357924D01*
X137008Y360637D01*
X143644Y367274D01*
X213871D01*
X228072Y353072D01*
X228957Y352481D01*
X230000Y352274D01*
X244871D01*
X247909Y349235D01*
X247909Y349235D01*
X248432Y348886D01*
X249236Y346943D01*
X250790Y345389D01*
X252821Y344548D01*
X255018D01*
X257048Y345389D01*
X258603Y346943D01*
X259443Y348973D01*
Y351171D01*
X258603Y353201D01*
X257048Y354755D01*
X255018Y355596D01*
X252821D01*
X250790Y354755D01*
X250445Y354410D01*
X248726Y356129D01*
Y358976D01*
X253024D01*
X253024Y372581D01*
X254040Y374460D01*
X254040Y374903D01*
Y381230D01*
D02*
G37*
G36*
X36204Y364144D02*
X33796D01*
X31470Y363521D01*
X29385Y362317D01*
X27683Y360615D01*
X26479Y358530D01*
X25856Y356204D01*
Y353796D01*
X26479Y351470D01*
X27683Y349385D01*
X29385Y347683D01*
X31470Y346479D01*
X33796Y345856D01*
X36204D01*
X38530Y346479D01*
X40615Y347683D01*
X42317Y349385D01*
X43521Y351470D01*
X44144Y353796D01*
Y356204D01*
X43521Y358530D01*
X42317Y360615D01*
X40615Y362317D01*
X38530Y363521D01*
X36204Y364144D01*
D02*
G37*
G36*
X523144Y375861D02*
X520947D01*
X518916Y375020D01*
X517362Y373466D01*
X516521Y371436D01*
Y370123D01*
X512773Y366374D01*
X511884Y365043D01*
X511571Y363473D01*
Y357361D01*
X508313D01*
Y343313D01*
X522361D01*
Y346066D01*
X538537D01*
X538947Y345356D01*
X540356Y343947D01*
X542080Y342952D01*
X544004Y342436D01*
X545996D01*
X547920Y342952D01*
X549644Y343947D01*
X551053Y345356D01*
X552048Y347080D01*
X552564Y349004D01*
Y350996D01*
X552048Y352920D01*
X551053Y354644D01*
X549644Y356053D01*
X547920Y357048D01*
X545996Y357564D01*
X544004D01*
X542080Y357048D01*
X540356Y356053D01*
X538947Y354644D01*
X538732Y354271D01*
X522361D01*
Y357361D01*
X519777D01*
Y361774D01*
X522816Y364813D01*
X523144D01*
X525174Y365654D01*
X526728Y367208D01*
X527569Y369238D01*
Y371436D01*
X526728Y373466D01*
X525174Y375020D01*
X523144Y375861D01*
D02*
G37*
G36*
X31204Y329144D02*
X28796D01*
X26470Y328521D01*
X24385Y327317D01*
X22683Y325615D01*
X21479Y323530D01*
X20856Y321204D01*
Y318796D01*
X21479Y316471D01*
X22683Y314386D01*
X24385Y312683D01*
X26470Y311479D01*
X28796Y310856D01*
X31204D01*
X33529Y311479D01*
X35615Y312683D01*
X37317Y314386D01*
X38521Y316471D01*
X39144Y318796D01*
Y321204D01*
X38521Y323530D01*
X37317Y325615D01*
X35615Y327317D01*
X33529Y328521D01*
X31204Y329144D01*
D02*
G37*
G36*
X64544D02*
X46256D01*
Y310856D01*
X64544D01*
Y314897D01*
X118037D01*
X122476Y310458D01*
Y309901D01*
X123317Y307871D01*
X124871Y306317D01*
X126901Y305476D01*
X129099D01*
X131129Y306317D01*
X132683Y307871D01*
X133524Y309901D01*
Y312099D01*
X132683Y314129D01*
X131129Y315683D01*
X129099Y316524D01*
X128015D01*
X122638Y321901D01*
X121307Y322790D01*
X119737Y323103D01*
X64544D01*
Y329144D01*
D02*
G37*
G36*
X222024Y282024D02*
X207976D01*
Y278338D01*
X197024D01*
Y282024D01*
X182976D01*
Y278338D01*
X179474D01*
X178129Y279683D01*
X176099Y280524D01*
X173901D01*
X171871Y279683D01*
X170317Y278129D01*
X169476Y276099D01*
Y273901D01*
X170317Y271871D01*
X171871Y270317D01*
X173901Y269476D01*
X176099D01*
X178129Y270317D01*
X179474Y271662D01*
X182976D01*
Y267976D01*
X197024D01*
Y271662D01*
X207976D01*
Y267976D01*
X222024D01*
Y270897D01*
X245800D01*
X255897Y260801D01*
Y248709D01*
X255317Y248129D01*
X254476Y246099D01*
Y243901D01*
X255317Y241871D01*
X255323Y241865D01*
Y236373D01*
X244477Y225526D01*
X243656D01*
X241626Y224685D01*
X240072Y223131D01*
X239231Y221101D01*
Y218903D01*
X240072Y216873D01*
X241626Y215319D01*
X243656Y214478D01*
X245854D01*
X247884Y215319D01*
X249438Y216873D01*
X250279Y218903D01*
Y219724D01*
X262327Y231772D01*
X263216Y233103D01*
X263529Y234673D01*
Y240717D01*
X264683Y241871D01*
X265524Y243901D01*
Y246099D01*
X264683Y248129D01*
X264103Y248709D01*
Y262500D01*
X263790Y264070D01*
X262901Y265401D01*
X250401Y277901D01*
X249070Y278790D01*
X247500Y279103D01*
X222024D01*
Y282024D01*
D02*
G37*
G36*
X395736Y290394D02*
X393936D01*
X392273Y289705D01*
X391001Y288433D01*
X390312Y286770D01*
Y285074D01*
X388616D01*
X386953Y284385D01*
X385680Y283112D01*
X384992Y281450D01*
Y279650D01*
X385680Y277987D01*
X386953Y276714D01*
X388616Y276026D01*
X390415D01*
X391594Y276514D01*
X395729Y272378D01*
X396614Y271787D01*
X397657Y271580D01*
X435059D01*
X436012Y269280D01*
X430399Y263667D01*
X440333Y253734D01*
X450266Y263667D01*
X443932Y270001D01*
X443982Y271832D01*
X446152Y272915D01*
X452000Y267067D01*
X461933Y277000D01*
X452000Y286933D01*
X444250Y279183D01*
X442303Y281130D01*
X441418Y281721D01*
X440375Y281929D01*
X434460D01*
X434177Y281872D01*
X400791D01*
X398872Y283792D01*
X399360Y284970D01*
Y286770D01*
X398671Y288433D01*
X397398Y289705D01*
X395736Y290394D01*
D02*
G37*
G36*
X116099Y255524D02*
X113901D01*
X111871Y254683D01*
X110317Y253129D01*
X109476Y251099D01*
Y248901D01*
X109643Y248498D01*
X88871Y227726D01*
X79850D01*
X79683Y228129D01*
X78129Y229683D01*
X76099Y230524D01*
X73901D01*
X71871Y229683D01*
X70317Y228129D01*
X69476Y226099D01*
Y223901D01*
X70317Y221871D01*
X71871Y220317D01*
X73901Y219476D01*
X76099D01*
X78129Y220317D01*
X79683Y221871D01*
X79850Y222274D01*
X90000D01*
X91043Y222481D01*
X91928Y223072D01*
X113498Y244643D01*
X113901Y244476D01*
X116099D01*
X118129Y245317D01*
X119683Y246871D01*
X120524Y248901D01*
Y251099D01*
X119683Y253129D01*
X118129Y254683D01*
X116099Y255524D01*
D02*
G37*
G36*
X222024Y265524D02*
X207976D01*
Y251476D01*
X211662D01*
Y239474D01*
X210317Y238129D01*
X209476Y236099D01*
Y233901D01*
X209999Y232638D01*
X208845Y230338D01*
X199383D01*
X195524Y234197D01*
Y236099D01*
X194683Y238129D01*
X193338Y239474D01*
Y251476D01*
X197024D01*
Y265524D01*
X182976D01*
Y251476D01*
X186662D01*
Y239474D01*
X185317Y238129D01*
X184476Y236099D01*
Y233901D01*
X185317Y231871D01*
X186871Y230317D01*
X188901Y229476D01*
X190803D01*
X195640Y224640D01*
X196723Y223916D01*
X198000Y223662D01*
X224500D01*
X225777Y223916D01*
X226860Y224640D01*
X239197Y236976D01*
X241099D01*
X243129Y237817D01*
X244683Y239371D01*
X245524Y241401D01*
Y243599D01*
X244683Y245629D01*
X243129Y247183D01*
X241099Y248024D01*
X238901D01*
X236871Y247183D01*
X235317Y245629D01*
X234476Y243599D01*
Y241697D01*
X223274Y230495D01*
X220970Y230707D01*
X220001Y232638D01*
X220524Y233901D01*
Y236099D01*
X219683Y238129D01*
X218338Y239474D01*
Y251476D01*
X222024D01*
Y265524D01*
D02*
G37*
G36*
X383678Y263858D02*
X381878D01*
X380215Y263169D01*
X378943Y261897D01*
X378254Y260234D01*
Y258434D01*
X378943Y256771D01*
X380215Y255499D01*
X381878Y254810D01*
X383396D01*
X402672Y235534D01*
Y233916D01*
X403360Y232253D01*
X404633Y230981D01*
X406296Y230292D01*
X408096D01*
X409758Y230981D01*
X411031Y232253D01*
X411720Y233916D01*
Y235716D01*
X411031Y237379D01*
X409758Y238651D01*
X408096Y239340D01*
X406577D01*
X387302Y258615D01*
Y260234D01*
X386613Y261897D01*
X385341Y263169D01*
X383678Y263858D01*
D02*
G37*
G36*
X306099Y250524D02*
X303901D01*
X301871Y249683D01*
X300317Y248129D01*
X299476Y246099D01*
Y243901D01*
X300317Y241871D01*
X301871Y240317D01*
X303901Y239476D01*
X306099D01*
X308129Y240317D01*
X308709Y240897D01*
X365708D01*
X384033Y222572D01*
Y221751D01*
X384874Y219721D01*
X386428Y218167D01*
X388458Y217326D01*
X390656D01*
X392686Y218167D01*
X394240Y219721D01*
X395081Y221751D01*
Y223949D01*
X394240Y225979D01*
X392686Y227533D01*
X390656Y228374D01*
X389835D01*
X370308Y247901D01*
X368977Y248790D01*
X367407Y249103D01*
X308709D01*
X308129Y249683D01*
X306099Y250524D01*
D02*
G37*
G36*
X325099Y226524D02*
X322901D01*
X320871Y225683D01*
X319317Y224129D01*
X318476Y222099D01*
Y219901D01*
X318643Y219499D01*
X308501Y209357D01*
X308099Y209524D01*
X305901D01*
X303871Y208683D01*
X302317Y207129D01*
X301476Y205099D01*
Y202901D01*
X302317Y200871D01*
X303871Y199317D01*
X305901Y198476D01*
X308099D01*
X310129Y199317D01*
X311683Y200871D01*
X312524Y202901D01*
Y205099D01*
X312357Y205501D01*
X322499Y215643D01*
X322901Y215476D01*
X325099D01*
X327129Y216317D01*
X328683Y217871D01*
X329524Y219901D01*
Y222099D01*
X328683Y224129D01*
X327129Y225683D01*
X325099Y226524D01*
D02*
G37*
G36*
X496099Y275524D02*
X493901D01*
X491871Y274683D01*
X490317Y273129D01*
X489476Y271099D01*
Y268901D01*
X490317Y266871D01*
X491871Y265317D01*
X493901Y264476D01*
X496099D01*
X498129Y265317D01*
X498933Y266121D01*
X499158D01*
X516631Y248648D01*
X517165Y246301D01*
X515699Y244835D01*
X514663Y243039D01*
X514126Y241037D01*
Y238963D01*
X514663Y236961D01*
X515699Y235165D01*
X517165Y233699D01*
X518961Y232663D01*
X519625Y232485D01*
X519783Y230061D01*
X518871Y229683D01*
X517317Y228129D01*
X516476Y226099D01*
Y223901D01*
X517317Y221871D01*
X518871Y220317D01*
X520901Y219476D01*
X523099D01*
X525129Y220317D01*
X526474Y221662D01*
X557526D01*
X558871Y220317D01*
X559702Y219973D01*
Y217483D01*
X559246Y217294D01*
X557692Y215740D01*
X557567Y215440D01*
X553611D01*
X553611Y215440D01*
X552529Y215224D01*
X551611Y214611D01*
X542828Y205828D01*
X518808D01*
X518683Y206129D01*
X517129Y207683D01*
X515099Y208524D01*
X512901D01*
X511227Y207831D01*
X509824Y208388D01*
X508927Y208992D01*
Y215716D01*
X509228Y215841D01*
X510782Y217395D01*
X511623Y219425D01*
Y221623D01*
X510782Y223653D01*
X509228Y225207D01*
X507198Y226048D01*
X505000D01*
X502970Y225207D01*
X502464Y224701D01*
X500688Y224032D01*
X499440Y224683D01*
X466195Y257927D01*
X473601Y265333D01*
X463667Y275266D01*
X453734Y265333D01*
X460068Y258999D01*
X460018Y257168D01*
X457848Y256085D01*
X452000Y261933D01*
X442067Y252000D01*
X452000Y242067D01*
X459750Y249817D01*
X479918Y229649D01*
X479414Y228341D01*
X478790Y227524D01*
X476901D01*
X474871Y226683D01*
X473317Y225129D01*
X472476Y223099D01*
Y220901D01*
X473317Y218871D01*
X474662Y217526D01*
Y190965D01*
X472392Y190892D01*
X472223Y191299D01*
X471703Y192555D01*
X470431Y193827D01*
X468768Y194516D01*
X466968D01*
X465305Y193827D01*
X465287Y193808D01*
X463912D01*
X445532Y212189D01*
Y212892D01*
X444843Y214555D01*
X443571Y215827D01*
X441908Y216516D01*
X440108D01*
X438445Y215827D01*
X437173Y214555D01*
X436484Y212892D01*
Y211092D01*
X437173Y209429D01*
X438445Y208157D01*
X440108Y207468D01*
X440811D01*
X460169Y188110D01*
X461252Y187386D01*
X462530Y187132D01*
X464330D01*
X465305Y186157D01*
X466968Y185468D01*
X468768D01*
X470431Y186157D01*
X471703Y187429D01*
X472054Y188277D01*
X473147Y188359D01*
X474395Y187919D01*
X474503Y186723D01*
X425803Y138024D01*
X423901D01*
X421871Y137183D01*
X420317Y135629D01*
X419476Y133599D01*
Y131401D01*
X420317Y129371D01*
X421871Y127817D01*
X423901Y126976D01*
X426099D01*
X428129Y127817D01*
X429683Y129371D01*
X430524Y131401D01*
Y133303D01*
X448351Y151130D01*
X448398Y151125D01*
X450563Y150090D01*
Y137998D01*
X449218Y136653D01*
X448377Y134623D01*
Y132425D01*
X449218Y130395D01*
X450772Y128841D01*
X452802Y128000D01*
X455000D01*
X457030Y128841D01*
X458584Y130395D01*
X459425Y132425D01*
Y134623D01*
X458584Y136653D01*
X457239Y137998D01*
Y149518D01*
X487677Y179957D01*
X488401Y181040D01*
X488655Y182317D01*
Y195305D01*
X490955Y195531D01*
X490967Y195471D01*
X491558Y194586D01*
X533854Y152291D01*
Y146751D01*
X533053Y145950D01*
X532575Y145631D01*
X530112Y143168D01*
X527325D01*
X526447Y142993D01*
X525704Y142496D01*
X525206Y141753D01*
X525032Y140875D01*
Y130225D01*
X525206Y129347D01*
X525704Y128604D01*
X526447Y128106D01*
X527325Y127932D01*
X531675D01*
X532552Y128106D01*
X532553Y128107D01*
X533296Y128604D01*
X535233Y127362D01*
X535551Y127149D01*
X536825Y126896D01*
X537730D01*
Y135550D01*
X540270D01*
Y126896D01*
X541175D01*
X542449Y127149D01*
X542767Y127362D01*
X544704Y128604D01*
X545447Y128107D01*
X545448Y128106D01*
X546325Y127932D01*
X550675D01*
X551553Y128106D01*
X552296Y128604D01*
X552794Y129347D01*
X552968Y130225D01*
Y134967D01*
X555268Y135920D01*
X555871Y135317D01*
X557901Y134476D01*
X560099D01*
X562129Y135317D01*
X563683Y136871D01*
X564524Y138901D01*
Y141099D01*
X563821Y142795D01*
X564333Y144365D01*
X564804Y145261D01*
X566214Y145634D01*
X567460Y144960D01*
X567903Y144960D01*
X574230D01*
Y153000D01*
Y161040D01*
X568828D01*
X567257Y163256D01*
X567524Y163901D01*
Y166099D01*
X566683Y168129D01*
X565129Y169683D01*
X563099Y170524D01*
X560901D01*
X558871Y169683D01*
X557317Y168129D01*
X557192Y167828D01*
X541172D01*
X513824Y195176D01*
X514777Y197476D01*
X515099D01*
X517129Y198317D01*
X518683Y199871D01*
X518808Y200172D01*
X544000D01*
X545082Y200387D01*
X546000Y201000D01*
X554783Y209783D01*
X557567D01*
X557692Y209482D01*
X559246Y207928D01*
X561276Y207087D01*
X563474D01*
X565504Y207928D01*
X567058Y209482D01*
X567899Y211513D01*
Y213710D01*
X567058Y215740D01*
X565504Y217294D01*
X564673Y217638D01*
Y220128D01*
X565129Y220317D01*
X566683Y221871D01*
X567524Y223901D01*
Y226099D01*
X566683Y228129D01*
X565129Y229683D01*
X563099Y230524D01*
X560901D01*
X558871Y229683D01*
X557526Y228338D01*
X526474D01*
X525129Y229683D01*
X524217Y230061D01*
X524375Y232485D01*
X525039Y232663D01*
X526835Y233699D01*
X528301Y235165D01*
X529337Y236961D01*
X529874Y238963D01*
Y241037D01*
X529337Y243039D01*
X528301Y244835D01*
X526835Y246301D01*
X525039Y247337D01*
X524636Y247446D01*
Y248702D01*
X524382Y249980D01*
X523658Y251063D01*
X502901Y271820D01*
X501818Y272543D01*
X500541Y272797D01*
X499820D01*
X499683Y273129D01*
X498129Y274683D01*
X496099Y275524D01*
D02*
G37*
G36*
X271099Y203024D02*
X268901D01*
X266871Y202183D01*
X265526Y200838D01*
X201974D01*
X200629Y202183D01*
X198599Y203024D01*
X196401D01*
X194371Y202183D01*
X192817Y200629D01*
X191976Y198599D01*
Y196401D01*
X192817Y194371D01*
X194371Y192817D01*
X196401Y191976D01*
X198599D01*
X200629Y192817D01*
X201974Y194162D01*
X265526D01*
X266871Y192817D01*
X268901Y191976D01*
X271099D01*
X273129Y192817D01*
X274683Y194371D01*
X275524Y196401D01*
Y198599D01*
X274683Y200629D01*
X273129Y202183D01*
X271099Y203024D01*
D02*
G37*
G36*
X583540Y161040D02*
X576770D01*
Y154270D01*
X583540D01*
Y161040D01*
D02*
G37*
G36*
Y151730D02*
X576770D01*
Y144960D01*
X583540D01*
Y151730D01*
D02*
G37*
G36*
X251099Y158732D02*
X248901D01*
X246871Y157891D01*
X245317Y156337D01*
X244476Y154307D01*
Y152109D01*
X245317Y150079D01*
X246871Y148525D01*
X248901Y147684D01*
X251099D01*
X253129Y148525D01*
X254683Y150079D01*
X254850Y150482D01*
X283093D01*
X292143Y141432D01*
X291976Y141029D01*
Y138831D01*
X292817Y136801D01*
X294371Y135247D01*
X296401Y134406D01*
X298599D01*
X300629Y135247D01*
X302183Y136801D01*
X303024Y138831D01*
Y141029D01*
X302183Y143059D01*
X300629Y144613D01*
X298599Y145454D01*
X296401D01*
X295998Y145287D01*
X286150Y155136D01*
X285265Y155727D01*
X284222Y155934D01*
X254850D01*
X254683Y156337D01*
X253129Y157891D01*
X251099Y158732D01*
D02*
G37*
G36*
X566650Y69774D02*
X564750D01*
X562996Y69047D01*
X561653Y67704D01*
X560926Y65950D01*
Y64050D01*
X561653Y62296D01*
X562996Y60953D01*
X564750Y60226D01*
X566650D01*
X568404Y60953D01*
X569747Y62296D01*
X570474Y64050D01*
Y65950D01*
X569747Y67704D01*
X568404Y69047D01*
X566650Y69774D01*
D02*
G37*
G36*
X580000Y82080D02*
X578297Y81856D01*
X576710Y81199D01*
X575347Y80153D01*
X574301Y78790D01*
X573644Y77203D01*
X573420Y75500D01*
Y64500D01*
X573644Y62797D01*
X574301Y61210D01*
X575347Y59847D01*
X576710Y58801D01*
X578297Y58144D01*
X580000Y57920D01*
X581703Y58144D01*
X583290Y58801D01*
X584653Y59847D01*
X585699Y61210D01*
X586356Y62797D01*
X586580Y64500D01*
Y75500D01*
X586356Y77203D01*
X585699Y78790D01*
X584653Y80153D01*
X583290Y81199D01*
X581703Y81856D01*
X580000Y82080D01*
D02*
G37*
G36*
X196062Y73064D02*
X193938D01*
X191887Y72515D01*
X190049Y71453D01*
X188547Y69951D01*
X187486Y68113D01*
X186936Y66062D01*
Y63938D01*
X187486Y61887D01*
X188547Y60049D01*
X190049Y58547D01*
X191887Y57485D01*
X193938Y56936D01*
X196062D01*
X198113Y57485D01*
X199951Y58547D01*
X201453Y60049D01*
X202514Y61887D01*
X203064Y63938D01*
Y66062D01*
X202514Y68113D01*
X201453Y69951D01*
X199951Y71453D01*
X198113Y72515D01*
X196062Y73064D01*
D02*
G37*
G36*
X176062D02*
X173938D01*
X171887Y72515D01*
X170049Y71453D01*
X168547Y69951D01*
X167486Y68113D01*
X166936Y66062D01*
Y63938D01*
X167486Y61887D01*
X168547Y60049D01*
X170049Y58547D01*
X171887Y57485D01*
X173938Y56936D01*
X176062D01*
X178113Y57485D01*
X179951Y58547D01*
X181453Y60049D01*
X182514Y61887D01*
X183064Y63938D01*
Y66062D01*
X182514Y68113D01*
X181453Y69951D01*
X179951Y71453D01*
X178113Y72515D01*
X176062Y73064D01*
D02*
G37*
G36*
X284790Y60790D02*
X271270D01*
Y51270D01*
X284790D01*
Y60790D01*
D02*
G37*
G36*
X268730D02*
X255210D01*
Y51270D01*
X268730D01*
Y60790D01*
D02*
G37*
G36*
X284790Y48730D02*
X271270D01*
Y39210D01*
X284790D01*
Y48730D01*
D02*
G37*
G36*
X268730D02*
X255210D01*
Y39210D01*
X268730D01*
Y48730D01*
D02*
G37*
G36*
X582500Y38803D02*
X577500D01*
X575930Y38491D01*
X574599Y37601D01*
X573709Y36270D01*
X573397Y34700D01*
Y21700D01*
X573709Y20130D01*
X574599Y18799D01*
X575930Y17909D01*
X577500Y17597D01*
X582500D01*
X584070Y17909D01*
X585401Y18799D01*
X586291Y20130D01*
X586603Y21700D01*
Y34700D01*
X586291Y36270D01*
X585401Y37601D01*
X584070Y38491D01*
X582500Y38803D01*
D02*
G37*
G36*
X496100D02*
X491100D01*
X489530Y38491D01*
X488199Y37601D01*
X487309Y36270D01*
X486997Y34700D01*
Y21700D01*
X487309Y20130D01*
X488199Y18799D01*
X489530Y17909D01*
X491100Y17597D01*
X496100D01*
X497670Y17909D01*
X499001Y18799D01*
X499891Y20130D01*
X500203Y21700D01*
Y34700D01*
X499891Y36270D01*
X499001Y37601D01*
X497670Y38491D01*
X496100Y38803D01*
D02*
G37*
%LPD*%
G36*
X430162Y430490D02*
X428270D01*
Y420100D01*
Y409710D01*
X431590D01*
Y410726D01*
X437274D01*
Y404000D01*
X437274Y404000D01*
Y395000D01*
X437481Y393957D01*
X438072Y393072D01*
X443643Y387501D01*
X443476Y387099D01*
Y384901D01*
X444095Y383407D01*
X443467Y381540D01*
X443049Y380886D01*
X442132Y380723D01*
X438357Y384498D01*
X438524Y384901D01*
Y387099D01*
X437683Y389129D01*
X436129Y390683D01*
X434099Y391524D01*
X431901D01*
X429871Y390683D01*
X428317Y389129D01*
X427476Y387099D01*
Y384901D01*
X428317Y382871D01*
X429871Y381317D01*
X431901Y380476D01*
X434099D01*
X434501Y380643D01*
X440072Y375072D01*
X440359Y374880D01*
X439662Y372580D01*
X431726D01*
X369144Y435162D01*
Y436204D01*
X368521Y438530D01*
X367317Y440615D01*
X368287Y442897D01*
X430162D01*
Y430490D01*
D02*
G37*
%LPC*%
G36*
X425730D02*
X422410D01*
Y421370D01*
X425730D01*
Y430490D01*
D02*
G37*
G36*
Y418830D02*
X422410D01*
Y409710D01*
X425730D01*
Y418830D01*
D02*
G37*
%LPD*%
D11*
X540000Y165000D02*
X562000D01*
X506099Y198901D02*
X540000Y165000D01*
X506099Y198901D02*
Y220524D01*
X514000Y203000D02*
X544000D01*
X553611Y212611D01*
X562375D01*
D79*
X246000Y382500D02*
D03*
Y366000D02*
D03*
X105000Y375000D02*
D03*
Y391500D02*
D03*
X190000Y319500D02*
D03*
Y303000D02*
D03*
X487000Y438000D02*
D03*
Y421500D02*
D03*
X190000Y258500D02*
D03*
Y275000D02*
D03*
X215000Y258500D02*
D03*
Y275000D02*
D03*
X487000Y476500D02*
D03*
Y460000D02*
D03*
X85000Y375000D02*
D03*
Y391500D02*
D03*
X215000Y319500D02*
D03*
Y303000D02*
D03*
D80*
X529500Y135550D02*
D03*
X539000D02*
D03*
X548500D02*
D03*
X529500Y110450D02*
D03*
X539000D02*
D03*
X548500D02*
D03*
D110*
X559000Y153000D02*
D03*
X575500D02*
D03*
X377500Y606000D02*
D03*
X394000D02*
D03*
Y586000D02*
D03*
X377500D02*
D03*
X515337Y330337D02*
D03*
X498837D02*
D03*
X515337Y350337D02*
D03*
X498837D02*
D03*
X450000Y550000D02*
D03*
X466500D02*
D03*
D122*
X485000Y52000D02*
X516071D01*
X519000Y54929D01*
Y95000D01*
X512483Y101517D02*
X519000Y95000D01*
X498921Y117518D02*
X500274D01*
X508301Y109490D02*
X509157D01*
X512483Y101517D02*
Y106164D01*
X500274Y117518D02*
X508301Y109490D01*
X472000Y65000D02*
X485000Y52000D01*
X509157Y109490D02*
X512483Y106164D01*
X539332Y350168D02*
X539500Y350000D01*
X515505Y350168D02*
X539332D01*
X305000Y245000D02*
X367407D01*
X389557Y222850D01*
X259426Y244426D02*
X260000Y245000D01*
X244755Y220002D02*
X259426Y234673D01*
X247500Y275000D02*
X260000Y262500D01*
Y245000D02*
Y262500D01*
X259426Y234673D02*
Y244426D01*
X127737Y311000D02*
X128000D01*
X59000Y319000D02*
X119737D01*
X127737Y311000D01*
X312000Y447000D02*
X433500D01*
X270400Y430000D02*
X295000D01*
X312000Y447000D01*
X466000D02*
X478000D01*
X433500D02*
X466000D01*
X478000D02*
X487000Y438000D01*
X215000Y275000D02*
X247500D01*
X515674Y363473D02*
X522045Y369845D01*
X515674Y350674D02*
Y363473D01*
X522045Y369845D02*
Y370337D01*
X487000Y438000D02*
X501000D01*
X515337Y350337D02*
X515505Y350168D01*
X537000Y496000D02*
X563000D01*
X455000Y65000D02*
X472000D01*
X501000Y460000D02*
X537000Y496000D01*
X487000Y460000D02*
X501000D01*
X466000D02*
X487000D01*
X483000Y550000D02*
X488000Y555000D01*
X520000D01*
X466500Y550000D02*
X483000D01*
X451500Y523500D02*
X466500Y538500D01*
X420000Y555000D02*
X451500Y523500D01*
X466500Y538500D02*
Y550000D01*
X451500Y523500D02*
X459572Y515428D01*
X450000Y550000D02*
Y569650D01*
X459572Y482850D02*
Y515428D01*
X452136Y510140D02*
X453048D01*
X446544Y515732D02*
X452136Y510140D01*
X445732Y515732D02*
X446544D01*
X453048Y477548D02*
Y510140D01*
X446524Y482850D02*
Y503476D01*
X405000Y545000D02*
X446524Y503476D01*
X405000Y545000D02*
Y555000D01*
X423868Y582132D02*
Y588132D01*
X415000Y460000D02*
X466000D01*
X385000Y490000D02*
X415000Y460000D01*
X385000Y490000D02*
Y569650D01*
X405000Y530000D02*
X440000Y495000D01*
X377500Y586000D02*
Y606000D01*
X231000Y586000D02*
X377500D01*
X185000Y540000D02*
X231000Y586000D01*
X406000Y606000D02*
X423868Y588132D01*
Y582132D02*
X424000Y582000D01*
X394000Y606000D02*
X406000D01*
X453000Y477500D02*
X453048Y477548D01*
X440000Y477500D02*
Y495000D01*
D123*
X529500Y95018D02*
Y110450D01*
Y95018D02*
X532976Y91542D01*
Y90000D02*
Y91542D01*
X548500Y71700D02*
Y110450D01*
X539650Y62850D02*
X548500Y71700D01*
X559000Y140000D02*
Y153000D01*
X284222Y153208D02*
X297500Y139930D01*
X112000Y358000D02*
X130515D01*
X142515Y370000D02*
X215000D01*
X130515Y358000D02*
X142515Y370000D01*
X249837Y351163D02*
X252829D01*
X246000Y355000D02*
X249837Y351163D01*
X215000Y370000D02*
X230000Y355000D01*
X246000D01*
Y366000D01*
X252829Y351163D02*
X253919Y350072D01*
X250000Y153208D02*
X284222D01*
X446250Y420350D02*
Y435750D01*
Y420350D02*
X446500Y420100D01*
X446000Y436000D02*
X446250Y435750D01*
X498326Y198519D02*
X541420Y155425D01*
X463330Y256938D02*
X498326Y221941D01*
X460740Y252683D02*
X493486Y219937D01*
X498326Y198519D02*
Y221941D01*
X493486Y196514D02*
X536580Y153420D01*
X493486Y196514D02*
Y219937D01*
X536580Y145621D02*
Y153420D01*
X541420Y145621D02*
Y155425D01*
X75000Y225000D02*
X90000D01*
X115000Y250000D01*
X382778Y259284D02*
Y259334D01*
Y259284D02*
X407196Y234866D01*
Y234816D02*
Y234866D01*
X324000Y221000D02*
X324000D01*
X307000Y204000D02*
X324000Y221000D01*
X392121Y279842D02*
X397657Y274306D01*
X390224Y279842D02*
X392121D01*
X389516Y280550D02*
X390224Y279842D01*
X395544Y283264D02*
Y285162D01*
X394836Y285870D02*
X395544Y285162D01*
Y283264D02*
X399662Y279146D01*
X434404D01*
X434460Y279202D01*
X440375D01*
X443260Y276317D01*
X445165D01*
X445848Y277000D01*
X436465Y274362D02*
X438370D01*
X440670Y272062D01*
X397657Y274306D02*
X436409D01*
X436465Y274362D01*
X445848Y277000D02*
X452000D01*
X440333Y263667D02*
Y269819D01*
X440670Y270157D02*
Y272062D01*
X440333Y269819D02*
X440670Y270157D01*
X463667Y259181D02*
Y265333D01*
X463330Y256938D02*
Y258843D01*
X452000Y252000D02*
X458152D01*
X458834Y252683D01*
X460740D01*
X463330Y258843D02*
X463667Y259181D01*
X541420Y145621D02*
X543339Y143703D01*
X543497D01*
X548500Y135550D02*
Y138700D01*
X543497Y143703D02*
X548500Y138700D01*
X529500Y135550D02*
Y138700D01*
X534503Y143703D01*
X534661D01*
X536580Y145621D01*
X170000Y320000D02*
X170500Y319500D01*
X449000Y401000D02*
Y402542D01*
X453000Y406542D01*
Y420100D01*
X440000Y395000D02*
X449000Y386000D01*
X442000Y377000D02*
X457000D01*
X459500Y379500D02*
Y420100D01*
X457000Y377000D02*
X459500Y379500D01*
X433000Y386000D02*
Y386000D01*
X433000D02*
X433000D01*
Y386000D02*
X442000Y377000D01*
X433000Y386000D02*
X433000Y386000D01*
X440000Y395000D02*
Y404000D01*
X440000Y404000D02*
X440000Y404000D01*
X440000Y404000D02*
Y420100D01*
D124*
X519000Y45000D02*
X525000Y51000D01*
X420710Y35710D02*
X431065Y25355D01*
X440355D01*
X460000Y45000D02*
X519000D01*
X440355Y25355D02*
X460000Y45000D01*
X525000Y51000D02*
Y67000D01*
X542000Y84000D02*
Y98000D01*
X525000Y67000D02*
X542000Y84000D01*
X539000Y101000D02*
Y110450D01*
Y101000D02*
X542000Y98000D01*
X522000Y225000D02*
X562000D01*
X402500Y332500D02*
X402750Y332250D01*
X482750D01*
X483000Y332000D01*
X495000Y270000D02*
X495541Y269459D01*
X521298Y240702D02*
Y248702D01*
Y240702D02*
X522000Y240000D01*
X495541Y269459D02*
X500541D01*
X521298Y248702D01*
X140500Y337500D02*
X170000D01*
X135000Y343000D02*
Y353000D01*
Y343000D02*
X140500Y337500D01*
X194500Y353000D02*
X210000Y337500D01*
X147000Y353000D02*
X194500D01*
X215000Y319500D02*
X217962Y316538D01*
X453901Y133524D02*
Y150901D01*
X485317Y182317D01*
X425000Y132500D02*
X478000Y185500D01*
Y222000D01*
X485317Y182317D02*
Y211871D01*
X433500Y420100D02*
Y447000D01*
X515337Y330337D02*
X515674Y330000D01*
X545000D01*
X441008Y211992D02*
X462530Y190470D01*
X467390D01*
X467868Y189992D01*
X210000Y337500D02*
X232500D01*
X85000Y375000D02*
X85000Y375000D01*
X70000Y375000D02*
X85000D01*
X85000Y375000D02*
X105000D01*
X170000Y320000D02*
Y337500D01*
Y310000D02*
Y320000D01*
X170500Y319500D02*
X190000D01*
X232500Y320000D02*
Y337500D01*
Y310000D02*
Y320000D01*
X215000Y319500D02*
X232000D01*
X232500Y320000D01*
X229139Y310861D02*
X231639D01*
X232500Y310000D01*
X215000Y303000D02*
X225750D01*
X190000D02*
X215000D01*
X229139Y298361D02*
X230000Y297500D01*
X229139Y298361D02*
Y299611D01*
X225750Y303000D02*
X229139Y299611D01*
X175000Y275000D02*
X190000D01*
X215000D01*
X224500Y227000D02*
X240000Y242500D01*
X198000Y227000D02*
X224500D01*
X190000Y235000D02*
X198000Y227000D01*
X190000Y235000D02*
Y258500D01*
X215000Y235000D02*
Y258500D01*
X197500Y197500D02*
X270000D01*
X466000Y460000D02*
Y477500D01*
Y420100D02*
Y447000D01*
D125*
X450000Y569650D02*
X462000D01*
X435450D02*
X450000D01*
X462000D02*
X473850D01*
X462000D02*
X462500Y569150D01*
X473850Y569650D02*
X524650Y620450D01*
X394000Y570650D02*
X395000Y569650D01*
X394000Y570650D02*
Y586000D01*
D126*
X498500Y330337D02*
Y366000D01*
X498000Y380000D02*
X544000Y426000D01*
X499337Y320663D02*
X510000Y310000D01*
X499337Y320663D02*
Y329837D01*
X510000Y310000D02*
X545000D01*
X498837Y330337D02*
X499337Y329837D01*
X290400Y410000D02*
X365000D01*
X402500Y372500D01*
Y332500D02*
Y372500D01*
X360000Y435000D02*
X429000Y366000D01*
X498500D02*
Y369500D01*
X60000Y60000D02*
X100000Y20000D01*
X405000D01*
X60000Y60000D02*
Y93376D01*
X70000Y103376D01*
Y105000D01*
X405000Y20000D02*
X420710Y35710D01*
Y65000D01*
X429000Y366000D02*
X498500D01*
X270400Y430000D02*
X290400Y410000D01*
X498000Y370000D02*
X498500Y369500D01*
X498000Y370000D02*
Y380000D01*
X385000Y569650D02*
Y570000D01*
X395000Y569650D02*
X435450D01*
X385000D02*
X395000D01*
X253350D02*
X385000D01*
X200650Y516950D02*
X253350Y569650D01*
D129*
X545000Y425000D02*
D03*
Y310000D02*
D03*
D130*
Y445000D02*
D03*
Y465000D02*
D03*
Y485000D02*
D03*
Y370000D02*
D03*
Y350000D02*
D03*
Y330000D02*
D03*
D131*
X30000Y35000D02*
D03*
X560000Y580000D02*
D03*
D132*
X100000Y65000D02*
D03*
D133*
X80000D02*
D03*
D134*
X155000D02*
D03*
D135*
X175000D02*
D03*
X195000D02*
D03*
D136*
X493600Y28200D02*
D03*
X580000D02*
D03*
D137*
X493600Y70000D02*
D03*
X580000D02*
D03*
D138*
X565700Y65000D02*
D03*
X507900D02*
D03*
D139*
X240000Y435000D02*
D03*
X334600D02*
D03*
X20000Y450000D02*
D03*
X55400Y320000D02*
D03*
D140*
X265400Y435000D02*
D03*
X360000D02*
D03*
X45400Y450000D02*
D03*
X30000Y320000D02*
D03*
X35000Y355000D02*
D03*
D141*
X420710Y65000D02*
D03*
X455000D02*
D03*
X35000Y380400D02*
D03*
D142*
X74600Y593400D02*
D03*
Y542400D02*
D03*
X23600D02*
D03*
Y593400D02*
D03*
D143*
X49100Y567900D02*
D03*
D144*
X269430Y253730D02*
D03*
X295000Y255000D02*
D03*
X560000Y30000D02*
D03*
X540000D02*
D03*
X515000D02*
D03*
X439856Y35143D02*
D03*
X532976Y90000D02*
D03*
X539650Y62850D02*
D03*
X559000Y140000D02*
D03*
X587000Y157000D02*
D03*
X562000Y165000D02*
D03*
X522000Y225000D02*
D03*
X562000D02*
D03*
X343000Y94000D02*
D03*
X297500Y139930D02*
D03*
X250000Y95000D02*
D03*
X483000Y332000D02*
D03*
X495000Y270000D02*
D03*
X305000Y245000D02*
D03*
X260000D02*
D03*
X355500Y557250D02*
D03*
X125000Y390000D02*
D03*
Y365000D02*
D03*
X135000Y353000D02*
D03*
X112000Y358000D02*
D03*
X70000Y615000D02*
D03*
X107000Y118000D02*
D03*
X87000Y117000D02*
D03*
X128000Y311000D02*
D03*
X185000Y440000D02*
D03*
X275000Y460000D02*
D03*
X225000D02*
D03*
X253919Y350072D02*
D03*
X222000Y402000D02*
D03*
X369000Y375000D02*
D03*
Y386000D02*
D03*
X269765Y353294D02*
D03*
X281765D02*
D03*
X315000Y460024D02*
D03*
X453901Y133524D02*
D03*
X425000Y132500D02*
D03*
X512318Y165354D02*
D03*
X244755Y220002D02*
D03*
X410000Y427000D02*
D03*
X390000D02*
D03*
X446000Y436000D02*
D03*
X241000Y264000D02*
D03*
X281570Y328270D02*
D03*
X310000Y277000D02*
D03*
X522045Y370337D02*
D03*
X256000Y327000D02*
D03*
X484994Y490770D02*
D03*
Y410770D02*
D03*
X295000Y460000D02*
D03*
X205000D02*
D03*
X185000D02*
D03*
X271000Y535000D02*
D03*
Y515000D02*
D03*
X165000Y440000D02*
D03*
X559000Y618000D02*
D03*
X579000D02*
D03*
X320000Y500000D02*
D03*
X340000D02*
D03*
X205000Y585000D02*
D03*
X185000D02*
D03*
X155000Y555000D02*
D03*
Y575000D02*
D03*
X95000Y485000D02*
D03*
X115000D02*
D03*
X109142Y549142D02*
D03*
X95000Y535000D02*
D03*
X110000Y590000D02*
D03*
X95858Y604142D02*
D03*
X30000Y615000D02*
D03*
X10000D02*
D03*
X50000D02*
D03*
X70000Y520000D02*
D03*
X50000D02*
D03*
X10000D02*
D03*
X30000D02*
D03*
X580000Y485000D02*
D03*
Y469730D02*
D03*
Y375000D02*
D03*
Y359730D02*
D03*
X15000Y199730D02*
D03*
Y215000D02*
D03*
X190000Y40000D02*
D03*
X174730D02*
D03*
X365000Y65000D02*
D03*
Y80270D02*
D03*
X334000Y175000D02*
D03*
X309000Y174000D02*
D03*
X504000Y90000D02*
D03*
X514000Y203000D02*
D03*
X506099Y220524D02*
D03*
X521935Y212497D02*
D03*
X559000Y200000D02*
D03*
X485317Y211871D02*
D03*
X562375Y212611D02*
D03*
X569000Y90000D02*
D03*
X75000Y225000D02*
D03*
X115000Y250000D02*
D03*
X200000Y100000D02*
D03*
X64767Y189016D02*
D03*
X126000Y177000D02*
D03*
Y193000D02*
D03*
X160020Y249428D02*
D03*
X103632Y215900D02*
D03*
X341027Y288027D02*
D03*
X349000Y297000D02*
D03*
X324000Y221000D02*
D03*
X307000Y204000D02*
D03*
X359799Y223243D02*
D03*
X389557Y222850D02*
D03*
X250000Y153208D02*
D03*
X478000Y222000D02*
D03*
X503270Y155730D02*
D03*
X71000Y363000D02*
D03*
X125000Y377500D02*
D03*
X181000Y377000D02*
D03*
X147000Y353000D02*
D03*
X70000Y375000D02*
D03*
X366000Y283000D02*
D03*
X395000Y307574D02*
D03*
X147712Y318787D02*
D03*
X170000Y310000D02*
D03*
X232500D02*
D03*
X230000Y297500D02*
D03*
X449000Y401000D02*
D03*
Y386000D02*
D03*
X433000D02*
D03*
X86000Y215000D02*
D03*
X242500Y167500D02*
D03*
X175000Y275000D02*
D03*
X240000Y242500D02*
D03*
X232500Y250000D02*
D03*
X190000Y235000D02*
D03*
X215000D02*
D03*
X520000Y555000D02*
D03*
X493000Y101000D02*
D03*
Y90000D02*
D03*
X581000Y101000D02*
D03*
X280000Y210000D02*
D03*
X270000Y197500D02*
D03*
X197500D02*
D03*
X361973Y170027D02*
D03*
X175000Y225000D02*
D03*
X581000Y90000D02*
D03*
X420000Y555000D02*
D03*
X445732Y515732D02*
D03*
X424000Y582000D02*
D03*
X435450Y569650D02*
D03*
X405000Y555000D02*
D03*
Y530000D02*
D03*
X436650Y620450D02*
D03*
X524650Y620450D02*
D03*
X447500Y300000D02*
D03*
X440000Y307500D02*
D03*
X358973Y274027D02*
D03*
X481000Y276000D02*
D03*
D145*
X451000Y173500D02*
D03*
X493000Y149000D02*
D03*
X486000Y142000D02*
D03*
X96500Y277500D02*
D03*
X96750Y252500D02*
D03*
X96500Y265000D02*
D03*
Y271250D02*
D03*
Y258750D02*
D03*
X104400Y185100D02*
D03*
X114400D02*
D03*
X467868Y189992D02*
D03*
X382778Y259334D02*
D03*
X389516Y280550D02*
D03*
X394836Y285870D02*
D03*
X407196Y234816D02*
D03*
X441008Y211992D02*
D03*
X430500Y229500D02*
D03*
X415500Y214500D02*
D03*
Y229500D02*
D03*
X422769Y222071D02*
D03*
X430500Y214750D02*
D03*
X408000Y222000D02*
D03*
X423000Y207000D02*
D03*
Y237000D02*
D03*
X438000Y222000D02*
D03*
D146*
X522000Y240000D02*
D03*
X501000Y438000D02*
D03*
X563000Y496000D02*
D03*
X402500Y332500D02*
D03*
D147*
X498921Y117518D02*
D03*
D148*
X70000Y105000D02*
D03*
X185000Y540000D02*
D03*
X200650Y516950D02*
D03*
D149*
X270000Y50000D02*
D03*
X232500Y337500D02*
D03*
X170000D02*
D03*
D150*
X580000Y520000D02*
D03*
D151*
X466000Y420100D02*
D03*
X459500D02*
D03*
X453000D02*
D03*
X446500D02*
D03*
X440000D02*
D03*
X433500D02*
D03*
X427000D02*
D03*
Y477500D02*
D03*
X433500D02*
D03*
X440000D02*
D03*
X446500D02*
D03*
X453000D02*
D03*
X459500D02*
D03*
X466000D02*
D03*
D152*
X452000Y252000D02*
D03*
X440333Y263667D02*
D03*
X463667Y265333D02*
D03*
X452000Y277000D02*
D03*
M02*
