G04*
G04 #@! TF.GenerationSoftware,Altium Limited,Altium Designer,24.2.2 (26)*
G04*
G04 Layer_Color=8388736*
%FSLAX44Y44*%
%MOMM*%
G71*
G04*
G04 #@! TF.SameCoordinates,57E06D6A-15B4-4B42-AE12-48CE37104189*
G04*
G04*
G04 #@! TF.FilePolarity,Negative*
G04*
G01*
G75*
%ADD22R,1.3032X1.3032*%
G04:AMPARAMS|DCode=23|XSize=1.4132mm|YSize=0.7832mm|CornerRadius=0.1741mm|HoleSize=0mm|Usage=FLASHONLY|Rotation=270.000|XOffset=0mm|YOffset=0mm|HoleType=Round|Shape=RoundedRectangle|*
%AMROUNDEDRECTD23*
21,1,1.4132,0.4350,0,0,270.0*
21,1,1.0650,0.7832,0,0,270.0*
1,1,0.3482,-0.2175,-0.5325*
1,1,0.3482,-0.2175,0.5325*
1,1,0.3482,0.2175,0.5325*
1,1,0.3482,0.2175,-0.5325*
%
%ADD23ROUNDEDRECTD23*%
G04:AMPARAMS|DCode=24|XSize=1.8532mm|YSize=0.4532mm|CornerRadius=0mm|HoleSize=0mm|Usage=FLASHONLY|Rotation=45.000|XOffset=0mm|YOffset=0mm|HoleType=Round|Shape=Rectangle|*
%AMROTATEDRECTD24*
4,1,4,-0.4950,-0.8154,-0.8154,-0.4950,0.4950,0.8154,0.8154,0.4950,-0.4950,-0.8154,0.0*
%
%ADD24ROTATEDRECTD24*%

G04:AMPARAMS|DCode=25|XSize=1.1032mm|YSize=0.5032mm|CornerRadius=0mm|HoleSize=0mm|Usage=FLASHONLY|Rotation=315.000|XOffset=0mm|YOffset=0mm|HoleType=Round|Shape=Rectangle|*
%AMROTATEDRECTD25*
4,1,4,-0.5679,0.2121,-0.2121,0.5679,0.5679,-0.2121,0.2121,-0.5679,-0.5679,0.2121,0.0*
%
%ADD25ROTATEDRECTD25*%

%ADD26R,2.6032X0.9532*%
G04:AMPARAMS|DCode=27|XSize=0.6mm|YSize=3.1mm|CornerRadius=0.08mm|HoleSize=0mm|Usage=FLASHONLY|Rotation=180.000|XOffset=0mm|YOffset=0mm|HoleType=Round|Shape=RoundedRectangle|*
%AMROUNDEDRECTD27*
21,1,0.6000,2.9400,0,0,180.0*
21,1,0.4400,3.1000,0,0,180.0*
1,1,0.1600,-0.2200,1.4700*
1,1,0.1600,0.2200,1.4700*
1,1,0.1600,0.2200,-1.4700*
1,1,0.1600,-0.2200,-1.4700*
%
%ADD27ROUNDEDRECTD27*%
G04:AMPARAMS|DCode=28|XSize=1.3232mm|YSize=0.4732mm|CornerRadius=0.1354mm|HoleSize=0mm|Usage=FLASHONLY|Rotation=0.000|XOffset=0mm|YOffset=0mm|HoleType=Round|Shape=RoundedRectangle|*
%AMROUNDEDRECTD28*
21,1,1.3232,0.2025,0,0,0.0*
21,1,1.0525,0.4732,0,0,0.0*
1,1,0.2707,0.5263,-0.1013*
1,1,0.2707,-0.5263,-0.1013*
1,1,0.2707,-0.5263,0.1013*
1,1,0.2707,0.5263,0.1013*
%
%ADD28ROUNDEDRECTD28*%
%ADD29R,1.8032X1.6032*%
G04:AMPARAMS|DCode=30|XSize=1mm|YSize=1.7mm|CornerRadius=0.104mm|HoleSize=0mm|Usage=FLASHONLY|Rotation=90.000|XOffset=0mm|YOffset=0mm|HoleType=Round|Shape=RoundedRectangle|*
%AMROUNDEDRECTD30*
21,1,1.0000,1.4920,0,0,90.0*
21,1,0.7920,1.7000,0,0,90.0*
1,1,0.2080,0.7460,0.3960*
1,1,0.2080,0.7460,-0.3960*
1,1,0.2080,-0.7460,-0.3960*
1,1,0.2080,-0.7460,0.3960*
%
%ADD30ROUNDEDRECTD30*%
G04:AMPARAMS|DCode=31|XSize=0.6mm|YSize=0.35mm|CornerRadius=0.1mm|HoleSize=0mm|Usage=FLASHONLY|Rotation=90.000|XOffset=0mm|YOffset=0mm|HoleType=Round|Shape=RoundedRectangle|*
%AMROUNDEDRECTD31*
21,1,0.6000,0.1500,0,0,90.0*
21,1,0.4000,0.3500,0,0,90.0*
1,1,0.2000,0.0750,0.2000*
1,1,0.2000,0.0750,-0.2000*
1,1,0.2000,-0.0750,-0.2000*
1,1,0.2000,-0.0750,0.2000*
%
%ADD31ROUNDEDRECTD31*%
%ADD32R,1.8542X0.6350*%
G04:AMPARAMS|DCode=33|XSize=0.6032mm|YSize=2.1032mm|CornerRadius=0mm|HoleSize=0mm|Usage=FLASHONLY|Rotation=225.000|XOffset=0mm|YOffset=0mm|HoleType=Round|Shape=Rectangle|*
%AMROTATEDRECTD33*
4,1,4,-0.5303,0.9569,0.9569,-0.5303,0.5303,-0.9569,-0.9569,0.5303,-0.5303,0.9569,0.0*
%
%ADD33ROTATEDRECTD33*%

%ADD34C,0.4332*%
%ADD35P,4.6714X4X90.0*%
G04:AMPARAMS|DCode=36|XSize=1.0432mm|YSize=0.4032mm|CornerRadius=0.1266mm|HoleSize=0mm|Usage=FLASHONLY|Rotation=45.000|XOffset=0mm|YOffset=0mm|HoleType=Round|Shape=RoundedRectangle|*
%AMROUNDEDRECTD36*
21,1,1.0432,0.1500,0,0,45.0*
21,1,0.7900,0.4032,0,0,45.0*
1,1,0.2532,0.3323,0.2263*
1,1,0.2532,-0.2263,-0.3323*
1,1,0.2532,-0.3323,-0.2263*
1,1,0.2532,0.2263,0.3323*
%
%ADD36ROUNDEDRECTD36*%
G04:AMPARAMS|DCode=37|XSize=0.4032mm|YSize=1.0432mm|CornerRadius=0.1266mm|HoleSize=0mm|Usage=FLASHONLY|Rotation=45.000|XOffset=0mm|YOffset=0mm|HoleType=Round|Shape=RoundedRectangle|*
%AMROUNDEDRECTD37*
21,1,0.4032,0.7900,0,0,45.0*
21,1,0.1500,1.0432,0,0,45.0*
1,1,0.2532,0.3323,-0.2263*
1,1,0.2532,0.2263,-0.3323*
1,1,0.2532,-0.3323,0.2263*
1,1,0.2532,-0.2263,0.3323*
%
%ADD37ROUNDEDRECTD37*%
%ADD38R,0.8032X1.3532*%
%ADD39R,0.5032X1.3532*%
%ADD40R,1.6032X1.8032*%
%ADD41R,2.3622X1.4478*%
%ADD42R,0.4064X0.8128*%
G04:AMPARAMS|DCode=43|XSize=1.1132mm|YSize=1.2732mm|CornerRadius=0.3291mm|HoleSize=0mm|Usage=FLASHONLY|Rotation=0.000|XOffset=0mm|YOffset=0mm|HoleType=Round|Shape=RoundedRectangle|*
%AMROUNDEDRECTD43*
21,1,1.1132,0.6150,0,0,0.0*
21,1,0.4550,1.2732,0,0,0.0*
1,1,0.6582,0.2275,-0.3075*
1,1,0.6582,-0.2275,-0.3075*
1,1,0.6582,-0.2275,0.3075*
1,1,0.6582,0.2275,0.3075*
%
%ADD43ROUNDEDRECTD43*%
%ADD44R,3.4000X0.9800*%
%ADD45R,1.1732X1.2032*%
%ADD46R,2.0032X1.2032*%
%ADD47R,1.1176X1.1176*%
%ADD48R,1.4732X1.1176*%
%ADD49O,1.2192X2.2352*%
%ADD50O,2.2352X1.2192*%
%ADD51R,1.3032X1.3032*%
G04:AMPARAMS|DCode=52|XSize=1.3032mm|YSize=1.3032mm|CornerRadius=0.3766mm|HoleSize=0mm|Usage=FLASHONLY|Rotation=0.000|XOffset=0mm|YOffset=0mm|HoleType=Round|Shape=RoundedRectangle|*
%AMROUNDEDRECTD52*
21,1,1.3032,0.5500,0,0,0.0*
21,1,0.5500,1.3032,0,0,0.0*
1,1,0.7532,0.2750,-0.2750*
1,1,0.7532,-0.2750,-0.2750*
1,1,0.7532,-0.2750,0.2750*
1,1,0.7532,0.2750,0.2750*
%
%ADD52ROUNDEDRECTD52*%
G04:AMPARAMS|DCode=53|XSize=1.3032mm|YSize=1.3032mm|CornerRadius=0.3766mm|HoleSize=0mm|Usage=FLASHONLY|Rotation=90.000|XOffset=0mm|YOffset=0mm|HoleType=Round|Shape=RoundedRectangle|*
%AMROUNDEDRECTD53*
21,1,1.3032,0.5500,0,0,90.0*
21,1,0.5500,1.3032,0,0,90.0*
1,1,0.7532,0.2750,0.2750*
1,1,0.7532,0.2750,-0.2750*
1,1,0.7532,-0.2750,-0.2750*
1,1,0.7532,-0.2750,0.2750*
%
%ADD53ROUNDEDRECTD53*%
%ADD54R,1.2032X0.7532*%
%ADD55R,1.1176X1.1176*%
%ADD56R,1.1176X1.4732*%
%ADD57P,1.8430X4X270.0*%
G04:AMPARAMS|DCode=58|XSize=0.7112mm|YSize=0.8128mm|CornerRadius=0mm|HoleSize=0mm|Usage=FLASHONLY|Rotation=135.000|XOffset=0mm|YOffset=0mm|HoleType=Round|Shape=Rectangle|*
%AMROTATEDRECTD58*
4,1,4,0.5388,0.0359,-0.0359,-0.5388,-0.5388,-0.0359,0.0359,0.5388,0.5388,0.0359,0.0*
%
%ADD58ROTATEDRECTD58*%

%ADD59R,0.8128X0.7112*%
%ADD60R,0.7112X0.8128*%
G04:AMPARAMS|DCode=61|XSize=0.7112mm|YSize=0.8128mm|CornerRadius=0mm|HoleSize=0mm|Usage=FLASHONLY|Rotation=45.000|XOffset=0mm|YOffset=0mm|HoleType=Round|Shape=Rectangle|*
%AMROTATEDRECTD61*
4,1,4,0.0359,-0.5388,-0.5388,0.0359,-0.0359,0.5388,0.5388,-0.0359,0.0359,-0.5388,0.0*
%
%ADD61ROTATEDRECTD61*%

G04:AMPARAMS|DCode=62|XSize=1.0032mm|YSize=1.9032mm|CornerRadius=0.2016mm|HoleSize=0mm|Usage=FLASHONLY|Rotation=0.000|XOffset=0mm|YOffset=0mm|HoleType=Round|Shape=RoundedRectangle|*
%AMROUNDEDRECTD62*
21,1,1.0032,1.5000,0,0,0.0*
21,1,0.6000,1.9032,0,0,0.0*
1,1,0.4032,0.3000,-0.7500*
1,1,0.4032,-0.3000,-0.7500*
1,1,0.4032,-0.3000,0.7500*
1,1,0.4032,0.3000,0.7500*
%
%ADD62ROUNDEDRECTD62*%
%ADD63R,1.4112X1.4112*%
%ADD64C,1.4112*%
%ADD65C,6.2032*%
%ADD66C,1.4032*%
%ADD67R,1.4032X1.4032*%
%ADD68R,1.5112X1.5112*%
%ADD69C,1.5112*%
G04:AMPARAMS|DCode=70|XSize=2.0032mm|YSize=1.2032mm|CornerRadius=0.3516mm|HoleSize=0mm|Usage=FLASHONLY|Rotation=90.000|XOffset=0mm|YOffset=0mm|HoleType=Round|Shape=RoundedRectangle|*
%AMROUNDEDRECTD70*
21,1,2.0032,0.5000,0,0,90.0*
21,1,1.3000,1.2032,0,0,90.0*
1,1,0.7032,0.2500,0.6500*
1,1,0.7032,0.2500,-0.6500*
1,1,0.7032,-0.2500,-0.6500*
1,1,0.7032,-0.2500,0.6500*
%
%ADD70ROUNDEDRECTD70*%
%ADD71O,1.2032X2.3032*%
%ADD72C,0.8532*%
%ADD73R,1.7272X1.7272*%
%ADD74C,1.7272*%
%ADD75R,1.7272X1.7272*%
%ADD76C,2.6032*%
%ADD77R,2.7032X2.7032*%
%ADD78C,0.2032*%
G36*
X83370Y253060D02*
X83310D01*
X83250Y253080D01*
X83190Y253090D01*
X83130Y253110D01*
X83070Y253130D01*
X83010Y253150D01*
X82960Y253180D01*
X82900Y253210D01*
X82850Y253240D01*
X82790Y253280D01*
X82740Y253320D01*
X82700Y253360D01*
X82650Y253400D01*
X82610Y253450D01*
X82570Y253490D01*
X82530Y253540D01*
X82490Y253600D01*
X82460Y253650D01*
X82430Y253710D01*
X82400Y253760D01*
X82380Y253820D01*
X82360Y253880D01*
X82340Y253940D01*
X82330Y254000D01*
X82310Y254060D01*
Y254120D01*
X82300Y254190D01*
Y254250D01*
Y255750D01*
Y255810D01*
X82310Y255880D01*
Y255940D01*
X82330Y256000D01*
X82340Y256060D01*
X82360Y256120D01*
X82380Y256180D01*
X82400Y256240D01*
X82430Y256290D01*
X82460Y256350D01*
X82490Y256400D01*
X82530Y256460D01*
X82570Y256510D01*
X82610Y256550D01*
X82650Y256600D01*
X82700Y256640D01*
X82740Y256680D01*
X82790Y256720D01*
X82850Y256760D01*
X82900Y256790D01*
X82960Y256820D01*
X83010Y256850D01*
X83070Y256870D01*
X83130Y256890D01*
X83190Y256910D01*
X83250Y256920D01*
X83310Y256940D01*
X83370D01*
X83440Y256950D01*
X91560D01*
X91630Y256940D01*
X91690D01*
X91750Y256920D01*
X91810Y256910D01*
X91870Y256890D01*
X91930Y256870D01*
X91990Y256850D01*
X92040Y256820D01*
X92100Y256790D01*
X92150Y256760D01*
X92210Y256720D01*
X92260Y256680D01*
X92300Y256640D01*
X92350Y256600D01*
X92390Y256550D01*
X92430Y256510D01*
X92470Y256460D01*
X92510Y256400D01*
X92540Y256350D01*
X92570Y256290D01*
X92600Y256240D01*
X92620Y256180D01*
X92640Y256120D01*
X92660Y256060D01*
X92670Y256000D01*
X92690Y255940D01*
Y255880D01*
X92700Y255810D01*
Y255750D01*
Y254250D01*
Y254190D01*
X92690Y254120D01*
Y254060D01*
X92670Y254000D01*
X92660Y253940D01*
X92640Y253880D01*
X92620Y253820D01*
X92600Y253760D01*
X92570Y253710D01*
X92540Y253650D01*
X92510Y253600D01*
X92470Y253540D01*
X92430Y253490D01*
X92390Y253450D01*
X92350Y253400D01*
X92300Y253360D01*
X92260Y253320D01*
X92210Y253280D01*
X92150Y253240D01*
X92100Y253210D01*
X92040Y253180D01*
X91990Y253150D01*
X91930Y253130D01*
X91870Y253110D01*
X91810Y253090D01*
X91750Y253080D01*
X91690Y253060D01*
X91630D01*
X91560Y253050D01*
X83440D01*
X83370Y253060D01*
D02*
G37*
G36*
Y258060D02*
X83310D01*
X83250Y258080D01*
X83190Y258090D01*
X83130Y258110D01*
X83070Y258130D01*
X83010Y258150D01*
X82960Y258180D01*
X82900Y258210D01*
X82850Y258240D01*
X82790Y258280D01*
X82740Y258320D01*
X82700Y258360D01*
X82650Y258400D01*
X82610Y258450D01*
X82570Y258490D01*
X82530Y258540D01*
X82490Y258600D01*
X82460Y258650D01*
X82430Y258710D01*
X82400Y258760D01*
X82380Y258820D01*
X82360Y258880D01*
X82340Y258940D01*
X82330Y259000D01*
X82310Y259060D01*
Y259120D01*
X82300Y259190D01*
Y259250D01*
Y260750D01*
Y260810D01*
X82310Y260880D01*
Y260940D01*
X82330Y261000D01*
X82340Y261060D01*
X82360Y261120D01*
X82380Y261180D01*
X82400Y261240D01*
X82430Y261290D01*
X82460Y261350D01*
X82490Y261400D01*
X82530Y261460D01*
X82570Y261510D01*
X82610Y261550D01*
X82650Y261600D01*
X82700Y261640D01*
X82740Y261680D01*
X82790Y261720D01*
X82850Y261760D01*
X82900Y261790D01*
X82960Y261820D01*
X83010Y261850D01*
X83070Y261870D01*
X83130Y261890D01*
X83190Y261910D01*
X83250Y261920D01*
X83310Y261940D01*
X83370D01*
X83440Y261950D01*
X91560D01*
X91630Y261940D01*
X91690D01*
X91750Y261920D01*
X91810Y261910D01*
X91870Y261890D01*
X91930Y261870D01*
X91990Y261850D01*
X92040Y261820D01*
X92100Y261790D01*
X92150Y261760D01*
X92210Y261720D01*
X92260Y261680D01*
X92300Y261640D01*
X92350Y261600D01*
X92390Y261550D01*
X92430Y261510D01*
X92470Y261460D01*
X92510Y261400D01*
X92540Y261350D01*
X92570Y261290D01*
X92600Y261240D01*
X92620Y261180D01*
X92640Y261120D01*
X92660Y261060D01*
X92670Y261000D01*
X92690Y260940D01*
Y260880D01*
X92700Y260810D01*
Y260750D01*
Y259250D01*
Y259190D01*
X92690Y259120D01*
Y259060D01*
X92670Y259000D01*
X92660Y258940D01*
X92640Y258880D01*
X92620Y258820D01*
X92600Y258760D01*
X92570Y258710D01*
X92540Y258650D01*
X92510Y258600D01*
X92470Y258540D01*
X92430Y258490D01*
X92390Y258450D01*
X92350Y258400D01*
X92300Y258360D01*
X92260Y258320D01*
X92210Y258280D01*
X92150Y258240D01*
X92100Y258210D01*
X92040Y258180D01*
X91990Y258150D01*
X91930Y258130D01*
X91870Y258110D01*
X91810Y258090D01*
X91750Y258080D01*
X91690Y258060D01*
X91630D01*
X91560Y258050D01*
X83440D01*
X83370Y258060D01*
D02*
G37*
G36*
Y268060D02*
X83310D01*
X83250Y268080D01*
X83190Y268090D01*
X83130Y268110D01*
X83070Y268130D01*
X83010Y268150D01*
X82960Y268180D01*
X82900Y268210D01*
X82850Y268240D01*
X82790Y268280D01*
X82740Y268320D01*
X82700Y268360D01*
X82650Y268400D01*
X82610Y268450D01*
X82570Y268490D01*
X82530Y268540D01*
X82490Y268600D01*
X82460Y268650D01*
X82430Y268710D01*
X82400Y268760D01*
X82380Y268820D01*
X82360Y268880D01*
X82340Y268940D01*
X82330Y269000D01*
X82310Y269060D01*
Y269120D01*
X82300Y269190D01*
Y269250D01*
Y270750D01*
Y270810D01*
X82310Y270880D01*
Y270940D01*
X82330Y271000D01*
X82340Y271060D01*
X82360Y271120D01*
X82380Y271180D01*
X82400Y271240D01*
X82430Y271290D01*
X82460Y271350D01*
X82490Y271400D01*
X82530Y271460D01*
X82570Y271510D01*
X82610Y271550D01*
X82650Y271600D01*
X82700Y271640D01*
X82740Y271680D01*
X82790Y271720D01*
X82850Y271760D01*
X82900Y271790D01*
X82960Y271820D01*
X83010Y271850D01*
X83070Y271870D01*
X83130Y271890D01*
X83190Y271910D01*
X83250Y271920D01*
X83310Y271940D01*
X83370D01*
X83440Y271950D01*
X91560D01*
X91630Y271940D01*
X91690D01*
X91750Y271920D01*
X91810Y271910D01*
X91870Y271890D01*
X91930Y271870D01*
X91990Y271850D01*
X92040Y271820D01*
X92100Y271790D01*
X92150Y271760D01*
X92210Y271720D01*
X92260Y271680D01*
X92300Y271640D01*
X92350Y271600D01*
X92390Y271550D01*
X92430Y271510D01*
X92470Y271460D01*
X92510Y271400D01*
X92540Y271350D01*
X92570Y271290D01*
X92600Y271240D01*
X92620Y271180D01*
X92640Y271120D01*
X92660Y271060D01*
X92670Y271000D01*
X92690Y270940D01*
Y270880D01*
X92700Y270810D01*
Y270750D01*
Y269250D01*
Y269190D01*
X92690Y269120D01*
Y269060D01*
X92670Y269000D01*
X92660Y268940D01*
X92640Y268880D01*
X92620Y268820D01*
X92600Y268760D01*
X92570Y268710D01*
X92540Y268650D01*
X92510Y268600D01*
X92470Y268540D01*
X92430Y268490D01*
X92390Y268450D01*
X92350Y268400D01*
X92300Y268360D01*
X92260Y268320D01*
X92210Y268280D01*
X92150Y268240D01*
X92100Y268210D01*
X92040Y268180D01*
X91990Y268150D01*
X91930Y268130D01*
X91870Y268110D01*
X91810Y268090D01*
X91750Y268080D01*
X91690Y268060D01*
X91630D01*
X91560Y268050D01*
X83440D01*
X83370Y268060D01*
D02*
G37*
G36*
Y273060D02*
X83310D01*
X83250Y273080D01*
X83190Y273090D01*
X83130Y273110D01*
X83070Y273130D01*
X83010Y273150D01*
X82960Y273180D01*
X82900Y273210D01*
X82850Y273240D01*
X82790Y273280D01*
X82740Y273320D01*
X82700Y273360D01*
X82650Y273400D01*
X82610Y273450D01*
X82570Y273490D01*
X82530Y273540D01*
X82490Y273600D01*
X82460Y273650D01*
X82430Y273710D01*
X82400Y273760D01*
X82380Y273820D01*
X82360Y273880D01*
X82340Y273940D01*
X82330Y274000D01*
X82310Y274060D01*
Y274120D01*
X82300Y274190D01*
Y274250D01*
Y275750D01*
Y275810D01*
X82310Y275880D01*
Y275940D01*
X82330Y276000D01*
X82340Y276060D01*
X82360Y276120D01*
X82380Y276180D01*
X82400Y276240D01*
X82430Y276290D01*
X82460Y276350D01*
X82490Y276400D01*
X82530Y276460D01*
X82570Y276510D01*
X82610Y276550D01*
X82650Y276600D01*
X82700Y276640D01*
X82740Y276680D01*
X82790Y276720D01*
X82850Y276760D01*
X82900Y276790D01*
X82960Y276820D01*
X83010Y276850D01*
X83070Y276870D01*
X83130Y276890D01*
X83190Y276910D01*
X83250Y276920D01*
X83310Y276940D01*
X83370D01*
X83440Y276950D01*
X91560D01*
X91630Y276940D01*
X91690D01*
X91750Y276920D01*
X91810Y276910D01*
X91870Y276890D01*
X91930Y276870D01*
X91990Y276850D01*
X92040Y276820D01*
X92100Y276790D01*
X92150Y276760D01*
X92210Y276720D01*
X92260Y276680D01*
X92300Y276640D01*
X92350Y276600D01*
X92390Y276550D01*
X92430Y276510D01*
X92470Y276460D01*
X92510Y276400D01*
X92540Y276350D01*
X92570Y276290D01*
X92600Y276240D01*
X92620Y276180D01*
X92640Y276120D01*
X92660Y276060D01*
X92670Y276000D01*
X92690Y275940D01*
Y275880D01*
X92700Y275810D01*
Y275750D01*
Y274250D01*
Y274190D01*
X92690Y274120D01*
Y274060D01*
X92670Y274000D01*
X92660Y273940D01*
X92640Y273880D01*
X92620Y273820D01*
X92600Y273760D01*
X92570Y273710D01*
X92540Y273650D01*
X92510Y273600D01*
X92470Y273540D01*
X92430Y273490D01*
X92390Y273450D01*
X92350Y273400D01*
X92300Y273360D01*
X92260Y273320D01*
X92210Y273280D01*
X92150Y273240D01*
X92100Y273210D01*
X92040Y273180D01*
X91990Y273150D01*
X91930Y273130D01*
X91870Y273110D01*
X91810Y273090D01*
X91750Y273080D01*
X91690Y273060D01*
X91630D01*
X91560Y273050D01*
X83440D01*
X83370Y273060D01*
D02*
G37*
G36*
Y263060D02*
X83310D01*
X83250Y263080D01*
X83190Y263090D01*
X83130Y263110D01*
X83070Y263130D01*
X83010Y263150D01*
X82960Y263180D01*
X82900Y263210D01*
X82850Y263240D01*
X82790Y263280D01*
X82740Y263320D01*
X82700Y263360D01*
X82650Y263400D01*
X82610Y263450D01*
X82570Y263490D01*
X82530Y263540D01*
X82490Y263600D01*
X82460Y263650D01*
X82430Y263710D01*
X82400Y263760D01*
X82380Y263820D01*
X82360Y263880D01*
X82340Y263940D01*
X82330Y264000D01*
X82310Y264060D01*
Y264120D01*
X82300Y264190D01*
Y264250D01*
Y265750D01*
Y265810D01*
X82310Y265880D01*
Y265940D01*
X82330Y266000D01*
X82340Y266060D01*
X82360Y266120D01*
X82380Y266180D01*
X82400Y266240D01*
X82430Y266290D01*
X82460Y266350D01*
X82490Y266400D01*
X82530Y266460D01*
X82570Y266510D01*
X82610Y266550D01*
X82650Y266600D01*
X82700Y266640D01*
X82740Y266680D01*
X82790Y266720D01*
X82850Y266760D01*
X82900Y266790D01*
X82960Y266820D01*
X83010Y266850D01*
X83070Y266870D01*
X83130Y266890D01*
X83190Y266910D01*
X83250Y266920D01*
X83310Y266940D01*
X83370D01*
X83440Y266950D01*
X95560D01*
X95630Y266940D01*
X95690D01*
X95750Y266920D01*
X95810Y266910D01*
X95870Y266890D01*
X95930Y266870D01*
X95990Y266850D01*
X96040Y266820D01*
X96100Y266790D01*
X96150Y266760D01*
X96210Y266720D01*
X96260Y266680D01*
X96300Y266640D01*
X96350Y266600D01*
X96390Y266550D01*
X96430Y266510D01*
X96470Y266460D01*
X96510Y266400D01*
X96540Y266350D01*
X96570Y266290D01*
X96600Y266240D01*
X96620Y266180D01*
X96640Y266120D01*
X96660Y266060D01*
X96670Y266000D01*
X96690Y265940D01*
Y265880D01*
X96700Y265810D01*
Y265750D01*
Y264250D01*
Y264190D01*
X96690Y264120D01*
Y264060D01*
X96670Y264000D01*
X96660Y263940D01*
X96640Y263880D01*
X96620Y263820D01*
X96600Y263760D01*
X96570Y263710D01*
X96540Y263650D01*
X96510Y263600D01*
X96470Y263540D01*
X96430Y263490D01*
X96390Y263450D01*
X96350Y263400D01*
X96300Y263360D01*
X96260Y263320D01*
X96210Y263280D01*
X96150Y263240D01*
X96100Y263210D01*
X96040Y263180D01*
X95990Y263150D01*
X95930Y263130D01*
X95870Y263110D01*
X95810Y263090D01*
X95750Y263080D01*
X95690Y263060D01*
X95630D01*
X95560Y263050D01*
X83440D01*
X83370Y263060D01*
D02*
G37*
G36*
X101370Y253060D02*
X101310D01*
X101250Y253080D01*
X101190Y253090D01*
X101130Y253110D01*
X101070Y253130D01*
X101010Y253150D01*
X100960Y253180D01*
X100900Y253210D01*
X100850Y253240D01*
X100790Y253280D01*
X100740Y253320D01*
X100700Y253360D01*
X100650Y253400D01*
X100610Y253450D01*
X100570Y253490D01*
X100530Y253540D01*
X100490Y253600D01*
X100460Y253650D01*
X100430Y253710D01*
X100400Y253760D01*
X100380Y253820D01*
X100360Y253880D01*
X100340Y253940D01*
X100330Y254000D01*
X100310Y254060D01*
Y254120D01*
X100300Y254190D01*
Y254250D01*
Y255750D01*
Y255810D01*
X100310Y255880D01*
Y255940D01*
X100330Y256000D01*
X100340Y256060D01*
X100360Y256120D01*
X100380Y256180D01*
X100400Y256240D01*
X100430Y256290D01*
X100460Y256350D01*
X100490Y256400D01*
X100530Y256460D01*
X100570Y256510D01*
X100610Y256550D01*
X100650Y256600D01*
X100700Y256640D01*
X100740Y256680D01*
X100790Y256720D01*
X100850Y256760D01*
X100900Y256790D01*
X100960Y256820D01*
X101010Y256850D01*
X101070Y256870D01*
X101130Y256890D01*
X101190Y256910D01*
X101250Y256920D01*
X101310Y256940D01*
X101370D01*
X101440Y256950D01*
X106560D01*
X106630Y256940D01*
X106690D01*
X106750Y256920D01*
X106810Y256910D01*
X106870Y256890D01*
X106930Y256870D01*
X106990Y256850D01*
X107040Y256820D01*
X107100Y256790D01*
X107150Y256760D01*
X107210Y256720D01*
X107260Y256680D01*
X107300Y256640D01*
X107350Y256600D01*
X107390Y256550D01*
X107430Y256510D01*
X107470Y256460D01*
X107510Y256400D01*
X107540Y256350D01*
X107570Y256290D01*
X107600Y256240D01*
X107620Y256180D01*
X107640Y256120D01*
X107660Y256060D01*
X107670Y256000D01*
X107690Y255940D01*
Y255880D01*
X107700Y255810D01*
Y255750D01*
Y254250D01*
Y254190D01*
X107690Y254120D01*
Y254060D01*
X107670Y254000D01*
X107660Y253940D01*
X107640Y253880D01*
X107620Y253820D01*
X107600Y253760D01*
X107570Y253710D01*
X107540Y253650D01*
X107510Y253600D01*
X107470Y253540D01*
X107430Y253490D01*
X107390Y253450D01*
X107350Y253400D01*
X107300Y253360D01*
X107260Y253320D01*
X107210Y253280D01*
X107150Y253240D01*
X107100Y253210D01*
X107040Y253180D01*
X106990Y253150D01*
X106930Y253130D01*
X106870Y253110D01*
X106810Y253090D01*
X106750Y253080D01*
X106690Y253060D01*
X106630D01*
X106560Y253050D01*
X101440D01*
X101370Y253060D01*
D02*
G37*
G36*
Y258060D02*
X101310D01*
X101250Y258080D01*
X101190Y258090D01*
X101130Y258110D01*
X101070Y258130D01*
X101010Y258150D01*
X100960Y258180D01*
X100900Y258210D01*
X100850Y258240D01*
X100790Y258280D01*
X100740Y258320D01*
X100700Y258360D01*
X100650Y258400D01*
X100610Y258450D01*
X100570Y258490D01*
X100530Y258540D01*
X100490Y258600D01*
X100460Y258650D01*
X100430Y258710D01*
X100400Y258760D01*
X100380Y258820D01*
X100360Y258880D01*
X100340Y258940D01*
X100330Y259000D01*
X100310Y259060D01*
Y259120D01*
X100300Y259190D01*
Y259250D01*
Y260750D01*
Y260810D01*
X100310Y260880D01*
Y260940D01*
X100330Y261000D01*
X100340Y261060D01*
X100360Y261120D01*
X100380Y261180D01*
X100400Y261240D01*
X100430Y261290D01*
X100460Y261350D01*
X100490Y261400D01*
X100530Y261460D01*
X100570Y261510D01*
X100610Y261550D01*
X100650Y261600D01*
X100700Y261640D01*
X100740Y261680D01*
X100790Y261720D01*
X100850Y261760D01*
X100900Y261790D01*
X100960Y261820D01*
X101010Y261850D01*
X101070Y261870D01*
X101130Y261890D01*
X101190Y261910D01*
X101250Y261920D01*
X101310Y261940D01*
X101370D01*
X101440Y261950D01*
X106560D01*
X106630Y261940D01*
X106690D01*
X106750Y261920D01*
X106810Y261910D01*
X106870Y261890D01*
X106930Y261870D01*
X106990Y261850D01*
X107040Y261820D01*
X107100Y261790D01*
X107150Y261760D01*
X107210Y261720D01*
X107260Y261680D01*
X107300Y261640D01*
X107350Y261600D01*
X107390Y261550D01*
X107430Y261510D01*
X107470Y261460D01*
X107510Y261400D01*
X107540Y261350D01*
X107570Y261290D01*
X107600Y261240D01*
X107620Y261180D01*
X107640Y261120D01*
X107660Y261060D01*
X107670Y261000D01*
X107690Y260940D01*
Y260880D01*
X107700Y260810D01*
Y260750D01*
Y259250D01*
Y259190D01*
X107690Y259120D01*
Y259060D01*
X107670Y259000D01*
X107660Y258940D01*
X107640Y258880D01*
X107620Y258820D01*
X107600Y258760D01*
X107570Y258710D01*
X107540Y258650D01*
X107510Y258600D01*
X107470Y258540D01*
X107430Y258490D01*
X107390Y258450D01*
X107350Y258400D01*
X107300Y258360D01*
X107260Y258320D01*
X107210Y258280D01*
X107150Y258240D01*
X107100Y258210D01*
X107040Y258180D01*
X106990Y258150D01*
X106930Y258130D01*
X106870Y258110D01*
X106810Y258090D01*
X106750Y258080D01*
X106690Y258060D01*
X106630D01*
X106560Y258050D01*
X101440D01*
X101370Y258060D01*
D02*
G37*
G36*
Y263060D02*
X101310D01*
X101250Y263080D01*
X101190Y263090D01*
X101130Y263110D01*
X101070Y263130D01*
X101010Y263150D01*
X100960Y263180D01*
X100900Y263210D01*
X100850Y263240D01*
X100790Y263280D01*
X100740Y263320D01*
X100700Y263360D01*
X100650Y263400D01*
X100610Y263450D01*
X100570Y263490D01*
X100530Y263540D01*
X100490Y263600D01*
X100460Y263650D01*
X100430Y263710D01*
X100400Y263760D01*
X100380Y263820D01*
X100360Y263880D01*
X100340Y263940D01*
X100330Y264000D01*
X100310Y264060D01*
Y264120D01*
X100300Y264190D01*
Y264250D01*
Y265750D01*
Y265810D01*
X100310Y265880D01*
Y265940D01*
X100330Y266000D01*
X100340Y266060D01*
X100360Y266120D01*
X100380Y266180D01*
X100400Y266240D01*
X100430Y266290D01*
X100460Y266350D01*
X100490Y266400D01*
X100530Y266460D01*
X100570Y266510D01*
X100610Y266550D01*
X100650Y266600D01*
X100700Y266640D01*
X100740Y266680D01*
X100790Y266720D01*
X100850Y266760D01*
X100900Y266790D01*
X100960Y266820D01*
X101010Y266850D01*
X101070Y266870D01*
X101130Y266890D01*
X101190Y266910D01*
X101250Y266920D01*
X101310Y266940D01*
X101370D01*
X101440Y266950D01*
X106560D01*
X106630Y266940D01*
X106690D01*
X106750Y266920D01*
X106810Y266910D01*
X106870Y266890D01*
X106930Y266870D01*
X106990Y266850D01*
X107040Y266820D01*
X107100Y266790D01*
X107150Y266760D01*
X107210Y266720D01*
X107260Y266680D01*
X107300Y266640D01*
X107350Y266600D01*
X107390Y266550D01*
X107430Y266510D01*
X107470Y266460D01*
X107510Y266400D01*
X107540Y266350D01*
X107570Y266290D01*
X107600Y266240D01*
X107620Y266180D01*
X107640Y266120D01*
X107660Y266060D01*
X107670Y266000D01*
X107690Y265940D01*
Y265880D01*
X107700Y265810D01*
Y265750D01*
Y264250D01*
Y264190D01*
X107690Y264120D01*
Y264060D01*
X107670Y264000D01*
X107660Y263940D01*
X107640Y263880D01*
X107620Y263820D01*
X107600Y263760D01*
X107570Y263710D01*
X107540Y263650D01*
X107510Y263600D01*
X107470Y263540D01*
X107430Y263490D01*
X107390Y263450D01*
X107350Y263400D01*
X107300Y263360D01*
X107260Y263320D01*
X107210Y263280D01*
X107150Y263240D01*
X107100Y263210D01*
X107040Y263180D01*
X106990Y263150D01*
X106930Y263130D01*
X106870Y263110D01*
X106810Y263090D01*
X106750Y263080D01*
X106690Y263060D01*
X106630D01*
X106560Y263050D01*
X101440D01*
X101370Y263060D01*
D02*
G37*
G36*
Y268060D02*
X101310D01*
X101250Y268080D01*
X101190Y268090D01*
X101130Y268110D01*
X101070Y268130D01*
X101010Y268150D01*
X100960Y268180D01*
X100900Y268210D01*
X100850Y268240D01*
X100790Y268280D01*
X100740Y268320D01*
X100700Y268360D01*
X100650Y268400D01*
X100610Y268450D01*
X100570Y268490D01*
X100530Y268540D01*
X100490Y268600D01*
X100460Y268650D01*
X100430Y268710D01*
X100400Y268760D01*
X100380Y268820D01*
X100360Y268880D01*
X100340Y268940D01*
X100330Y269000D01*
X100310Y269060D01*
Y269120D01*
X100300Y269190D01*
Y269250D01*
Y270750D01*
Y270810D01*
X100310Y270880D01*
Y270940D01*
X100330Y271000D01*
X100340Y271060D01*
X100360Y271120D01*
X100380Y271180D01*
X100400Y271240D01*
X100430Y271290D01*
X100460Y271350D01*
X100490Y271400D01*
X100530Y271460D01*
X100570Y271510D01*
X100610Y271550D01*
X100650Y271600D01*
X100700Y271640D01*
X100740Y271680D01*
X100790Y271720D01*
X100850Y271760D01*
X100900Y271790D01*
X100960Y271820D01*
X101010Y271850D01*
X101070Y271870D01*
X101130Y271890D01*
X101190Y271910D01*
X101250Y271920D01*
X101310Y271940D01*
X101370D01*
X101440Y271950D01*
X106560D01*
X106630Y271940D01*
X106690D01*
X106750Y271920D01*
X106810Y271910D01*
X106870Y271890D01*
X106930Y271870D01*
X106990Y271850D01*
X107040Y271820D01*
X107100Y271790D01*
X107150Y271760D01*
X107210Y271720D01*
X107260Y271680D01*
X107300Y271640D01*
X107350Y271600D01*
X107390Y271550D01*
X107430Y271510D01*
X107470Y271460D01*
X107510Y271400D01*
X107540Y271350D01*
X107570Y271290D01*
X107600Y271240D01*
X107620Y271180D01*
X107640Y271120D01*
X107660Y271060D01*
X107670Y271000D01*
X107690Y270940D01*
Y270880D01*
X107700Y270810D01*
Y270750D01*
Y269250D01*
Y269190D01*
X107690Y269120D01*
Y269060D01*
X107670Y269000D01*
X107660Y268940D01*
X107640Y268880D01*
X107620Y268820D01*
X107600Y268760D01*
X107570Y268710D01*
X107540Y268650D01*
X107510Y268600D01*
X107470Y268540D01*
X107430Y268490D01*
X107390Y268450D01*
X107350Y268400D01*
X107300Y268360D01*
X107260Y268320D01*
X107210Y268280D01*
X107150Y268240D01*
X107100Y268210D01*
X107040Y268180D01*
X106990Y268150D01*
X106930Y268130D01*
X106870Y268110D01*
X106810Y268090D01*
X106750Y268080D01*
X106690Y268060D01*
X106630D01*
X106560Y268050D01*
X101440D01*
X101370Y268060D01*
D02*
G37*
G36*
Y273060D02*
X101310D01*
X101250Y273080D01*
X101190Y273090D01*
X101130Y273110D01*
X101070Y273130D01*
X101010Y273150D01*
X100960Y273180D01*
X100900Y273210D01*
X100850Y273240D01*
X100790Y273280D01*
X100740Y273320D01*
X100700Y273360D01*
X100650Y273400D01*
X100610Y273450D01*
X100570Y273490D01*
X100530Y273540D01*
X100490Y273600D01*
X100460Y273650D01*
X100430Y273710D01*
X100400Y273760D01*
X100380Y273820D01*
X100360Y273880D01*
X100340Y273940D01*
X100330Y274000D01*
X100310Y274060D01*
Y274120D01*
X100300Y274190D01*
Y274250D01*
Y275750D01*
Y275810D01*
X100310Y275880D01*
Y275940D01*
X100330Y276000D01*
X100340Y276060D01*
X100360Y276120D01*
X100380Y276180D01*
X100400Y276240D01*
X100430Y276290D01*
X100460Y276350D01*
X100490Y276400D01*
X100530Y276460D01*
X100570Y276510D01*
X100610Y276550D01*
X100650Y276600D01*
X100700Y276640D01*
X100740Y276680D01*
X100790Y276720D01*
X100850Y276760D01*
X100900Y276790D01*
X100960Y276820D01*
X101010Y276850D01*
X101070Y276870D01*
X101130Y276890D01*
X101190Y276910D01*
X101250Y276920D01*
X101310Y276940D01*
X101370D01*
X101440Y276950D01*
X106560D01*
X106630Y276940D01*
X106690D01*
X106750Y276920D01*
X106810Y276910D01*
X106870Y276890D01*
X106930Y276870D01*
X106990Y276850D01*
X107040Y276820D01*
X107100Y276790D01*
X107150Y276760D01*
X107210Y276720D01*
X107260Y276680D01*
X107300Y276640D01*
X107350Y276600D01*
X107390Y276550D01*
X107430Y276510D01*
X107470Y276460D01*
X107510Y276400D01*
X107540Y276350D01*
X107570Y276290D01*
X107600Y276240D01*
X107620Y276180D01*
X107640Y276120D01*
X107660Y276060D01*
X107670Y276000D01*
X107690Y275940D01*
Y275880D01*
X107700Y275810D01*
Y275750D01*
Y274250D01*
Y274190D01*
X107690Y274120D01*
Y274060D01*
X107670Y274000D01*
X107660Y273940D01*
X107640Y273880D01*
X107620Y273820D01*
X107600Y273760D01*
X107570Y273710D01*
X107540Y273650D01*
X107510Y273600D01*
X107470Y273540D01*
X107430Y273490D01*
X107390Y273450D01*
X107350Y273400D01*
X107300Y273360D01*
X107260Y273320D01*
X107210Y273280D01*
X107150Y273240D01*
X107100Y273210D01*
X107040Y273180D01*
X106990Y273150D01*
X106930Y273130D01*
X106870Y273110D01*
X106810Y273090D01*
X106750Y273080D01*
X106690Y273060D01*
X106630D01*
X106560Y273050D01*
X101440D01*
X101370Y273060D01*
D02*
G37*
G36*
X264687Y287533D02*
X264877Y287516D01*
X265068Y287498D01*
X265294Y287481D01*
X265779Y287411D01*
X266317Y287307D01*
X266855Y287151D01*
X267376Y286960D01*
X267393D01*
X267428Y286926D01*
X267514Y286908D01*
X267601Y286856D01*
X267705Y286787D01*
X267844Y286717D01*
X268139Y286544D01*
X268486Y286301D01*
X268833Y286006D01*
X269162Y285677D01*
X269457Y285278D01*
X269475Y285260D01*
X269492Y285226D01*
X269527Y285173D01*
X269579Y285087D01*
X269631Y284983D01*
X269700Y284861D01*
X269752Y284705D01*
X269839Y284549D01*
X269978Y284185D01*
X270099Y283751D01*
X270203Y283283D01*
X270255Y282762D01*
X268225Y282606D01*
Y282623D01*
X268208Y282675D01*
Y282745D01*
X268191Y282849D01*
X268156Y282988D01*
X268121Y283126D01*
X268017Y283456D01*
X267879Y283820D01*
X267670Y284202D01*
X267428Y284566D01*
X267271Y284722D01*
X267098Y284879D01*
X267080Y284896D01*
X267063Y284913D01*
X266994Y284948D01*
X266924Y285000D01*
X266820Y285052D01*
X266699Y285121D01*
X266560Y285191D01*
X266404Y285278D01*
X266213Y285347D01*
X266005Y285416D01*
X265779Y285486D01*
X265537Y285538D01*
X265259Y285590D01*
X264964Y285625D01*
X264652Y285659D01*
X264149D01*
X264010Y285642D01*
X263854D01*
X263680Y285625D01*
X263472Y285607D01*
X263264Y285572D01*
X262796Y285486D01*
X262344Y285364D01*
X261911Y285191D01*
X261703Y285069D01*
X261529Y284948D01*
X261512D01*
X261494Y284913D01*
X261390Y284827D01*
X261252Y284670D01*
X261095Y284462D01*
X260939Y284219D01*
X260800Y283924D01*
X260696Y283612D01*
X260679Y283439D01*
X260662Y283248D01*
Y283230D01*
Y283213D01*
X260679Y283109D01*
X260696Y282953D01*
X260731Y282762D01*
X260818Y282537D01*
X260922Y282294D01*
X261061Y282068D01*
X261269Y281843D01*
X261304Y281825D01*
X261338Y281791D01*
X261408Y281738D01*
X261494Y281686D01*
X261598Y281634D01*
X261737Y281565D01*
X261893Y281478D01*
X262084Y281392D01*
X262310Y281305D01*
X262570Y281218D01*
X262865Y281114D01*
X263212Y281010D01*
X263576Y280906D01*
X263993Y280784D01*
X264461Y280680D01*
X264496D01*
X264582Y280663D01*
X264704Y280628D01*
X264877Y280576D01*
X265086Y280541D01*
X265328Y280472D01*
X265589Y280420D01*
X265866Y280333D01*
X266456Y280177D01*
X267046Y280021D01*
X267323Y279934D01*
X267566Y279848D01*
X267809Y279761D01*
X268000Y279674D01*
X268017D01*
X268069Y279639D01*
X268139Y279605D01*
X268225Y279553D01*
X268347Y279501D01*
X268486Y279414D01*
X268781Y279223D01*
X269128Y278997D01*
X269457Y278720D01*
X269787Y278390D01*
X269926Y278217D01*
X270064Y278043D01*
Y278026D01*
X270099Y277991D01*
X270134Y277939D01*
X270168Y277870D01*
X270221Y277783D01*
X270273Y277662D01*
X270411Y277384D01*
X270533Y277055D01*
X270637Y276673D01*
X270706Y276239D01*
X270741Y275771D01*
Y275753D01*
Y275719D01*
Y275649D01*
X270724Y275563D01*
Y275441D01*
X270706Y275320D01*
X270654Y274990D01*
X270567Y274626D01*
X270429Y274227D01*
X270238Y273810D01*
X270134Y273585D01*
X269995Y273377D01*
Y273359D01*
X269960Y273325D01*
X269926Y273273D01*
X269856Y273186D01*
X269700Y272995D01*
X269457Y272735D01*
X269162Y272457D01*
X268798Y272162D01*
X268382Y271885D01*
X267896Y271625D01*
X267879D01*
X267826Y271590D01*
X267757Y271572D01*
X267653Y271520D01*
X267532Y271486D01*
X267376Y271434D01*
X267202Y271364D01*
X266994Y271312D01*
X266786Y271260D01*
X266543Y271191D01*
X266022Y271104D01*
X265450Y271035D01*
X264825Y271000D01*
X264617D01*
X264461Y271017D01*
X264270D01*
X264062Y271035D01*
X263819Y271052D01*
X263542Y271087D01*
X262969Y271156D01*
X262362Y271260D01*
X261755Y271416D01*
X261165Y271625D01*
X261147D01*
X261095Y271659D01*
X261026Y271694D01*
X260922Y271746D01*
X260800Y271815D01*
X260662Y271885D01*
X260332Y272093D01*
X259968Y272353D01*
X259586Y272683D01*
X259205Y273064D01*
X258875Y273515D01*
X258857Y273533D01*
X258840Y273568D01*
X258806Y273637D01*
X258753Y273741D01*
X258684Y273862D01*
X258615Y274001D01*
X258528Y274175D01*
X258458Y274366D01*
X258372Y274556D01*
X258302Y274782D01*
X258164Y275285D01*
X258060Y275823D01*
X258025Y276118D01*
X258007Y276413D01*
X260002Y276586D01*
Y276569D01*
Y276534D01*
X260020Y276465D01*
X260037Y276378D01*
X260054Y276274D01*
X260072Y276170D01*
X260141Y275875D01*
X260228Y275563D01*
X260332Y275233D01*
X260471Y274903D01*
X260644Y274591D01*
X260662Y274556D01*
X260748Y274470D01*
X260870Y274331D01*
X261043Y274157D01*
X261269Y273949D01*
X261546Y273758D01*
X261876Y273550D01*
X262258Y273359D01*
X262275D01*
X262310Y273342D01*
X262362Y273325D01*
X262449Y273290D01*
X262553Y273255D01*
X262674Y273203D01*
X262813Y273169D01*
X262969Y273134D01*
X263333Y273047D01*
X263767Y272960D01*
X264218Y272908D01*
X264721Y272891D01*
X264929D01*
X265033Y272908D01*
X265155D01*
X265432Y272943D01*
X265762Y272978D01*
X266126Y273030D01*
X266491Y273116D01*
X266838Y273238D01*
X266855D01*
X266872Y273255D01*
X266924Y273273D01*
X266994Y273307D01*
X267150Y273394D01*
X267358Y273498D01*
X267584Y273637D01*
X267826Y273810D01*
X268035Y274001D01*
X268225Y274227D01*
X268243Y274261D01*
X268295Y274331D01*
X268382Y274470D01*
X268468Y274643D01*
X268538Y274851D01*
X268624Y275077D01*
X268677Y275337D01*
X268694Y275597D01*
Y275615D01*
Y275632D01*
Y275719D01*
X268677Y275875D01*
X268642Y276048D01*
X268590Y276257D01*
X268503Y276482D01*
X268399Y276707D01*
X268243Y276916D01*
X268225Y276933D01*
X268156Y277003D01*
X268052Y277107D01*
X267896Y277245D01*
X267705Y277384D01*
X267445Y277540D01*
X267150Y277696D01*
X266803Y277852D01*
X266768Y277870D01*
X266734Y277887D01*
X266664Y277905D01*
X266595Y277922D01*
X266491Y277957D01*
X266352Y278009D01*
X266213Y278043D01*
X266022Y278095D01*
X265832Y278165D01*
X265589Y278217D01*
X265328Y278286D01*
X265033Y278373D01*
X264721Y278442D01*
X264357Y278547D01*
X263958Y278633D01*
X263941D01*
X263871Y278650D01*
X263750Y278685D01*
X263611Y278720D01*
X263420Y278772D01*
X263212Y278824D01*
X263004Y278893D01*
X262761Y278963D01*
X262240Y279119D01*
X261737Y279292D01*
X261494Y279379D01*
X261269Y279466D01*
X261061Y279553D01*
X260887Y279639D01*
X260870D01*
X260835Y279674D01*
X260783Y279709D01*
X260696Y279743D01*
X260488Y279865D01*
X260245Y280038D01*
X259950Y280264D01*
X259673Y280507D01*
X259395Y280802D01*
X259170Y281114D01*
Y281131D01*
X259152Y281149D01*
X259118Y281201D01*
X259083Y281270D01*
X258996Y281461D01*
X258892Y281704D01*
X258788Y281999D01*
X258701Y282346D01*
X258632Y282727D01*
X258615Y283126D01*
Y283144D01*
Y283178D01*
Y283248D01*
X258632Y283335D01*
Y283439D01*
X258649Y283560D01*
X258701Y283872D01*
X258788Y284219D01*
X258892Y284584D01*
X259066Y284983D01*
X259291Y285382D01*
Y285399D01*
X259326Y285434D01*
X259361Y285486D01*
X259413Y285555D01*
X259586Y285746D01*
X259812Y285989D01*
X260089Y286249D01*
X260436Y286509D01*
X260835Y286770D01*
X261304Y286995D01*
X261321D01*
X261356Y287012D01*
X261442Y287047D01*
X261529Y287082D01*
X261651Y287117D01*
X261807Y287169D01*
X261980Y287221D01*
X262171Y287273D01*
X262379Y287325D01*
X262605Y287377D01*
X263090Y287463D01*
X263646Y287533D01*
X264235Y287550D01*
X264530D01*
X264687Y287533D01*
D02*
G37*
G36*
X255301Y271260D02*
X253254D01*
Y284670D01*
X248570Y271260D01*
X246662D01*
X242047Y284896D01*
Y271260D01*
X240000D01*
Y287273D01*
X243175D01*
X246974Y275927D01*
Y275910D01*
X246991Y275858D01*
X247026Y275771D01*
X247061Y275667D01*
X247095Y275545D01*
X247148Y275389D01*
X247269Y275042D01*
X247390Y274660D01*
X247512Y274261D01*
X247633Y273897D01*
X247685Y273724D01*
X247737Y273568D01*
Y273585D01*
X247755Y273602D01*
X247772Y273654D01*
X247789Y273724D01*
X247824Y273828D01*
X247859Y273932D01*
X247893Y274071D01*
X247945Y274209D01*
X247997Y274383D01*
X248067Y274574D01*
X248136Y274782D01*
X248206Y275025D01*
X248292Y275268D01*
X248379Y275545D01*
X248483Y275823D01*
X248587Y276135D01*
X252439Y287273D01*
X255301D01*
Y271260D01*
D02*
G37*
G36*
X285261Y285382D02*
X275789D01*
Y280490D01*
X284654D01*
Y278598D01*
X275789D01*
Y273151D01*
X285626D01*
Y271260D01*
X273673D01*
Y287273D01*
X285261D01*
Y285382D01*
D02*
G37*
D22*
X355000Y363500D02*
D03*
Y380000D02*
D03*
X130000Y132500D02*
D03*
X425000Y51500D02*
D03*
X455000Y51500D02*
D03*
X215000Y365000D02*
D03*
Y381500D02*
D03*
X310000Y380000D02*
D03*
Y363500D02*
D03*
X535000Y105000D02*
D03*
Y121500D02*
D03*
X160000Y190000D02*
D03*
Y173500D02*
D03*
X160000Y152500D02*
D03*
Y136000D02*
D03*
X147500Y295000D02*
D03*
Y278500D02*
D03*
X127500D02*
D03*
Y295000D02*
D03*
X87000Y131000D02*
D03*
Y147500D02*
D03*
X128000Y234500D02*
D03*
Y218000D02*
D03*
X151000Y234000D02*
D03*
Y217500D02*
D03*
X425000Y92540D02*
D03*
Y76040D02*
D03*
X455000Y92540D02*
D03*
Y76040D02*
D03*
X275765Y385294D02*
D03*
Y368794D02*
D03*
X103600Y516900D02*
D03*
Y500400D02*
D03*
X102500Y450000D02*
D03*
Y466500D02*
D03*
X216000Y247500D02*
D03*
Y264000D02*
D03*
X107000Y131000D02*
D03*
Y147500D02*
D03*
X140000Y426500D02*
D03*
Y410000D02*
D03*
X187000Y247500D02*
D03*
Y264000D02*
D03*
D23*
X254500Y389550D02*
D03*
X245000Y389550D02*
D03*
X235500Y389550D02*
D03*
X254500Y364450D02*
D03*
X245000D02*
D03*
X235500D02*
D03*
D24*
X335404Y266203D02*
D03*
D25*
X350607Y261607D02*
D03*
X347071Y258071D02*
D03*
X343535Y254536D02*
D03*
X340000Y251000D02*
D03*
X320201Y270799D02*
D03*
X323736Y274335D02*
D03*
X327272Y277870D02*
D03*
X330808Y281406D02*
D03*
D26*
X579500Y174600D02*
D03*
X540500D02*
D03*
X579500Y187300D02*
D03*
X540500D02*
D03*
X579500Y200000D02*
D03*
X540500D02*
D03*
X579500Y212700D02*
D03*
X540500Y212700D02*
D03*
X579500Y225400D02*
D03*
X540500D02*
D03*
X499500Y569600D02*
D03*
X460500D02*
D03*
X499500Y582300D02*
D03*
X460500D02*
D03*
X499500Y595000D02*
D03*
X460500D02*
D03*
X499500Y607700D02*
D03*
X460500D02*
D03*
X499500Y620400D02*
D03*
X460500D02*
D03*
D27*
X96500Y265000D02*
D03*
D28*
X543100Y525000D02*
D03*
Y520000D02*
D03*
Y515000D02*
D03*
Y510000D02*
D03*
X515000D02*
D03*
Y515000D02*
D03*
Y520000D02*
D03*
Y525000D02*
D03*
X215000Y298500D02*
D03*
Y293500D02*
D03*
Y288500D02*
D03*
Y283500D02*
D03*
X186900D02*
D03*
Y288500D02*
D03*
Y293500D02*
D03*
Y298500D02*
D03*
D29*
X485000Y350000D02*
D03*
X405000D02*
D03*
X485000Y395000D02*
D03*
X405000D02*
D03*
D30*
X109400Y185100D02*
D03*
D31*
X101900Y194600D02*
D03*
X106900D02*
D03*
X111900D02*
D03*
X116900D02*
D03*
Y175600D02*
D03*
X111900D02*
D03*
X106900D02*
D03*
X101900D02*
D03*
D32*
X197356Y185720D02*
D03*
Y179116D02*
D03*
Y172512D02*
D03*
Y166162D02*
D03*
Y159558D02*
D03*
Y153208D02*
D03*
Y146604D02*
D03*
Y140000D02*
D03*
X270000D02*
D03*
Y146604D02*
D03*
Y153208D02*
D03*
Y159558D02*
D03*
Y166162D02*
D03*
Y172512D02*
D03*
Y179116D02*
D03*
Y185720D02*
D03*
D33*
X469029Y149041D02*
D03*
X477515Y157526D02*
D03*
X486000Y166012D02*
D03*
D34*
X330000Y375000D02*
D03*
Y380000D02*
D03*
X335000Y375000D02*
D03*
Y380000D02*
D03*
D35*
X422769Y222071D02*
D03*
D36*
X428673Y264745D02*
D03*
X431502Y261917D02*
D03*
X434330Y259088D02*
D03*
X437159Y256260D02*
D03*
X439987Y253431D02*
D03*
X442815Y250603D02*
D03*
X445644Y247774D02*
D03*
X448472Y244946D02*
D03*
X451301Y242118D02*
D03*
X454129Y239289D02*
D03*
X456958Y236461D02*
D03*
X459786Y233632D02*
D03*
X462614Y230804D02*
D03*
X465443Y227975D02*
D03*
X416865Y179397D02*
D03*
X414036Y182226D02*
D03*
X411208Y185054D02*
D03*
X408379Y187882D02*
D03*
X405551Y190711D02*
D03*
X402723Y193539D02*
D03*
X399894Y196368D02*
D03*
X397066Y199196D02*
D03*
X394237Y202025D02*
D03*
X391409Y204853D02*
D03*
X388580Y207681D02*
D03*
X385752Y210510D02*
D03*
X382924Y213338D02*
D03*
X380095Y216167D02*
D03*
D37*
Y227975D02*
D03*
X382924Y230804D02*
D03*
X385752Y233632D02*
D03*
X388580Y236461D02*
D03*
X391409Y239289D02*
D03*
X394237Y242118D02*
D03*
X397066Y244946D02*
D03*
X399894Y247774D02*
D03*
X402723Y250603D02*
D03*
X405551Y253431D02*
D03*
X408379Y256260D02*
D03*
X411208Y259088D02*
D03*
X414036Y261917D02*
D03*
X416865Y264745D02*
D03*
X465443Y216167D02*
D03*
X462614Y213338D02*
D03*
X459786Y210510D02*
D03*
X456958Y207681D02*
D03*
X454129Y204853D02*
D03*
X451301Y202025D02*
D03*
X448472Y199196D02*
D03*
X445644Y196368D02*
D03*
X442815Y193539D02*
D03*
X439987Y190711D02*
D03*
X437159Y187882D02*
D03*
X434330Y185054D02*
D03*
X431502Y182226D02*
D03*
X428673Y179397D02*
D03*
D38*
X504800Y75750D02*
D03*
X568800D02*
D03*
X512800D02*
D03*
X560800D02*
D03*
D39*
X539300D02*
D03*
X534300D02*
D03*
X544300D02*
D03*
X549300D02*
D03*
X554300D02*
D03*
X529300D02*
D03*
X524300D02*
D03*
X519300D02*
D03*
D40*
X295000Y110000D02*
D03*
Y30000D02*
D03*
X250000Y110000D02*
D03*
Y30000D02*
D03*
X387500Y110000D02*
D03*
Y30000D02*
D03*
X342500Y110000D02*
D03*
Y30000D02*
D03*
D41*
X145000Y377554D02*
D03*
D42*
X155000Y365108D02*
D03*
X150000D02*
D03*
X145000D02*
D03*
X140000D02*
D03*
X135000D02*
D03*
Y390000D02*
D03*
X140000D02*
D03*
X145000D02*
D03*
X150000D02*
D03*
X155000D02*
D03*
D43*
X70000Y170000D02*
D03*
X37900D02*
D03*
X70000Y200000D02*
D03*
X37900D02*
D03*
D44*
X48000Y253150D02*
D03*
Y276850D02*
D03*
D45*
X20000Y420000D02*
D03*
Y405300D02*
D03*
D46*
X175000Y417500D02*
D03*
Y392500D02*
D03*
D47*
X115000Y410950D02*
D03*
Y430000D02*
D03*
D48*
X94680Y420602D02*
D03*
D49*
X358600Y478900D02*
D03*
X345900D02*
D03*
X333200D02*
D03*
X320500D02*
D03*
X307800D02*
D03*
X295100D02*
D03*
X282400D02*
D03*
X269700D02*
D03*
X231600D02*
D03*
X218900D02*
D03*
X206200D02*
D03*
X193500D02*
D03*
X180800D02*
D03*
X168100D02*
D03*
Y605900D02*
D03*
X180800D02*
D03*
X193500D02*
D03*
X206200D02*
D03*
X218900D02*
D03*
X231600D02*
D03*
X269700D02*
D03*
X282400D02*
D03*
X295100D02*
D03*
X307800D02*
D03*
X320500D02*
D03*
X333200D02*
D03*
X345900D02*
D03*
X358600D02*
D03*
D50*
X130000Y504300D02*
D03*
Y517000D02*
D03*
Y529700D02*
D03*
Y542400D02*
D03*
Y555100D02*
D03*
Y567800D02*
D03*
Y580500D02*
D03*
X384000D02*
D03*
Y567800D02*
D03*
Y555100D02*
D03*
Y542400D02*
D03*
Y529700D02*
D03*
Y517000D02*
D03*
Y504300D02*
D03*
D51*
X455000Y480000D02*
D03*
Y450000D02*
D03*
X435000Y450000D02*
D03*
X418500D02*
D03*
X435000Y480000D02*
D03*
X418500D02*
D03*
X87500Y295000D02*
D03*
X104000D02*
D03*
X87000Y319000D02*
D03*
X103500D02*
D03*
X127500Y260000D02*
D03*
X144000D02*
D03*
X87000Y232000D02*
D03*
X103500D02*
D03*
X222500Y210000D02*
D03*
X206000D02*
D03*
X185000Y115000D02*
D03*
X201500D02*
D03*
X245000Y210000D02*
D03*
X261500D02*
D03*
X113500Y105000D02*
D03*
X130000D02*
D03*
X335000Y400000D02*
D03*
X351500D02*
D03*
X579500Y520000D02*
D03*
X563000D02*
D03*
X488000Y505000D02*
D03*
X471500D02*
D03*
X210000Y319000D02*
D03*
X193500D02*
D03*
D52*
X471500Y480000D02*
D03*
Y450000D02*
D03*
D53*
X130000Y149000D02*
D03*
X425000Y35000D02*
D03*
X455000Y35000D02*
D03*
D54*
X85000Y366000D02*
D03*
Y375500D02*
D03*
Y385000D02*
D03*
X112000Y366000D02*
D03*
Y385000D02*
D03*
D55*
X71050Y429000D02*
D03*
X52000D02*
D03*
D56*
X61398Y408680D02*
D03*
D57*
X335000Y307000D02*
D03*
X346667Y318667D02*
D03*
D58*
X373000Y260000D02*
D03*
X365816Y267184D02*
D03*
X383325Y270000D02*
D03*
X376141Y277184D02*
D03*
X366000Y297000D02*
D03*
X358816Y304184D02*
D03*
X410000Y292574D02*
D03*
X402816Y299758D02*
D03*
X505522Y187152D02*
D03*
X512706Y179968D02*
D03*
X498451Y180081D02*
D03*
X505635Y172897D02*
D03*
D59*
X335757Y213343D02*
D03*
Y223503D02*
D03*
X481109Y253891D02*
D03*
Y264051D02*
D03*
X348526Y213202D02*
D03*
Y223361D02*
D03*
X87000Y180160D02*
D03*
Y170000D02*
D03*
Y189840D02*
D03*
Y200000D02*
D03*
X170000Y377660D02*
D03*
Y367500D02*
D03*
D60*
X385000Y170000D02*
D03*
X374840D02*
D03*
D61*
X432500Y285000D02*
D03*
X439684Y292184D02*
D03*
X425000Y292500D02*
D03*
X432184Y299684D02*
D03*
D62*
X33000Y635000D02*
D03*
X67000D02*
D03*
D63*
X545000Y425000D02*
D03*
Y310000D02*
D03*
D64*
Y445000D02*
D03*
Y465000D02*
D03*
Y485000D02*
D03*
Y370000D02*
D03*
Y350000D02*
D03*
Y330000D02*
D03*
D65*
X30000Y35000D02*
D03*
X560000Y580000D02*
D03*
D66*
X100000Y65000D02*
D03*
D67*
X80000D02*
D03*
D68*
X155000D02*
D03*
D69*
X175000D02*
D03*
X195000D02*
D03*
D70*
X493600Y28200D02*
D03*
X580000D02*
D03*
D71*
X493600Y70000D02*
D03*
X580000D02*
D03*
D72*
X565700Y65000D02*
D03*
X507900D02*
D03*
D73*
X240000Y435000D02*
D03*
X334600D02*
D03*
X20000Y450000D02*
D03*
X55400Y320000D02*
D03*
D74*
X265400Y435000D02*
D03*
X360000D02*
D03*
X45400Y450000D02*
D03*
X30000Y320000D02*
D03*
X35000Y355000D02*
D03*
D75*
Y380400D02*
D03*
D76*
X74600Y593400D02*
D03*
Y542400D02*
D03*
X23600D02*
D03*
Y593400D02*
D03*
D77*
X49100Y567900D02*
D03*
D78*
X50000Y635000D02*
D03*
M02*
