G04*
G04 #@! TF.GenerationSoftware,Altium Limited,Altium Designer,24.2.2 (26)*
G04*
G04 Layer_Color=16711935*
%FSLAX44Y44*%
%MOMM*%
G71*
G04*
G04 #@! TF.SameCoordinates,57E06D6A-15B4-4B42-AE12-48CE37104189*
G04*
G04*
G04 #@! TF.FilePolarity,Negative*
G04*
G01*
G75*
%ADD22R,1.3032X1.3032*%
G04:AMPARAMS|DCode=23|XSize=1.4132mm|YSize=0.7832mm|CornerRadius=0.1741mm|HoleSize=0mm|Usage=FLASHONLY|Rotation=270.000|XOffset=0mm|YOffset=0mm|HoleType=Round|Shape=RoundedRectangle|*
%AMROUNDEDRECTD23*
21,1,1.4132,0.4350,0,0,270.0*
21,1,1.0650,0.7832,0,0,270.0*
1,1,0.3482,-0.2175,-0.5325*
1,1,0.3482,-0.2175,0.5325*
1,1,0.3482,0.2175,0.5325*
1,1,0.3482,0.2175,-0.5325*
%
%ADD23ROUNDEDRECTD23*%
%ADD51R,1.3032X1.3032*%
%ADD63R,1.4112X1.4112*%
%ADD64C,1.4112*%
%ADD65C,6.2032*%
%ADD66C,1.4032*%
%ADD67R,1.4032X1.4032*%
%ADD68R,1.5112X1.5112*%
%ADD69C,1.5112*%
G04:AMPARAMS|DCode=70|XSize=2.0032mm|YSize=1.2032mm|CornerRadius=0.3516mm|HoleSize=0mm|Usage=FLASHONLY|Rotation=90.000|XOffset=0mm|YOffset=0mm|HoleType=Round|Shape=RoundedRectangle|*
%AMROUNDEDRECTD70*
21,1,2.0032,0.5000,0,0,90.0*
21,1,1.3000,1.2032,0,0,90.0*
1,1,0.7032,0.2500,0.6500*
1,1,0.7032,0.2500,-0.6500*
1,1,0.7032,-0.2500,-0.6500*
1,1,0.7032,-0.2500,0.6500*
%
%ADD70ROUNDEDRECTD70*%
%ADD71O,1.2032X2.3032*%
%ADD72C,0.8532*%
%ADD73R,1.7272X1.7272*%
%ADD74C,1.7272*%
%ADD75R,1.7272X1.7272*%
%ADD76C,2.6032*%
%ADD77R,2.7032X2.7032*%
%ADD78C,0.2032*%
%ADD153R,2.6532X1.8532*%
%ADD154R,1.8532X2.6532*%
%ADD155R,0.6132X1.7732*%
%ADD156P,1.8430X4X360.0*%
D22*
X246000Y382500D02*
D03*
Y366000D02*
D03*
X105000Y375000D02*
D03*
Y391500D02*
D03*
X190000Y319500D02*
D03*
Y303000D02*
D03*
X487000Y438000D02*
D03*
Y421500D02*
D03*
X190000Y258500D02*
D03*
Y275000D02*
D03*
X215000Y258500D02*
D03*
Y275000D02*
D03*
X487000Y476500D02*
D03*
Y460000D02*
D03*
X85000Y375000D02*
D03*
Y391500D02*
D03*
X215000Y319500D02*
D03*
Y303000D02*
D03*
D23*
X529500Y135550D02*
D03*
X539000D02*
D03*
X548500D02*
D03*
X529500Y110450D02*
D03*
X539000D02*
D03*
X548500D02*
D03*
D51*
X559000Y153000D02*
D03*
X575500D02*
D03*
X377500Y606000D02*
D03*
X394000D02*
D03*
Y586000D02*
D03*
X377500D02*
D03*
X515337Y330337D02*
D03*
X498837D02*
D03*
X515337Y350337D02*
D03*
X498837D02*
D03*
X450000Y550000D02*
D03*
X466500D02*
D03*
D63*
X545000Y425000D02*
D03*
Y310000D02*
D03*
D64*
Y445000D02*
D03*
Y465000D02*
D03*
Y485000D02*
D03*
Y370000D02*
D03*
Y350000D02*
D03*
Y330000D02*
D03*
D65*
X30000Y35000D02*
D03*
X560000Y580000D02*
D03*
D66*
X100000Y65000D02*
D03*
D67*
X80000D02*
D03*
D68*
X155000D02*
D03*
D69*
X175000D02*
D03*
X195000D02*
D03*
D70*
X493600Y28200D02*
D03*
X580000D02*
D03*
D71*
X493600Y70000D02*
D03*
X580000D02*
D03*
D72*
X565700Y65000D02*
D03*
X507900D02*
D03*
D73*
X240000Y435000D02*
D03*
X334600D02*
D03*
X20000Y450000D02*
D03*
X55400Y320000D02*
D03*
D74*
X265400Y435000D02*
D03*
X360000D02*
D03*
X45400Y450000D02*
D03*
X30000Y320000D02*
D03*
X35000Y355000D02*
D03*
D75*
X420710Y65000D02*
D03*
X455000D02*
D03*
X35000Y380400D02*
D03*
D76*
X74600Y593400D02*
D03*
Y542400D02*
D03*
X23600D02*
D03*
Y593400D02*
D03*
D77*
X49100Y567900D02*
D03*
D78*
X50000Y635000D02*
D03*
D153*
X270000Y50000D02*
D03*
X232500Y337500D02*
D03*
X170000D02*
D03*
D154*
X580000Y520000D02*
D03*
D155*
X466000Y420100D02*
D03*
X459500D02*
D03*
X453000D02*
D03*
X446500D02*
D03*
X440000D02*
D03*
X433500D02*
D03*
X427000D02*
D03*
Y477500D02*
D03*
X433500D02*
D03*
X440000D02*
D03*
X446500D02*
D03*
X453000D02*
D03*
X459500D02*
D03*
X466000D02*
D03*
D156*
X452000Y252000D02*
D03*
X440333Y263667D02*
D03*
X463667Y265333D02*
D03*
X452000Y277000D02*
D03*
M02*
