G04*
G04 #@! TF.GenerationSoftware,Altium Limited,Altium Designer,24.2.2 (26)*
G04*
G04 Layer_Color=65535*
%FSLAX44Y44*%
%MOMM*%
G71*
G04*
G04 #@! TF.SameCoordinates,57E06D6A-15B4-4B42-AE12-48CE37104189*
G04*
G04*
G04 #@! TF.FilePolarity,Positive*
G04*
G01*
G75*
%ADD10C,0.2000*%
%ADD11C,0.2500*%
%ADD12C,0.3000*%
%ADD13C,0.1000*%
%ADD14C,0.1524*%
%ADD15C,0.1500*%
%ADD16C,0.2700*%
%ADD17C,0.3048*%
%ADD18C,0.1270*%
%ADD19C,0.6000*%
%ADD20C,0.2540*%
%ADD21C,0.4572*%
G36*
X253367Y298406D02*
X251136Y298406D01*
Y306355D01*
X245000D01*
X245000Y298406D01*
X239422D01*
X239422Y319044D01*
X244860D01*
Y318904D01*
X245000D01*
X245000Y311096D01*
X251136D01*
Y319044D01*
X256713D01*
Y298406D01*
X253506D01*
X253367D01*
D02*
G37*
G36*
X273446Y304960D02*
Y303984D01*
X273307D01*
Y303008D01*
X273167D01*
Y302450D01*
X273028D01*
X273028Y302032D01*
X272889D01*
Y301753D01*
X272749D01*
Y301474D01*
X272610D01*
Y301195D01*
X272470D01*
Y301056D01*
X272331D01*
Y300777D01*
X272191D01*
Y300637D01*
X272052D01*
Y300498D01*
X271912D01*
X271912Y300359D01*
X271773D01*
Y300219D01*
X271633D01*
Y300080D01*
X271494D01*
Y299940D01*
X271355D01*
Y299801D01*
X271215D01*
Y299661D01*
X271076D01*
Y299522D01*
X270797D01*
Y299382D01*
X270657D01*
Y299243D01*
X270378D01*
Y299104D01*
X270100D01*
Y298964D01*
X269821D01*
Y298825D01*
X269542D01*
Y298685D01*
X269123D01*
Y298546D01*
X268566D01*
Y298406D01*
X268008D01*
Y298267D01*
X267032D01*
Y298127D01*
X264243D01*
Y298267D01*
X263127D01*
Y298406D01*
X262291D01*
Y298546D01*
X261733D01*
Y298685D01*
X261175D01*
Y298825D01*
X260618D01*
Y298964D01*
X260199D01*
Y299104D01*
X259781D01*
Y299243D01*
X259502D01*
Y299382D01*
X259084D01*
Y299522D01*
X258805Y299522D01*
Y299661D01*
X258665D01*
Y300080D01*
X258805D01*
Y300637D01*
X258944D01*
Y301195D01*
X259084D01*
X259084Y301614D01*
X259223D01*
Y302171D01*
X259363D01*
X259363Y302729D01*
X259502D01*
Y303147D01*
X259641D01*
Y303566D01*
X259920D01*
Y303705D01*
X260757D01*
Y303566D01*
X261175D01*
Y303426D01*
X261594D01*
Y303287D01*
X262012D01*
Y303147D01*
X262570D01*
Y303008D01*
X263127D01*
Y302868D01*
X263825D01*
Y302729D01*
X265080Y302729D01*
Y302590D01*
X265637Y302590D01*
Y302729D01*
X266753D01*
Y302868D01*
X267032D01*
Y303008D01*
X267311D01*
Y303147D01*
X267450D01*
Y303287D01*
X267590D01*
Y303426D01*
X267729D01*
Y303705D01*
X267868D01*
Y304821D01*
X267729D01*
Y305100D01*
X267590D01*
Y305239D01*
X267450D01*
Y305378D01*
X267311D01*
Y305518D01*
X267171D01*
Y305657D01*
X267032D01*
Y305797D01*
X266753D01*
Y305936D01*
X266474D01*
Y306076D01*
X266195D01*
X266195Y306215D01*
X265777D01*
Y306355D01*
X265498D01*
Y306494D01*
X265219D01*
Y306633D01*
X264940D01*
Y306773D01*
X264522D01*
Y306912D01*
X264243D01*
Y307052D01*
X263964D01*
X263964Y307191D01*
X263685D01*
Y307331D01*
X263267D01*
Y307470D01*
X262988D01*
Y307610D01*
X262709D01*
Y307749D01*
X262430D01*
Y307889D01*
X262151D01*
Y308028D01*
X262012D01*
Y308167D01*
X261733D01*
Y308307D01*
X261594D01*
Y308446D01*
X261315D01*
Y308586D01*
X261175D01*
Y308725D01*
X261036D01*
X261036Y308865D01*
X260896D01*
Y309004D01*
X260618D01*
Y309143D01*
X260478D01*
Y309422D01*
X260339D01*
Y309562D01*
X260199D01*
Y309701D01*
X260060D01*
Y309841D01*
X259920D01*
Y310119D01*
X259781D01*
Y310398D01*
X259641Y310398D01*
Y310538D01*
X259502D01*
X259502Y310956D01*
X259363D01*
Y311374D01*
X259223D01*
X259223Y311932D01*
X259084D01*
Y312908D01*
X258944D01*
Y313606D01*
X259084D01*
Y314721D01*
X259223D01*
Y315279D01*
X259363D01*
Y315558D01*
X259502D01*
X259502Y315976D01*
X259641D01*
Y316255D01*
X259781D01*
Y316394D01*
X259920D01*
Y316673D01*
X260060D01*
Y316813D01*
X260199D01*
Y316952D01*
X260339D01*
Y317092D01*
X260478D01*
X260478Y317370D01*
X260618D01*
Y317510D01*
X260896D01*
Y317649D01*
X261036D01*
Y317789D01*
X261175D01*
Y317928D01*
X261315D01*
Y318068D01*
X261594D01*
Y318207D01*
X261733Y318207D01*
Y318347D01*
X262012D01*
Y318486D01*
X262291D01*
Y318626D01*
X262570D01*
Y318765D01*
X262988D01*
Y318904D01*
X263267D01*
Y319044D01*
X263825D01*
Y319183D01*
X264382D01*
Y319323D01*
X265359D01*
Y319462D01*
X267868Y319462D01*
Y319323D01*
X268984D01*
Y319183D01*
X269681D01*
Y319044D01*
X270239D01*
Y318904D01*
X270797D01*
Y318765D01*
X271215D01*
Y318626D01*
X271494D01*
Y318486D01*
X271912D01*
Y318347D01*
X272191D01*
Y318207D01*
X272470D01*
Y318068D01*
X272889D01*
Y317928D01*
X273028Y317928D01*
Y317510D01*
X272889D01*
Y317231D01*
X272749D01*
Y316813D01*
X272610D01*
Y316394D01*
X272470D01*
Y315976D01*
X272331D01*
Y315558D01*
X272191D01*
Y315279D01*
X272052D01*
Y314861D01*
X271912Y314861D01*
X271912Y314442D01*
X271773D01*
Y314024D01*
X271494D01*
Y313885D01*
X270936D01*
Y314024D01*
X270518D01*
Y314163D01*
X270100D01*
Y314303D01*
X269681D01*
Y314442D01*
X269263D01*
Y314582D01*
X268705D01*
Y314721D01*
X268147D01*
Y314861D01*
X267171D01*
Y315000D01*
X266474D01*
Y314861D01*
X265637D01*
Y314721D01*
X265219Y314721D01*
Y314582D01*
X264940D01*
Y314442D01*
X264801D01*
Y314303D01*
X264661D01*
Y314163D01*
X264522D01*
Y313885D01*
X264382D01*
Y313048D01*
X264522D01*
X264522Y312769D01*
X264661D01*
Y312490D01*
X264940Y312490D01*
Y312351D01*
X265080D01*
Y312211D01*
X265219D01*
Y312072D01*
X265498Y312072D01*
Y311932D01*
X265777D01*
X265777Y311793D01*
X266056Y311793D01*
Y311653D01*
X266474Y311653D01*
Y311514D01*
X266753D01*
Y311374D01*
X267032D01*
Y311235D01*
X267450D01*
Y311096D01*
X267729D01*
Y310956D01*
X268008D01*
Y310817D01*
X268426D01*
Y310677D01*
X268705D01*
Y310538D01*
X268984D01*
Y310398D01*
X269402Y310398D01*
Y310259D01*
X269681D01*
Y310119D01*
X269960D01*
Y309980D01*
X270239Y309980D01*
Y309841D01*
X270378D01*
Y309701D01*
X270657D01*
Y309562D01*
X270797D01*
Y309422D01*
X271076D01*
Y309283D01*
X271215D01*
Y309143D01*
X271494D01*
Y309004D01*
X271633D01*
Y308865D01*
X271773D01*
Y308725D01*
X271912D01*
Y308586D01*
X272052D01*
Y308446D01*
X272191D01*
Y308307D01*
X272331D01*
Y308028D01*
X272470D01*
Y307889D01*
X272610D01*
Y307610D01*
X272749D01*
Y307331D01*
X272889D01*
Y307052D01*
X273028Y307052D01*
X273028Y306633D01*
X273167D01*
Y306215D01*
X273307D01*
X273307Y305239D01*
X273446D01*
Y305100D01*
Y304960D01*
D02*
G37*
G36*
X276096Y315837D02*
Y319044D01*
X281534D01*
Y318904D01*
X281673D01*
Y303147D01*
X289064D01*
Y303008D01*
X289203D01*
Y302868D01*
X289343D01*
Y298406D01*
X276096D01*
Y315697D01*
Y315837D01*
D02*
G37*
G36*
X302032Y305797D02*
Y318904D01*
X302171D01*
Y319044D01*
X307610D01*
Y305936D01*
X307470D01*
Y304821D01*
X307331D01*
Y303984D01*
X307191D01*
Y303426D01*
X307052D01*
Y303008D01*
X306912D01*
Y302590D01*
X306773D01*
Y302311D01*
X306633D01*
Y302032D01*
X306494D01*
Y301753D01*
X306355D01*
Y301474D01*
X306215D01*
Y301335D01*
X306076D01*
Y301056D01*
X305936D01*
Y300916D01*
X305797D01*
Y300637D01*
X305657D01*
Y300498D01*
X305518D01*
Y300359D01*
X305378D01*
Y300219D01*
X305239D01*
Y300080D01*
X305100D01*
Y299940D01*
X304960D01*
Y299801D01*
X304681D01*
Y299661D01*
X304542D01*
Y299522D01*
X304263D01*
Y299382D01*
X304123D01*
Y299243D01*
X303845D01*
Y299104D01*
X303566D01*
Y298964D01*
X303287D01*
Y298825D01*
X302868D01*
Y298685D01*
X302590D01*
X302590Y298546D01*
X302032D01*
Y298406D01*
X301335D01*
Y298267D01*
X300359Y298267D01*
Y298127D01*
X297570Y298127D01*
Y298267D01*
X296594D01*
Y298406D01*
X295896D01*
Y298546D01*
X295339D01*
X295339Y298685D01*
X295060D01*
Y298825D01*
X294641D01*
Y298964D01*
X294363D01*
Y299104D01*
X294084D01*
Y299243D01*
X293805D01*
Y299382D01*
X293665D01*
Y299522D01*
X293386D01*
Y299661D01*
X293247D01*
Y299801D01*
X293108D01*
Y299940D01*
X292968D01*
Y300080D01*
X292689D01*
Y300219D01*
X292550D01*
Y300359D01*
X292410D01*
Y300637D01*
X292271D01*
Y300777D01*
X292132D01*
Y300916D01*
X291992D01*
Y301195D01*
X291853D01*
Y301335D01*
X291713D01*
Y301614D01*
X291574D01*
Y301892D01*
X291434D01*
Y302171D01*
X291295D01*
Y302450D01*
X291155D01*
Y302729D01*
X291016D01*
Y303147D01*
X290877D01*
X290877Y303705D01*
X290737D01*
Y304402D01*
X290598D01*
Y305518D01*
X290458Y305518D01*
X290458Y319044D01*
X295896D01*
Y318904D01*
X296036D01*
Y305657D01*
X296175D01*
Y304960D01*
X296315D01*
Y304542D01*
X296454D01*
Y304263D01*
X296594D01*
Y303984D01*
X296733D01*
Y303845D01*
X296873D01*
Y303705D01*
X297012D01*
Y303566D01*
X297151D01*
Y303426D01*
X297291D01*
Y303287D01*
X297570D01*
Y303147D01*
X297849D01*
Y303008D01*
X298546D01*
Y302868D01*
X299522D01*
Y303008D01*
X300219Y303008D01*
X300219Y303147D01*
X300498D01*
Y303287D01*
X300777D01*
Y303426D01*
X300916D01*
Y303566D01*
X301056D01*
Y303705D01*
X301195D01*
Y303845D01*
X301335D01*
Y303984D01*
X301474D01*
Y304263D01*
X301614D01*
Y304542D01*
X301753D01*
Y305100D01*
X301892D01*
Y305797D01*
X302032D01*
D02*
G37*
G36*
X157019Y644849D02*
X157248Y644828D01*
X157477Y644807D01*
X157748Y644787D01*
X158331Y644703D01*
X158977Y644578D01*
X159622Y644391D01*
X160247Y644162D01*
X160268D01*
X160310Y644120D01*
X160414Y644099D01*
X160518Y644037D01*
X160643Y643953D01*
X160809Y643870D01*
X161164Y643662D01*
X161580Y643370D01*
X161997Y643016D01*
X162392Y642620D01*
X162747Y642141D01*
X162767Y642121D01*
X162788Y642079D01*
X162830Y642017D01*
X162892Y641912D01*
X162955Y641787D01*
X163038Y641642D01*
X163101Y641454D01*
X163205Y641267D01*
X163371Y640829D01*
X163517Y640309D01*
X163642Y639746D01*
X163705Y639121D01*
X161268Y638934D01*
Y638955D01*
X161247Y639017D01*
Y639101D01*
X161226Y639226D01*
X161184Y639392D01*
X161143Y639559D01*
X161018Y639954D01*
X160851Y640392D01*
X160601Y640850D01*
X160310Y641288D01*
X160122Y641475D01*
X159914Y641662D01*
X159893Y641683D01*
X159872Y641704D01*
X159789Y641746D01*
X159706Y641808D01*
X159581Y641871D01*
X159435Y641954D01*
X159268Y642037D01*
X159081Y642141D01*
X158852Y642225D01*
X158602Y642308D01*
X158331Y642391D01*
X158039Y642454D01*
X157706Y642516D01*
X157352Y642558D01*
X156977Y642600D01*
X156373D01*
X156207Y642579D01*
X156019D01*
X155811Y642558D01*
X155561Y642537D01*
X155311Y642495D01*
X154748Y642391D01*
X154207Y642246D01*
X153686Y642037D01*
X153436Y641891D01*
X153228Y641746D01*
X153207D01*
X153186Y641704D01*
X153062Y641600D01*
X152895Y641413D01*
X152707Y641162D01*
X152520Y640871D01*
X152353Y640517D01*
X152228Y640142D01*
X152207Y639934D01*
X152187Y639705D01*
Y639684D01*
Y639663D01*
X152207Y639538D01*
X152228Y639351D01*
X152270Y639121D01*
X152374Y638851D01*
X152499Y638559D01*
X152666Y638288D01*
X152916Y638018D01*
X152957Y637997D01*
X152999Y637955D01*
X153082Y637892D01*
X153186Y637830D01*
X153311Y637768D01*
X153478Y637684D01*
X153666Y637580D01*
X153895Y637476D01*
X154165Y637372D01*
X154478Y637268D01*
X154832Y637143D01*
X155248Y637018D01*
X155686Y636893D01*
X156186Y636747D01*
X156748Y636622D01*
X156790D01*
X156894Y636601D01*
X157040Y636559D01*
X157248Y636497D01*
X157498Y636455D01*
X157789Y636372D01*
X158102Y636310D01*
X158435Y636205D01*
X159143Y636018D01*
X159851Y635831D01*
X160185Y635726D01*
X160476Y635622D01*
X160768Y635518D01*
X160997Y635414D01*
X161018D01*
X161080Y635372D01*
X161164Y635331D01*
X161268Y635268D01*
X161413Y635206D01*
X161580Y635102D01*
X161934Y634873D01*
X162351Y634602D01*
X162747Y634268D01*
X163142Y633873D01*
X163309Y633664D01*
X163475Y633456D01*
Y633435D01*
X163517Y633394D01*
X163559Y633331D01*
X163600Y633248D01*
X163663Y633144D01*
X163725Y632998D01*
X163892Y632665D01*
X164038Y632269D01*
X164163Y631811D01*
X164246Y631290D01*
X164288Y630728D01*
Y630707D01*
Y630665D01*
Y630582D01*
X164267Y630478D01*
Y630332D01*
X164246Y630186D01*
X164184Y629790D01*
X164079Y629353D01*
X163913Y628874D01*
X163684Y628374D01*
X163559Y628103D01*
X163392Y627853D01*
Y627833D01*
X163351Y627791D01*
X163309Y627729D01*
X163225Y627624D01*
X163038Y627395D01*
X162747Y627083D01*
X162392Y626749D01*
X161955Y626395D01*
X161455Y626062D01*
X160872Y625750D01*
X160851D01*
X160789Y625708D01*
X160705Y625687D01*
X160580Y625625D01*
X160435Y625583D01*
X160247Y625521D01*
X160039Y625437D01*
X159789Y625375D01*
X159539Y625312D01*
X159247Y625229D01*
X158623Y625125D01*
X157935Y625042D01*
X157185Y625000D01*
X156936D01*
X156748Y625021D01*
X156519D01*
X156269Y625042D01*
X155977Y625062D01*
X155644Y625104D01*
X154957Y625187D01*
X154228Y625312D01*
X153499Y625500D01*
X152791Y625750D01*
X152770D01*
X152707Y625792D01*
X152624Y625833D01*
X152499Y625896D01*
X152353Y625979D01*
X152187Y626062D01*
X151791Y626312D01*
X151354Y626625D01*
X150895Y627020D01*
X150437Y627478D01*
X150041Y628020D01*
X150021Y628041D01*
X150000Y628083D01*
X149958Y628166D01*
X149896Y628291D01*
X149812Y628437D01*
X149729Y628603D01*
X149625Y628811D01*
X149542Y629041D01*
X149437Y629270D01*
X149354Y629540D01*
X149187Y630145D01*
X149062Y630790D01*
X149021Y631144D01*
X149000Y631498D01*
X151395Y631707D01*
Y631686D01*
Y631644D01*
X151416Y631561D01*
X151437Y631457D01*
X151458Y631332D01*
X151479Y631207D01*
X151562Y630853D01*
X151666Y630478D01*
X151791Y630082D01*
X151958Y629686D01*
X152166Y629311D01*
X152187Y629270D01*
X152291Y629166D01*
X152437Y628999D01*
X152645Y628791D01*
X152916Y628541D01*
X153249Y628312D01*
X153645Y628062D01*
X154103Y627833D01*
X154124D01*
X154165Y627812D01*
X154228Y627791D01*
X154332Y627749D01*
X154457Y627708D01*
X154603Y627645D01*
X154769Y627603D01*
X154957Y627562D01*
X155394Y627458D01*
X155915Y627354D01*
X156456Y627291D01*
X157060Y627270D01*
X157310D01*
X157435Y627291D01*
X157581D01*
X157914Y627333D01*
X158310Y627374D01*
X158748Y627437D01*
X159185Y627541D01*
X159601Y627687D01*
X159622D01*
X159643Y627708D01*
X159706Y627729D01*
X159789Y627770D01*
X159976Y627874D01*
X160226Y627999D01*
X160497Y628166D01*
X160789Y628374D01*
X161039Y628603D01*
X161268Y628874D01*
X161289Y628916D01*
X161351Y628999D01*
X161455Y629166D01*
X161559Y629374D01*
X161643Y629624D01*
X161747Y629895D01*
X161809Y630207D01*
X161830Y630519D01*
Y630540D01*
Y630561D01*
Y630665D01*
X161809Y630853D01*
X161768Y631061D01*
X161705Y631311D01*
X161601Y631582D01*
X161476Y631852D01*
X161289Y632102D01*
X161268Y632123D01*
X161184Y632206D01*
X161059Y632332D01*
X160872Y632498D01*
X160643Y632665D01*
X160330Y632852D01*
X159976Y633040D01*
X159560Y633227D01*
X159518Y633248D01*
X159476Y633269D01*
X159393Y633289D01*
X159310Y633310D01*
X159185Y633352D01*
X159018Y633414D01*
X158852Y633456D01*
X158623Y633519D01*
X158393Y633602D01*
X158102Y633664D01*
X157789Y633748D01*
X157435Y633852D01*
X157060Y633935D01*
X156623Y634060D01*
X156144Y634164D01*
X156123D01*
X156040Y634185D01*
X155894Y634227D01*
X155728Y634268D01*
X155498Y634331D01*
X155248Y634393D01*
X154999Y634477D01*
X154707Y634560D01*
X154082Y634748D01*
X153478Y634956D01*
X153186Y635060D01*
X152916Y635164D01*
X152666Y635268D01*
X152458Y635372D01*
X152437D01*
X152395Y635414D01*
X152332Y635456D01*
X152228Y635497D01*
X151978Y635643D01*
X151687Y635851D01*
X151333Y636122D01*
X150999Y636414D01*
X150666Y636768D01*
X150395Y637143D01*
Y637164D01*
X150375Y637184D01*
X150333Y637247D01*
X150291Y637330D01*
X150187Y637559D01*
X150062Y637851D01*
X149937Y638205D01*
X149833Y638621D01*
X149750Y639080D01*
X149729Y639559D01*
Y639580D01*
Y639621D01*
Y639705D01*
X149750Y639809D01*
Y639934D01*
X149771Y640079D01*
X149833Y640454D01*
X149937Y640871D01*
X150062Y641308D01*
X150271Y641787D01*
X150541Y642266D01*
Y642287D01*
X150583Y642329D01*
X150625Y642391D01*
X150687Y642475D01*
X150895Y642704D01*
X151166Y642995D01*
X151499Y643308D01*
X151916Y643620D01*
X152395Y643933D01*
X152957Y644203D01*
X152978D01*
X153020Y644224D01*
X153124Y644266D01*
X153228Y644308D01*
X153374Y644349D01*
X153561Y644412D01*
X153770Y644474D01*
X153999Y644537D01*
X154249Y644599D01*
X154519Y644662D01*
X155103Y644766D01*
X155769Y644849D01*
X156477Y644870D01*
X156831D01*
X157019Y644849D01*
D02*
G37*
G36*
X275697Y625312D02*
X273510D01*
Y627062D01*
X273489Y627041D01*
X273447Y626979D01*
X273364Y626875D01*
X273260Y626749D01*
X273114Y626583D01*
X272947Y626416D01*
X272760Y626229D01*
X272531Y626041D01*
X272260Y625833D01*
X271968Y625646D01*
X271656Y625479D01*
X271302Y625333D01*
X270906Y625187D01*
X270511Y625083D01*
X270073Y625021D01*
X269594Y625000D01*
X269428D01*
X269303Y625021D01*
X269157D01*
X268990Y625042D01*
X268803Y625083D01*
X268594Y625125D01*
X268115Y625229D01*
X267595Y625396D01*
X267074Y625625D01*
X266803Y625750D01*
X266532Y625916D01*
X266512Y625937D01*
X266470Y625958D01*
X266407Y626021D01*
X266303Y626083D01*
X266178Y626187D01*
X266053Y626291D01*
X265741Y626583D01*
X265387Y626937D01*
X265033Y627374D01*
X264679Y627895D01*
X264366Y628478D01*
Y628499D01*
X264325Y628562D01*
X264304Y628645D01*
X264241Y628770D01*
X264200Y628916D01*
X264137Y629103D01*
X264054Y629332D01*
X263991Y629561D01*
X263929Y629832D01*
X263846Y630124D01*
X263783Y630436D01*
X263741Y630769D01*
X263658Y631478D01*
X263617Y632248D01*
Y632269D01*
Y632352D01*
Y632456D01*
X263637Y632602D01*
Y632790D01*
X263658Y632998D01*
X263679Y633248D01*
X263700Y633519D01*
X263783Y634102D01*
X263908Y634727D01*
X264075Y635393D01*
X264304Y636039D01*
Y636060D01*
X264345Y636122D01*
X264387Y636205D01*
X264429Y636330D01*
X264512Y636455D01*
X264595Y636622D01*
X264825Y636997D01*
X265116Y637434D01*
X265470Y637851D01*
X265887Y638267D01*
X266387Y638642D01*
X266407Y638663D01*
X266449Y638684D01*
X266532Y638726D01*
X266637Y638788D01*
X266761Y638851D01*
X266928Y638934D01*
X267095Y639017D01*
X267303Y639101D01*
X267761Y639267D01*
X268282Y639413D01*
X268865Y639517D01*
X269178Y639559D01*
X269698D01*
X269948Y639538D01*
X270240Y639496D01*
X270594Y639434D01*
X270969Y639330D01*
X271364Y639205D01*
X271739Y639017D01*
X271760D01*
X271781Y638996D01*
X271906Y638913D01*
X272073Y638809D01*
X272302Y638642D01*
X272552Y638434D01*
X272822Y638205D01*
X273093Y637934D01*
X273343Y637622D01*
Y644537D01*
X275697D01*
Y625312D01*
D02*
G37*
G36*
X241497Y639538D02*
X241622D01*
X241935Y639496D01*
X242289Y639455D01*
X242684Y639371D01*
X243080Y639246D01*
X243476Y639101D01*
X243497D01*
X243517Y639080D01*
X243642Y639017D01*
X243830Y638913D01*
X244080Y638788D01*
X244330Y638601D01*
X244601Y638413D01*
X244851Y638184D01*
X245059Y637913D01*
X245080Y637872D01*
X245142Y637788D01*
X245225Y637622D01*
X245350Y637413D01*
X245475Y637164D01*
X245579Y636872D01*
X245704Y636539D01*
X245788Y636164D01*
Y636143D01*
X245809Y636039D01*
X245829Y635872D01*
X245871Y635643D01*
X245892Y635331D01*
Y635143D01*
X245913Y634935D01*
Y634706D01*
X245933Y634435D01*
Y634164D01*
Y633873D01*
Y625312D01*
X243580D01*
Y633789D01*
Y633810D01*
Y633852D01*
Y633935D01*
Y634019D01*
Y634143D01*
X243559Y634289D01*
X243538Y634602D01*
X243517Y634956D01*
X243455Y635310D01*
X243393Y635643D01*
X243288Y635935D01*
X243267Y635976D01*
X243226Y636060D01*
X243163Y636185D01*
X243059Y636351D01*
X242934Y636539D01*
X242768Y636726D01*
X242559Y636914D01*
X242309Y637080D01*
X242289Y637101D01*
X242185Y637143D01*
X242039Y637226D01*
X241851Y637309D01*
X241601Y637372D01*
X241331Y637455D01*
X241018Y637497D01*
X240664Y637518D01*
X240518D01*
X240414Y637497D01*
X240289D01*
X240123Y637476D01*
X239768Y637393D01*
X239373Y637289D01*
X238935Y637122D01*
X238498Y636872D01*
X238269Y636726D01*
X238060Y636559D01*
X238040Y636539D01*
X238019Y636518D01*
X237956Y636455D01*
X237894Y636372D01*
X237811Y636247D01*
X237727Y636122D01*
X237623Y635956D01*
X237519Y635747D01*
X237415Y635518D01*
X237311Y635247D01*
X237227Y634956D01*
X237144Y634622D01*
X237082Y634248D01*
X237019Y633852D01*
X236998Y633394D01*
X236978Y632915D01*
Y625312D01*
X234624D01*
Y639246D01*
X236748D01*
Y637247D01*
X236769Y637268D01*
X236811Y637351D01*
X236915Y637455D01*
X237040Y637601D01*
X237186Y637788D01*
X237373Y637976D01*
X237602Y638184D01*
X237873Y638413D01*
X238165Y638621D01*
X238498Y638830D01*
X238852Y639017D01*
X239248Y639205D01*
X239685Y639351D01*
X240143Y639455D01*
X240643Y639538D01*
X241164Y639559D01*
X241372D01*
X241497Y639538D01*
D02*
G37*
G36*
X189261D02*
X189386D01*
X189698Y639496D01*
X190052Y639455D01*
X190448Y639371D01*
X190844Y639246D01*
X191239Y639101D01*
X191260D01*
X191281Y639080D01*
X191406Y639017D01*
X191593Y638913D01*
X191843Y638788D01*
X192093Y638601D01*
X192364Y638413D01*
X192614Y638184D01*
X192822Y637913D01*
X192843Y637872D01*
X192905Y637788D01*
X192989Y637622D01*
X193114Y637413D01*
X193239Y637164D01*
X193343Y636872D01*
X193468Y636539D01*
X193551Y636164D01*
Y636143D01*
X193572Y636039D01*
X193593Y635872D01*
X193634Y635643D01*
X193655Y635331D01*
Y635143D01*
X193676Y634935D01*
Y634706D01*
X193697Y634435D01*
Y634164D01*
Y633873D01*
Y625312D01*
X191343D01*
Y633789D01*
Y633810D01*
Y633852D01*
Y633935D01*
Y634019D01*
Y634143D01*
X191322Y634289D01*
X191302Y634602D01*
X191281Y634956D01*
X191218Y635310D01*
X191156Y635643D01*
X191052Y635935D01*
X191031Y635976D01*
X190989Y636060D01*
X190927Y636185D01*
X190823Y636351D01*
X190698Y636539D01*
X190531Y636726D01*
X190323Y636914D01*
X190073Y637080D01*
X190052Y637101D01*
X189948Y637143D01*
X189802Y637226D01*
X189615Y637309D01*
X189365Y637372D01*
X189094Y637455D01*
X188782Y637497D01*
X188427Y637518D01*
X188282D01*
X188178Y637497D01*
X188053D01*
X187886Y637476D01*
X187532Y637393D01*
X187136Y637289D01*
X186699Y637122D01*
X186261Y636872D01*
X186032Y636726D01*
X185824Y636559D01*
X185803Y636539D01*
X185782Y636518D01*
X185720Y636455D01*
X185657Y636372D01*
X185574Y636247D01*
X185491Y636122D01*
X185387Y635956D01*
X185282Y635747D01*
X185178Y635518D01*
X185074Y635247D01*
X184991Y634956D01*
X184907Y634622D01*
X184845Y634248D01*
X184783Y633852D01*
X184762Y633394D01*
X184741Y632915D01*
Y625312D01*
X182387D01*
Y639246D01*
X184512D01*
Y637247D01*
X184533Y637268D01*
X184574Y637351D01*
X184678Y637455D01*
X184803Y637601D01*
X184949Y637788D01*
X185137Y637976D01*
X185366Y638184D01*
X185637Y638413D01*
X185928Y638621D01*
X186261Y638830D01*
X186615Y639017D01*
X187011Y639205D01*
X187449Y639351D01*
X187907Y639455D01*
X188407Y639538D01*
X188927Y639559D01*
X189136D01*
X189261Y639538D01*
D02*
G37*
G36*
X231000D02*
X231104D01*
X231229Y639517D01*
X231541Y639455D01*
X231916Y639371D01*
X232312Y639226D01*
X232770Y639038D01*
X233228Y638788D01*
X232395Y636601D01*
X232354Y636622D01*
X232250Y636684D01*
X232083Y636768D01*
X231854Y636872D01*
X231604Y636955D01*
X231312Y637039D01*
X231000Y637101D01*
X230667Y637122D01*
X230542D01*
X230396Y637101D01*
X230208Y637059D01*
X229979Y636997D01*
X229750Y636914D01*
X229521Y636810D01*
X229271Y636643D01*
X229250Y636622D01*
X229167Y636559D01*
X229063Y636455D01*
X228938Y636310D01*
X228792Y636122D01*
X228646Y635914D01*
X228521Y635643D01*
X228396Y635351D01*
Y635331D01*
X228375Y635289D01*
X228355Y635227D01*
X228334Y635143D01*
X228313Y635018D01*
X228271Y634873D01*
X228209Y634539D01*
X228146Y634123D01*
X228084Y633664D01*
X228042Y633144D01*
X228021Y632602D01*
Y625312D01*
X225668D01*
Y639246D01*
X227792D01*
Y637143D01*
X227834Y637184D01*
X227876Y637268D01*
X227938Y637351D01*
X228084Y637622D01*
X228292Y637913D01*
X228521Y638247D01*
X228771Y638580D01*
X229021Y638851D01*
X229167Y638976D01*
X229292Y639080D01*
X229334Y639101D01*
X229417Y639163D01*
X229563Y639226D01*
X229729Y639330D01*
X229958Y639413D01*
X230208Y639476D01*
X230500Y639538D01*
X230792Y639559D01*
X230917D01*
X231000Y639538D01*
D02*
G37*
G36*
X202320D02*
X202486D01*
X202882Y639496D01*
X203319Y639434D01*
X203819Y639351D01*
X204298Y639246D01*
X204777Y639080D01*
X204798D01*
X204840Y639059D01*
X204902Y639038D01*
X204986Y638996D01*
X205194Y638892D01*
X205485Y638746D01*
X205777Y638559D01*
X206069Y638330D01*
X206360Y638080D01*
X206610Y637788D01*
X206631Y637747D01*
X206714Y637643D01*
X206819Y637455D01*
X206943Y637226D01*
X207089Y636914D01*
X207214Y636539D01*
X207339Y636122D01*
X207443Y635643D01*
X205131Y635331D01*
Y635351D01*
Y635372D01*
X205090Y635497D01*
X205048Y635706D01*
X204965Y635935D01*
X204840Y636205D01*
X204673Y636476D01*
X204465Y636747D01*
X204215Y636997D01*
X204173Y637018D01*
X204069Y637101D01*
X203903Y637205D01*
X203673Y637309D01*
X203361Y637434D01*
X202986Y637518D01*
X202570Y637601D01*
X202070Y637622D01*
X201799D01*
X201674Y637601D01*
X201528D01*
X201174Y637559D01*
X200799Y637497D01*
X200403Y637393D01*
X200049Y637268D01*
X199904Y637184D01*
X199758Y637080D01*
X199737Y637059D01*
X199654Y636976D01*
X199550Y636872D01*
X199425Y636726D01*
X199279Y636539D01*
X199175Y636310D01*
X199091Y636081D01*
X199070Y635810D01*
Y635789D01*
Y635726D01*
X199091Y635643D01*
X199112Y635539D01*
X199195Y635268D01*
X199258Y635122D01*
X199341Y634977D01*
X199362Y634956D01*
X199404Y634914D01*
X199466Y634852D01*
X199570Y634768D01*
X199695Y634664D01*
X199862Y634560D01*
X200049Y634456D01*
X200258Y634352D01*
X200278D01*
X200341Y634331D01*
X200466Y634289D01*
X200653Y634227D01*
X200778Y634185D01*
X200924Y634143D01*
X201091Y634102D01*
X201278Y634039D01*
X201507Y633977D01*
X201757Y633914D01*
X202028Y633831D01*
X202341Y633748D01*
X202361D01*
X202445Y633727D01*
X202570Y633685D01*
X202757Y633644D01*
X202945Y633581D01*
X203174Y633519D01*
X203444Y633435D01*
X203715Y633352D01*
X204298Y633185D01*
X204861Y632998D01*
X205131Y632915D01*
X205381Y632811D01*
X205611Y632727D01*
X205819Y632644D01*
X205840D01*
X205860Y632623D01*
X205985Y632561D01*
X206173Y632477D01*
X206381Y632332D01*
X206631Y632165D01*
X206902Y631956D01*
X207152Y631707D01*
X207381Y631415D01*
X207402Y631373D01*
X207464Y631269D01*
X207568Y631103D01*
X207673Y630853D01*
X207777Y630561D01*
X207881Y630228D01*
X207943Y629832D01*
X207964Y629395D01*
Y629374D01*
Y629332D01*
Y629270D01*
Y629186D01*
X207922Y628957D01*
X207881Y628666D01*
X207798Y628332D01*
X207673Y627958D01*
X207485Y627562D01*
X207256Y627166D01*
Y627145D01*
X207214Y627124D01*
X207131Y627000D01*
X206964Y626812D01*
X206756Y626583D01*
X206465Y626312D01*
X206131Y626041D01*
X205735Y625792D01*
X205277Y625562D01*
X205256D01*
X205215Y625541D01*
X205152Y625521D01*
X205048Y625479D01*
X204923Y625437D01*
X204777Y625375D01*
X204611Y625333D01*
X204423Y625292D01*
X203986Y625187D01*
X203486Y625083D01*
X202945Y625021D01*
X202341Y625000D01*
X202070D01*
X201882Y625021D01*
X201674Y625042D01*
X201403Y625062D01*
X201112Y625083D01*
X200799Y625146D01*
X200133Y625271D01*
X199425Y625458D01*
X199091Y625583D01*
X198758Y625750D01*
X198466Y625916D01*
X198175Y626104D01*
X198154Y626125D01*
X198112Y626166D01*
X198050Y626229D01*
X197946Y626312D01*
X197842Y626437D01*
X197717Y626583D01*
X197571Y626749D01*
X197425Y626937D01*
X197258Y627166D01*
X197113Y627416D01*
X196967Y627687D01*
X196821Y627999D01*
X196696Y628312D01*
X196571Y628666D01*
X196467Y629062D01*
X196384Y629457D01*
X198716Y629832D01*
Y629811D01*
X198737Y629770D01*
Y629707D01*
X198758Y629603D01*
X198779Y629478D01*
X198821Y629353D01*
X198925Y629041D01*
X199070Y628687D01*
X199258Y628312D01*
X199487Y627978D01*
X199799Y627666D01*
X199820D01*
X199841Y627645D01*
X199966Y627562D01*
X200174Y627437D01*
X200466Y627312D01*
X200820Y627166D01*
X201257Y627062D01*
X201757Y626979D01*
X202320Y626937D01*
X202486D01*
X202591Y626958D01*
X202736D01*
X202882Y626979D01*
X203236Y627020D01*
X203632Y627104D01*
X204048Y627208D01*
X204423Y627374D01*
X204757Y627583D01*
X204798Y627603D01*
X204881Y627708D01*
X205007Y627833D01*
X205152Y628020D01*
X205298Y628249D01*
X205423Y628520D01*
X205506Y628811D01*
X205548Y629145D01*
Y629186D01*
Y629270D01*
X205506Y629436D01*
X205465Y629603D01*
X205381Y629811D01*
X205256Y630019D01*
X205069Y630228D01*
X204840Y630415D01*
X204819Y630436D01*
X204736Y630478D01*
X204590Y630540D01*
X204486Y630582D01*
X204361Y630624D01*
X204194Y630686D01*
X204028Y630748D01*
X203840Y630811D01*
X203611Y630873D01*
X203361Y630957D01*
X203069Y631040D01*
X202757Y631123D01*
X202424Y631207D01*
X202403D01*
X202320Y631228D01*
X202174Y631269D01*
X202007Y631311D01*
X201799Y631373D01*
X201549Y631436D01*
X201278Y631519D01*
X200987Y631603D01*
X200403Y631790D01*
X199799Y631977D01*
X199508Y632061D01*
X199258Y632165D01*
X199008Y632269D01*
X198800Y632352D01*
X198779D01*
X198758Y632373D01*
X198633Y632436D01*
X198466Y632540D01*
X198237Y632706D01*
X197987Y632894D01*
X197738Y633102D01*
X197488Y633373D01*
X197279Y633664D01*
X197258Y633706D01*
X197196Y633810D01*
X197113Y633998D01*
X197029Y634227D01*
X196946Y634498D01*
X196863Y634810D01*
X196800Y635164D01*
X196779Y635539D01*
Y635560D01*
Y635581D01*
Y635706D01*
X196800Y635872D01*
X196842Y636101D01*
X196884Y636372D01*
X196946Y636664D01*
X197050Y636976D01*
X197196Y637268D01*
X197217Y637309D01*
X197279Y637393D01*
X197363Y637538D01*
X197508Y637726D01*
X197654Y637934D01*
X197862Y638163D01*
X198092Y638372D01*
X198362Y638580D01*
X198383Y638601D01*
X198466Y638642D01*
X198591Y638726D01*
X198758Y638809D01*
X198966Y638913D01*
X199216Y639038D01*
X199529Y639163D01*
X199862Y639267D01*
X199883D01*
X199904Y639288D01*
X200029Y639309D01*
X200216Y639351D01*
X200487Y639413D01*
X200778Y639476D01*
X201133Y639517D01*
X201507Y639538D01*
X201903Y639559D01*
X202174D01*
X202320Y639538D01*
D02*
G37*
G36*
X285403D02*
X285590D01*
X285840Y639496D01*
X286111Y639455D01*
X286423Y639392D01*
X286756Y639330D01*
X287111Y639226D01*
X287465Y639101D01*
X287860Y638934D01*
X288235Y638746D01*
X288610Y638538D01*
X288985Y638267D01*
X289360Y637976D01*
X289693Y637643D01*
X289714Y637622D01*
X289776Y637559D01*
X289860Y637455D01*
X289964Y637289D01*
X290110Y637101D01*
X290256Y636872D01*
X290422Y636580D01*
X290589Y636268D01*
X290735Y635914D01*
X290901Y635518D01*
X291047Y635081D01*
X291193Y634602D01*
X291297Y634081D01*
X291380Y633519D01*
X291443Y632935D01*
X291464Y632311D01*
Y632269D01*
Y632165D01*
Y631956D01*
X291443Y631686D01*
X281049D01*
Y631665D01*
Y631582D01*
X281070Y631457D01*
X281091Y631311D01*
X281112Y631103D01*
X281154Y630894D01*
X281195Y630644D01*
X281258Y630374D01*
X281424Y629811D01*
X281653Y629207D01*
X281799Y628937D01*
X281945Y628645D01*
X282133Y628395D01*
X282341Y628145D01*
X282362Y628124D01*
X282403Y628103D01*
X282466Y628041D01*
X282549Y627958D01*
X282674Y627874D01*
X282799Y627770D01*
X282966Y627645D01*
X283153Y627541D01*
X283570Y627312D01*
X284070Y627124D01*
X284340Y627041D01*
X284632Y627000D01*
X284944Y626958D01*
X285257Y626937D01*
X285382D01*
X285465Y626958D01*
X285715Y626979D01*
X286027Y627020D01*
X286361Y627104D01*
X286736Y627229D01*
X287111Y627374D01*
X287465Y627603D01*
X287485D01*
X287506Y627645D01*
X287610Y627729D01*
X287777Y627895D01*
X287985Y628145D01*
X288214Y628437D01*
X288464Y628832D01*
X288714Y629291D01*
X288923Y629811D01*
X291380Y629499D01*
Y629478D01*
X291359Y629395D01*
X291318Y629291D01*
X291255Y629145D01*
X291193Y628957D01*
X291110Y628749D01*
X291005Y628520D01*
X290901Y628270D01*
X290610Y627749D01*
X290235Y627187D01*
X290006Y626916D01*
X289776Y626645D01*
X289527Y626395D01*
X289235Y626166D01*
X289214Y626146D01*
X289172Y626125D01*
X289068Y626062D01*
X288964Y625979D01*
X288797Y625896D01*
X288610Y625792D01*
X288402Y625687D01*
X288152Y625583D01*
X287881Y625479D01*
X287569Y625375D01*
X287256Y625271D01*
X286902Y625187D01*
X286527Y625104D01*
X286132Y625042D01*
X285694Y625021D01*
X285257Y625000D01*
X285132D01*
X284965Y625021D01*
X284757D01*
X284486Y625062D01*
X284195Y625104D01*
X283861Y625167D01*
X283507Y625229D01*
X283132Y625333D01*
X282737Y625458D01*
X282320Y625604D01*
X281924Y625792D01*
X281508Y626000D01*
X281133Y626250D01*
X280758Y626541D01*
X280404Y626875D01*
X280383Y626895D01*
X280320Y626958D01*
X280237Y627062D01*
X280133Y627229D01*
X279987Y627416D01*
X279841Y627645D01*
X279675Y627916D01*
X279529Y628228D01*
X279363Y628582D01*
X279196Y628978D01*
X279050Y629416D01*
X278904Y629895D01*
X278800Y630394D01*
X278717Y630936D01*
X278654Y631519D01*
X278633Y632144D01*
Y632186D01*
Y632290D01*
X278654Y632477D01*
Y632727D01*
X278696Y633019D01*
X278738Y633352D01*
X278779Y633748D01*
X278863Y634143D01*
X278946Y634581D01*
X279071Y635018D01*
X279217Y635476D01*
X279383Y635935D01*
X279592Y636372D01*
X279841Y636810D01*
X280112Y637226D01*
X280425Y637601D01*
X280445Y637622D01*
X280508Y637684D01*
X280612Y637788D01*
X280758Y637913D01*
X280925Y638059D01*
X281154Y638226D01*
X281404Y638392D01*
X281695Y638580D01*
X282008Y638767D01*
X282362Y638934D01*
X282757Y639101D01*
X283174Y639246D01*
X283632Y639371D01*
X284090Y639476D01*
X284611Y639538D01*
X285132Y639559D01*
X285257D01*
X285403Y639538D01*
D02*
G37*
G36*
X255473D02*
X255681D01*
X255931Y639496D01*
X256202Y639455D01*
X256514Y639392D01*
X256868Y639330D01*
X257222Y639226D01*
X257618Y639101D01*
X257993Y638934D01*
X258389Y638767D01*
X258784Y638538D01*
X259159Y638288D01*
X259534Y637997D01*
X259888Y637663D01*
X259909Y637643D01*
X259972Y637580D01*
X260055Y637476D01*
X260180Y637309D01*
X260305Y637122D01*
X260471Y636893D01*
X260638Y636622D01*
X260805Y636310D01*
X260971Y635956D01*
X261138Y635560D01*
X261305Y635143D01*
X261430Y634685D01*
X261555Y634185D01*
X261638Y633644D01*
X261700Y633060D01*
X261721Y632456D01*
Y632436D01*
Y632332D01*
Y632206D01*
X261700Y632019D01*
Y631790D01*
X261679Y631519D01*
X261659Y631228D01*
X261617Y630915D01*
X261534Y630249D01*
X261388Y629540D01*
X261180Y628853D01*
X261055Y628541D01*
X260909Y628228D01*
Y628208D01*
X260867Y628166D01*
X260826Y628083D01*
X260763Y627978D01*
X260680Y627853D01*
X260576Y627687D01*
X260305Y627354D01*
X259972Y626958D01*
X259576Y626562D01*
X259097Y626187D01*
X258555Y625833D01*
X258535D01*
X258493Y625792D01*
X258410Y625750D01*
X258284Y625708D01*
X258139Y625646D01*
X257972Y625562D01*
X257785Y625500D01*
X257556Y625417D01*
X257326Y625333D01*
X257056Y625271D01*
X256493Y625125D01*
X255868Y625042D01*
X255202Y625000D01*
X255077D01*
X254931Y625021D01*
X254723D01*
X254473Y625062D01*
X254181Y625104D01*
X253869Y625167D01*
X253515Y625229D01*
X253140Y625333D01*
X252765Y625458D01*
X252369Y625604D01*
X251974Y625792D01*
X251578Y626000D01*
X251203Y626250D01*
X250828Y626541D01*
X250474Y626875D01*
X250453Y626895D01*
X250391Y626958D01*
X250307Y627062D01*
X250203Y627229D01*
X250058Y627416D01*
X249912Y627645D01*
X249745Y627937D01*
X249578Y628249D01*
X249412Y628624D01*
X249245Y629020D01*
X249099Y629457D01*
X248954Y629936D01*
X248849Y630457D01*
X248766Y631019D01*
X248704Y631623D01*
X248683Y632269D01*
Y632290D01*
Y632311D01*
Y632436D01*
X248704Y632644D01*
X248724Y632894D01*
X248745Y633227D01*
X248787Y633602D01*
X248870Y633998D01*
X248954Y634435D01*
X249058Y634893D01*
X249203Y635372D01*
X249391Y635851D01*
X249578Y636330D01*
X249828Y636789D01*
X250120Y637226D01*
X250453Y637622D01*
X250828Y637997D01*
X250849Y638018D01*
X250911Y638059D01*
X251016Y638143D01*
X251140Y638247D01*
X251328Y638351D01*
X251536Y638497D01*
X251765Y638642D01*
X252057Y638788D01*
X252348Y638934D01*
X252682Y639059D01*
X253036Y639205D01*
X253432Y639309D01*
X253848Y639413D01*
X254265Y639496D01*
X254723Y639538D01*
X255202Y639559D01*
X255327D01*
X255473Y639538D01*
D02*
G37*
G36*
X216670D02*
X216879D01*
X217128Y639496D01*
X217399Y639455D01*
X217712Y639392D01*
X218066Y639330D01*
X218420Y639226D01*
X218815Y639101D01*
X219190Y638934D01*
X219586Y638767D01*
X219982Y638538D01*
X220357Y638288D01*
X220732Y637997D01*
X221086Y637663D01*
X221106Y637643D01*
X221169Y637580D01*
X221252Y637476D01*
X221377Y637309D01*
X221502Y637122D01*
X221669Y636893D01*
X221835Y636622D01*
X222002Y636310D01*
X222169Y635956D01*
X222335Y635560D01*
X222502Y635143D01*
X222627Y634685D01*
X222752Y634185D01*
X222835Y633644D01*
X222898Y633060D01*
X222919Y632456D01*
Y632436D01*
Y632332D01*
Y632206D01*
X222898Y632019D01*
Y631790D01*
X222877Y631519D01*
X222856Y631228D01*
X222814Y630915D01*
X222731Y630249D01*
X222585Y629540D01*
X222377Y628853D01*
X222252Y628541D01*
X222106Y628228D01*
Y628208D01*
X222065Y628166D01*
X222023Y628083D01*
X221961Y627978D01*
X221877Y627853D01*
X221773Y627687D01*
X221502Y627354D01*
X221169Y626958D01*
X220773Y626562D01*
X220294Y626187D01*
X219753Y625833D01*
X219732D01*
X219690Y625792D01*
X219607Y625750D01*
X219482Y625708D01*
X219336Y625646D01*
X219170Y625562D01*
X218982Y625500D01*
X218753Y625417D01*
X218524Y625333D01*
X218253Y625271D01*
X217691Y625125D01*
X217066Y625042D01*
X216399Y625000D01*
X216274D01*
X216129Y625021D01*
X215920D01*
X215670Y625062D01*
X215379Y625104D01*
X215066Y625167D01*
X214712Y625229D01*
X214337Y625333D01*
X213962Y625458D01*
X213567Y625604D01*
X213171Y625792D01*
X212775Y626000D01*
X212400Y626250D01*
X212026Y626541D01*
X211672Y626875D01*
X211651Y626895D01*
X211588Y626958D01*
X211505Y627062D01*
X211401Y627229D01*
X211255Y627416D01*
X211109Y627645D01*
X210942Y627937D01*
X210776Y628249D01*
X210609Y628624D01*
X210443Y629020D01*
X210297Y629457D01*
X210151Y629936D01*
X210047Y630457D01*
X209964Y631019D01*
X209901Y631623D01*
X209880Y632269D01*
Y632290D01*
Y632311D01*
Y632436D01*
X209901Y632644D01*
X209922Y632894D01*
X209943Y633227D01*
X209984Y633602D01*
X210068Y633998D01*
X210151Y634435D01*
X210255Y634893D01*
X210401Y635372D01*
X210588Y635851D01*
X210776Y636330D01*
X211026Y636789D01*
X211317Y637226D01*
X211651Y637622D01*
X212026Y637997D01*
X212046Y638018D01*
X212109Y638059D01*
X212213Y638143D01*
X212338Y638247D01*
X212525Y638351D01*
X212734Y638497D01*
X212963Y638642D01*
X213254Y638788D01*
X213546Y638934D01*
X213879Y639059D01*
X214233Y639205D01*
X214629Y639309D01*
X215046Y639413D01*
X215462Y639496D01*
X215920Y639538D01*
X216399Y639559D01*
X216524D01*
X216670Y639538D01*
D02*
G37*
G36*
X173431D02*
X173619D01*
X173869Y639496D01*
X174139Y639455D01*
X174452Y639392D01*
X174785Y639330D01*
X175139Y639226D01*
X175493Y639101D01*
X175889Y638934D01*
X176264Y638746D01*
X176639Y638538D01*
X177014Y638267D01*
X177389Y637976D01*
X177722Y637643D01*
X177743Y637622D01*
X177805Y637559D01*
X177888Y637455D01*
X177993Y637289D01*
X178138Y637101D01*
X178284Y636872D01*
X178451Y636580D01*
X178617Y636268D01*
X178763Y635914D01*
X178930Y635518D01*
X179076Y635081D01*
X179221Y634602D01*
X179326Y634081D01*
X179409Y633519D01*
X179471Y632935D01*
X179492Y632311D01*
Y632269D01*
Y632165D01*
Y631956D01*
X179471Y631686D01*
X169078D01*
Y631665D01*
Y631582D01*
X169099Y631457D01*
X169120Y631311D01*
X169141Y631103D01*
X169182Y630894D01*
X169224Y630644D01*
X169286Y630374D01*
X169453Y629811D01*
X169682Y629207D01*
X169828Y628937D01*
X169974Y628645D01*
X170161Y628395D01*
X170369Y628145D01*
X170390Y628124D01*
X170432Y628103D01*
X170494Y628041D01*
X170578Y627958D01*
X170703Y627874D01*
X170828Y627770D01*
X170994Y627645D01*
X171182Y627541D01*
X171598Y627312D01*
X172098Y627124D01*
X172369Y627041D01*
X172661Y627000D01*
X172973Y626958D01*
X173286Y626937D01*
X173410D01*
X173494Y626958D01*
X173744Y626979D01*
X174056Y627020D01*
X174389Y627104D01*
X174764Y627229D01*
X175139Y627374D01*
X175493Y627603D01*
X175514D01*
X175535Y627645D01*
X175639Y627729D01*
X175806Y627895D01*
X176014Y628145D01*
X176243Y628437D01*
X176493Y628832D01*
X176743Y629291D01*
X176951Y629811D01*
X179409Y629499D01*
Y629478D01*
X179388Y629395D01*
X179346Y629291D01*
X179284Y629145D01*
X179221Y628957D01*
X179138Y628749D01*
X179034Y628520D01*
X178930Y628270D01*
X178638Y627749D01*
X178263Y627187D01*
X178034Y626916D01*
X177805Y626645D01*
X177555Y626395D01*
X177264Y626166D01*
X177243Y626146D01*
X177201Y626125D01*
X177097Y626062D01*
X176993Y625979D01*
X176826Y625896D01*
X176639Y625792D01*
X176430Y625687D01*
X176180Y625583D01*
X175910Y625479D01*
X175597Y625375D01*
X175285Y625271D01*
X174931Y625187D01*
X174556Y625104D01*
X174160Y625042D01*
X173723Y625021D01*
X173286Y625000D01*
X173160D01*
X172994Y625021D01*
X172786D01*
X172515Y625062D01*
X172223Y625104D01*
X171890Y625167D01*
X171536Y625229D01*
X171161Y625333D01*
X170765Y625458D01*
X170349Y625604D01*
X169953Y625792D01*
X169536Y626000D01*
X169161Y626250D01*
X168787Y626541D01*
X168433Y626875D01*
X168412Y626895D01*
X168349Y626958D01*
X168266Y627062D01*
X168162Y627229D01*
X168016Y627416D01*
X167870Y627645D01*
X167704Y627916D01*
X167558Y628228D01*
X167391Y628582D01*
X167225Y628978D01*
X167079Y629416D01*
X166933Y629895D01*
X166829Y630394D01*
X166745Y630936D01*
X166683Y631519D01*
X166662Y632144D01*
Y632186D01*
Y632290D01*
X166683Y632477D01*
Y632727D01*
X166725Y633019D01*
X166766Y633352D01*
X166808Y633748D01*
X166891Y634143D01*
X166975Y634581D01*
X167099Y635018D01*
X167245Y635476D01*
X167412Y635935D01*
X167620Y636372D01*
X167870Y636810D01*
X168141Y637226D01*
X168453Y637601D01*
X168474Y637622D01*
X168537Y637684D01*
X168641Y637788D01*
X168787Y637913D01*
X168953Y638059D01*
X169182Y638226D01*
X169432Y638392D01*
X169724Y638580D01*
X170036Y638767D01*
X170390Y638934D01*
X170786Y639101D01*
X171203Y639246D01*
X171661Y639371D01*
X172119Y639476D01*
X172640Y639538D01*
X173160Y639559D01*
X173286D01*
X173431Y639538D01*
D02*
G37*
G36*
X306007Y626208D02*
X304509D01*
X301000Y635486D01*
X302664D01*
X304661Y629925D01*
Y629911D01*
X304675Y629883D01*
X304689Y629841D01*
X304717Y629772D01*
X304744Y629689D01*
X304772Y629592D01*
X304855Y629356D01*
X304953Y629079D01*
X305050Y628760D01*
X305147Y628413D01*
X305258Y628052D01*
Y628066D01*
X305271Y628080D01*
X305285Y628122D01*
X305299Y628177D01*
X305313Y628260D01*
X305341Y628344D01*
X305410Y628552D01*
X305493Y628801D01*
X305590Y629106D01*
X305701Y629439D01*
X305840Y629814D01*
X307906Y635486D01*
X309529D01*
X306007Y626208D01*
D02*
G37*
G36*
X323092D02*
X321303D01*
Y627997D01*
X323092D01*
Y626208D01*
D02*
G37*
G36*
X315021Y639036D02*
X315173Y639022D01*
X315354Y638995D01*
X315562Y638967D01*
X315770Y638925D01*
X316006Y638870D01*
X316241Y638801D01*
X316491Y638717D01*
X316727Y638620D01*
X316976Y638495D01*
X317212Y638357D01*
X317434Y638204D01*
X317642Y638024D01*
X317656Y638010D01*
X317684Y637982D01*
X317739Y637913D01*
X317808Y637844D01*
X317892Y637747D01*
X317989Y637622D01*
X318086Y637483D01*
X318183Y637317D01*
X318280Y637150D01*
X318377Y636956D01*
X318474Y636748D01*
X318557Y636526D01*
X318627Y636277D01*
X318682Y636027D01*
X318710Y635763D01*
X318724Y635486D01*
Y635472D01*
Y635458D01*
Y635417D01*
Y635361D01*
X318710Y635209D01*
X318682Y635014D01*
X318641Y634779D01*
X318585Y634529D01*
X318516Y634252D01*
X318405Y633974D01*
Y633960D01*
X318391Y633947D01*
X318377Y633905D01*
X318349Y633849D01*
X318266Y633697D01*
X318155Y633503D01*
X318003Y633267D01*
X317822Y633004D01*
X317614Y632726D01*
X317351Y632421D01*
X317337Y632407D01*
X317323Y632379D01*
X317268Y632338D01*
X317212Y632268D01*
X317129Y632185D01*
X317032Y632088D01*
X316921Y631963D01*
X316782Y631839D01*
X316616Y631686D01*
X316436Y631520D01*
X316241Y631325D01*
X316019Y631131D01*
X315784Y630909D01*
X315520Y630687D01*
X315229Y630438D01*
X314924Y630174D01*
X314910Y630160D01*
X314868Y630119D01*
X314785Y630063D01*
X314702Y629980D01*
X314577Y629883D01*
X314452Y629772D01*
X314161Y629523D01*
X313856Y629259D01*
X313565Y628982D01*
X313426Y628857D01*
X313301Y628746D01*
X313190Y628635D01*
X313107Y628552D01*
X313093Y628538D01*
X313038Y628482D01*
X312968Y628399D01*
X312871Y628288D01*
X312760Y628163D01*
X312649Y628025D01*
X312428Y627720D01*
X318738D01*
Y626208D01*
X310264D01*
Y626236D01*
Y626305D01*
Y626416D01*
X310278Y626555D01*
X310292Y626721D01*
X310333Y626901D01*
X310375Y627096D01*
X310444Y627290D01*
Y627304D01*
X310458Y627331D01*
X310472Y627373D01*
X310500Y627442D01*
X310541Y627512D01*
X310583Y627609D01*
X310694Y627831D01*
X310833Y628094D01*
X311013Y628385D01*
X311221Y628690D01*
X311471Y628996D01*
X311485Y629009D01*
X311498Y629037D01*
X311540Y629079D01*
X311609Y629148D01*
X311679Y629217D01*
X311776Y629314D01*
X311873Y629426D01*
X311998Y629550D01*
X312136Y629689D01*
X312289Y629828D01*
X312455Y629994D01*
X312649Y630160D01*
X312844Y630341D01*
X313065Y630521D01*
X313287Y630715D01*
X313537Y630923D01*
X313565Y630937D01*
X313634Y631007D01*
X313731Y631090D01*
X313870Y631214D01*
X314036Y631353D01*
X314230Y631520D01*
X314452Y631700D01*
X314674Y631908D01*
X315146Y632338D01*
X315603Y632795D01*
X315825Y633017D01*
X316033Y633239D01*
X316214Y633447D01*
X316366Y633642D01*
X316380Y633655D01*
X316394Y633683D01*
X316436Y633739D01*
X316477Y633808D01*
X316546Y633905D01*
X316602Y634002D01*
X316741Y634252D01*
X316879Y634543D01*
X317004Y634862D01*
X317087Y635195D01*
X317101Y635361D01*
X317115Y635528D01*
Y635541D01*
Y635569D01*
Y635625D01*
X317101Y635680D01*
Y635763D01*
X317073Y635860D01*
X317032Y636068D01*
X316949Y636318D01*
X316824Y636582D01*
X316754Y636720D01*
X316657Y636845D01*
X316560Y636970D01*
X316436Y637095D01*
X316422Y637109D01*
X316408Y637122D01*
X316366Y637150D01*
X316311Y637192D01*
X316241Y637247D01*
X316158Y637303D01*
X315964Y637428D01*
X315700Y637538D01*
X315409Y637649D01*
X315063Y637719D01*
X314868Y637747D01*
X314563D01*
X314480Y637733D01*
X314383D01*
X314272Y637705D01*
X314022Y637663D01*
X313731Y637580D01*
X313426Y637455D01*
X313274Y637372D01*
X313121Y637289D01*
X312982Y637178D01*
X312844Y637053D01*
X312830Y637039D01*
X312816Y637025D01*
X312788Y636984D01*
X312733Y636928D01*
X312691Y636859D01*
X312636Y636776D01*
X312566Y636679D01*
X312511Y636568D01*
X312441Y636443D01*
X312386Y636304D01*
X312275Y635971D01*
X312192Y635611D01*
X312178Y635403D01*
X312164Y635181D01*
X310555Y635347D01*
Y635375D01*
X310569Y635430D01*
X310583Y635514D01*
X310597Y635639D01*
X310625Y635791D01*
X310666Y635971D01*
X310708Y636166D01*
X310777Y636374D01*
X310847Y636582D01*
X310930Y636817D01*
X311041Y637039D01*
X311152Y637261D01*
X311290Y637497D01*
X311443Y637705D01*
X311609Y637913D01*
X311803Y638093D01*
X311817Y638107D01*
X311859Y638135D01*
X311914Y638176D01*
X311998Y638246D01*
X312109Y638315D01*
X312247Y638398D01*
X312400Y638482D01*
X312580Y638579D01*
X312774Y638662D01*
X312996Y638745D01*
X313232Y638828D01*
X313495Y638898D01*
X313773Y638967D01*
X314064Y639009D01*
X314383Y639036D01*
X314716Y639050D01*
X314896D01*
X315021Y639036D01*
D02*
G37*
G36*
X329818D02*
X329916Y639022D01*
X330165Y638995D01*
X330443Y638953D01*
X330748Y638870D01*
X331053Y638773D01*
X331358Y638634D01*
X331372D01*
X331399Y638620D01*
X331441Y638592D01*
X331497Y638551D01*
X331635Y638468D01*
X331816Y638329D01*
X332024Y638163D01*
X332232Y637955D01*
X332453Y637705D01*
X332648Y637428D01*
Y637414D01*
X332675Y637386D01*
X332689Y637344D01*
X332731Y637289D01*
X332772Y637220D01*
X332828Y637122D01*
X332870Y637011D01*
X332939Y636901D01*
X333064Y636623D01*
X333189Y636304D01*
X333327Y635930D01*
X333438Y635528D01*
Y635514D01*
X333452Y635472D01*
X333466Y635417D01*
X333480Y635320D01*
X333507Y635209D01*
X333535Y635070D01*
X333563Y634917D01*
X333591Y634737D01*
X333605Y634529D01*
X333632Y634307D01*
X333660Y634058D01*
X333688Y633794D01*
X333702Y633503D01*
X333716Y633198D01*
X333729Y632865D01*
Y632518D01*
Y632490D01*
Y632421D01*
Y632296D01*
Y632144D01*
X333716Y631950D01*
X333702Y631741D01*
X333688Y631492D01*
X333674Y631228D01*
X333646Y630937D01*
X333619Y630646D01*
X333535Y630036D01*
X333410Y629439D01*
X333341Y629148D01*
X333258Y628885D01*
Y628871D01*
X333230Y628829D01*
X333216Y628746D01*
X333175Y628663D01*
X333119Y628538D01*
X333064Y628413D01*
X332994Y628260D01*
X332911Y628094D01*
X332717Y627747D01*
X332481Y627401D01*
X332204Y627054D01*
X332038Y626901D01*
X331871Y626749D01*
X331857Y626735D01*
X331829Y626721D01*
X331774Y626679D01*
X331705Y626638D01*
X331621Y626582D01*
X331511Y626513D01*
X331386Y626444D01*
X331233Y626374D01*
X331081Y626305D01*
X330900Y626236D01*
X330720Y626180D01*
X330512Y626111D01*
X330290Y626069D01*
X330054Y626028D01*
X329818Y626014D01*
X329555Y626000D01*
X329472D01*
X329375Y626014D01*
X329250Y626028D01*
X329097Y626042D01*
X328917Y626069D01*
X328723Y626111D01*
X328501Y626166D01*
X328279Y626236D01*
X328043Y626319D01*
X327794Y626430D01*
X327558Y626555D01*
X327322Y626707D01*
X327086Y626888D01*
X326865Y627082D01*
X326656Y627318D01*
X326643Y627331D01*
X326601Y627387D01*
X326546Y627484D01*
X326462Y627623D01*
X326365Y627803D01*
X326254Y628011D01*
X326143Y628274D01*
X326032Y628566D01*
X325908Y628912D01*
X325797Y629287D01*
X325686Y629717D01*
X325589Y630188D01*
X325505Y630701D01*
X325450Y631256D01*
X325408Y631866D01*
X325395Y632518D01*
Y632546D01*
Y632615D01*
Y632740D01*
X325408Y632893D01*
Y633087D01*
X325422Y633309D01*
X325436Y633558D01*
X325450Y633822D01*
X325478Y634113D01*
X325505Y634404D01*
X325589Y635014D01*
X325700Y635611D01*
X325769Y635902D01*
X325852Y636166D01*
Y636179D01*
X325880Y636221D01*
X325908Y636304D01*
X325935Y636401D01*
X325991Y636512D01*
X326046Y636651D01*
X326116Y636790D01*
X326199Y636956D01*
X326393Y637303D01*
X326643Y637649D01*
X326920Y637996D01*
X327073Y638149D01*
X327239Y638301D01*
X327253Y638315D01*
X327281Y638329D01*
X327336Y638371D01*
X327405Y638412D01*
X327489Y638482D01*
X327600Y638537D01*
X327724Y638606D01*
X327877Y638676D01*
X328030Y638745D01*
X328210Y638814D01*
X328404Y638884D01*
X328598Y638939D01*
X328820Y638981D01*
X329056Y639022D01*
X329305Y639036D01*
X329555Y639050D01*
X329721D01*
X329818Y639036D01*
D02*
G37*
G36*
X328059Y161336D02*
X328390Y161262D01*
X328757Y161152D01*
X329162Y160968D01*
X329566Y160747D01*
X329971Y160416D01*
X330008Y160380D01*
X330118Y160269D01*
X330229Y160122D01*
X330339Y160012D01*
X330376Y159975D01*
X330449Y159902D01*
X330523Y159754D01*
X330633Y159571D01*
X344572Y135407D01*
X344609Y135370D01*
X344683Y135186D01*
X344793Y134965D01*
X344903Y134634D01*
X345014Y134230D01*
X345087Y133788D01*
Y133310D01*
X345014Y132795D01*
Y132758D01*
X344977Y132685D01*
X344940Y132501D01*
X344867Y132317D01*
Y132280D01*
X344793Y132170D01*
X344720Y132023D01*
X344609Y131802D01*
X344572Y131765D01*
X344499Y131618D01*
X344315Y131398D01*
X344094Y131140D01*
X343800Y130883D01*
X343469Y130625D01*
X343064Y130368D01*
X342586Y130184D01*
X342550D01*
X342402Y130147D01*
X342255Y130110D01*
X342108Y130074D01*
X342071D01*
X341961Y130037D01*
X341814D01*
X341593Y130000D01*
X313384D01*
X313089Y130037D01*
X312758Y130110D01*
X312391Y130221D01*
X311986Y130405D01*
X311545Y130625D01*
X311140Y130956D01*
X311103Y130993D01*
X311030Y131067D01*
X310883Y131214D01*
X310772Y131361D01*
X310736Y131398D01*
X310662Y131508D01*
X310588Y131655D01*
X310478Y131802D01*
X310441Y131839D01*
X310368Y131986D01*
X310257Y132243D01*
X310184Y132538D01*
X310074Y132906D01*
X310000Y133347D01*
Y133788D01*
X310074Y134303D01*
X310110Y134377D01*
X310147Y134487D01*
X310184Y134671D01*
X310221Y134781D01*
Y134818D01*
X310257Y134928D01*
X310331Y135076D01*
X310441Y135259D01*
Y135296D01*
X310478Y135333D01*
X324454Y159534D01*
Y159571D01*
X324528Y159644D01*
X324601Y159791D01*
X324712Y159938D01*
X325043Y160343D01*
X325484Y160711D01*
X325558Y160747D01*
X325631Y160784D01*
X325742Y160858D01*
X325778Y160895D01*
X325889Y160931D01*
X326036Y161005D01*
X326256Y161115D01*
X326551Y161225D01*
X326845Y161299D01*
X327176Y161336D01*
X327544Y161373D01*
X327764D01*
X328059Y161336D01*
D02*
G37*
%LPC*%
G36*
X269719Y637601D02*
X269573D01*
X269448Y637580D01*
X269323Y637559D01*
X269157Y637538D01*
X268803Y637434D01*
X268386Y637289D01*
X268157Y637184D01*
X267928Y637059D01*
X267720Y636914D01*
X267491Y636726D01*
X267282Y636539D01*
X267074Y636310D01*
X267053Y636289D01*
X267032Y636247D01*
X266970Y636164D01*
X266907Y636060D01*
X266824Y635935D01*
X266741Y635747D01*
X266657Y635560D01*
X266553Y635310D01*
X266449Y635060D01*
X266366Y634748D01*
X266283Y634414D01*
X266199Y634060D01*
X266137Y633644D01*
X266074Y633227D01*
X266053Y632748D01*
X266033Y632248D01*
Y632227D01*
Y632123D01*
Y631998D01*
X266053Y631811D01*
X266074Y631582D01*
X266095Y631332D01*
X266137Y631061D01*
X266178Y630748D01*
X266303Y630103D01*
X266512Y629436D01*
X266637Y629124D01*
X266782Y628811D01*
X266970Y628520D01*
X267157Y628249D01*
X267178Y628228D01*
X267199Y628187D01*
X267282Y628124D01*
X267365Y628041D01*
X267470Y627937D01*
X267595Y627833D01*
X267907Y627603D01*
X268303Y627354D01*
X268761Y627145D01*
X269011Y627062D01*
X269261Y627000D01*
X269532Y626958D01*
X269823Y626937D01*
X269969D01*
X270094Y626958D01*
X270219Y626979D01*
X270386Y627000D01*
X270740Y627104D01*
X271156Y627249D01*
X271385Y627354D01*
X271594Y627458D01*
X271823Y627603D01*
X272052Y627770D01*
X272260Y627958D01*
X272468Y628187D01*
X272489Y628208D01*
X272510Y628249D01*
X272572Y628312D01*
X272635Y628437D01*
X272718Y628562D01*
X272822Y628728D01*
X272927Y628916D01*
X273031Y629145D01*
X273114Y629395D01*
X273218Y629686D01*
X273322Y630019D01*
X273406Y630353D01*
X273468Y630728D01*
X273531Y631144D01*
X273551Y631582D01*
X273572Y632061D01*
Y632102D01*
Y632186D01*
Y632332D01*
X273551Y632519D01*
X273531Y632769D01*
X273510Y633040D01*
X273489Y633331D01*
X273426Y633664D01*
X273302Y634331D01*
X273093Y635039D01*
X272968Y635372D01*
X272822Y635685D01*
X272656Y635976D01*
X272448Y636247D01*
X272427Y636268D01*
X272406Y636310D01*
X272343Y636372D01*
X272260Y636455D01*
X272135Y636559D01*
X272010Y636684D01*
X271698Y636934D01*
X271302Y637164D01*
X270823Y637393D01*
X270573Y637476D01*
X270302Y637538D01*
X270011Y637580D01*
X269719Y637601D01*
D02*
G37*
G36*
X285132Y637622D02*
X284965D01*
X284861Y637601D01*
X284715Y637580D01*
X284569Y637559D01*
X284174Y637476D01*
X283757Y637351D01*
X283278Y637164D01*
X283049Y637039D01*
X282820Y636893D01*
X282591Y636705D01*
X282383Y636518D01*
X282362Y636497D01*
X282341Y636476D01*
X282278Y636414D01*
X282216Y636330D01*
X282133Y636205D01*
X282028Y636081D01*
X281924Y635935D01*
X281820Y635747D01*
X281716Y635560D01*
X281612Y635331D01*
X281404Y634831D01*
X281258Y634268D01*
X281216Y633956D01*
X281175Y633623D01*
X288964D01*
Y633644D01*
Y633706D01*
X288943Y633789D01*
X288923Y633914D01*
X288902Y634060D01*
X288881Y634227D01*
X288797Y634602D01*
X288673Y635039D01*
X288527Y635476D01*
X288319Y635893D01*
X288069Y636247D01*
X288048Y636268D01*
X288027Y636310D01*
X287944Y636372D01*
X287860Y636455D01*
X287756Y636559D01*
X287610Y636684D01*
X287444Y636810D01*
X287277Y636934D01*
X287069Y637059D01*
X286840Y637184D01*
X286340Y637413D01*
X286069Y637497D01*
X285777Y637559D01*
X285465Y637601D01*
X285132Y637622D01*
D02*
G37*
G36*
X255202Y637601D02*
X255035D01*
X254910Y637580D01*
X254765Y637559D01*
X254577Y637538D01*
X254181Y637434D01*
X253702Y637268D01*
X253473Y637164D01*
X253223Y637039D01*
X252973Y636893D01*
X252723Y636705D01*
X252494Y636497D01*
X252265Y636268D01*
X252244Y636247D01*
X252224Y636205D01*
X252161Y636122D01*
X252078Y636018D01*
X251994Y635872D01*
X251890Y635706D01*
X251786Y635497D01*
X251682Y635268D01*
X251578Y634997D01*
X251474Y634706D01*
X251370Y634373D01*
X251286Y634019D01*
X251203Y633623D01*
X251140Y633206D01*
X251120Y632748D01*
X251099Y632269D01*
Y632248D01*
Y632144D01*
Y632019D01*
X251120Y631832D01*
X251140Y631603D01*
X251161Y631353D01*
X251203Y631061D01*
X251245Y630769D01*
X251390Y630103D01*
X251599Y629436D01*
X251724Y629124D01*
X251890Y628811D01*
X252057Y628520D01*
X252265Y628249D01*
X252286Y628228D01*
X252328Y628187D01*
X252390Y628124D01*
X252474Y628041D01*
X252598Y627937D01*
X252723Y627833D01*
X252890Y627708D01*
X253078Y627603D01*
X253494Y627354D01*
X253994Y627145D01*
X254265Y627062D01*
X254577Y627000D01*
X254869Y626958D01*
X255202Y626937D01*
X255369D01*
X255494Y626958D01*
X255639Y626979D01*
X255827Y627000D01*
X256223Y627104D01*
X256681Y627270D01*
X256931Y627374D01*
X257181Y627499D01*
X257410Y627645D01*
X257660Y627833D01*
X257889Y628041D01*
X258118Y628270D01*
X258139Y628291D01*
X258160Y628332D01*
X258222Y628416D01*
X258305Y628520D01*
X258389Y628666D01*
X258493Y628832D01*
X258597Y629041D01*
X258722Y629291D01*
X258826Y629540D01*
X258930Y629853D01*
X259034Y630186D01*
X259118Y630561D01*
X259201Y630957D01*
X259263Y631394D01*
X259284Y631852D01*
X259305Y632352D01*
Y632373D01*
Y632456D01*
Y632602D01*
X259284Y632769D01*
X259263Y632998D01*
X259243Y633248D01*
X259201Y633519D01*
X259159Y633810D01*
X259014Y634435D01*
X258930Y634768D01*
X258805Y635102D01*
X258659Y635414D01*
X258514Y635726D01*
X258326Y635997D01*
X258118Y636268D01*
X258097Y636289D01*
X258055Y636330D01*
X257993Y636393D01*
X257910Y636476D01*
X257785Y636580D01*
X257660Y636684D01*
X257493Y636810D01*
X257326Y636934D01*
X256889Y637184D01*
X256389Y637393D01*
X256118Y637476D01*
X255827Y637538D01*
X255514Y637580D01*
X255202Y637601D01*
D02*
G37*
G36*
X216399D02*
X216233D01*
X216108Y637580D01*
X215962Y637559D01*
X215775Y637538D01*
X215379Y637434D01*
X214900Y637268D01*
X214671Y637164D01*
X214421Y637039D01*
X214171Y636893D01*
X213921Y636705D01*
X213692Y636497D01*
X213463Y636268D01*
X213442Y636247D01*
X213421Y636205D01*
X213358Y636122D01*
X213275Y636018D01*
X213192Y635872D01*
X213088Y635706D01*
X212984Y635497D01*
X212880Y635268D01*
X212775Y634997D01*
X212671Y634706D01*
X212567Y634373D01*
X212484Y634019D01*
X212400Y633623D01*
X212338Y633206D01*
X212317Y632748D01*
X212296Y632269D01*
Y632248D01*
Y632144D01*
Y632019D01*
X212317Y631832D01*
X212338Y631603D01*
X212359Y631353D01*
X212400Y631061D01*
X212442Y630769D01*
X212588Y630103D01*
X212796Y629436D01*
X212921Y629124D01*
X213088Y628811D01*
X213254Y628520D01*
X213463Y628249D01*
X213484Y628228D01*
X213525Y628187D01*
X213588Y628124D01*
X213671Y628041D01*
X213796Y627937D01*
X213921Y627833D01*
X214088Y627708D01*
X214275Y627603D01*
X214692Y627354D01*
X215191Y627145D01*
X215462Y627062D01*
X215775Y627000D01*
X216066Y626958D01*
X216399Y626937D01*
X216566D01*
X216691Y626958D01*
X216837Y626979D01*
X217024Y627000D01*
X217420Y627104D01*
X217878Y627270D01*
X218128Y627374D01*
X218378Y627499D01*
X218607Y627645D01*
X218857Y627833D01*
X219086Y628041D01*
X219315Y628270D01*
X219336Y628291D01*
X219357Y628332D01*
X219419Y628416D01*
X219503Y628520D01*
X219586Y628666D01*
X219690Y628832D01*
X219794Y629041D01*
X219919Y629291D01*
X220023Y629540D01*
X220128Y629853D01*
X220232Y630186D01*
X220315Y630561D01*
X220398Y630957D01*
X220461Y631394D01*
X220482Y631852D01*
X220502Y632352D01*
Y632373D01*
Y632456D01*
Y632602D01*
X220482Y632769D01*
X220461Y632998D01*
X220440Y633248D01*
X220398Y633519D01*
X220357Y633810D01*
X220211Y634435D01*
X220128Y634768D01*
X220003Y635102D01*
X219857Y635414D01*
X219711Y635726D01*
X219524Y635997D01*
X219315Y636268D01*
X219294Y636289D01*
X219253Y636330D01*
X219190Y636393D01*
X219107Y636476D01*
X218982Y636580D01*
X218857Y636684D01*
X218690Y636810D01*
X218524Y636934D01*
X218086Y637184D01*
X217587Y637393D01*
X217316Y637476D01*
X217024Y637538D01*
X216712Y637580D01*
X216399Y637601D01*
D02*
G37*
G36*
X173160Y637622D02*
X172994D01*
X172890Y637601D01*
X172744Y637580D01*
X172598Y637559D01*
X172202Y637476D01*
X171786Y637351D01*
X171307Y637164D01*
X171078Y637039D01*
X170849Y636893D01*
X170620Y636705D01*
X170411Y636518D01*
X170390Y636497D01*
X170369Y636476D01*
X170307Y636414D01*
X170245Y636330D01*
X170161Y636205D01*
X170057Y636081D01*
X169953Y635935D01*
X169849Y635747D01*
X169745Y635560D01*
X169641Y635331D01*
X169432Y634831D01*
X169286Y634268D01*
X169245Y633956D01*
X169203Y633623D01*
X176993D01*
Y633644D01*
Y633706D01*
X176972Y633789D01*
X176951Y633914D01*
X176930Y634060D01*
X176910Y634227D01*
X176826Y634602D01*
X176701Y635039D01*
X176556Y635476D01*
X176347Y635893D01*
X176097Y636247D01*
X176076Y636268D01*
X176056Y636310D01*
X175972Y636372D01*
X175889Y636455D01*
X175785Y636559D01*
X175639Y636684D01*
X175472Y636810D01*
X175306Y636934D01*
X175098Y637059D01*
X174868Y637184D01*
X174368Y637413D01*
X174098Y637497D01*
X173806Y637559D01*
X173494Y637601D01*
X173160Y637622D01*
D02*
G37*
G36*
X329541Y637747D02*
X329444D01*
X329361Y637733D01*
X329278Y637719D01*
X329167Y637705D01*
X328917Y637636D01*
X328640Y637525D01*
X328501Y637455D01*
X328349Y637358D01*
X328210Y637261D01*
X328071Y637136D01*
X327932Y636998D01*
X327808Y636831D01*
X327794Y636817D01*
X327780Y636776D01*
X327738Y636706D01*
X327683Y636595D01*
X327627Y636457D01*
X327558Y636290D01*
X327475Y636096D01*
X327405Y635847D01*
X327336Y635569D01*
X327253Y635264D01*
X327183Y634903D01*
X327128Y634515D01*
X327073Y634085D01*
X327045Y633600D01*
X327017Y633087D01*
X327003Y632518D01*
Y632504D01*
Y632477D01*
Y632435D01*
Y632379D01*
Y632310D01*
Y632213D01*
X327017Y632005D01*
X327031Y631755D01*
X327045Y631464D01*
X327059Y631145D01*
X327100Y630812D01*
X327183Y630105D01*
X327239Y629758D01*
X327308Y629412D01*
X327392Y629093D01*
X327503Y628801D01*
X327613Y628538D01*
X327738Y628316D01*
X327752Y628302D01*
X327766Y628274D01*
X327808Y628219D01*
X327877Y628150D01*
X327946Y628080D01*
X328030Y627997D01*
X328237Y627803D01*
X328501Y627609D01*
X328820Y627456D01*
X328986Y627387D01*
X329167Y627331D01*
X329361Y627304D01*
X329555Y627290D01*
X329597D01*
X329666Y627304D01*
X329735D01*
X329832Y627318D01*
X329943Y627345D01*
X330193Y627415D01*
X330332Y627470D01*
X330470Y627539D01*
X330623Y627623D01*
X330775Y627733D01*
X330928Y627845D01*
X331081Y627983D01*
X331233Y628150D01*
X331372Y628330D01*
X331386Y628344D01*
X331399Y628385D01*
X331441Y628441D01*
X331483Y628538D01*
X331552Y628663D01*
X331608Y628829D01*
X331677Y629023D01*
X331746Y629245D01*
X331816Y629509D01*
X331885Y629814D01*
X331954Y630147D01*
X332010Y630535D01*
X332051Y630965D01*
X332093Y631436D01*
X332107Y631950D01*
X332121Y632518D01*
Y632532D01*
Y632560D01*
Y632601D01*
Y632657D01*
Y632726D01*
Y632809D01*
X332107Y633031D01*
X332093Y633281D01*
X332079Y633572D01*
X332065Y633891D01*
X332024Y634224D01*
X331940Y634931D01*
X331871Y635278D01*
X331802Y635611D01*
X331718Y635930D01*
X331621Y636235D01*
X331511Y636484D01*
X331372Y636706D01*
X331358Y636720D01*
X331344Y636748D01*
X331302Y636804D01*
X331247Y636873D01*
X331164Y636942D01*
X331081Y637039D01*
X330984Y637136D01*
X330872Y637233D01*
X330609Y637414D01*
X330290Y637580D01*
X330124Y637649D01*
X329930Y637705D01*
X329749Y637733D01*
X329541Y637747D01*
D02*
G37*
G36*
X327544Y158982D02*
X327470D01*
X327213Y158945D01*
X326918Y158872D01*
X326551Y158724D01*
X326514Y158688D01*
X326440Y158651D01*
X326367Y158614D01*
X326220Y158467D01*
X326036Y158246D01*
X325889Y157989D01*
X325852D01*
X319599Y147139D01*
X321659Y145962D01*
X321696Y145999D01*
X321806Y146146D01*
X321990Y146330D01*
X322284Y146587D01*
X322358Y146624D01*
X322505Y146735D01*
X322762Y146918D01*
X323057Y147139D01*
X323093Y147176D01*
X323241Y147249D01*
X323277D01*
X323314Y147286D01*
X323498Y147397D01*
X323535D01*
X323572Y147433D01*
X323792Y147544D01*
X324013Y147691D01*
X324160Y147801D01*
X324234Y147838D01*
X324381Y147948D01*
X324601Y148095D01*
X324896Y148279D01*
X325227Y148500D01*
X325594Y148684D01*
X325962Y148868D01*
X326330Y149015D01*
X326367D01*
X326514Y149052D01*
X326735Y149125D01*
X327029Y149162D01*
X327360Y149235D01*
X327764Y149272D01*
X328206Y149309D01*
X328794D01*
X329015Y149272D01*
X329824D01*
X330302Y149235D01*
X331074D01*
X331258Y149272D01*
X331736Y149346D01*
X332215Y149493D01*
X333759Y150155D01*
X329199Y158026D01*
Y158062D01*
X329162Y158099D01*
X329052Y158246D01*
Y158283D01*
X328978Y158320D01*
X328831Y158467D01*
X328794Y158504D01*
X328721Y158541D01*
X328610Y158614D01*
X328463Y158724D01*
X328059Y158908D01*
X327801Y158945D01*
X327544Y158982D01*
D02*
G37*
G36*
X334017Y149714D02*
X332398Y149015D01*
X332362D01*
X332288Y148978D01*
X332141Y148904D01*
X331957Y148868D01*
X331736Y148794D01*
X331479Y148757D01*
X330891Y148684D01*
X330412D01*
X329897Y148721D01*
X329346Y148757D01*
X329235D01*
X328978Y148794D01*
X327911D01*
X327544Y148757D01*
X327176Y148721D01*
X326808Y148647D01*
X326477Y148537D01*
X326440D01*
X326330Y148463D01*
X326146Y148390D01*
X325889Y148279D01*
X325594Y148132D01*
X325263Y147948D01*
X324859Y147691D01*
X324454Y147397D01*
X324417Y147360D01*
X324270Y147286D01*
X324050Y147139D01*
X323755Y146955D01*
X323682Y146882D01*
X323572Y146808D01*
X323351Y146698D01*
X323277Y146661D01*
X323130Y146551D01*
X322873Y146404D01*
X322615Y146183D01*
X322579Y146146D01*
X322468Y146036D01*
X322284Y145889D01*
X322100Y145705D01*
X332104Y139930D01*
X332141D01*
X332288Y140004D01*
X332472Y140077D01*
X332729Y140225D01*
X333060Y140408D01*
X333428Y140703D01*
X333870Y141034D01*
X334311Y141475D01*
X334348Y141512D01*
X334421Y141585D01*
X334532Y141696D01*
X334679Y141843D01*
X334716Y141880D01*
X334752Y141953D01*
X334899Y142174D01*
X334936Y142211D01*
X335010Y142358D01*
X335083Y142468D01*
X335157Y142615D01*
X335230Y142836D01*
X335341Y143057D01*
Y143093D01*
X335378Y143167D01*
X335451Y143388D01*
X335598Y143719D01*
X335745Y144013D01*
Y144050D01*
X335782Y144086D01*
X335929Y144307D01*
X336113Y144528D01*
X336334Y144785D01*
X336371Y144822D01*
X336444Y144896D01*
X336665Y145079D01*
X334017Y149677D01*
Y149714D01*
D02*
G37*
G36*
X326845Y141218D02*
Y141181D01*
X326808Y141070D01*
X326771Y140960D01*
Y140850D01*
Y140813D01*
Y140703D01*
X326808Y140592D01*
X326882Y140445D01*
Y140408D01*
X326918Y140335D01*
X326955Y140298D01*
X327029Y140151D01*
X327102Y139967D01*
X327213Y139820D01*
X327249Y139857D01*
X327286Y139894D01*
X327507Y140041D01*
X327801Y140261D01*
X328095Y140482D01*
X326845Y141218D01*
D02*
G37*
G36*
X325484Y141990D02*
X325447Y141953D01*
X325410Y141880D01*
X325337Y141769D01*
X325263Y141585D01*
Y141549D01*
X325227Y141438D01*
X325190Y141291D01*
Y141070D01*
Y141034D01*
Y140960D01*
Y140813D01*
Y140666D01*
Y140519D01*
Y140372D01*
Y140298D01*
Y140261D01*
Y140225D01*
Y140188D01*
Y140004D01*
X325227Y139747D01*
X325300Y139526D01*
Y139489D01*
Y139452D01*
X325337Y139342D01*
Y139305D01*
X325374Y139232D01*
X325410Y139121D01*
X325447Y139085D01*
X325521Y138937D01*
X325631Y138717D01*
X325778Y138459D01*
X325815Y138496D01*
X325852Y138533D01*
X325889Y138569D01*
X325962Y138680D01*
Y138717D01*
X326036Y138753D01*
X326220Y138937D01*
X326477Y139195D01*
X326808Y139489D01*
X326771Y139526D01*
X326698Y139636D01*
X326624Y139820D01*
X326477Y140114D01*
X326440D01*
Y140151D01*
X326404Y140225D01*
X326367Y140261D01*
X326330Y140408D01*
X326293Y140592D01*
X326256Y140813D01*
Y140887D01*
Y141034D01*
X326293Y141218D01*
X326367Y141475D01*
X325484Y141990D01*
D02*
G37*
G36*
X324270Y142689D02*
X324234Y142615D01*
X324160Y142431D01*
X324013Y142137D01*
X323792Y141769D01*
X323755Y141696D01*
X323645Y141549D01*
X323535Y141328D01*
X323461Y141144D01*
Y141107D01*
Y140923D01*
X323498Y140776D01*
X323535Y140592D01*
X323608Y140372D01*
X323682Y140114D01*
Y140077D01*
X323719Y139967D01*
X323755Y139820D01*
X323829Y139673D01*
X323903Y139268D01*
Y139121D01*
Y138974D01*
Y138937D01*
Y138901D01*
X323866Y138680D01*
X323829Y138386D01*
Y138018D01*
Y137981D01*
Y137907D01*
Y137871D01*
Y137834D01*
X323866D01*
X323903Y137797D01*
X323976Y137760D01*
X324013Y137724D01*
X324160Y137650D01*
X324197D01*
X324234Y137613D01*
X324270Y137577D01*
X324307Y137503D01*
X324381Y137466D01*
X324491Y137393D01*
X324638Y137282D01*
X324675D01*
X324748Y137209D01*
X324859Y137172D01*
X324932Y137098D01*
Y137135D01*
X324969Y137172D01*
X325079Y137393D01*
X325227Y137687D01*
X325447Y138018D01*
Y138055D01*
X325410Y138091D01*
X325263Y138312D01*
X325116Y138606D01*
X324969Y138937D01*
X324932Y138974D01*
X324896Y139048D01*
X324859Y139158D01*
Y139195D01*
X324822Y139268D01*
X324785Y139416D01*
Y139452D01*
X324748Y139636D01*
X324712Y139894D01*
X324675Y140261D01*
Y140298D01*
Y140372D01*
Y140519D01*
Y140666D01*
Y140703D01*
X324712Y140813D01*
Y141070D01*
Y141144D01*
Y141291D01*
Y141512D01*
X324748Y141733D01*
X324785Y141769D01*
X324822Y141917D01*
X324932Y142064D01*
X325043Y142247D01*
X324270Y142689D01*
D02*
G37*
G36*
X329971Y138055D02*
X329897Y138018D01*
X329750Y137944D01*
X329566Y137797D01*
X329419Y137687D01*
X329383Y137650D01*
X329235Y137540D01*
X329052Y137319D01*
X328868Y137025D01*
Y136988D01*
X328831Y136951D01*
Y136915D01*
X328794Y136878D01*
X328831D01*
X328904Y136804D01*
X329125Y136694D01*
X329162D01*
X329199Y136657D01*
X329419Y136620D01*
X329714Y136583D01*
X330081Y136547D01*
X330155D01*
X330302Y136583D01*
X330486Y136620D01*
X330633Y136694D01*
Y136731D01*
X330670Y136767D01*
X330707Y136915D01*
X330743Y137062D01*
Y137172D01*
Y137209D01*
Y137282D01*
X330707Y137356D01*
X330633Y137466D01*
X330596D01*
Y137503D01*
X330560D01*
Y137540D01*
X330486Y137577D01*
X330339Y137797D01*
X330118Y137981D01*
X330045Y138018D01*
X329971Y138055D01*
D02*
G37*
G36*
X328573Y140188D02*
X328537D01*
X328500Y140151D01*
X328390Y140077D01*
X328242Y139967D01*
X327911Y139710D01*
X327470Y139379D01*
X327433Y139342D01*
X327360Y139305D01*
X327249Y139195D01*
X327102Y139085D01*
X326771Y138717D01*
X326367Y138312D01*
X326330Y138238D01*
X326183Y138091D01*
X325999Y137834D01*
X325778Y137540D01*
X325558Y137172D01*
X325374Y136731D01*
X325227Y136326D01*
X325193Y135929D01*
X325190Y135921D01*
Y135885D01*
X325193Y135929D01*
X325227Y135995D01*
X325300Y136069D01*
X325337Y136142D01*
X325374Y136179D01*
X325521Y136289D01*
X325742Y136436D01*
X326036Y136547D01*
X326073D01*
X326109Y136583D01*
X326146Y136620D01*
X326256D01*
X326293Y136657D01*
X326367D01*
X326477Y136694D01*
X326587D01*
X326698Y136731D01*
X327507D01*
X327544Y136694D01*
X327728Y136657D01*
X327838D01*
X327985Y136620D01*
X328132Y136547D01*
Y136583D01*
X328169Y136620D01*
X328206Y136767D01*
Y136804D01*
X328242Y136915D01*
X328316Y137062D01*
X328390Y137246D01*
Y137282D01*
X328426Y137319D01*
X328610Y137540D01*
X328831Y137834D01*
X329125Y138091D01*
X329162Y138128D01*
X329235Y138202D01*
X329419Y138312D01*
X329714Y138533D01*
X329750D01*
X329787Y138606D01*
X330008Y138717D01*
X330265Y138901D01*
X330486Y139085D01*
X328573Y140188D01*
D02*
G37*
G36*
X328610Y136363D02*
Y136326D01*
X328573Y136142D01*
Y136069D01*
X328500Y135921D01*
X328390Y135664D01*
X328206Y135333D01*
X328242Y135296D01*
X328353Y135223D01*
X328537Y135149D01*
X328794Y135112D01*
X328978D01*
X329088Y135149D01*
X329235Y135259D01*
X329272D01*
Y135296D01*
X329309Y135333D01*
X329346Y135407D01*
Y135443D01*
X329383Y135517D01*
Y135590D01*
Y135737D01*
X329346Y135921D01*
X329235Y136142D01*
X329199D01*
X329125Y136179D01*
X329052D01*
X328978Y136216D01*
X328941Y136252D01*
X328831Y136289D01*
X328721Y136326D01*
X328610Y136363D01*
D02*
G37*
G36*
X321107Y144491D02*
Y144454D01*
Y144381D01*
X321071Y144270D01*
X321034Y144123D01*
X320960Y143939D01*
X320887Y143682D01*
X320776Y143424D01*
X320629Y143093D01*
Y143057D01*
X320592Y142983D01*
X320445Y142726D01*
X320335Y142431D01*
X320298Y142321D01*
X320261Y142211D01*
Y142137D01*
Y142027D01*
Y141880D01*
Y141659D01*
X320298Y141438D01*
X320372Y141107D01*
X320445Y140739D01*
Y140703D01*
X320482Y140556D01*
X320556Y140372D01*
X320592Y140225D01*
Y140188D01*
Y140114D01*
X320629Y140004D01*
X320666Y139894D01*
Y139710D01*
X320703Y139489D01*
X320776Y139195D01*
X320813Y138901D01*
Y138864D01*
Y138790D01*
X320850Y138643D01*
Y138496D01*
X320923Y138128D01*
X320997Y137760D01*
Y137724D01*
X321034Y137687D01*
X321071Y137503D01*
X321218Y137209D01*
X321365Y136878D01*
X321401Y136804D01*
X321438Y136657D01*
X321512Y136473D01*
X321585Y136289D01*
X321696D01*
X321733Y136326D01*
X322027D01*
X322137Y136289D01*
X322284Y136252D01*
X322468Y136179D01*
X322652Y136032D01*
X322836Y135885D01*
X322983Y135664D01*
Y135627D01*
X323020Y135590D01*
X323130Y135443D01*
X323167Y135407D01*
X323204Y135296D01*
X323277Y135149D01*
X323351Y134965D01*
X323388Y134892D01*
Y134708D01*
Y134671D01*
Y134634D01*
X323351Y134450D01*
X323388D01*
X323424Y134487D01*
X323461Y134524D01*
Y134561D01*
X323498D01*
X323535Y134634D01*
X323682Y134781D01*
X323829Y135039D01*
X323939Y135333D01*
Y135407D01*
X323903Y135517D01*
Y135664D01*
X323829Y135885D01*
X323755Y136216D01*
X323682Y136583D01*
X323535Y137062D01*
Y137098D01*
X323498Y137209D01*
X323424Y137393D01*
X323388Y137466D01*
Y137540D01*
X323351Y137687D01*
Y137724D01*
X323314Y137834D01*
Y137871D01*
Y137981D01*
Y138018D01*
Y138091D01*
Y138202D01*
Y138312D01*
Y138680D01*
X323388Y139085D01*
Y139121D01*
Y139268D01*
X323351Y139379D01*
X323314Y139526D01*
X323277Y139710D01*
X323204Y139930D01*
Y139967D01*
X323167Y140077D01*
X323130Y140261D01*
X323057Y140445D01*
X322983Y140887D01*
X322946Y141070D01*
Y141254D01*
X322983Y141328D01*
X323020Y141475D01*
X323167Y141733D01*
X323388Y142064D01*
Y142100D01*
X323461Y142174D01*
X323572Y142395D01*
X323682Y142689D01*
X323755Y142983D01*
X321107Y144491D01*
D02*
G37*
G36*
X327397Y136510D02*
X327139D01*
X326992Y136473D01*
X326808D01*
X326587Y136436D01*
X326404Y136400D01*
X326367D01*
X326330Y136363D01*
X326220D01*
X326183Y136326D01*
X326109D01*
X326036Y136289D01*
X325889Y136216D01*
X325705Y136105D01*
X325521Y135958D01*
X325484Y135885D01*
X325410Y135737D01*
X325300Y135480D01*
X325263Y135407D01*
X325190Y135223D01*
X325227Y135149D01*
X325263Y134965D01*
X325410Y134745D01*
X325558Y134524D01*
X325631Y134450D01*
X325742Y134413D01*
X325925Y134377D01*
X326440D01*
X326661Y134450D01*
X326735Y134487D01*
X326845Y134561D01*
X326992Y134671D01*
X327029Y134708D01*
X327139Y134818D01*
X327360Y135039D01*
X327470Y135186D01*
X327617Y135370D01*
X327654Y135407D01*
X327691Y135480D01*
X327838Y135701D01*
X328022Y135995D01*
X328059Y136142D01*
X328095Y136252D01*
X328059Y136289D01*
X327911Y136326D01*
X327691Y136436D01*
X327397Y136510D01*
D02*
G37*
G36*
X321917Y136069D02*
X321696D01*
X321659Y136032D01*
X321733Y135885D01*
Y135848D01*
X321806Y135737D01*
X321843Y135554D01*
X321917Y135370D01*
X322100Y134928D01*
X322211Y134781D01*
X322284Y134634D01*
X322321Y134597D01*
X322468Y134487D01*
X322615Y134340D01*
X322836Y134303D01*
X323057D01*
X323093Y134340D01*
Y134377D01*
Y134487D01*
Y134524D01*
Y134561D01*
Y134708D01*
Y134745D01*
Y134818D01*
Y134855D01*
Y134892D01*
Y134928D01*
X323057Y135039D01*
X323020Y135149D01*
X322910Y135296D01*
X322873Y135333D01*
X322836Y135370D01*
X322799Y135407D01*
X322762Y135517D01*
Y135554D01*
X322689Y135590D01*
X322542Y135811D01*
X322284Y135995D01*
X322100Y136032D01*
X321917Y136069D01*
D02*
G37*
G36*
X336959Y144638D02*
X336922D01*
X336849Y144565D01*
X336702Y144417D01*
X336665Y144381D01*
X336555Y144270D01*
X336408Y144050D01*
X336187Y143755D01*
Y143719D01*
X336150Y143682D01*
X336076Y143535D01*
X335966Y143277D01*
X335892Y143093D01*
X335782Y142873D01*
Y142836D01*
X335745Y142762D01*
X335709Y142652D01*
X335635Y142468D01*
X335488Y142137D01*
X335341Y141843D01*
X335304Y141806D01*
X335267Y141733D01*
X335047Y141512D01*
X335010Y141475D01*
X334936Y141365D01*
X334789Y141218D01*
X334679Y141107D01*
X334642Y141070D01*
X334495Y140923D01*
X334311Y140739D01*
X334017Y140519D01*
X333723Y140261D01*
X333392Y140041D01*
X333060Y139783D01*
X332693Y139599D01*
X342733Y133788D01*
X342770Y133862D01*
Y133935D01*
Y134082D01*
Y134119D01*
X342733Y134230D01*
X342770D01*
Y134266D01*
Y134303D01*
X342697Y134487D01*
X342623Y134745D01*
X342476Y135039D01*
X336959Y144638D01*
D02*
G37*
G36*
X318827Y145815D02*
X312611Y135002D01*
X312575Y134965D01*
Y134928D01*
X312538Y134855D01*
X312501Y134781D01*
X312464Y134708D01*
X312427Y134634D01*
Y134561D01*
X312391Y134450D01*
Y134413D01*
Y134340D01*
X312354Y134193D01*
Y134009D01*
X312427Y133568D01*
X312501Y133347D01*
X312611Y133089D01*
X312648Y133016D01*
X312758Y132869D01*
X312795Y132795D01*
X312942Y132648D01*
X312979Y132611D01*
X313053Y132575D01*
X313163Y132501D01*
X313347Y132391D01*
X313752Y132207D01*
X314009Y132170D01*
X314303Y132133D01*
X341042D01*
X341115Y132170D01*
X341152D01*
X341262Y132207D01*
X341409D01*
X341446Y132243D01*
X341593Y132280D01*
X341740Y132354D01*
X341888Y132464D01*
X330964Y138827D01*
X330927Y138790D01*
X330817Y138680D01*
X330633Y138533D01*
X330412Y138386D01*
X330449Y138349D01*
X330560Y138275D01*
X330743Y138091D01*
X330964Y137871D01*
X331001Y137834D01*
X331038Y137797D01*
X331074Y137760D01*
X331148Y137613D01*
X331222Y137393D01*
X331258Y137135D01*
Y137098D01*
X331222Y136951D01*
X331185Y136767D01*
X331111Y136547D01*
Y136510D01*
X331038Y136400D01*
X331001Y136363D01*
X330817Y136252D01*
X330707Y136179D01*
X330523Y136105D01*
X330339Y136069D01*
X329861D01*
Y135995D01*
X329897Y135848D01*
X329934Y135664D01*
X329897Y135407D01*
Y135370D01*
X329824Y135186D01*
Y135149D01*
X329787Y135112D01*
X329677Y134965D01*
Y134928D01*
X329640Y134892D01*
X329603D01*
X329530Y134855D01*
X329383Y134745D01*
X329125Y134634D01*
X328757Y134597D01*
X328684D01*
X328463Y134634D01*
X328206Y134708D01*
X327911Y134892D01*
X327875Y134818D01*
X327728Y134671D01*
X327507Y134450D01*
X327286Y134266D01*
X327249Y134230D01*
X327176Y134193D01*
X327066Y134082D01*
X326882Y134009D01*
X326845D01*
X326735Y133935D01*
X326587Y133899D01*
X326404Y133862D01*
X325778D01*
X325594Y133935D01*
X325374Y134009D01*
X325190Y134156D01*
X325153Y134193D01*
X325116Y134266D01*
X325043Y134377D01*
X324932Y134561D01*
X324822Y134745D01*
X324748Y135039D01*
X324712Y135333D01*
X324675Y135701D01*
Y135737D01*
Y135774D01*
Y135811D01*
Y135848D01*
Y135885D01*
Y136069D01*
Y136289D01*
X324748Y136547D01*
X324712Y136620D01*
X324601Y136694D01*
X324381Y136841D01*
X324344Y136878D01*
X324270Y136915D01*
X324160Y136951D01*
X324086Y137025D01*
Y136988D01*
X324160Y136804D01*
X324197Y136583D01*
X324270Y136326D01*
X324381Y135774D01*
X324454Y135517D01*
Y135333D01*
Y135296D01*
X324417Y135223D01*
Y135076D01*
X324344Y134928D01*
X324270Y134745D01*
X324160Y134561D01*
X323976Y134340D01*
X323792Y134156D01*
X323755Y134119D01*
X323645Y134046D01*
X323498Y133972D01*
X323351Y133899D01*
X323314D01*
X323204Y133862D01*
X323020Y133825D01*
X322799Y133788D01*
X322726D01*
X322505Y133862D01*
X322211Y134009D01*
X322064Y134156D01*
X321917Y134303D01*
Y134340D01*
X321843Y134377D01*
X321806Y134487D01*
X321696Y134634D01*
X321622Y134818D01*
X321512Y135039D01*
X321365Y135333D01*
X321254Y135701D01*
Y135737D01*
X321218Y135811D01*
X321181Y135885D01*
Y135921D01*
Y135958D01*
X321144Y136032D01*
X321107Y136142D01*
X321034Y136252D01*
X320960Y136436D01*
X320887Y136657D01*
Y136694D01*
X320850Y136767D01*
X320776Y136878D01*
X320740Y137025D01*
X320592Y137319D01*
X320519Y137613D01*
Y137687D01*
X320482Y137760D01*
X320445Y137871D01*
X320409Y138055D01*
X320372Y138238D01*
X320335Y138496D01*
X320298Y138827D01*
Y138864D01*
Y138974D01*
X320261Y139121D01*
X320225Y139305D01*
X320151Y139710D01*
X320114Y139894D01*
X320078Y140077D01*
Y140114D01*
Y140151D01*
X320041Y140225D01*
X320004Y140372D01*
X319930Y140592D01*
Y140666D01*
X319894Y140813D01*
X319820Y140997D01*
X319783Y141291D01*
X319710Y141843D01*
Y142100D01*
X319746Y142321D01*
X319783Y142395D01*
X319857Y142578D01*
X319967Y142909D01*
X320151Y143314D01*
X320188Y143351D01*
X320225Y143461D01*
X320298Y143608D01*
X320372Y143829D01*
X320519Y144307D01*
X320629Y144785D01*
X318827Y145815D01*
D02*
G37*
%LPD*%
D10*
X255500Y402000D02*
G03*
X255500Y402000I-1000J0D01*
G01*
X113500Y252500D02*
G03*
X113500Y252500I-1000J0D01*
G01*
X504800Y525000D02*
G03*
X504800Y525000I-1000J0D01*
G01*
X483000Y338500D02*
G03*
X485000Y338500I1000J0D01*
G01*
D02*
G03*
X483000Y338500I-1000J0D01*
G01*
X102900Y167100D02*
G03*
X102900Y167100I-1000J0D01*
G01*
X494212Y173224D02*
G03*
X494212Y173224I-1000J0D01*
G01*
X150000Y84000D02*
G03*
X150000Y84000I-1000J0D01*
G01*
X176700Y298500D02*
G03*
X176700Y298500I-1000J0D01*
G01*
X373741Y208813D02*
G03*
X373741Y208813I-1000J0D01*
G01*
X505300Y88200D02*
G03*
X505300Y88200I-1000J0D01*
G01*
X306500Y108000D02*
G03*
X306500Y110000I0J1000D01*
G01*
D02*
G03*
X306500Y108000I0J-1000D01*
G01*
X399000D02*
G03*
X399000Y110000I0J1000D01*
G01*
D02*
G03*
X399000Y108000I0J-1000D01*
G01*
X28950Y180000D02*
G03*
X28950Y180000I-1000J0D01*
G01*
Y210000D02*
G03*
X28950Y210000I-1000J0D01*
G01*
X175000Y381000D02*
G03*
X175000Y382000I0J500D01*
G01*
D02*
G03*
X175000Y381000I0J-500D01*
G01*
D02*
G03*
X175000Y382000I0J500D01*
G01*
X400600Y503660D02*
G03*
X400600Y503660I-1000J0D01*
G01*
X60500Y2500D02*
Y78500D01*
X70500D01*
X60500Y2500D02*
X119500D01*
X119502Y2503D02*
Y78503D01*
X109500Y78500D02*
X119500D01*
X492100Y2200D02*
Y15000D01*
X581500Y2200D02*
Y15000D01*
X492100Y42200D02*
Y54700D01*
X581500Y42200D02*
Y54700D01*
X38100Y597900D02*
X60100D01*
X79100Y557900D02*
Y577900D01*
X38100Y537900D02*
X60100D01*
X19100Y557900D02*
Y577900D01*
X-65900Y547900D02*
X-55900D01*
X-65900D02*
Y587900D01*
X-55900D01*
X-45900Y597900D01*
X-55900Y547900D02*
Y587900D01*
Y547900D02*
X-45900Y537900D01*
X-25900D01*
X-45900D02*
Y597900D01*
X-25900D01*
X-15900Y587900D01*
X-25900Y537900D02*
Y597900D01*
Y537900D02*
X-15900Y547900D01*
X8100D01*
X-15900D02*
Y587900D01*
X8100D01*
X26500Y243500D02*
Y286500D01*
X69500D01*
Y243500D02*
Y286500D01*
X26500Y243500D02*
X69500D01*
X182500Y401000D02*
Y409000D01*
X167500Y401000D02*
Y409000D01*
D11*
X333472Y289184D02*
G03*
X333472Y289184I-1250J0D01*
G01*
X81090Y82780D02*
G03*
X81090Y82780I-1250J0D01*
G01*
X49250Y239500D02*
G03*
X49250Y239500I-1250J0D01*
G01*
D12*
X545414Y400000D02*
G03*
X545414Y400000I-1414J0D01*
G01*
Y285000D02*
G03*
X545414Y285000I-1414J0D01*
G01*
D13*
X524000Y226000D02*
G03*
X523000Y226000I-500J0D01*
G01*
D02*
G03*
X524000Y226000I500J0D01*
G01*
X444000Y621000D02*
G03*
X443000Y621000I-500J0D01*
G01*
D02*
G03*
X444000Y621000I500J0D01*
G01*
X88100Y567900D02*
G03*
X89100Y567900I500J0D01*
G01*
D02*
G03*
X88100Y567900I-500J0D01*
G01*
X420000Y341000D02*
X470000D01*
X420000Y404000D02*
X470000D01*
X413500Y362500D02*
Y382500D01*
X476500Y362500D02*
Y382500D01*
X304000Y45000D02*
Y95000D01*
X241000Y45000D02*
Y95000D01*
X262500Y38500D02*
X282500D01*
X262500Y101500D02*
X282500D01*
X396500Y45000D02*
Y95000D01*
X333500Y45000D02*
Y95000D01*
X355000Y38500D02*
X375000D01*
X355000Y101500D02*
X375000D01*
D14*
X230630Y195372D02*
G03*
X236726Y195372I3048J0D01*
G01*
X261618Y191054D02*
Y195372D01*
X205738Y130348D02*
Y134666D01*
Y130348D02*
X261618D01*
Y134666D01*
X236726Y195372D02*
X261618D01*
X230630D02*
X236726D01*
X205738D02*
X230630D01*
X205738Y191054D02*
Y195372D01*
X159224Y368918D02*
Y386190D01*
X130776Y368918D02*
Y386190D01*
D15*
X337750Y387500D02*
G03*
X337750Y387500I-750J0D01*
G01*
X37000Y646000D02*
X63000D01*
X37000Y624000D02*
X63000D01*
D16*
X155500Y396554D02*
G03*
X155500Y396554I-500J0D01*
G01*
D17*
X346000Y354500D02*
X364000D01*
Y369000D01*
Y374500D02*
Y389000D01*
X346000Y374500D02*
Y389000D01*
X364000D01*
X346000Y354500D02*
Y369000D01*
X93410Y405870D02*
Y410950D01*
X116270Y419840D02*
Y421110D01*
X93410Y430000D02*
Y435080D01*
Y405870D02*
X104840D01*
X93410Y435080D02*
X104840D01*
X466000Y471000D02*
X475210D01*
X480500Y476290D01*
Y483710D01*
X475210Y489000D02*
X480500Y483710D01*
X466000Y489000D02*
X475210D01*
X446000Y471000D02*
Y489000D01*
Y471000D02*
X460500D01*
X446000Y489000D02*
X460500D01*
X466000Y441000D02*
X475210D01*
X480500Y446290D01*
Y453710D01*
X475210Y459000D02*
X480500Y453710D01*
X466000Y459000D02*
X475210D01*
X446000Y441000D02*
Y459000D01*
Y441000D02*
X460500D01*
X446000Y459000D02*
X460500D01*
X139000Y143500D02*
Y152710D01*
X133710Y158000D02*
X139000Y152710D01*
X126290Y158000D02*
X133710D01*
X121000Y152710D02*
X126290Y158000D01*
X121000Y143500D02*
Y152710D01*
Y123500D02*
X139000D01*
Y138000D01*
X121000Y123500D02*
Y138000D01*
X416000Y31290D02*
Y40500D01*
Y31290D02*
X421290Y26000D01*
X428710D01*
X434000Y31290D01*
Y40500D01*
X416000Y60500D02*
X434000D01*
X416000Y46000D02*
Y60500D01*
X434000Y46000D02*
Y60500D01*
X446000Y31290D02*
Y40500D01*
Y31290D02*
X451290Y26000D01*
X458710D01*
X464000Y31290D01*
Y40500D01*
X446000Y60500D02*
X464000D01*
X446000Y46000D02*
Y60500D01*
X464000Y46000D02*
Y60500D01*
X71050Y407410D02*
X76130D01*
X60890Y430270D02*
X62160D01*
X46920Y407410D02*
X52000D01*
X76130D02*
Y418840D01*
X46920Y407410D02*
Y418840D01*
X444000Y441000D02*
Y459000D01*
X429500D02*
X444000D01*
X409500D02*
X424000D01*
X409500Y441000D02*
X424000D01*
X409500D02*
Y459000D01*
X429500Y441000D02*
X444000D01*
Y471000D02*
Y489000D01*
X429500D02*
X444000D01*
X409500D02*
X424000D01*
X409500Y471000D02*
X424000D01*
X409500D02*
Y489000D01*
X429500Y471000D02*
X444000D01*
X322272Y307000D02*
X335000Y294272D01*
X345253Y304525D01*
X349142Y308414D02*
X359395Y318667D01*
X336414Y321142D02*
X346667Y331395D01*
X359395Y318667D01*
X322272Y307000D02*
X332525Y317253D01*
X78500Y286000D02*
Y304000D01*
Y286000D02*
X93000D01*
X98500D02*
X113000D01*
X98500Y304000D02*
X113000D01*
Y286000D02*
Y304000D01*
X78500D02*
X93000D01*
X78000Y310000D02*
Y328000D01*
Y310000D02*
X92500D01*
X98000D02*
X112500D01*
X98000Y328000D02*
X112500D01*
Y310000D02*
Y328000D01*
X78000D02*
X92500D01*
X118500Y251000D02*
Y269000D01*
Y251000D02*
X133000D01*
X138500D02*
X153000D01*
X138500Y269000D02*
X153000D01*
Y251000D02*
Y269000D01*
X118500D02*
X133000D01*
X206000Y356000D02*
X224000D01*
Y370500D01*
Y376000D02*
Y390500D01*
X206000Y376000D02*
Y390500D01*
X224000D01*
X206000Y356000D02*
Y370500D01*
X301000Y389000D02*
X319000D01*
X301000Y374500D02*
Y389000D01*
Y354500D02*
Y369000D01*
X319000Y354500D02*
Y369000D01*
X301000Y354500D02*
X319000D01*
Y374500D02*
Y389000D01*
X526000Y96000D02*
X544000D01*
Y110500D01*
Y116000D02*
Y130500D01*
X526000Y116000D02*
Y130500D01*
X544000D01*
X526000Y96000D02*
Y110500D01*
X78000Y223000D02*
Y241000D01*
Y223000D02*
X92500D01*
X98000D02*
X112500D01*
X98000Y241000D02*
X112500D01*
Y223000D02*
Y241000D01*
X78000D02*
X92500D01*
X151000Y199000D02*
X169000D01*
X151000Y184500D02*
Y199000D01*
Y164500D02*
Y179000D01*
X169000Y164500D02*
Y179000D01*
X151000Y164500D02*
X169000D01*
Y184500D02*
Y199000D01*
X231500Y201000D02*
Y219000D01*
X217000D02*
X231500D01*
X197000D02*
X211500D01*
X197000Y201000D02*
X211500D01*
X197000D02*
Y219000D01*
X217000Y201000D02*
X231500D01*
X176000Y106000D02*
Y124000D01*
Y106000D02*
X190500D01*
X196000Y106000D02*
X210500Y106000D01*
X196000Y124000D02*
X210500D01*
Y106000D02*
Y124000D01*
X176000D02*
X190500D01*
X151000Y161500D02*
X169000D01*
X151000Y147000D02*
Y161500D01*
Y127000D02*
Y141500D01*
X169000Y127000D02*
Y141500D01*
X151000Y127000D02*
X169000D01*
Y147000D02*
Y161500D01*
X236000Y201000D02*
Y219000D01*
Y201000D02*
X250500D01*
X256000D02*
X270500D01*
X256000Y219000D02*
X270500D01*
Y201000D02*
Y219000D01*
X236000D02*
X250500D01*
X138500Y304000D02*
X156500D01*
X138500Y289500D02*
Y304000D01*
Y269500D02*
Y284000D01*
X156500Y269500D02*
Y284000D01*
X138500Y269500D02*
X156500D01*
Y289500D02*
Y304000D01*
X118500Y269500D02*
X136500D01*
Y284000D01*
Y289500D02*
Y304000D01*
X118500Y289500D02*
Y304000D01*
X136500D01*
X118500Y269500D02*
Y284000D01*
X78000Y122000D02*
X96000D01*
Y136500D01*
Y142000D02*
Y156500D01*
X78000Y142000D02*
Y156500D01*
X96000D01*
X78000Y122000D02*
Y136500D01*
X119000Y243500D02*
X137000D01*
X119000Y229000D02*
Y243500D01*
Y209000D02*
Y223500D01*
X137000Y209000D02*
Y223500D01*
X119000Y209000D02*
X137000D01*
Y229000D02*
Y243500D01*
X142000Y243000D02*
X160000D01*
X142000Y228500D02*
Y243000D01*
Y208500D02*
Y223000D01*
X160000Y208500D02*
Y223000D01*
X142000Y208500D02*
X160000D01*
Y228500D02*
Y243000D01*
X104500Y96000D02*
Y114000D01*
Y96000D02*
X119000D01*
X124500D02*
X139000D01*
X124500Y114000D02*
X139000D01*
Y96000D02*
Y114000D01*
X104500D02*
X119000D01*
X416000Y101540D02*
X434000D01*
X416000Y87040D02*
Y101540D01*
Y67040D02*
Y81540D01*
X434000Y67040D02*
Y81540D01*
X416000Y67040D02*
X434000D01*
Y87040D02*
Y101540D01*
X446000Y101540D02*
X464000D01*
X446000Y87040D02*
Y101540D01*
Y67040D02*
Y81540D01*
X464000Y67040D02*
Y81540D01*
X446000Y67040D02*
X464000D01*
Y87040D02*
Y101540D01*
X266765Y394294D02*
X284765D01*
X266765Y379794D02*
Y394294D01*
Y359794D02*
Y374294D01*
X284765Y359794D02*
Y374294D01*
X266765Y359794D02*
X284765D01*
Y379794D02*
Y394294D01*
X326000Y391000D02*
Y409000D01*
Y391000D02*
X340500D01*
X346000D02*
X360500D01*
X346000Y409000D02*
X360500D01*
Y391000D02*
Y409000D01*
X326000D02*
X340500D01*
X94600Y525900D02*
X112600D01*
X94600Y511400D02*
Y525900D01*
Y491400D02*
Y505900D01*
X112600Y491400D02*
Y505900D01*
X94600Y491400D02*
X112600D01*
Y511400D02*
Y525900D01*
X93500Y441000D02*
X111500D01*
Y455500D01*
Y461000D02*
Y475500D01*
X93500Y461000D02*
Y475500D01*
X111500D01*
X93500Y441000D02*
Y455500D01*
X207000Y238500D02*
X225000D01*
Y253000D01*
Y258500D02*
Y273000D01*
X207000Y258500D02*
Y273000D01*
X225000D01*
X207000Y238500D02*
Y253000D01*
X588500Y511000D02*
Y529000D01*
X574000D02*
X588500D01*
X554000D02*
X568500D01*
X554000Y511000D02*
X568500D01*
X554000D02*
Y529000D01*
X574000Y511000D02*
X588500D01*
X497000Y496000D02*
Y514000D01*
X482500D02*
X497000D01*
X462500D02*
X477000D01*
X462500Y496000D02*
X477000D01*
X462500D02*
Y514000D01*
X482500Y496000D02*
X497000D01*
X98000Y122000D02*
X116000D01*
Y136500D01*
Y142000D02*
Y156500D01*
X98000Y142000D02*
Y156500D01*
X116000D01*
X98000Y122000D02*
Y136500D01*
X131000Y435500D02*
X149000D01*
X131000Y421000D02*
Y435500D01*
Y401000D02*
Y415500D01*
X149000Y401000D02*
Y415500D01*
X131000Y401000D02*
X149000D01*
Y421000D02*
Y435500D01*
X219000Y310000D02*
Y328000D01*
X204500D02*
X219000D01*
X184500D02*
X199000D01*
X184500Y310000D02*
X199000D01*
X184500D02*
Y328000D01*
X204500Y310000D02*
X219000D01*
X178000Y238500D02*
X196000D01*
Y253000D01*
Y258500D02*
Y273000D01*
X178000Y258500D02*
Y273000D01*
X196000D01*
X178000Y238500D02*
Y253000D01*
D18*
X260600Y385000D02*
X260600Y369000D01*
X229400D02*
Y385000D01*
X531500Y405500D02*
Y504500D01*
Y405500D02*
X607500D01*
X531500Y504500D02*
X607500D01*
Y405500D02*
Y504500D01*
X85000Y250000D02*
X105000D01*
X85000Y280000D02*
X105000D01*
X517550Y505450D02*
X540550D01*
X517550Y529550D02*
X540550D01*
X121350Y175100D02*
Y195100D01*
X97450Y175100D02*
Y195100D01*
X460756Y149960D02*
X469949Y140768D01*
X485081Y174285D02*
X494273Y165092D01*
X607500Y290500D02*
Y389500D01*
X531500D02*
X607500D01*
X531500Y290500D02*
X607500D01*
X531500D02*
Y389500D01*
X135500Y78500D02*
X214500D01*
X135500Y2500D02*
Y78500D01*
Y2500D02*
X214500D01*
Y78500D01*
X189450Y278950D02*
X212450D01*
X189450Y303050D02*
X212450D01*
X325500Y384500D02*
X329000D01*
X325500Y381000D02*
Y384500D01*
Y370500D02*
Y374000D01*
Y370500D02*
X329000D01*
X336000D02*
X339500D01*
Y374000D01*
Y381000D02*
Y384500D01*
X335800D02*
X339500D01*
X373271Y222071D02*
X376666Y218677D01*
X419375Y175968D02*
X422769Y172574D01*
Y271569D02*
X426163Y268174D01*
X468872Y225465D02*
X472266Y222071D01*
X373271D02*
X376666Y225465D01*
X422769Y172574D02*
X426163Y175968D01*
X419375Y268174D02*
X422769Y271569D01*
X468872Y218677D02*
X472266Y222071D01*
X39950Y160500D02*
X67950D01*
X39950Y179500D02*
X67950D01*
X39950Y190500D02*
X67950D01*
X39950Y209500D02*
X67950D01*
X384680Y478900D02*
Y496400D01*
X366650Y478900D02*
X384680D01*
X239650D02*
X261650D01*
X130680D02*
X159650D01*
X130680D02*
Y496400D01*
X384680Y588400D02*
Y605900D01*
X366650D02*
X384680D01*
X239650D02*
X261650D01*
X130680D02*
X159650D01*
X130680Y588400D02*
Y605900D01*
X366175Y273650D02*
X371384Y268441D01*
X359350Y266825D02*
X364559Y261616D01*
X359350Y266825D02*
X366175Y273650D01*
X374257Y265568D02*
X379466Y260359D01*
X372641Y253534D02*
X379466Y260359D01*
X367432Y258743D02*
X372641Y253534D01*
X340583Y220455D02*
Y227821D01*
X330931Y220455D02*
Y227821D01*
X340583D01*
Y209025D02*
Y216391D01*
X330931Y209025D02*
X340583D01*
X330931D02*
Y216391D01*
X370522Y174826D02*
X377888D01*
X370522Y165174D02*
X377888D01*
X370522D02*
Y174826D01*
X381952D02*
X389318D01*
Y165174D02*
Y174826D01*
X381952Y165174D02*
X389318D01*
X485935Y261003D02*
Y268369D01*
X476283Y261003D02*
Y268369D01*
X485935D01*
Y249573D02*
Y256939D01*
X476283Y249573D02*
X485935D01*
X476283D02*
Y256939D01*
X376500Y283650D02*
X381709Y278441D01*
X369675Y276825D02*
X374884Y271616D01*
X369675Y276825D02*
X376500Y283650D01*
X384582Y275568D02*
X389791Y270359D01*
X382966Y263534D02*
X389791Y270359D01*
X377757Y268743D02*
X382966Y263534D01*
X353353Y220313D02*
Y227680D01*
X343700Y220313D02*
Y227680D01*
X353353D01*
Y208883D02*
Y216250D01*
X343700Y208883D02*
X353353D01*
X343700D02*
Y216250D01*
X440941Y286616D02*
X446150Y291825D01*
X434117Y293441D02*
X439325Y298650D01*
X446150Y291825D01*
X432859Y278534D02*
X438068Y283743D01*
X426034Y285359D02*
X432859Y278534D01*
X426034Y285359D02*
X431243Y290568D01*
X359175Y310650D02*
X364384Y305441D01*
X352350Y303825D02*
X357559Y298616D01*
X352350Y303825D02*
X359175Y310650D01*
X367257Y302568D02*
X372466Y297359D01*
X365641Y290534D02*
X372466Y297359D01*
X360432Y295743D02*
X365641Y290534D01*
X433441Y294116D02*
X438650Y299325D01*
X426616Y300941D02*
X431825Y306150D01*
X438650Y299325D01*
X425359Y286034D02*
X430568Y291243D01*
X418534Y292859D02*
X425359Y286034D01*
X418534Y292859D02*
X423743Y298068D01*
X403175Y306224D02*
X408383Y301016D01*
X396350Y299399D02*
X401559Y294191D01*
X396350Y299399D02*
X403175Y306224D01*
X411257Y298142D02*
X416466Y292934D01*
X409641Y286108D02*
X416466Y292934D01*
X404432Y291317D02*
X409641Y286108D01*
X82174Y165682D02*
Y173048D01*
X91826Y165682D02*
Y173048D01*
X82174Y165682D02*
X91826D01*
X82174Y177112D02*
Y184478D01*
X91826D01*
Y177112D02*
Y184478D01*
Y196952D02*
Y204318D01*
X82174Y196952D02*
Y204318D01*
X91826D01*
Y185522D02*
Y192888D01*
X82174Y185522D02*
X91826D01*
X82174D02*
Y192888D01*
X165174Y363182D02*
Y370548D01*
X174826Y363182D02*
Y370548D01*
X165174Y363182D02*
X174826D01*
X165174Y374612D02*
Y381978D01*
X174826D01*
Y374612D02*
Y381978D01*
X507138Y178710D02*
X512347Y173502D01*
X513963Y185536D02*
X519172Y180327D01*
X512347Y173502D02*
X519172Y180327D01*
X499056Y186793D02*
X504264Y181584D01*
X499056Y186793D02*
X505881Y193618D01*
X511089Y188409D01*
X500067Y171639D02*
X505276Y166431D01*
X506892Y178464D02*
X512101Y173256D01*
X505276Y166431D02*
X512101Y173256D01*
X491985Y179722D02*
X497193Y174513D01*
X491985Y179722D02*
X498810Y186547D01*
X504018Y181338D01*
D19*
X498079Y431286D02*
Y477000D01*
X301854Y267344D02*
Y287344D01*
X301858Y288358D02*
X316000Y302500D01*
X134000Y645000D02*
X144000Y620000D01*
X344000Y645000D02*
X354000Y620000D01*
X291118Y346623D02*
X304118Y333623D01*
X291118Y346623D02*
Y448623D01*
X135000Y335000D02*
X184000D01*
X197000Y348000D01*
X511000Y285000D02*
X524000Y272000D01*
X584000D01*
X384000Y417000D02*
X486000D01*
X499000Y430000D01*
X197000Y348000D02*
Y450000D01*
X5000Y103000D02*
Y210000D01*
Y103000D02*
X18000Y90000D01*
X6657Y498060D02*
X19657Y485060D01*
X121657D01*
X5000Y238000D02*
Y330000D01*
Y238000D02*
X18000Y225000D01*
X145000Y103000D02*
X158000Y90000D01*
X145000Y103000D02*
Y195000D01*
X197000Y348000D02*
X210000Y335000D01*
D20*
X227300Y422300D02*
X278100D01*
Y447700D01*
X227300D02*
X278100D01*
X227300Y422300D02*
Y447700D01*
X321900Y422300D02*
X372700D01*
Y447700D01*
X321900D02*
X372700D01*
X321900Y422300D02*
Y447700D01*
X7300Y437300D02*
X58100D01*
Y462700D01*
X7300D02*
X58100D01*
X7300Y437300D02*
Y462700D01*
X17300Y332700D02*
X68100D01*
X17300Y307300D02*
Y332700D01*
Y307300D02*
X68100D01*
Y332700D01*
X22300Y342300D02*
Y393100D01*
Y342300D02*
X47700D01*
Y393100D01*
X22300D02*
X47700D01*
X509055Y295870D02*
Y303867D01*
Y299869D01*
X521051D01*
X509055Y315864D02*
Y307866D01*
X521051D01*
Y315864D01*
X515053Y307866D02*
Y311865D01*
X521051Y319862D02*
X509055D01*
X513054Y323861D01*
X509055Y327860D01*
X521051D01*
Y331858D02*
X509055D01*
Y337856D01*
X511054Y339856D01*
X515053D01*
X517052Y337856D01*
Y331858D01*
X521051Y351852D02*
Y343854D01*
X513054Y351852D01*
X511054D01*
X509055Y349852D01*
Y345854D01*
X511054Y343854D01*
X510464Y407540D02*
Y415537D01*
Y411539D01*
X522460D01*
X510464Y427533D02*
Y419536D01*
X522460D01*
Y427533D01*
X516462Y419536D02*
Y423535D01*
X522460Y431532D02*
X510464D01*
X514463Y435531D01*
X510464Y439530D01*
X522460D01*
Y443528D02*
X510464D01*
Y449526D01*
X512463Y451526D01*
X516462D01*
X518461Y449526D01*
Y443528D01*
X522460Y455524D02*
Y459523D01*
Y457524D01*
X510464D01*
X512463Y455524D01*
X532540Y256536D02*
Y244540D01*
X538538D01*
X540537Y246539D01*
Y254537D01*
X538538Y256536D01*
X532540D01*
X552533D02*
X544536D01*
Y244540D01*
X552533D01*
X544536Y250538D02*
X548535D01*
X556532Y256536D02*
Y244540D01*
X562530D01*
X564530Y246539D01*
Y248539D01*
X562530Y250538D01*
X556532D01*
X562530D01*
X564530Y252537D01*
Y254537D01*
X562530Y256536D01*
X556532D01*
X568528D02*
Y246539D01*
X570528Y244540D01*
X574526D01*
X576526Y246539D01*
Y256536D01*
X588522Y254537D02*
X586522Y256536D01*
X582524D01*
X580524Y254537D01*
Y246539D01*
X582524Y244540D01*
X586522D01*
X588522Y246539D01*
Y250538D01*
X584523D01*
X436540Y549540D02*
Y559697D01*
X441618D01*
X443311Y558004D01*
Y554618D01*
X441618Y552926D01*
X436540D01*
X439926D02*
X443311Y549540D01*
X453468Y559697D02*
X446697D01*
Y554618D01*
X450082D01*
X446697D01*
Y549540D01*
X467010D02*
Y559697D01*
X472089D01*
X473781Y558004D01*
Y554618D01*
X472089Y552926D01*
X467010D01*
X477167Y549540D02*
Y559697D01*
X482245D01*
X483938Y558004D01*
Y554618D01*
X482245Y552926D01*
X477167D01*
X480552D02*
X483938Y549540D01*
X492402Y559697D02*
X489016D01*
X487324Y558004D01*
Y551233D01*
X489016Y549540D01*
X492402D01*
X494095Y551233D01*
Y558004D01*
X492402Y559697D01*
X504252Y558004D02*
X502559Y559697D01*
X499173D01*
X497480Y558004D01*
Y551233D01*
X499173Y549540D01*
X502559D01*
X504252Y551233D01*
Y554618D01*
X500866D01*
X507637Y549540D02*
Y551233D01*
X509330D01*
Y549540D01*
X507637D01*
X204963Y397540D02*
X202964Y399539D01*
Y403538D01*
X204963Y405537D01*
X206963D01*
X208962Y403538D01*
Y401539D01*
Y403538D01*
X210961Y405537D01*
X212961D01*
X214960Y403538D01*
Y399539D01*
X212961Y397540D01*
X202964Y409536D02*
X210961D01*
X214960Y413535D01*
X210961Y417533D01*
X202964D01*
X204963Y421532D02*
X202964Y423532D01*
Y427530D01*
X204963Y429530D01*
X206963D01*
X208962Y427530D01*
Y425531D01*
Y427530D01*
X210961Y429530D01*
X212961D01*
X214960Y427530D01*
Y423532D01*
X212961Y421532D01*
X208962Y433528D02*
Y441526D01*
X214960Y445524D02*
Y449523D01*
Y447524D01*
X202964D01*
X204963Y445524D01*
X299963Y397540D02*
X297964Y399539D01*
Y403538D01*
X299963Y405537D01*
X301963D01*
X303962Y403538D01*
Y401539D01*
Y403538D01*
X305961Y405537D01*
X307961D01*
X309960Y403538D01*
Y399539D01*
X307961Y397540D01*
X297964Y409536D02*
X305961D01*
X309960Y413535D01*
X305961Y417533D01*
X297964D01*
X299963Y421532D02*
X297964Y423532D01*
Y427530D01*
X299963Y429530D01*
X301963D01*
X303962Y427530D01*
Y425531D01*
Y427530D01*
X305961Y429530D01*
X307961D01*
X309960Y427530D01*
Y423532D01*
X307961Y421532D01*
X303962Y433528D02*
Y441526D01*
X309960Y453522D02*
Y445524D01*
X301963Y453522D01*
X299963D01*
X297964Y451522D01*
Y447524D01*
X299963Y445524D01*
X60537Y349537D02*
X58538Y351536D01*
X54539D01*
X52540Y349537D01*
Y341539D01*
X54539Y339540D01*
X58538D01*
X60537Y341539D01*
X70534Y351536D02*
X66536D01*
X64536Y349537D01*
Y341539D01*
X66536Y339540D01*
X70534D01*
X72533Y341539D01*
Y349537D01*
X70534Y351536D01*
X76532Y339540D02*
Y351536D01*
X84530Y339540D01*
Y351536D01*
X88528D02*
X96526D01*
X92527D01*
Y339540D01*
X100525D02*
Y351536D01*
X106523D01*
X108522Y349537D01*
Y345538D01*
X106523Y343539D01*
X100525D01*
X104523D02*
X108522Y339540D01*
X118519Y351536D02*
X114520D01*
X112521Y349537D01*
Y341539D01*
X114520Y339540D01*
X118519D01*
X120518Y341539D01*
Y349537D01*
X118519Y351536D01*
X124517D02*
Y339540D01*
X132514D01*
X66922Y446151D02*
Y442765D01*
Y444458D01*
X75386D01*
X77078Y442765D01*
Y441072D01*
X75386Y439379D01*
X77078Y456307D02*
Y449536D01*
X70307Y456307D01*
X68614D01*
X66922Y454614D01*
Y451229D01*
X68614Y449536D01*
Y459693D02*
X66922Y461386D01*
Y464771D01*
X68614Y466464D01*
X75386D01*
X77078Y464771D01*
Y461386D01*
X75386Y459693D01*
X68614D01*
X77078Y474928D02*
X66922D01*
X72000Y469850D01*
Y476621D01*
X167540Y82540D02*
Y94536D01*
X173538D01*
X175537Y92537D01*
Y88538D01*
X173538Y86539D01*
X167540D01*
X171539D02*
X175537Y82540D01*
X187533Y92537D02*
X185534Y94536D01*
X181535D01*
X179536Y92537D01*
Y90537D01*
X181535Y88538D01*
X185534D01*
X187533Y86539D01*
Y84539D01*
X185534Y82540D01*
X181535D01*
X179536Y84539D01*
X199530Y82540D02*
X191532D01*
X199530Y90537D01*
Y92537D01*
X197530Y94536D01*
X193532D01*
X191532Y92537D01*
X203528D02*
X205528Y94536D01*
X209526D01*
X211526Y92537D01*
Y90537D01*
X209526Y88538D01*
X207527D01*
X209526D01*
X211526Y86539D01*
Y84539D01*
X209526Y82540D01*
X205528D01*
X203528Y84539D01*
X223522Y82540D02*
X215525D01*
X223522Y90537D01*
Y92537D01*
X221523Y94536D01*
X217524D01*
X215525Y92537D01*
X77540Y627540D02*
Y637697D01*
X82618D01*
X84311Y636004D01*
Y632618D01*
X82618Y630926D01*
X77540D01*
X80926D02*
X84311Y627540D01*
X94468Y637697D02*
X87697D01*
Y627540D01*
X94468D01*
X87697Y632618D02*
X91082D01*
X104625Y636004D02*
X102932Y637697D01*
X99546D01*
X97853Y636004D01*
Y634311D01*
X99546Y632618D01*
X102932D01*
X104625Y630926D01*
Y629233D01*
X102932Y627540D01*
X99546D01*
X97853Y629233D01*
X114781Y637697D02*
X108010D01*
Y627540D01*
X114781D01*
X108010Y632618D02*
X111396D01*
X118167Y637697D02*
X124938D01*
X121552D01*
Y627540D01*
X27540Y492540D02*
Y504536D01*
X33538D01*
X35537Y502537D01*
Y498538D01*
X33538Y496539D01*
X27540D01*
X31539D02*
X35537Y492540D01*
X39536D02*
Y500537D01*
X43535Y504536D01*
X47533Y500537D01*
Y492540D01*
Y498538D01*
X39536D01*
X51532Y504536D02*
Y492540D01*
X57530D01*
X59530Y494539D01*
Y502537D01*
X57530Y504536D01*
X51532D01*
X63528D02*
X67527D01*
X65528D01*
Y492540D01*
X63528D01*
X67527D01*
X79523Y504536D02*
X75525D01*
X73525Y502537D01*
Y494539D01*
X75525Y492540D01*
X79523D01*
X81523Y494539D01*
Y502537D01*
X79523Y504536D01*
X12463Y242540D02*
X10464Y244539D01*
Y248538D01*
X12463Y250537D01*
X14463D01*
X16462Y248538D01*
Y246539D01*
Y248538D01*
X18461Y250537D01*
X20461D01*
X22460Y248538D01*
Y244539D01*
X20461Y242540D01*
X10464Y254536D02*
X18461D01*
X22460Y258535D01*
X18461Y262533D01*
X10464D01*
X12463Y266532D02*
X10464Y268532D01*
Y272530D01*
X12463Y274530D01*
X14463D01*
X16462Y272530D01*
Y270531D01*
Y272530D01*
X18461Y274530D01*
X20461D01*
X22460Y272530D01*
Y268532D01*
X20461Y266532D01*
X12463Y115537D02*
X10464Y113538D01*
Y109539D01*
X12463Y107540D01*
X20461D01*
X22460Y109539D01*
Y113538D01*
X20461Y115537D01*
X10464Y119536D02*
X22460D01*
X16462D01*
Y127534D01*
X10464D01*
X22460D01*
Y131532D02*
X14463D01*
X10464Y135531D01*
X14463Y139530D01*
X22460D01*
X16462D01*
Y131532D01*
X22460Y143528D02*
X10464D01*
Y149526D01*
X12463Y151526D01*
X16462D01*
X18461Y149526D01*
Y143528D01*
Y147527D02*
X22460Y151526D01*
X12463Y163522D02*
X10464Y161523D01*
Y157524D01*
X12463Y155525D01*
X20461D01*
X22460Y157524D01*
Y161523D01*
X20461Y163522D01*
X16462D01*
Y159523D01*
X10464Y175518D02*
Y167521D01*
X22460D01*
Y175518D01*
X16462Y167521D02*
Y171519D01*
X428072Y323386D02*
X426379Y325078D01*
X422994D01*
X421301Y323386D01*
Y321693D01*
X422994Y320000D01*
X426379D01*
X428072Y318307D01*
Y316614D01*
X426379Y314922D01*
X422994D01*
X421301Y316614D01*
X431458Y325078D02*
Y314922D01*
X434843Y318307D01*
X438229Y314922D01*
Y325078D01*
X441614Y323386D02*
X443307Y325078D01*
X446693D01*
X448386Y323386D01*
Y321693D01*
X446693Y320000D01*
X445000D01*
X446693D01*
X448386Y318307D01*
Y316614D01*
X446693Y314922D01*
X443307D01*
X441614Y316614D01*
X451771Y323386D02*
X453464Y325078D01*
X456850D01*
X458542Y323386D01*
Y316614D01*
X456850Y314922D01*
X453464D01*
X451771Y316614D01*
Y323386D01*
X461928D02*
X463621Y325078D01*
X467006D01*
X468699Y323386D01*
Y316614D01*
X467006Y314922D01*
X463621D01*
X461928Y316614D01*
Y323386D01*
X4922Y355650D02*
Y352265D01*
Y353958D01*
X13386D01*
X15078Y352265D01*
Y350572D01*
X13386Y348879D01*
X15078Y365807D02*
Y359036D01*
X8307Y365807D01*
X6614D01*
X4922Y364114D01*
Y360729D01*
X6614Y359036D01*
Y369193D02*
X4922Y370886D01*
Y374271D01*
X6614Y375964D01*
X13386D01*
X15078Y374271D01*
Y370886D01*
X13386Y369193D01*
X6614D01*
Y379350D02*
X4922Y381042D01*
Y384428D01*
X6614Y386121D01*
X8307D01*
X10000Y384428D01*
Y382735D01*
Y384428D01*
X11693Y386121D01*
X13386D01*
X15078Y384428D01*
Y381042D01*
X13386Y379350D01*
X319114Y29765D02*
X317422Y28072D01*
Y24687D01*
X319114Y22994D01*
X320807D01*
X322500Y24687D01*
Y28072D01*
X324193Y29765D01*
X325886D01*
X327578Y28072D01*
Y24687D01*
X325886Y22994D01*
X317422Y33150D02*
X327578D01*
X324193Y36536D01*
X327578Y39922D01*
X317422D01*
X319114Y43307D02*
X317422Y45000D01*
Y48386D01*
X319114Y50078D01*
X320807D01*
X322500Y48386D01*
X324193Y50078D01*
X325886D01*
X327578Y48386D01*
Y45000D01*
X325886Y43307D01*
X324193D01*
X322500Y45000D01*
X320807Y43307D01*
X319114D01*
X322500Y45000D02*
Y48386D01*
X319114Y53464D02*
X317422Y55157D01*
Y58542D01*
X319114Y60235D01*
X325886D01*
X327578Y58542D01*
Y55157D01*
X325886Y53464D01*
X319114D01*
X327578Y63621D02*
Y67006D01*
Y65314D01*
X317422D01*
X319114Y63621D01*
X224114Y33072D02*
X222422Y31379D01*
Y27994D01*
X224114Y26301D01*
X225807D01*
X227500Y27994D01*
Y31379D01*
X229193Y33072D01*
X230886D01*
X232578Y31379D01*
Y27994D01*
X230886Y26301D01*
X222422Y36458D02*
X232578D01*
X229193Y39843D01*
X232578Y43229D01*
X222422D01*
X224114Y46614D02*
X222422Y48307D01*
Y51693D01*
X224114Y53386D01*
X225807D01*
X227500Y51693D01*
X229193Y53386D01*
X230886D01*
X232578Y51693D01*
Y48307D01*
X230886Y46614D01*
X229193D01*
X227500Y48307D01*
X225807Y46614D01*
X224114D01*
X227500Y48307D02*
Y51693D01*
X224114Y56771D02*
X222422Y58464D01*
Y61849D01*
X224114Y63542D01*
X230886D01*
X232578Y61849D01*
Y58464D01*
X230886Y56771D01*
X224114D01*
Y66928D02*
X222422Y68621D01*
Y72006D01*
X224114Y73699D01*
X230886D01*
X232578Y72006D01*
Y68621D01*
X230886Y66928D01*
X224114D01*
X26151Y302078D02*
X22765D01*
X24458D01*
Y293614D01*
X22765Y291922D01*
X21072D01*
X19379Y293614D01*
X36307Y291922D02*
X29536D01*
X36307Y298693D01*
Y300386D01*
X34614Y302078D01*
X31229D01*
X29536Y300386D01*
X39693D02*
X41386Y302078D01*
X44771D01*
X46464Y300386D01*
Y293614D01*
X44771Y291922D01*
X41386D01*
X39693Y293614D01*
Y300386D01*
X49850D02*
X51542Y302078D01*
X54928D01*
X56621Y300386D01*
Y293614D01*
X54928Y291922D01*
X51542D01*
X49850Y293614D01*
Y300386D01*
X18379Y81078D02*
Y70922D01*
X23458D01*
X25150Y72614D01*
Y74307D01*
X23458Y76000D01*
X18379D01*
X23458D01*
X25150Y77693D01*
Y79386D01*
X23458Y81078D01*
X18379D01*
X35307Y70922D02*
X28536D01*
X35307Y77693D01*
Y79386D01*
X33614Y81078D01*
X30229D01*
X28536Y79386D01*
X38693D02*
X40386Y81078D01*
X43771D01*
X45464Y79386D01*
Y72614D01*
X43771Y70922D01*
X40386D01*
X38693Y72614D01*
Y79386D01*
X48850D02*
X50542Y81078D01*
X53928D01*
X55621Y79386D01*
Y72614D01*
X53928Y70922D01*
X50542D01*
X48850Y72614D01*
Y79386D01*
X469222Y18901D02*
Y15515D01*
Y17208D01*
X477686D01*
X479378Y15515D01*
Y13822D01*
X477686Y12129D01*
X470914Y22286D02*
X469222Y23979D01*
Y27364D01*
X470914Y29057D01*
X472607D01*
X474300Y27364D01*
X475993Y29057D01*
X477686D01*
X479378Y27364D01*
Y23979D01*
X477686Y22286D01*
X475993D01*
X474300Y23979D01*
X472607Y22286D01*
X470914D01*
X474300Y23979D02*
Y27364D01*
X470914Y32443D02*
X469222Y34136D01*
Y37521D01*
X470914Y39214D01*
X477686D01*
X479378Y37521D01*
Y34136D01*
X477686Y32443D01*
X470914D01*
Y42600D02*
X469222Y44292D01*
Y47678D01*
X470914Y49371D01*
X477686D01*
X479378Y47678D01*
Y44292D01*
X477686Y42600D01*
X470914D01*
X121922Y18151D02*
Y14765D01*
Y16458D01*
X130386D01*
X132078Y14765D01*
Y13072D01*
X130386Y11379D01*
X121922Y21536D02*
Y28307D01*
X123614D01*
X130386Y21536D01*
X132078D01*
X123614Y31693D02*
X121922Y33386D01*
Y36771D01*
X123614Y38464D01*
X130386D01*
X132078Y36771D01*
Y33386D01*
X130386Y31693D01*
X123614D01*
Y41849D02*
X121922Y43542D01*
Y46928D01*
X123614Y48621D01*
X130386D01*
X132078Y46928D01*
Y43542D01*
X130386Y41849D01*
X123614D01*
X330251Y465078D02*
X326865D01*
X328558D01*
Y456614D01*
X326865Y454922D01*
X325172D01*
X323479Y456614D01*
X340407Y454922D02*
X333636D01*
X340407Y461693D01*
Y463386D01*
X338714Y465078D01*
X335329D01*
X333636Y463386D01*
X343793D02*
X345486Y465078D01*
X348871D01*
X350564Y463386D01*
Y456614D01*
X348871Y454922D01*
X345486D01*
X343793Y456614D01*
Y463386D01*
X360721Y454922D02*
X353950D01*
X360721Y461693D01*
Y463386D01*
X359028Y465078D01*
X355642D01*
X353950Y463386D01*
X237343Y465078D02*
X233958D01*
X235651D01*
Y456614D01*
X233958Y454922D01*
X232265D01*
X230572Y456614D01*
X247500Y454922D02*
X240729D01*
X247500Y461693D01*
Y463386D01*
X245807Y465078D01*
X242422D01*
X240729Y463386D01*
X250886D02*
X252578Y465078D01*
X255964D01*
X257657Y463386D01*
Y456614D01*
X255964Y454922D01*
X252578D01*
X250886Y456614D01*
Y463386D01*
X261042Y454922D02*
X264428D01*
X262735D01*
Y465078D01*
X261042Y463386D01*
X519078Y95379D02*
X508922D01*
Y100458D01*
X510614Y102150D01*
X514000D01*
X515693Y100458D01*
Y95379D01*
Y98765D02*
X519078Y102150D01*
X510614Y105536D02*
X508922Y107229D01*
Y110614D01*
X510614Y112307D01*
X512307D01*
X514000Y110614D01*
X515693Y112307D01*
X517386D01*
X519078Y110614D01*
Y107229D01*
X517386Y105536D01*
X515693D01*
X514000Y107229D01*
X512307Y105536D01*
X510614D01*
X514000Y107229D02*
Y110614D01*
X510614Y115693D02*
X508922Y117386D01*
Y120771D01*
X510614Y122464D01*
X517386D01*
X519078Y120771D01*
Y117386D01*
X517386Y115693D01*
X510614D01*
X519078Y130928D02*
X508922D01*
X514000Y125850D01*
Y132621D01*
D21*
X90000Y360500D02*
Y390500D01*
X107000D01*
X90000Y360500D02*
X107000D01*
Y390500D01*
M02*
