M48
;Layer_Color=9474304
;FILE_FORMAT=4:4
METRIC,LZ
;TYPE=PLATED
T01F00S00C0.2000
T02F00S00C0.4500
T04F00S00C1.0000
;TYPE=NON_PLATED
T05F00S00C0.6500
T06F00S00C0.8500
%
T01
X0023Y00969
Y0098
T02
X006073Y-0004
X0062
X006327
X006454
X006581
Y-000273
X006454
X006327
X0062
X006073
X015673Y005592
X0158
Y005719
Y005846
Y005973
Y0061
X015673
Y005973
Y005846
Y005719
T04
X02216001Y000506
Y00076
X02346001
Y000506
X02466001
Y00076
X01836001Y001506
Y00176
Y003906
Y00416
X0202Y0038
Y003546
X0157Y0045
Y004754
X002012Y0045
X00175802Y00449998
X001504Y0045
X0015Y0038
X00175402Y00379998
X002008Y0038
X002012Y00305
X00175802Y00304998
X001504Y00305
X001454Y0022
X00170802Y00219998
X001962Y0022
X0012
X00125Y00305
X001246Y0038
X00125Y0045
X0094Y0121
Y012354
X0098Y012054
Y0118
X0084Y0109
X008146
T05
X0006Y0081
Y008678
T06
X00763Y00175
X0142016Y00543
M30
