%TF.GenerationSoftware,Altium Limited,Altium Designer,24.2.2 (26)*%
G04 Layer_Physical_Order=1*
G04 Layer_Color=255*
%FSLAX45Y45*%
%MOMM*%
%TF.SameCoordinates,E801744C-0769-472F-B71A-A4CB6A2CC1AD*%
%TF.FilePolarity,Positive*%
%TF.FileFunction,Copper,L1,Top,Signal*%
%TF.Part,Single*%
G01*
G75*
%TA.AperFunction,ConnectorPad*%
%ADD10R,1.27000X1.52400*%
%TA.AperFunction,SMDPad,CuDef*%
%ADD11R,1.27000X1.52400*%
G04:AMPARAMS|DCode=12|XSize=1.1mm|YSize=1.1mm|CornerRadius=0.275mm|HoleSize=0mm|Usage=FLASHONLY|Rotation=90.000|XOffset=0mm|YOffset=0mm|HoleType=Round|Shape=RoundedRectangle|*
%AMROUNDEDRECTD12*
21,1,1.10000,0.55000,0,0,90.0*
21,1,0.55000,1.10000,0,0,90.0*
1,1,0.55000,0.27500,0.27500*
1,1,0.55000,0.27500,-0.27500*
1,1,0.55000,-0.27500,-0.27500*
1,1,0.55000,-0.27500,0.27500*
%
%ADD12ROUNDEDRECTD12*%
%ADD13R,1.10000X1.10000*%
G04:AMPARAMS|DCode=14|XSize=0.91mm|YSize=1.07mm|CornerRadius=0.2275mm|HoleSize=0mm|Usage=FLASHONLY|Rotation=180.000|XOffset=0mm|YOffset=0mm|HoleType=Round|Shape=RoundedRectangle|*
%AMROUNDEDRECTD14*
21,1,0.91000,0.61500,0,0,180.0*
21,1,0.45500,1.07000,0,0,180.0*
1,1,0.45500,-0.22750,0.30750*
1,1,0.45500,0.22750,0.30750*
1,1,0.45500,0.22750,-0.30750*
1,1,0.45500,-0.22750,-0.30750*
%
%ADD14ROUNDEDRECTD14*%
%ADD15R,0.60960X0.50800*%
G04:AMPARAMS|DCode=16|XSize=0.6mm|YSize=0.25mm|CornerRadius=0.05mm|HoleSize=0mm|Usage=FLASHONLY|Rotation=0.000|XOffset=0mm|YOffset=0mm|HoleType=Round|Shape=RoundedRectangle|*
%AMROUNDEDRECTD16*
21,1,0.60000,0.15000,0,0,0.0*
21,1,0.50000,0.25000,0,0,0.0*
1,1,0.10000,0.25000,-0.07500*
1,1,0.10000,-0.25000,-0.07500*
1,1,0.10000,-0.25000,0.07500*
1,1,0.10000,0.25000,0.07500*
%
%ADD16ROUNDEDRECTD16*%
G04:AMPARAMS|DCode=17|XSize=0.9mm|YSize=0.25mm|CornerRadius=0.05mm|HoleSize=0mm|Usage=FLASHONLY|Rotation=0.000|XOffset=0mm|YOffset=0mm|HoleType=Round|Shape=RoundedRectangle|*
%AMROUNDEDRECTD17*
21,1,0.90000,0.15000,0,0,0.0*
21,1,0.80000,0.25000,0,0,0.0*
1,1,0.10000,0.40000,-0.07500*
1,1,0.10000,-0.40000,-0.07500*
1,1,0.10000,-0.40000,0.07500*
1,1,0.10000,0.40000,0.07500*
%
%ADD17ROUNDEDRECTD17*%
G04:AMPARAMS|DCode=18|XSize=1.3mm|YSize=0.25mm|CornerRadius=0.05mm|HoleSize=0mm|Usage=FLASHONLY|Rotation=0.000|XOffset=0mm|YOffset=0mm|HoleType=Round|Shape=RoundedRectangle|*
%AMROUNDEDRECTD18*
21,1,1.30000,0.15000,0,0,0.0*
21,1,1.20000,0.25000,0,0,0.0*
1,1,0.10000,0.60000,-0.07500*
1,1,0.10000,-0.60000,-0.07500*
1,1,0.10000,-0.60000,0.07500*
1,1,0.10000,0.60000,0.07500*
%
%ADD18ROUNDEDRECTD18*%
%ADD19R,0.50800X0.60960*%
%ADD20R,0.91440X1.27000*%
%ADD21R,0.91440X0.91440*%
%ADD22R,2.45000X1.65000*%
G04:AMPARAMS|DCode=23|XSize=0.9mm|YSize=1.6mm|CornerRadius=0.054mm|HoleSize=0mm|Usage=FLASHONLY|Rotation=0.000|XOffset=0mm|YOffset=0mm|HoleType=Round|Shape=RoundedRectangle|*
%AMROUNDEDRECTD23*
21,1,0.90000,1.49200,0,0,0.0*
21,1,0.79200,1.60000,0,0,0.0*
1,1,0.10800,0.39600,-0.74600*
1,1,0.10800,-0.39600,-0.74600*
1,1,0.10800,-0.39600,0.74600*
1,1,0.10800,0.39600,0.74600*
%
%ADD23ROUNDEDRECTD23*%
G04:AMPARAMS|DCode=24|XSize=0.5mm|YSize=0.25mm|CornerRadius=0.05mm|HoleSize=0mm|Usage=FLASHONLY|Rotation=0.000|XOffset=0mm|YOffset=0mm|HoleType=Round|Shape=RoundedRectangle|*
%AMROUNDEDRECTD24*
21,1,0.50000,0.15000,0,0,0.0*
21,1,0.40000,0.25000,0,0,0.0*
1,1,0.10000,0.20000,-0.07500*
1,1,0.10000,-0.20000,-0.07500*
1,1,0.10000,-0.20000,0.07500*
1,1,0.10000,0.20000,0.07500*
%
%ADD24ROUNDEDRECTD24*%
%ADD25R,1.27000X0.88900*%
G04:AMPARAMS|DCode=26|XSize=1.1mm|YSize=1.1mm|CornerRadius=0.275mm|HoleSize=0mm|Usage=FLASHONLY|Rotation=0.000|XOffset=0mm|YOffset=0mm|HoleType=Round|Shape=RoundedRectangle|*
%AMROUNDEDRECTD26*
21,1,1.10000,0.55000,0,0,0.0*
21,1,0.55000,1.10000,0,0,0.0*
1,1,0.55000,0.27500,-0.27500*
1,1,0.55000,-0.27500,-0.27500*
1,1,0.55000,-0.27500,0.27500*
1,1,0.55000,0.27500,0.27500*
%
%ADD26ROUNDEDRECTD26*%
%ADD27R,1.10000X1.10000*%
%ADD28R,1.52400X1.27000*%
%ADD29R,0.88900X1.27000*%
%TA.AperFunction,ConnectorPad*%
%ADD30R,1.15000X0.60000*%
%ADD31R,1.15000X0.30000*%
%TA.AperFunction,SMDPad,CuDef*%
%ADD32R,1.52400X2.54000*%
%ADD33R,1.00000X0.97000*%
%ADD34R,0.40000X1.90000*%
%ADD35R,1.00000X1.80000*%
%ADD36R,0.43180X1.65100*%
%ADD37R,1.65000X2.45000*%
%TA.AperFunction,ConnectorPad*%
%ADD38R,1.65000X2.45000*%
%TA.AperFunction,SMDPad,CuDef*%
%ADD39R,3.45440X4.34340*%
%ADD40R,0.96520X0.43180*%
G04:AMPARAMS|DCode=41|XSize=1.21mm|YSize=0.58mm|CornerRadius=0.0725mm|HoleSize=0mm|Usage=FLASHONLY|Rotation=0.000|XOffset=0mm|YOffset=0mm|HoleType=Round|Shape=RoundedRectangle|*
%AMROUNDEDRECTD41*
21,1,1.21000,0.43500,0,0,0.0*
21,1,1.06500,0.58000,0,0,0.0*
1,1,0.14500,0.53250,-0.21750*
1,1,0.14500,-0.53250,-0.21750*
1,1,0.14500,-0.53250,0.21750*
1,1,0.14500,0.53250,0.21750*
%
%ADD41ROUNDEDRECTD41*%
G04:AMPARAMS|DCode=42|XSize=1.21mm|YSize=0.58mm|CornerRadius=0.0725mm|HoleSize=0mm|Usage=FLASHONLY|Rotation=90.000|XOffset=0mm|YOffset=0mm|HoleType=Round|Shape=RoundedRectangle|*
%AMROUNDEDRECTD42*
21,1,1.21000,0.43500,0,0,90.0*
21,1,1.06500,0.58000,0,0,90.0*
1,1,0.14500,0.21750,0.53250*
1,1,0.14500,0.21750,-0.53250*
1,1,0.14500,-0.21750,-0.53250*
1,1,0.14500,-0.21750,0.53250*
%
%ADD42ROUNDEDRECTD42*%
%ADD43R,0.60000X0.40000*%
G04:AMPARAMS|DCode=44|XSize=0.4mm|YSize=0.6mm|CornerRadius=0.1mm|HoleSize=0mm|Usage=FLASHONLY|Rotation=90.000|XOffset=0mm|YOffset=0mm|HoleType=Round|Shape=RoundedRectangle|*
%AMROUNDEDRECTD44*
21,1,0.40000,0.40000,0,0,90.0*
21,1,0.20000,0.60000,0,0,90.0*
1,1,0.20000,0.20000,0.10000*
1,1,0.20000,0.20000,-0.10000*
1,1,0.20000,-0.20000,-0.10000*
1,1,0.20000,-0.20000,0.10000*
%
%ADD44ROUNDEDRECTD44*%
%ADD45O,2.03200X1.01600*%
%ADD46O,1.01600X2.03200*%
G04:AMPARAMS|DCode=47|XSize=0.8mm|YSize=1.7mm|CornerRadius=0.1mm|HoleSize=0mm|Usage=FLASHONLY|Rotation=270.000|XOffset=0mm|YOffset=0mm|HoleType=Round|Shape=RoundedRectangle|*
%AMROUNDEDRECTD47*
21,1,0.80000,1.50000,0,0,270.0*
21,1,0.60000,1.70000,0,0,270.0*
1,1,0.20000,-0.75000,-0.30000*
1,1,0.20000,-0.75000,0.30000*
1,1,0.20000,0.75000,0.30000*
1,1,0.20000,0.75000,-0.30000*
%
%ADD47ROUNDEDRECTD47*%
G04:AMPARAMS|DCode=48|XSize=0.8mm|YSize=1.7mm|CornerRadius=0.1mm|HoleSize=0mm|Usage=FLASHONLY|Rotation=0.000|XOffset=0mm|YOffset=0mm|HoleType=Round|Shape=RoundedRectangle|*
%AMROUNDEDRECTD48*
21,1,0.80000,1.50000,0,0,0.0*
21,1,0.60000,1.70000,0,0,0.0*
1,1,0.20000,0.30000,-0.75000*
1,1,0.20000,-0.30000,-0.75000*
1,1,0.20000,-0.30000,0.75000*
1,1,0.20000,0.30000,0.75000*
%
%ADD48ROUNDEDRECTD48*%
%ADD49R,0.60960X0.20320*%
%ADD50R,1.24460X2.15900*%
G04:AMPARAMS|DCode=51|XSize=0.2mm|YSize=0.84mm|CornerRadius=0.025mm|HoleSize=0mm|Usage=FLASHONLY|Rotation=0.000|XOffset=0mm|YOffset=0mm|HoleType=Round|Shape=RoundedRectangle|*
%AMROUNDEDRECTD51*
21,1,0.20000,0.79000,0,0,0.0*
21,1,0.15000,0.84000,0,0,0.0*
1,1,0.05000,0.07500,-0.39500*
1,1,0.05000,-0.07500,-0.39500*
1,1,0.05000,-0.07500,0.39500*
1,1,0.05000,0.07500,0.39500*
%
%ADD51ROUNDEDRECTD51*%
G04:AMPARAMS|DCode=52|XSize=0.84mm|YSize=0.2mm|CornerRadius=0.025mm|HoleSize=0mm|Usage=FLASHONLY|Rotation=0.000|XOffset=0mm|YOffset=0mm|HoleType=Round|Shape=RoundedRectangle|*
%AMROUNDEDRECTD52*
21,1,0.84000,0.15000,0,0,0.0*
21,1,0.79000,0.20000,0,0,0.0*
1,1,0.05000,0.39500,-0.07500*
1,1,0.05000,-0.39500,-0.07500*
1,1,0.05000,-0.39500,0.07500*
1,1,0.05000,0.39500,0.07500*
%
%ADD52ROUNDEDRECTD52*%
%ADD53R,3.10000X3.10000*%
%TA.AperFunction,ComponentPad*%
%ADD54R,1.52400X1.52400*%
%ADD55C,1.52400*%
%ADD56C,0.40000*%
G04:AMPARAMS|DCode=57|XSize=1.8mm|YSize=1mm|CornerRadius=0.25mm|HoleSize=0mm|Usage=FLASHONLY|Rotation=0.000|XOffset=0mm|YOffset=0mm|HoleType=Round|Shape=RoundedRectangle|*
%AMROUNDEDRECTD57*
21,1,1.80000,0.50000,0,0,0.0*
21,1,1.30000,1.00000,0,0,0.0*
1,1,0.50000,0.65000,-0.25000*
1,1,0.50000,-0.65000,-0.25000*
1,1,0.50000,-0.65000,0.25000*
1,1,0.50000,0.65000,0.25000*
%
%ADD57ROUNDEDRECTD57*%
%ADD58O,2.10000X1.00000*%
%ADD59C,0.65000*%
%ADD60R,1.52400X1.52400*%
%ADD61R,0.74000X0.74000*%
%ADD62C,0.74000*%
%ADD63R,0.74000X0.74000*%
D10*
X25360014Y460002D02*
D03*
Y688602D02*
D03*
X6460013Y-2397760D02*
D03*
Y-2169160D02*
D03*
X5660013Y-2397760D02*
D03*
Y-2169160D02*
D03*
D11*
X24060014Y460002D02*
D03*
Y688602D02*
D03*
X22760014Y460002D02*
D03*
Y688602D02*
D03*
X20860013Y460002D02*
D03*
Y688602D02*
D03*
X19560011Y460002D02*
D03*
Y688602D02*
D03*
X18260011Y460002D02*
D03*
Y688602D02*
D03*
Y2460003D02*
D03*
Y2688603D02*
D03*
X5560016Y-497760D02*
D03*
Y-269160D02*
D03*
X3160015Y-497760D02*
D03*
Y-269160D02*
D03*
X11260014Y12860002D02*
D03*
Y13088602D02*
D03*
X5200000Y12671400D02*
D03*
Y12900000D02*
D03*
X7800000Y-1728600D02*
D03*
Y-1500000D02*
D03*
X7100000D02*
D03*
Y-1271400D02*
D03*
X15900000Y-1428600D02*
D03*
Y-1200000D02*
D03*
X15000000Y-1428600D02*
D03*
Y-1200000D02*
D03*
X14501601Y6100000D02*
D03*
Y6328600D02*
D03*
X14201601D02*
D03*
Y6100000D02*
D03*
X8500000Y8971400D02*
D03*
Y9200000D02*
D03*
X6155195Y11312240D02*
D03*
Y11540840D02*
D03*
X7900000Y10328600D02*
D03*
Y10100000D02*
D03*
X5700000Y11271400D02*
D03*
Y11500000D02*
D03*
X4836700Y2242300D02*
D03*
Y2470900D02*
D03*
D12*
X21460013Y725002D02*
D03*
X20260011D02*
D03*
X18960011D02*
D03*
D13*
X21460013Y560002D02*
D03*
X20260011D02*
D03*
X18960011D02*
D03*
X17400000Y400000D02*
D03*
Y235000D02*
D03*
X15660011Y9125002D02*
D03*
Y8960002D02*
D03*
X15000000Y8500000D02*
D03*
Y8335000D02*
D03*
X15800000Y2065000D02*
D03*
Y1900000D02*
D03*
X16100000Y9200000D02*
D03*
Y9035000D02*
D03*
X6060011Y12860002D02*
D03*
Y13025002D02*
D03*
X9600000Y10400000D02*
D03*
Y10565000D02*
D03*
X9000000Y10400000D02*
D03*
Y10565000D02*
D03*
D14*
X3621000Y9500000D02*
D03*
X3300000D02*
D03*
D15*
X8800000Y11598400D02*
D03*
Y11700000D02*
D03*
Y9698400D02*
D03*
Y9800000D02*
D03*
X6800000Y9598400D02*
D03*
Y9700000D02*
D03*
X2000000Y9800000D02*
D03*
Y9698400D02*
D03*
X6700000Y12200000D02*
D03*
Y12098400D02*
D03*
D16*
X8232500Y9900000D02*
D03*
Y9850000D02*
D03*
Y9800000D02*
D03*
Y9750000D02*
D03*
Y9700000D02*
D03*
D17*
X8397500D02*
D03*
Y9750000D02*
D03*
Y9850000D02*
D03*
Y9900000D02*
D03*
D18*
X8377500Y9800000D02*
D03*
D19*
X2600000Y10000000D02*
D03*
X2498400D02*
D03*
X15101601Y5900000D02*
D03*
X15000000D02*
D03*
X15101601Y5500000D02*
D03*
X15000000D02*
D03*
X4431563Y3189995D02*
D03*
X4329963D02*
D03*
X4001564D02*
D03*
X3899964D02*
D03*
X7461557D02*
D03*
X7359957D02*
D03*
X7021558D02*
D03*
X6919958D02*
D03*
X6591559D02*
D03*
X6489959D02*
D03*
X6161560D02*
D03*
X6059960D02*
D03*
X5731561D02*
D03*
X5629961D02*
D03*
X5301561D02*
D03*
X5199961D02*
D03*
X4871562D02*
D03*
X4769962D02*
D03*
X4860000Y940000D02*
D03*
X4758400D02*
D03*
X7141600Y970000D02*
D03*
X7040000D02*
D03*
X7980000Y980000D02*
D03*
X7878400D02*
D03*
D20*
X3396520Y10003200D02*
D03*
D21*
X3490500Y9800000D02*
D03*
X3300000D02*
D03*
D22*
X2700000Y10600000D02*
D03*
X15101601Y6400000D02*
D03*
X17100000Y3000000D02*
D03*
D23*
X2300000Y9745000D02*
D03*
D24*
X2395000Y9820000D02*
D03*
Y9770000D02*
D03*
Y9720000D02*
D03*
Y9670000D02*
D03*
X2205000D02*
D03*
Y9720000D02*
D03*
Y9770000D02*
D03*
Y9820000D02*
D03*
D25*
X2700000Y9329820D02*
D03*
Y9500000D02*
D03*
X1800000Y9800000D02*
D03*
Y9629820D02*
D03*
X18260011Y530182D02*
D03*
Y360002D02*
D03*
D26*
X2300000Y9000000D02*
D03*
X15664999Y3700000D02*
D03*
Y4100000D02*
D03*
D27*
X2135000Y9000000D02*
D03*
X15500000Y3700000D02*
D03*
Y4100000D02*
D03*
D28*
X1800000Y9000000D02*
D03*
X1571400D02*
D03*
X15028600Y4100000D02*
D03*
X14800000D02*
D03*
X15028600Y3700000D02*
D03*
X14800000D02*
D03*
D29*
X2800000Y8900000D02*
D03*
X2629820D02*
D03*
X3300000D02*
D03*
X3470180D02*
D03*
X14760011Y9060002D02*
D03*
X14930193D02*
D03*
X14360011D02*
D03*
X14530191D02*
D03*
D30*
X707500Y8709000D02*
D03*
Y8069000D02*
D03*
Y8629000D02*
D03*
Y8149000D02*
D03*
D31*
Y8364000D02*
D03*
Y8414000D02*
D03*
Y8314000D02*
D03*
Y8264000D02*
D03*
Y8214000D02*
D03*
Y8464000D02*
D03*
Y8514000D02*
D03*
Y8564000D02*
D03*
D32*
X7657100Y9100000D02*
D03*
X8000000D02*
D03*
D33*
X19226500Y3200000D02*
D03*
X19373500D02*
D03*
D34*
X6060000Y3600000D02*
D03*
X6180000D02*
D03*
X6300000D02*
D03*
D35*
X6850000Y10100000D02*
D03*
X7100000D02*
D03*
D36*
X15871400Y436780D02*
D03*
X15937440D02*
D03*
X16003481D02*
D03*
X16066980D02*
D03*
X16133020D02*
D03*
X16196519D02*
D03*
X16262560D02*
D03*
X16328600D02*
D03*
Y1163220D02*
D03*
X16262560D02*
D03*
X16196519D02*
D03*
X16133020D02*
D03*
X16066980D02*
D03*
X16003481D02*
D03*
X15937440D02*
D03*
X15871400D02*
D03*
D37*
X2260015Y-297760D02*
D03*
X8560014Y-2097760D02*
D03*
X4760016Y-297760D02*
D03*
X3860015D02*
D03*
X7200000Y14100000D02*
D03*
X6299999D02*
D03*
X8000000D02*
D03*
X10500000Y14000000D02*
D03*
X11400001D02*
D03*
X4960016Y13360004D02*
D03*
D38*
X7199999Y14800000D02*
D03*
X6299998D02*
D03*
D39*
X6400000Y6100000D02*
D03*
D40*
X6687020Y6290500D02*
D03*
Y6163500D02*
D03*
Y6036500D02*
D03*
Y5909500D02*
D03*
X6112980D02*
D03*
Y6036500D02*
D03*
Y6163500D02*
D03*
Y6290500D02*
D03*
D41*
X8574500Y12195000D02*
D03*
Y12100000D02*
D03*
Y12005000D02*
D03*
X8825500Y12195000D02*
D03*
Y12100000D02*
D03*
Y12005000D02*
D03*
D42*
X6395000Y12351000D02*
D03*
X6300000D02*
D03*
X6205000D02*
D03*
X6395000Y12100000D02*
D03*
X6300000D02*
D03*
X6205000D02*
D03*
D43*
X7905000Y12109500D02*
D03*
Y12174500D02*
D03*
Y12239500D02*
D03*
X8105000D02*
D03*
Y12174500D02*
D03*
D44*
Y12109500D02*
D03*
D45*
X16364999Y4020500D02*
D03*
Y4147500D02*
D03*
Y4274500D02*
D03*
Y4401500D02*
D03*
Y4528500D02*
D03*
Y4655500D02*
D03*
Y4782500D02*
D03*
Y4909500D02*
D03*
Y5290500D02*
D03*
Y5417500D02*
D03*
Y5544500D02*
D03*
Y5671500D02*
D03*
Y5798500D02*
D03*
Y5925500D02*
D03*
X17635001D02*
D03*
Y5798500D02*
D03*
Y5671500D02*
D03*
Y5544500D02*
D03*
Y5417500D02*
D03*
Y5290500D02*
D03*
Y4909500D02*
D03*
Y4782500D02*
D03*
Y4655500D02*
D03*
Y4528500D02*
D03*
Y4401500D02*
D03*
Y4274500D02*
D03*
Y4147500D02*
D03*
Y4020500D02*
D03*
D46*
X16619000Y6306500D02*
D03*
X16746001D02*
D03*
X16873000D02*
D03*
X17000000D02*
D03*
X17127000D02*
D03*
X17253999D02*
D03*
X17381000D02*
D03*
Y3766500D02*
D03*
X17253999D02*
D03*
X17127000D02*
D03*
X17000000D02*
D03*
X16873000D02*
D03*
X16746001D02*
D03*
X16619000D02*
D03*
D47*
X14201601Y5600000D02*
D03*
Y5260000D02*
D03*
D48*
X7460000Y1750000D02*
D03*
X7800000D02*
D03*
D49*
X7185540Y9770000D02*
D03*
Y9720000D02*
D03*
Y9670000D02*
D03*
Y9620000D02*
D03*
Y9570000D02*
D03*
X7434460D02*
D03*
Y9620000D02*
D03*
Y9670000D02*
D03*
Y9720000D02*
D03*
Y9770000D02*
D03*
D50*
X7310000Y9670000D02*
D03*
D51*
X5970000Y4183000D02*
D03*
X6010000D02*
D03*
X6050000D02*
D03*
X6090000D02*
D03*
X6130000D02*
D03*
X6170000D02*
D03*
X6210000D02*
D03*
X6250000D02*
D03*
X6290000D02*
D03*
X6330000D02*
D03*
X6370000D02*
D03*
X6410000D02*
D03*
X6450000D02*
D03*
X6490000D02*
D03*
Y4870000D02*
D03*
X6450000D02*
D03*
X6410000D02*
D03*
X6370000D02*
D03*
X6330000D02*
D03*
X6290000D02*
D03*
X6250000D02*
D03*
X6210000D02*
D03*
X6170000D02*
D03*
X6130000D02*
D03*
X6090000D02*
D03*
X6050000D02*
D03*
X6010000D02*
D03*
X5970000D02*
D03*
D52*
X5886500Y4786500D02*
D03*
Y4746500D02*
D03*
Y4706500D02*
D03*
Y4666500D02*
D03*
Y4626500D02*
D03*
Y4586500D02*
D03*
Y4546500D02*
D03*
Y4506500D02*
D03*
Y4466500D02*
D03*
Y4426500D02*
D03*
Y4386500D02*
D03*
Y4346500D02*
D03*
Y4306500D02*
D03*
Y4266500D02*
D03*
X6573500D02*
D03*
Y4306500D02*
D03*
Y4346500D02*
D03*
Y4386500D02*
D03*
Y4426500D02*
D03*
Y4466500D02*
D03*
Y4506500D02*
D03*
Y4546500D02*
D03*
Y4586500D02*
D03*
Y4626500D02*
D03*
Y4666500D02*
D03*
Y4706500D02*
D03*
Y4746500D02*
D03*
Y4786500D02*
D03*
D53*
X6230000Y4526500D02*
D03*
D54*
X18360011Y1760002D02*
D03*
X24660014Y760002D02*
D03*
X23460014D02*
D03*
X22160013D02*
D03*
X18360011Y4160004D02*
D03*
X20200000Y3800000D02*
D03*
X9400000Y12354000D02*
D03*
X15700000Y4754000D02*
D03*
X9800000Y12054000D02*
D03*
D55*
X18360011Y1506002D02*
D03*
X24660014Y506002D02*
D03*
X23460014D02*
D03*
X22160013D02*
D03*
X18360011Y3906004D02*
D03*
X20200000Y3546000D02*
D03*
X8400000Y10900000D02*
D03*
X9400000Y12100000D02*
D03*
X15700000Y4500000D02*
D03*
X9800000Y11800000D02*
D03*
X1754016Y3799984D02*
D03*
X1500000Y3800000D02*
D03*
X2008000D02*
D03*
X1758017Y4499984D02*
D03*
X1504000Y4500000D02*
D03*
X2012000D02*
D03*
X1758017Y3049983D02*
D03*
X1504000Y3050000D02*
D03*
X2012000D02*
D03*
X1708016Y2199984D02*
D03*
X1454000Y2200000D02*
D03*
X1962000D02*
D03*
D56*
X2300000Y9690000D02*
D03*
Y9800000D02*
D03*
D57*
X232000Y8821000D02*
D03*
Y7957000D02*
D03*
D58*
X650000Y8821000D02*
D03*
Y7957000D02*
D03*
D59*
X600000Y8100000D02*
D03*
Y8678000D02*
D03*
D60*
X8146000Y10900000D02*
D03*
X1246000Y3800000D02*
D03*
X1250000Y4500000D02*
D03*
Y3050000D02*
D03*
X1200000Y2200000D02*
D03*
D61*
X6073000Y-400000D02*
D03*
D62*
X6200000D02*
D03*
X6327000D02*
D03*
X6454000D02*
D03*
X6581000D02*
D03*
X6073000Y-273000D02*
D03*
X6200000D02*
D03*
X6327000D02*
D03*
X6454000D02*
D03*
X6581000D02*
D03*
X15800000Y5719000D02*
D03*
Y5846000D02*
D03*
Y5973000D02*
D03*
Y6100000D02*
D03*
X15673000Y5592000D02*
D03*
Y5719000D02*
D03*
Y5846000D02*
D03*
Y5973000D02*
D03*
Y6100000D02*
D03*
D63*
X15800000Y5592000D02*
D03*
%TF.MD5,15f696173a8bd8b8f29b0cd3b65ab852*%
M02*
