%TF.GenerationSoftware,Altium Limited,Altium Designer,24.2.2 (26)*%
G04 Layer_Color=8388736*
%FSLAX45Y45*%
%MOMM*%
%TF.SameCoordinates,E801744C-0769-472F-B71A-A4CB6A2CC1AD*%
%TF.FilePolarity,Negative*%
%TF.FileFunction,Soldermask,Top*%
%TF.Part,Single*%
G01*
G75*
%TA.AperFunction,SMDPad,CuDef*%
%ADD39R,3.45440X4.34340*%
%ADD40R,0.96520X0.43180*%
%TA.AperFunction,ConnectorPad*%
%ADD71R,1.47320X1.72720*%
%TA.AperFunction,SMDPad,CuDef*%
%ADD72R,1.47320X1.72720*%
G04:AMPARAMS|DCode=73|XSize=1.3032mm|YSize=1.3032mm|CornerRadius=0.3766mm|HoleSize=0mm|Usage=FLASHONLY|Rotation=90.000|XOffset=0mm|YOffset=0mm|HoleType=Round|Shape=RoundedRectangle|*
%AMROUNDEDRECTD73*
21,1,1.30320,0.55000,0,0,90.0*
21,1,0.55000,1.30320,0,0,90.0*
1,1,0.75320,0.27500,0.27500*
1,1,0.75320,0.27500,-0.27500*
1,1,0.75320,-0.27500,-0.27500*
1,1,0.75320,-0.27500,0.27500*
%
%ADD73ROUNDEDRECTD73*%
%ADD74R,1.30320X1.30320*%
G04:AMPARAMS|DCode=75|XSize=1.1132mm|YSize=1.2732mm|CornerRadius=0.3291mm|HoleSize=0mm|Usage=FLASHONLY|Rotation=180.000|XOffset=0mm|YOffset=0mm|HoleType=Round|Shape=RoundedRectangle|*
%AMROUNDEDRECTD75*
21,1,1.11320,0.61500,0,0,180.0*
21,1,0.45500,1.27320,0,0,180.0*
1,1,0.65820,-0.22750,0.30750*
1,1,0.65820,0.22750,0.30750*
1,1,0.65820,0.22750,-0.30750*
1,1,0.65820,-0.22750,-0.30750*
%
%ADD75ROUNDEDRECTD75*%
%ADD76R,0.81280X0.71120*%
%ADD77R,0.71120X0.81280*%
%ADD78R,1.11760X1.47320*%
%ADD79R,1.11760X1.11760*%
%ADD80R,2.65320X1.85320*%
G04:AMPARAMS|DCode=81|XSize=1mm|YSize=1.7mm|CornerRadius=0.104mm|HoleSize=0mm|Usage=FLASHONLY|Rotation=0.000|XOffset=0mm|YOffset=0mm|HoleType=Round|Shape=RoundedRectangle|*
%AMROUNDEDRECTD81*
21,1,1.00000,1.49200,0,0,0.0*
21,1,0.79200,1.70000,0,0,0.0*
1,1,0.20800,0.39600,-0.74600*
1,1,0.20800,-0.39600,-0.74600*
1,1,0.20800,-0.39600,0.74600*
1,1,0.20800,0.39600,0.74600*
%
%ADD81ROUNDEDRECTD81*%
G04:AMPARAMS|DCode=82|XSize=0.6mm|YSize=0.35mm|CornerRadius=0.1mm|HoleSize=0mm|Usage=FLASHONLY|Rotation=0.000|XOffset=0mm|YOffset=0mm|HoleType=Round|Shape=RoundedRectangle|*
%AMROUNDEDRECTD82*
21,1,0.60000,0.15000,0,0,0.0*
21,1,0.40000,0.35000,0,0,0.0*
1,1,0.20000,0.20000,-0.07500*
1,1,0.20000,-0.20000,-0.07500*
1,1,0.20000,-0.20000,0.07500*
1,1,0.20000,0.20000,0.07500*
%
%ADD82ROUNDEDRECTD82*%
%ADD83R,1.47320X1.09220*%
G04:AMPARAMS|DCode=84|XSize=1.3032mm|YSize=1.3032mm|CornerRadius=0.3766mm|HoleSize=0mm|Usage=FLASHONLY|Rotation=0.000|XOffset=0mm|YOffset=0mm|HoleType=Round|Shape=RoundedRectangle|*
%AMROUNDEDRECTD84*
21,1,1.30320,0.55000,0,0,0.0*
21,1,0.55000,1.30320,0,0,0.0*
1,1,0.75320,0.27500,-0.27500*
1,1,0.75320,-0.27500,-0.27500*
1,1,0.75320,-0.27500,0.27500*
1,1,0.75320,0.27500,0.27500*
%
%ADD84ROUNDEDRECTD84*%
%ADD85R,1.30320X1.30320*%
%ADD86R,1.72720X1.47320*%
%ADD87R,1.09220X1.47320*%
%TA.AperFunction,ConnectorPad*%
%ADD88R,1.35320X0.80320*%
%ADD89R,1.35320X0.50320*%
%TA.AperFunction,SMDPad,CuDef*%
%ADD90R,1.72720X2.74320*%
%ADD91R,1.20320X1.17320*%
%ADD92R,0.60320X2.10320*%
%ADD93R,1.20320X2.00320*%
%ADD94R,0.63500X1.85420*%
%ADD95R,1.85320X2.65320*%
%TA.AperFunction,ConnectorPad*%
%ADD96R,1.85320X2.65320*%
%TA.AperFunction,SMDPad,CuDef*%
G04:AMPARAMS|DCode=97|XSize=1.4132mm|YSize=0.7832mm|CornerRadius=0.1741mm|HoleSize=0mm|Usage=FLASHONLY|Rotation=0.000|XOffset=0mm|YOffset=0mm|HoleType=Round|Shape=RoundedRectangle|*
%AMROUNDEDRECTD97*
21,1,1.41320,0.43500,0,0,0.0*
21,1,1.06500,0.78320,0,0,0.0*
1,1,0.34820,0.53250,-0.21750*
1,1,0.34820,-0.53250,-0.21750*
1,1,0.34820,-0.53250,0.21750*
1,1,0.34820,0.53250,0.21750*
%
%ADD97ROUNDEDRECTD97*%
G04:AMPARAMS|DCode=98|XSize=1.4132mm|YSize=0.7832mm|CornerRadius=0.1741mm|HoleSize=0mm|Usage=FLASHONLY|Rotation=90.000|XOffset=0mm|YOffset=0mm|HoleType=Round|Shape=RoundedRectangle|*
%AMROUNDEDRECTD98*
21,1,1.41320,0.43500,0,0,90.0*
21,1,1.06500,0.78320,0,0,90.0*
1,1,0.34820,0.21750,0.53250*
1,1,0.34820,0.21750,-0.53250*
1,1,0.34820,-0.21750,-0.53250*
1,1,0.34820,-0.21750,0.53250*
%
%ADD98ROUNDEDRECTD98*%
%ADD99R,0.80320X0.60320*%
G04:AMPARAMS|DCode=100|XSize=0.6032mm|YSize=0.8032mm|CornerRadius=0.2016mm|HoleSize=0mm|Usage=FLASHONLY|Rotation=90.000|XOffset=0mm|YOffset=0mm|HoleType=Round|Shape=RoundedRectangle|*
%AMROUNDEDRECTD100*
21,1,0.60320,0.40000,0,0,90.0*
21,1,0.20000,0.80320,0,0,90.0*
1,1,0.40320,0.20000,0.10000*
1,1,0.40320,0.20000,-0.10000*
1,1,0.40320,-0.20000,-0.10000*
1,1,0.40320,-0.20000,0.10000*
%
%ADD100ROUNDEDRECTD100*%
%ADD101O,2.23520X1.21920*%
%ADD102O,1.21920X2.23520*%
G04:AMPARAMS|DCode=103|XSize=1.0032mm|YSize=1.9032mm|CornerRadius=0.2016mm|HoleSize=0mm|Usage=FLASHONLY|Rotation=270.000|XOffset=0mm|YOffset=0mm|HoleType=Round|Shape=RoundedRectangle|*
%AMROUNDEDRECTD103*
21,1,1.00320,1.50000,0,0,270.0*
21,1,0.60000,1.90320,0,0,270.0*
1,1,0.40320,-0.75000,-0.30000*
1,1,0.40320,-0.75000,0.30000*
1,1,0.40320,0.75000,0.30000*
1,1,0.40320,0.75000,-0.30000*
%
%ADD103ROUNDEDRECTD103*%
G04:AMPARAMS|DCode=104|XSize=1.0032mm|YSize=1.9032mm|CornerRadius=0.2016mm|HoleSize=0mm|Usage=FLASHONLY|Rotation=0.000|XOffset=0mm|YOffset=0mm|HoleType=Round|Shape=RoundedRectangle|*
%AMROUNDEDRECTD104*
21,1,1.00320,1.50000,0,0,0.0*
21,1,0.60000,1.90320,0,0,0.0*
1,1,0.40320,0.30000,-0.75000*
1,1,0.40320,-0.30000,-0.75000*
1,1,0.40320,-0.30000,0.75000*
1,1,0.40320,0.30000,0.75000*
%
%ADD104ROUNDEDRECTD104*%
%ADD105R,0.81280X0.40640*%
%ADD106R,1.44780X2.36220*%
G04:AMPARAMS|DCode=107|XSize=0.4032mm|YSize=1.0432mm|CornerRadius=0.1266mm|HoleSize=0mm|Usage=FLASHONLY|Rotation=0.000|XOffset=0mm|YOffset=0mm|HoleType=Round|Shape=RoundedRectangle|*
%AMROUNDEDRECTD107*
21,1,0.40320,0.79000,0,0,0.0*
21,1,0.15000,1.04320,0,0,0.0*
1,1,0.25320,0.07500,-0.39500*
1,1,0.25320,-0.07500,-0.39500*
1,1,0.25320,-0.07500,0.39500*
1,1,0.25320,0.07500,0.39500*
%
%ADD107ROUNDEDRECTD107*%
G04:AMPARAMS|DCode=108|XSize=1.0432mm|YSize=0.4032mm|CornerRadius=0.1266mm|HoleSize=0mm|Usage=FLASHONLY|Rotation=0.000|XOffset=0mm|YOffset=0mm|HoleType=Round|Shape=RoundedRectangle|*
%AMROUNDEDRECTD108*
21,1,1.04320,0.15000,0,0,0.0*
21,1,0.79000,0.40320,0,0,0.0*
1,1,0.25320,0.39500,-0.07500*
1,1,0.25320,-0.39500,-0.07500*
1,1,0.25320,-0.39500,0.07500*
1,1,0.25320,0.39500,0.07500*
%
%ADD108ROUNDEDRECTD108*%
%ADD109R,3.30320X3.30320*%
%TA.AperFunction,ComponentPad*%
%ADD110R,1.72720X1.72720*%
%ADD111C,1.72720*%
G04:AMPARAMS|DCode=112|XSize=2.0032mm|YSize=1.2032mm|CornerRadius=0.3516mm|HoleSize=0mm|Usage=FLASHONLY|Rotation=0.000|XOffset=0mm|YOffset=0mm|HoleType=Round|Shape=RoundedRectangle|*
%AMROUNDEDRECTD112*
21,1,2.00320,0.50000,0,0,0.0*
21,1,1.30000,1.20320,0,0,0.0*
1,1,0.70320,0.65000,-0.25000*
1,1,0.70320,-0.65000,-0.25000*
1,1,0.70320,-0.65000,0.25000*
1,1,0.70320,0.65000,0.25000*
%
%ADD112ROUNDEDRECTD112*%
%ADD113O,2.30320X1.20320*%
%ADD114C,0.85320*%
%ADD115R,1.72720X1.72720*%
%ADD116R,0.94320X0.94320*%
%ADD117C,0.94320*%
%ADD118C,0.20320*%
%ADD119R,0.94320X0.94320*%
G36*
X8258800Y9719400D02*
X8259400D01*
X8260000Y9719200D01*
X8260600Y9719100D01*
X8261200Y9718900D01*
X8261800Y9718700D01*
X8262400Y9718500D01*
X8262900Y9718200D01*
X8263500Y9717900D01*
X8264000Y9717600D01*
X8264600Y9717200D01*
X8265100Y9716800D01*
X8265500Y9716400D01*
X8266000Y9716000D01*
X8266400Y9715500D01*
X8266800Y9715100D01*
X8267200Y9714600D01*
X8267600Y9714000D01*
X8267900Y9713500D01*
X8268200Y9712900D01*
X8268500Y9712400D01*
X8268700Y9711800D01*
X8268900Y9711200D01*
X8269100Y9710600D01*
X8269200Y9710000D01*
X8269400Y9709400D01*
Y9708800D01*
X8269500Y9708100D01*
Y9707500D01*
Y9692500D01*
Y9691900D01*
X8269400Y9691200D01*
Y9690600D01*
X8269200Y9690000D01*
X8269100Y9689400D01*
X8268900Y9688800D01*
X8268700Y9688200D01*
X8268500Y9687600D01*
X8268200Y9687100D01*
X8267900Y9686500D01*
X8267600Y9686000D01*
X8267200Y9685400D01*
X8266800Y9684900D01*
X8266400Y9684500D01*
X8266000Y9684000D01*
X8265500Y9683600D01*
X8265100Y9683200D01*
X8264600Y9682800D01*
X8264000Y9682400D01*
X8263500Y9682100D01*
X8262900Y9681800D01*
X8262400Y9681500D01*
X8261800Y9681300D01*
X8261200Y9681100D01*
X8260600Y9680900D01*
X8260000Y9680800D01*
X8259400Y9680600D01*
X8258800D01*
X8258100Y9680500D01*
X8206900D01*
X8206200Y9680600D01*
X8205600D01*
X8205000Y9680800D01*
X8204400Y9680900D01*
X8203800Y9681100D01*
X8203200Y9681300D01*
X8202600Y9681500D01*
X8202100Y9681800D01*
X8201500Y9682100D01*
X8201000Y9682400D01*
X8200400Y9682800D01*
X8199900Y9683200D01*
X8199500Y9683600D01*
X8199000Y9684000D01*
X8198600Y9684500D01*
X8198200Y9684900D01*
X8197800Y9685400D01*
X8197400Y9686000D01*
X8197100Y9686500D01*
X8196800Y9687100D01*
X8196500Y9687600D01*
X8196300Y9688200D01*
X8196100Y9688800D01*
X8195900Y9689400D01*
X8195800Y9690000D01*
X8195600Y9690600D01*
Y9691200D01*
X8195500Y9691900D01*
Y9692500D01*
Y9707500D01*
Y9708100D01*
X8195600Y9708800D01*
Y9709400D01*
X8195800Y9710000D01*
X8195900Y9710600D01*
X8196100Y9711200D01*
X8196300Y9711800D01*
X8196500Y9712400D01*
X8196800Y9712900D01*
X8197100Y9713500D01*
X8197400Y9714000D01*
X8197800Y9714600D01*
X8198200Y9715100D01*
X8198600Y9715500D01*
X8199000Y9716000D01*
X8199500Y9716400D01*
X8199900Y9716800D01*
X8200400Y9717200D01*
X8201000Y9717600D01*
X8201500Y9717900D01*
X8202100Y9718200D01*
X8202600Y9718500D01*
X8203200Y9718700D01*
X8203800Y9718900D01*
X8204400Y9719100D01*
X8205000Y9719200D01*
X8205600Y9719400D01*
X8206200D01*
X8206900Y9719500D01*
X8258100D01*
X8258800Y9719400D01*
D02*
G37*
G36*
Y9769400D02*
X8259400D01*
X8260000Y9769200D01*
X8260600Y9769100D01*
X8261200Y9768900D01*
X8261800Y9768700D01*
X8262400Y9768500D01*
X8262900Y9768200D01*
X8263500Y9767900D01*
X8264000Y9767600D01*
X8264600Y9767200D01*
X8265100Y9766800D01*
X8265500Y9766400D01*
X8266000Y9766000D01*
X8266400Y9765500D01*
X8266800Y9765100D01*
X8267200Y9764600D01*
X8267600Y9764000D01*
X8267900Y9763500D01*
X8268200Y9762900D01*
X8268500Y9762400D01*
X8268700Y9761800D01*
X8268900Y9761200D01*
X8269100Y9760600D01*
X8269200Y9760000D01*
X8269400Y9759400D01*
Y9758800D01*
X8269500Y9758100D01*
Y9757500D01*
Y9742500D01*
Y9741900D01*
X8269400Y9741200D01*
Y9740600D01*
X8269200Y9740000D01*
X8269100Y9739400D01*
X8268900Y9738800D01*
X8268700Y9738200D01*
X8268500Y9737600D01*
X8268200Y9737100D01*
X8267900Y9736500D01*
X8267600Y9736000D01*
X8267200Y9735400D01*
X8266800Y9734900D01*
X8266400Y9734500D01*
X8266000Y9734000D01*
X8265500Y9733600D01*
X8265100Y9733200D01*
X8264600Y9732800D01*
X8264000Y9732400D01*
X8263500Y9732100D01*
X8262900Y9731800D01*
X8262400Y9731500D01*
X8261800Y9731300D01*
X8261200Y9731100D01*
X8260600Y9730900D01*
X8260000Y9730800D01*
X8259400Y9730600D01*
X8258800D01*
X8258100Y9730500D01*
X8206900D01*
X8206200Y9730600D01*
X8205600D01*
X8205000Y9730800D01*
X8204400Y9730900D01*
X8203800Y9731100D01*
X8203200Y9731300D01*
X8202600Y9731500D01*
X8202100Y9731800D01*
X8201500Y9732100D01*
X8201000Y9732400D01*
X8200400Y9732800D01*
X8199900Y9733200D01*
X8199500Y9733600D01*
X8199000Y9734000D01*
X8198600Y9734500D01*
X8198200Y9734900D01*
X8197800Y9735400D01*
X8197400Y9736000D01*
X8197100Y9736500D01*
X8196800Y9737100D01*
X8196500Y9737600D01*
X8196300Y9738200D01*
X8196100Y9738800D01*
X8195900Y9739400D01*
X8195800Y9740000D01*
X8195600Y9740600D01*
Y9741200D01*
X8195500Y9741900D01*
Y9742500D01*
Y9757500D01*
Y9758100D01*
X8195600Y9758800D01*
Y9759400D01*
X8195800Y9760000D01*
X8195900Y9760600D01*
X8196100Y9761200D01*
X8196300Y9761800D01*
X8196500Y9762400D01*
X8196800Y9762900D01*
X8197100Y9763500D01*
X8197400Y9764000D01*
X8197800Y9764600D01*
X8198200Y9765100D01*
X8198600Y9765500D01*
X8199000Y9766000D01*
X8199500Y9766400D01*
X8199900Y9766800D01*
X8200400Y9767200D01*
X8201000Y9767600D01*
X8201500Y9767900D01*
X8202100Y9768200D01*
X8202600Y9768500D01*
X8203200Y9768700D01*
X8203800Y9768900D01*
X8204400Y9769100D01*
X8205000Y9769200D01*
X8205600Y9769400D01*
X8206200D01*
X8206900Y9769500D01*
X8258100D01*
X8258800Y9769400D01*
D02*
G37*
G36*
Y9819400D02*
X8259400D01*
X8260000Y9819200D01*
X8260600Y9819100D01*
X8261200Y9818900D01*
X8261800Y9818700D01*
X8262400Y9818500D01*
X8262900Y9818200D01*
X8263500Y9817900D01*
X8264000Y9817600D01*
X8264600Y9817200D01*
X8265100Y9816800D01*
X8265500Y9816400D01*
X8266000Y9816000D01*
X8266400Y9815500D01*
X8266800Y9815100D01*
X8267200Y9814600D01*
X8267600Y9814000D01*
X8267900Y9813500D01*
X8268200Y9812900D01*
X8268500Y9812400D01*
X8268700Y9811800D01*
X8268900Y9811200D01*
X8269100Y9810600D01*
X8269200Y9810000D01*
X8269400Y9809400D01*
Y9808800D01*
X8269500Y9808100D01*
Y9807500D01*
Y9792500D01*
Y9791900D01*
X8269400Y9791200D01*
Y9790600D01*
X8269200Y9790000D01*
X8269100Y9789400D01*
X8268900Y9788800D01*
X8268700Y9788200D01*
X8268500Y9787600D01*
X8268200Y9787100D01*
X8267900Y9786500D01*
X8267600Y9786000D01*
X8267200Y9785400D01*
X8266800Y9784900D01*
X8266400Y9784500D01*
X8266000Y9784000D01*
X8265500Y9783600D01*
X8265100Y9783200D01*
X8264600Y9782800D01*
X8264000Y9782400D01*
X8263500Y9782100D01*
X8262900Y9781800D01*
X8262400Y9781500D01*
X8261800Y9781300D01*
X8261200Y9781100D01*
X8260600Y9780900D01*
X8260000Y9780800D01*
X8259400Y9780600D01*
X8258800D01*
X8258100Y9780500D01*
X8206900D01*
X8206200Y9780600D01*
X8205600D01*
X8205000Y9780800D01*
X8204400Y9780900D01*
X8203800Y9781100D01*
X8203200Y9781300D01*
X8202600Y9781500D01*
X8202100Y9781800D01*
X8201500Y9782100D01*
X8201000Y9782400D01*
X8200400Y9782800D01*
X8199900Y9783200D01*
X8199500Y9783600D01*
X8199000Y9784000D01*
X8198600Y9784500D01*
X8198200Y9784900D01*
X8197800Y9785400D01*
X8197400Y9786000D01*
X8197100Y9786500D01*
X8196800Y9787100D01*
X8196500Y9787600D01*
X8196300Y9788200D01*
X8196100Y9788800D01*
X8195900Y9789400D01*
X8195800Y9790000D01*
X8195600Y9790600D01*
Y9791200D01*
X8195500Y9791900D01*
Y9792500D01*
Y9807500D01*
Y9808100D01*
X8195600Y9808800D01*
Y9809400D01*
X8195800Y9810000D01*
X8195900Y9810600D01*
X8196100Y9811200D01*
X8196300Y9811800D01*
X8196500Y9812400D01*
X8196800Y9812900D01*
X8197100Y9813500D01*
X8197400Y9814000D01*
X8197800Y9814600D01*
X8198200Y9815100D01*
X8198600Y9815500D01*
X8199000Y9816000D01*
X8199500Y9816400D01*
X8199900Y9816800D01*
X8200400Y9817200D01*
X8201000Y9817600D01*
X8201500Y9817900D01*
X8202100Y9818200D01*
X8202600Y9818500D01*
X8203200Y9818700D01*
X8203800Y9818900D01*
X8204400Y9819100D01*
X8205000Y9819200D01*
X8205600Y9819400D01*
X8206200D01*
X8206900Y9819500D01*
X8258100D01*
X8258800Y9819400D01*
D02*
G37*
G36*
Y9869400D02*
X8259400D01*
X8260000Y9869200D01*
X8260600Y9869100D01*
X8261200Y9868900D01*
X8261800Y9868700D01*
X8262400Y9868500D01*
X8262900Y9868200D01*
X8263500Y9867900D01*
X8264000Y9867600D01*
X8264600Y9867200D01*
X8265100Y9866800D01*
X8265500Y9866400D01*
X8266000Y9866000D01*
X8266400Y9865500D01*
X8266800Y9865100D01*
X8267200Y9864600D01*
X8267600Y9864000D01*
X8267900Y9863500D01*
X8268200Y9862900D01*
X8268500Y9862400D01*
X8268700Y9861800D01*
X8268900Y9861200D01*
X8269100Y9860600D01*
X8269200Y9860000D01*
X8269400Y9859400D01*
Y9858800D01*
X8269500Y9858100D01*
Y9857500D01*
Y9842500D01*
Y9841900D01*
X8269400Y9841200D01*
Y9840600D01*
X8269200Y9840000D01*
X8269100Y9839400D01*
X8268900Y9838800D01*
X8268700Y9838200D01*
X8268500Y9837600D01*
X8268200Y9837100D01*
X8267900Y9836500D01*
X8267600Y9836000D01*
X8267200Y9835400D01*
X8266800Y9834900D01*
X8266400Y9834500D01*
X8266000Y9834000D01*
X8265500Y9833600D01*
X8265100Y9833200D01*
X8264600Y9832800D01*
X8264000Y9832400D01*
X8263500Y9832100D01*
X8262900Y9831800D01*
X8262400Y9831500D01*
X8261800Y9831300D01*
X8261200Y9831100D01*
X8260600Y9830900D01*
X8260000Y9830800D01*
X8259400Y9830600D01*
X8258800D01*
X8258100Y9830500D01*
X8206900D01*
X8206200Y9830600D01*
X8205600D01*
X8205000Y9830800D01*
X8204400Y9830900D01*
X8203800Y9831100D01*
X8203200Y9831300D01*
X8202600Y9831500D01*
X8202100Y9831800D01*
X8201500Y9832100D01*
X8201000Y9832400D01*
X8200400Y9832800D01*
X8199900Y9833200D01*
X8199500Y9833600D01*
X8199000Y9834000D01*
X8198600Y9834500D01*
X8198200Y9834900D01*
X8197800Y9835400D01*
X8197400Y9836000D01*
X8197100Y9836500D01*
X8196800Y9837100D01*
X8196500Y9837600D01*
X8196300Y9838200D01*
X8196100Y9838800D01*
X8195900Y9839400D01*
X8195800Y9840000D01*
X8195600Y9840600D01*
Y9841200D01*
X8195500Y9841900D01*
Y9842500D01*
Y9857500D01*
Y9858100D01*
X8195600Y9858800D01*
Y9859400D01*
X8195800Y9860000D01*
X8195900Y9860600D01*
X8196100Y9861200D01*
X8196300Y9861800D01*
X8196500Y9862400D01*
X8196800Y9862900D01*
X8197100Y9863500D01*
X8197400Y9864000D01*
X8197800Y9864600D01*
X8198200Y9865100D01*
X8198600Y9865500D01*
X8199000Y9866000D01*
X8199500Y9866400D01*
X8199900Y9866800D01*
X8200400Y9867200D01*
X8201000Y9867600D01*
X8201500Y9867900D01*
X8202100Y9868200D01*
X8202600Y9868500D01*
X8203200Y9868700D01*
X8203800Y9868900D01*
X8204400Y9869100D01*
X8205000Y9869200D01*
X8205600Y9869400D01*
X8206200D01*
X8206900Y9869500D01*
X8258100D01*
X8258800Y9869400D01*
D02*
G37*
G36*
Y9919400D02*
X8259400D01*
X8260000Y9919200D01*
X8260600Y9919100D01*
X8261200Y9918900D01*
X8261800Y9918700D01*
X8262400Y9918500D01*
X8262900Y9918200D01*
X8263500Y9917900D01*
X8264000Y9917600D01*
X8264600Y9917200D01*
X8265100Y9916800D01*
X8265500Y9916400D01*
X8266000Y9916000D01*
X8266400Y9915500D01*
X8266800Y9915100D01*
X8267200Y9914600D01*
X8267600Y9914000D01*
X8267900Y9913500D01*
X8268200Y9912900D01*
X8268500Y9912400D01*
X8268700Y9911800D01*
X8268900Y9911200D01*
X8269100Y9910600D01*
X8269200Y9910000D01*
X8269400Y9909400D01*
Y9908800D01*
X8269500Y9908100D01*
Y9907500D01*
Y9892500D01*
Y9891900D01*
X8269400Y9891200D01*
Y9890600D01*
X8269200Y9890000D01*
X8269100Y9889400D01*
X8268900Y9888800D01*
X8268700Y9888200D01*
X8268500Y9887600D01*
X8268200Y9887100D01*
X8267900Y9886500D01*
X8267600Y9886000D01*
X8267200Y9885400D01*
X8266800Y9884900D01*
X8266400Y9884500D01*
X8266000Y9884000D01*
X8265500Y9883600D01*
X8265100Y9883200D01*
X8264600Y9882800D01*
X8264000Y9882400D01*
X8263500Y9882100D01*
X8262900Y9881800D01*
X8262400Y9881500D01*
X8261800Y9881300D01*
X8261200Y9881100D01*
X8260600Y9880900D01*
X8260000Y9880800D01*
X8259400Y9880600D01*
X8258800D01*
X8258100Y9880500D01*
X8206900D01*
X8206200Y9880600D01*
X8205600D01*
X8205000Y9880800D01*
X8204400Y9880900D01*
X8203800Y9881100D01*
X8203200Y9881300D01*
X8202600Y9881500D01*
X8202100Y9881800D01*
X8201500Y9882100D01*
X8201000Y9882400D01*
X8200400Y9882800D01*
X8199900Y9883200D01*
X8199500Y9883600D01*
X8199000Y9884000D01*
X8198600Y9884500D01*
X8198200Y9884900D01*
X8197800Y9885400D01*
X8197400Y9886000D01*
X8197100Y9886500D01*
X8196800Y9887100D01*
X8196500Y9887600D01*
X8196300Y9888200D01*
X8196100Y9888800D01*
X8195900Y9889400D01*
X8195800Y9890000D01*
X8195600Y9890600D01*
Y9891200D01*
X8195500Y9891900D01*
Y9892500D01*
Y9907500D01*
Y9908100D01*
X8195600Y9908800D01*
Y9909400D01*
X8195800Y9910000D01*
X8195900Y9910600D01*
X8196100Y9911200D01*
X8196300Y9911800D01*
X8196500Y9912400D01*
X8196800Y9912900D01*
X8197100Y9913500D01*
X8197400Y9914000D01*
X8197800Y9914600D01*
X8198200Y9915100D01*
X8198600Y9915500D01*
X8199000Y9916000D01*
X8199500Y9916400D01*
X8199900Y9916800D01*
X8200400Y9917200D01*
X8201000Y9917600D01*
X8201500Y9917900D01*
X8202100Y9918200D01*
X8202600Y9918500D01*
X8203200Y9918700D01*
X8203800Y9918900D01*
X8204400Y9919100D01*
X8205000Y9919200D01*
X8205600Y9919400D01*
X8206200D01*
X8206900Y9919500D01*
X8258100D01*
X8258800Y9919400D01*
D02*
G37*
G36*
X8438800Y9819400D02*
X8439400D01*
X8440000Y9819200D01*
X8440600Y9819100D01*
X8441200Y9818900D01*
X8441800Y9818700D01*
X8442400Y9818500D01*
X8442900Y9818200D01*
X8443500Y9817900D01*
X8444000Y9817600D01*
X8444600Y9817200D01*
X8445100Y9816800D01*
X8445500Y9816400D01*
X8446000Y9816000D01*
X8446400Y9815500D01*
X8446800Y9815100D01*
X8447200Y9814600D01*
X8447600Y9814000D01*
X8447900Y9813500D01*
X8448200Y9812900D01*
X8448500Y9812400D01*
X8448700Y9811800D01*
X8448900Y9811200D01*
X8449100Y9810600D01*
X8449200Y9810000D01*
X8449400Y9809400D01*
Y9808800D01*
X8449500Y9808100D01*
Y9807500D01*
Y9792500D01*
Y9791900D01*
X8449400Y9791200D01*
Y9790600D01*
X8449200Y9790000D01*
X8449100Y9789400D01*
X8448900Y9788800D01*
X8448700Y9788200D01*
X8448500Y9787600D01*
X8448200Y9787100D01*
X8447900Y9786500D01*
X8447600Y9786000D01*
X8447200Y9785400D01*
X8446800Y9784900D01*
X8446400Y9784500D01*
X8446000Y9784000D01*
X8445500Y9783600D01*
X8445100Y9783200D01*
X8444600Y9782800D01*
X8444000Y9782400D01*
X8443500Y9782100D01*
X8442900Y9781800D01*
X8442400Y9781500D01*
X8441800Y9781300D01*
X8441200Y9781100D01*
X8440600Y9780900D01*
X8440000Y9780800D01*
X8439400Y9780600D01*
X8438800D01*
X8438100Y9780500D01*
X8316900D01*
X8316200Y9780600D01*
X8315600D01*
X8315000Y9780800D01*
X8314400Y9780900D01*
X8313800Y9781100D01*
X8313200Y9781300D01*
X8312600Y9781500D01*
X8312100Y9781800D01*
X8311500Y9782100D01*
X8311000Y9782400D01*
X8310400Y9782800D01*
X8309900Y9783200D01*
X8309500Y9783600D01*
X8309000Y9784000D01*
X8308600Y9784500D01*
X8308200Y9784900D01*
X8307800Y9785400D01*
X8307400Y9786000D01*
X8307100Y9786500D01*
X8306800Y9787100D01*
X8306500Y9787600D01*
X8306300Y9788200D01*
X8306100Y9788800D01*
X8305900Y9789400D01*
X8305800Y9790000D01*
X8305600Y9790600D01*
Y9791200D01*
X8305500Y9791900D01*
Y9792500D01*
Y9807500D01*
Y9808100D01*
X8305600Y9808800D01*
Y9809400D01*
X8305800Y9810000D01*
X8305900Y9810600D01*
X8306100Y9811200D01*
X8306300Y9811800D01*
X8306500Y9812400D01*
X8306800Y9812900D01*
X8307100Y9813500D01*
X8307400Y9814000D01*
X8307800Y9814600D01*
X8308200Y9815100D01*
X8308600Y9815500D01*
X8309000Y9816000D01*
X8309500Y9816400D01*
X8309900Y9816800D01*
X8310400Y9817200D01*
X8311000Y9817600D01*
X8311500Y9817900D01*
X8312100Y9818200D01*
X8312600Y9818500D01*
X8313200Y9818700D01*
X8313800Y9818900D01*
X8314400Y9819100D01*
X8315000Y9819200D01*
X8315600Y9819400D01*
X8316200D01*
X8316900Y9819500D01*
X8438100D01*
X8438800Y9819400D01*
D02*
G37*
G36*
Y9769400D02*
X8439400D01*
X8440000Y9769200D01*
X8440600Y9769100D01*
X8441200Y9768900D01*
X8441800Y9768700D01*
X8442400Y9768500D01*
X8442900Y9768200D01*
X8443500Y9767900D01*
X8444000Y9767600D01*
X8444600Y9767200D01*
X8445100Y9766800D01*
X8445500Y9766400D01*
X8446000Y9766000D01*
X8446400Y9765500D01*
X8446800Y9765100D01*
X8447200Y9764600D01*
X8447600Y9764000D01*
X8447900Y9763500D01*
X8448200Y9762900D01*
X8448500Y9762400D01*
X8448700Y9761800D01*
X8448900Y9761200D01*
X8449100Y9760600D01*
X8449200Y9760000D01*
X8449400Y9759400D01*
Y9758800D01*
X8449500Y9758100D01*
Y9757500D01*
Y9742500D01*
Y9741900D01*
X8449400Y9741200D01*
Y9740600D01*
X8449200Y9740000D01*
X8449100Y9739400D01*
X8448900Y9738800D01*
X8448700Y9738200D01*
X8448500Y9737600D01*
X8448200Y9737100D01*
X8447900Y9736500D01*
X8447600Y9736000D01*
X8447200Y9735400D01*
X8446800Y9734900D01*
X8446400Y9734500D01*
X8446000Y9734000D01*
X8445500Y9733600D01*
X8445100Y9733200D01*
X8444600Y9732800D01*
X8444000Y9732400D01*
X8443500Y9732100D01*
X8442900Y9731800D01*
X8442400Y9731500D01*
X8441800Y9731300D01*
X8441200Y9731100D01*
X8440600Y9730900D01*
X8440000Y9730800D01*
X8439400Y9730600D01*
X8438800D01*
X8438100Y9730500D01*
X8356900D01*
X8356200Y9730600D01*
X8355600D01*
X8355000Y9730800D01*
X8354400Y9730900D01*
X8353800Y9731100D01*
X8353200Y9731300D01*
X8352600Y9731500D01*
X8352100Y9731800D01*
X8351500Y9732100D01*
X8351000Y9732400D01*
X8350400Y9732800D01*
X8349900Y9733200D01*
X8349500Y9733600D01*
X8349000Y9734000D01*
X8348600Y9734500D01*
X8348200Y9734900D01*
X8347800Y9735400D01*
X8347400Y9736000D01*
X8347100Y9736500D01*
X8346800Y9737100D01*
X8346500Y9737600D01*
X8346300Y9738200D01*
X8346100Y9738800D01*
X8345900Y9739400D01*
X8345800Y9740000D01*
X8345600Y9740600D01*
Y9741200D01*
X8345500Y9741900D01*
Y9742500D01*
Y9757500D01*
Y9758100D01*
X8345600Y9758800D01*
Y9759400D01*
X8345800Y9760000D01*
X8345900Y9760600D01*
X8346100Y9761200D01*
X8346300Y9761800D01*
X8346500Y9762400D01*
X8346800Y9762900D01*
X8347100Y9763500D01*
X8347400Y9764000D01*
X8347800Y9764600D01*
X8348200Y9765100D01*
X8348600Y9765500D01*
X8349000Y9766000D01*
X8349500Y9766400D01*
X8349900Y9766800D01*
X8350400Y9767200D01*
X8351000Y9767600D01*
X8351500Y9767900D01*
X8352100Y9768200D01*
X8352600Y9768500D01*
X8353200Y9768700D01*
X8353800Y9768900D01*
X8354400Y9769100D01*
X8355000Y9769200D01*
X8355600Y9769400D01*
X8356200D01*
X8356900Y9769500D01*
X8438100D01*
X8438800Y9769400D01*
D02*
G37*
G36*
Y9719400D02*
X8439400D01*
X8440000Y9719200D01*
X8440600Y9719100D01*
X8441200Y9718900D01*
X8441800Y9718700D01*
X8442400Y9718500D01*
X8442900Y9718200D01*
X8443500Y9717900D01*
X8444000Y9717600D01*
X8444600Y9717200D01*
X8445100Y9716800D01*
X8445500Y9716400D01*
X8446000Y9716000D01*
X8446400Y9715500D01*
X8446800Y9715100D01*
X8447200Y9714600D01*
X8447600Y9714000D01*
X8447900Y9713500D01*
X8448200Y9712900D01*
X8448500Y9712400D01*
X8448700Y9711800D01*
X8448900Y9711200D01*
X8449100Y9710600D01*
X8449200Y9710000D01*
X8449400Y9709400D01*
Y9708800D01*
X8449500Y9708100D01*
Y9707500D01*
Y9692500D01*
Y9691900D01*
X8449400Y9691200D01*
Y9690600D01*
X8449200Y9690000D01*
X8449100Y9689400D01*
X8448900Y9688800D01*
X8448700Y9688200D01*
X8448500Y9687600D01*
X8448200Y9687100D01*
X8447900Y9686500D01*
X8447600Y9686000D01*
X8447200Y9685400D01*
X8446800Y9684900D01*
X8446400Y9684500D01*
X8446000Y9684000D01*
X8445500Y9683600D01*
X8445100Y9683200D01*
X8444600Y9682800D01*
X8444000Y9682400D01*
X8443500Y9682100D01*
X8442900Y9681800D01*
X8442400Y9681500D01*
X8441800Y9681300D01*
X8441200Y9681100D01*
X8440600Y9680900D01*
X8440000Y9680800D01*
X8439400Y9680600D01*
X8438800D01*
X8438100Y9680500D01*
X8356900D01*
X8356200Y9680600D01*
X8355600D01*
X8355000Y9680800D01*
X8354400Y9680900D01*
X8353800Y9681100D01*
X8353200Y9681300D01*
X8352600Y9681500D01*
X8352100Y9681800D01*
X8351500Y9682100D01*
X8351000Y9682400D01*
X8350400Y9682800D01*
X8349900Y9683200D01*
X8349500Y9683600D01*
X8349000Y9684000D01*
X8348600Y9684500D01*
X8348200Y9684900D01*
X8347800Y9685400D01*
X8347400Y9686000D01*
X8347100Y9686500D01*
X8346800Y9687100D01*
X8346500Y9687600D01*
X8346300Y9688200D01*
X8346100Y9688800D01*
X8345900Y9689400D01*
X8345800Y9690000D01*
X8345600Y9690600D01*
Y9691200D01*
X8345500Y9691900D01*
Y9692500D01*
Y9707500D01*
Y9708100D01*
X8345600Y9708800D01*
Y9709400D01*
X8345800Y9710000D01*
X8345900Y9710600D01*
X8346100Y9711200D01*
X8346300Y9711800D01*
X8346500Y9712400D01*
X8346800Y9712900D01*
X8347100Y9713500D01*
X8347400Y9714000D01*
X8347800Y9714600D01*
X8348200Y9715100D01*
X8348600Y9715500D01*
X8349000Y9716000D01*
X8349500Y9716400D01*
X8349900Y9716800D01*
X8350400Y9717200D01*
X8351000Y9717600D01*
X8351500Y9717900D01*
X8352100Y9718200D01*
X8352600Y9718500D01*
X8353200Y9718700D01*
X8353800Y9718900D01*
X8354400Y9719100D01*
X8355000Y9719200D01*
X8355600Y9719400D01*
X8356200D01*
X8356900Y9719500D01*
X8438100D01*
X8438800Y9719400D01*
D02*
G37*
G36*
Y9869400D02*
X8439400D01*
X8440000Y9869200D01*
X8440600Y9869100D01*
X8441200Y9868900D01*
X8441800Y9868700D01*
X8442400Y9868500D01*
X8442900Y9868200D01*
X8443500Y9867900D01*
X8444000Y9867600D01*
X8444600Y9867200D01*
X8445100Y9866800D01*
X8445500Y9866400D01*
X8446000Y9866000D01*
X8446400Y9865500D01*
X8446800Y9865100D01*
X8447200Y9864600D01*
X8447600Y9864000D01*
X8447900Y9863500D01*
X8448200Y9862900D01*
X8448500Y9862400D01*
X8448700Y9861800D01*
X8448900Y9861200D01*
X8449100Y9860600D01*
X8449200Y9860000D01*
X8449400Y9859400D01*
Y9858800D01*
X8449500Y9858100D01*
Y9857500D01*
Y9842500D01*
Y9841900D01*
X8449400Y9841200D01*
Y9840600D01*
X8449200Y9840000D01*
X8449100Y9839400D01*
X8448900Y9838800D01*
X8448700Y9838200D01*
X8448500Y9837600D01*
X8448200Y9837100D01*
X8447900Y9836500D01*
X8447600Y9836000D01*
X8447200Y9835400D01*
X8446800Y9834900D01*
X8446400Y9834500D01*
X8446000Y9834000D01*
X8445500Y9833600D01*
X8445100Y9833200D01*
X8444600Y9832800D01*
X8444000Y9832400D01*
X8443500Y9832100D01*
X8442900Y9831800D01*
X8442400Y9831500D01*
X8441800Y9831300D01*
X8441200Y9831100D01*
X8440600Y9830900D01*
X8440000Y9830800D01*
X8439400Y9830600D01*
X8438800D01*
X8438100Y9830500D01*
X8356900D01*
X8356200Y9830600D01*
X8355600D01*
X8355000Y9830800D01*
X8354400Y9830900D01*
X8353800Y9831100D01*
X8353200Y9831300D01*
X8352600Y9831500D01*
X8352100Y9831800D01*
X8351500Y9832100D01*
X8351000Y9832400D01*
X8350400Y9832800D01*
X8349900Y9833200D01*
X8349500Y9833600D01*
X8349000Y9834000D01*
X8348600Y9834500D01*
X8348200Y9834900D01*
X8347800Y9835400D01*
X8347400Y9836000D01*
X8347100Y9836500D01*
X8346800Y9837100D01*
X8346500Y9837600D01*
X8346300Y9838200D01*
X8346100Y9838800D01*
X8345900Y9839400D01*
X8345800Y9840000D01*
X8345600Y9840600D01*
Y9841200D01*
X8345500Y9841900D01*
Y9842500D01*
Y9857500D01*
Y9858100D01*
X8345600Y9858800D01*
Y9859400D01*
X8345800Y9860000D01*
X8345900Y9860600D01*
X8346100Y9861200D01*
X8346300Y9861800D01*
X8346500Y9862400D01*
X8346800Y9862900D01*
X8347100Y9863500D01*
X8347400Y9864000D01*
X8347800Y9864600D01*
X8348200Y9865100D01*
X8348600Y9865500D01*
X8349000Y9866000D01*
X8349500Y9866400D01*
X8349900Y9866800D01*
X8350400Y9867200D01*
X8351000Y9867600D01*
X8351500Y9867900D01*
X8352100Y9868200D01*
X8352600Y9868500D01*
X8353200Y9868700D01*
X8353800Y9868900D01*
X8354400Y9869100D01*
X8355000Y9869200D01*
X8355600Y9869400D01*
X8356200D01*
X8356900Y9869500D01*
X8438100D01*
X8438800Y9869400D01*
D02*
G37*
G36*
Y9919400D02*
X8439400D01*
X8440000Y9919200D01*
X8440600Y9919100D01*
X8441200Y9918900D01*
X8441800Y9918700D01*
X8442400Y9918500D01*
X8442900Y9918200D01*
X8443500Y9917900D01*
X8444000Y9917600D01*
X8444600Y9917200D01*
X8445100Y9916800D01*
X8445500Y9916400D01*
X8446000Y9916000D01*
X8446400Y9915500D01*
X8446800Y9915100D01*
X8447200Y9914600D01*
X8447600Y9914000D01*
X8447900Y9913500D01*
X8448200Y9912900D01*
X8448500Y9912400D01*
X8448700Y9911800D01*
X8448900Y9911200D01*
X8449100Y9910600D01*
X8449200Y9910000D01*
X8449400Y9909400D01*
Y9908800D01*
X8449500Y9908100D01*
Y9907500D01*
Y9892500D01*
Y9891900D01*
X8449400Y9891200D01*
Y9890600D01*
X8449200Y9890000D01*
X8449100Y9889400D01*
X8448900Y9888800D01*
X8448700Y9888200D01*
X8448500Y9887600D01*
X8448200Y9887100D01*
X8447900Y9886500D01*
X8447600Y9886000D01*
X8447200Y9885400D01*
X8446800Y9884900D01*
X8446400Y9884500D01*
X8446000Y9884000D01*
X8445500Y9883600D01*
X8445100Y9883200D01*
X8444600Y9882800D01*
X8444000Y9882400D01*
X8443500Y9882100D01*
X8442900Y9881800D01*
X8442400Y9881500D01*
X8441800Y9881300D01*
X8441200Y9881100D01*
X8440600Y9880900D01*
X8440000Y9880800D01*
X8439400Y9880600D01*
X8438800D01*
X8438100Y9880500D01*
X8356900D01*
X8356200Y9880600D01*
X8355600D01*
X8355000Y9880800D01*
X8354400Y9880900D01*
X8353800Y9881100D01*
X8353200Y9881300D01*
X8352600Y9881500D01*
X8352100Y9881800D01*
X8351500Y9882100D01*
X8351000Y9882400D01*
X8350400Y9882800D01*
X8349900Y9883200D01*
X8349500Y9883600D01*
X8349000Y9884000D01*
X8348600Y9884500D01*
X8348200Y9884900D01*
X8347800Y9885400D01*
X8347400Y9886000D01*
X8347100Y9886500D01*
X8346800Y9887100D01*
X8346500Y9887600D01*
X8346300Y9888200D01*
X8346100Y9888800D01*
X8345900Y9889400D01*
X8345800Y9890000D01*
X8345600Y9890600D01*
Y9891200D01*
X8345500Y9891900D01*
Y9892500D01*
Y9907500D01*
Y9908100D01*
X8345600Y9908800D01*
Y9909400D01*
X8345800Y9910000D01*
X8345900Y9910600D01*
X8346100Y9911200D01*
X8346300Y9911800D01*
X8346500Y9912400D01*
X8346800Y9912900D01*
X8347100Y9913500D01*
X8347400Y9914000D01*
X8347800Y9914600D01*
X8348200Y9915100D01*
X8348600Y9915500D01*
X8349000Y9916000D01*
X8349500Y9916400D01*
X8349900Y9916800D01*
X8350400Y9917200D01*
X8351000Y9917600D01*
X8351500Y9917900D01*
X8352100Y9918200D01*
X8352600Y9918500D01*
X8353200Y9918700D01*
X8353800Y9918900D01*
X8354400Y9919100D01*
X8355000Y9919200D01*
X8355600Y9919400D01*
X8356200D01*
X8356900Y9919500D01*
X8438100D01*
X8438800Y9919400D01*
D02*
G37*
D39*
X6400000Y6100000D02*
D03*
D40*
X6687020Y6290500D02*
D03*
Y6163500D02*
D03*
Y6036500D02*
D03*
Y5909500D02*
D03*
X6112980D02*
D03*
Y6036500D02*
D03*
Y6163500D02*
D03*
Y6290500D02*
D03*
D71*
X25360014Y460002D02*
D03*
Y688602D02*
D03*
X6460013Y-2397760D02*
D03*
Y-2169160D02*
D03*
X5660013Y-2397760D02*
D03*
Y-2169160D02*
D03*
D72*
X24060014Y460002D02*
D03*
Y688602D02*
D03*
X22760014Y460002D02*
D03*
Y688602D02*
D03*
X20860013Y460002D02*
D03*
Y688602D02*
D03*
X19560011Y460002D02*
D03*
Y688602D02*
D03*
X18260011Y460002D02*
D03*
Y688602D02*
D03*
Y2460003D02*
D03*
Y2688603D02*
D03*
X5560016Y-497760D02*
D03*
Y-269160D02*
D03*
X3160015Y-497760D02*
D03*
Y-269160D02*
D03*
X11260014Y12860002D02*
D03*
Y13088602D02*
D03*
X5200000Y12671400D02*
D03*
Y12900000D02*
D03*
X7800000Y-1728600D02*
D03*
Y-1500000D02*
D03*
X7100000D02*
D03*
Y-1271400D02*
D03*
X15900000Y-1428600D02*
D03*
Y-1200000D02*
D03*
X15000000Y-1428600D02*
D03*
Y-1200000D02*
D03*
X14501601Y6100000D02*
D03*
Y6328600D02*
D03*
X14201601D02*
D03*
Y6100000D02*
D03*
X8500000Y8971400D02*
D03*
Y9200000D02*
D03*
X6155195Y11312240D02*
D03*
Y11540840D02*
D03*
X7900000Y10328600D02*
D03*
Y10100000D02*
D03*
X5700000Y11271400D02*
D03*
Y11500000D02*
D03*
X4836700Y2242300D02*
D03*
Y2470900D02*
D03*
D73*
X21460013Y725002D02*
D03*
X20260011D02*
D03*
X18960011D02*
D03*
D74*
X21460013Y560002D02*
D03*
X20260011D02*
D03*
X18960011D02*
D03*
X17400000Y400000D02*
D03*
Y235000D02*
D03*
X15660011Y9125002D02*
D03*
Y8960002D02*
D03*
X15000000Y8500000D02*
D03*
Y8335000D02*
D03*
X15800000Y2065000D02*
D03*
Y1900000D02*
D03*
X16100000Y9200000D02*
D03*
Y9035000D02*
D03*
X6060011Y12860002D02*
D03*
Y13025002D02*
D03*
X9600000Y10400000D02*
D03*
Y10565000D02*
D03*
X9000000Y10400000D02*
D03*
Y10565000D02*
D03*
D75*
X3621000Y9500000D02*
D03*
X3300000D02*
D03*
D76*
X8800000Y11598400D02*
D03*
Y11700000D02*
D03*
Y9698400D02*
D03*
Y9800000D02*
D03*
X6800000Y9598400D02*
D03*
Y9700000D02*
D03*
X2000000Y9800000D02*
D03*
Y9698400D02*
D03*
X6700000Y12200000D02*
D03*
Y12098400D02*
D03*
D77*
X2600000Y10000000D02*
D03*
X2498400D02*
D03*
X15101601Y5900000D02*
D03*
X15000000D02*
D03*
X15101601Y5500000D02*
D03*
X15000000D02*
D03*
X4431563Y3189995D02*
D03*
X4329963D02*
D03*
X4001564D02*
D03*
X3899964D02*
D03*
X7461557D02*
D03*
X7359957D02*
D03*
X7021558D02*
D03*
X6919958D02*
D03*
X6591559D02*
D03*
X6489959D02*
D03*
X6161560D02*
D03*
X6059960D02*
D03*
X5731561D02*
D03*
X5629961D02*
D03*
X5301561D02*
D03*
X5199961D02*
D03*
X4871562D02*
D03*
X4769962D02*
D03*
X4860000Y940000D02*
D03*
X4758400D02*
D03*
X7141600Y970000D02*
D03*
X7040000D02*
D03*
X7980000Y980000D02*
D03*
X7878400D02*
D03*
D78*
X3396520Y10003200D02*
D03*
D79*
X3490500Y9800000D02*
D03*
X3300000D02*
D03*
D80*
X2700000Y10600000D02*
D03*
X15101601Y6400000D02*
D03*
X17100000Y3000000D02*
D03*
D81*
X2300000Y9745000D02*
D03*
D82*
X2395000Y9820000D02*
D03*
Y9770000D02*
D03*
Y9720000D02*
D03*
Y9670000D02*
D03*
X2205000D02*
D03*
Y9720000D02*
D03*
Y9770000D02*
D03*
Y9820000D02*
D03*
D83*
X2700000Y9329820D02*
D03*
Y9500000D02*
D03*
X1800000Y9800000D02*
D03*
Y9629820D02*
D03*
X18260011Y530182D02*
D03*
Y360002D02*
D03*
D84*
X2300000Y9000000D02*
D03*
X15664999Y3700000D02*
D03*
Y4100000D02*
D03*
D85*
X2135000Y9000000D02*
D03*
X15500000Y3700000D02*
D03*
Y4100000D02*
D03*
D86*
X1800000Y9000000D02*
D03*
X1571400D02*
D03*
X15028600Y4100000D02*
D03*
X14800000D02*
D03*
X15028600Y3700000D02*
D03*
X14800000D02*
D03*
D87*
X2800000Y8900000D02*
D03*
X2629820D02*
D03*
X3300000D02*
D03*
X3470180D02*
D03*
X14760011Y9060002D02*
D03*
X14930193D02*
D03*
X14360011D02*
D03*
X14530191D02*
D03*
D88*
X707500Y8709000D02*
D03*
Y8069000D02*
D03*
Y8629000D02*
D03*
Y8149000D02*
D03*
D89*
Y8364000D02*
D03*
Y8414000D02*
D03*
Y8314000D02*
D03*
Y8264000D02*
D03*
Y8214000D02*
D03*
Y8464000D02*
D03*
Y8514000D02*
D03*
Y8564000D02*
D03*
D90*
X7657100Y9100000D02*
D03*
X8000000D02*
D03*
D91*
X19226500Y3200000D02*
D03*
X19373500D02*
D03*
D92*
X6060000Y3600000D02*
D03*
X6180000D02*
D03*
X6300000D02*
D03*
D93*
X6850000Y10100000D02*
D03*
X7100000D02*
D03*
D94*
X15871400Y436780D02*
D03*
X15937440D02*
D03*
X16003481D02*
D03*
X16066980D02*
D03*
X16133020D02*
D03*
X16196519D02*
D03*
X16262560D02*
D03*
X16328600D02*
D03*
Y1163220D02*
D03*
X16262560D02*
D03*
X16196519D02*
D03*
X16133020D02*
D03*
X16066980D02*
D03*
X16003481D02*
D03*
X15937440D02*
D03*
X15871400D02*
D03*
D95*
X2260015Y-297760D02*
D03*
X8560014Y-2097760D02*
D03*
X4760016Y-297760D02*
D03*
X3860015D02*
D03*
X7200000Y14100000D02*
D03*
X6299999D02*
D03*
X8000000D02*
D03*
X10500000Y14000000D02*
D03*
X11400001D02*
D03*
X4960016Y13360004D02*
D03*
D96*
X7199999Y14800000D02*
D03*
X6299998D02*
D03*
D97*
X8574500Y12195000D02*
D03*
Y12100000D02*
D03*
Y12005000D02*
D03*
X8825500Y12195000D02*
D03*
Y12100000D02*
D03*
Y12005000D02*
D03*
D98*
X6395000Y12351000D02*
D03*
X6300000D02*
D03*
X6205000D02*
D03*
X6395000Y12100000D02*
D03*
X6300000D02*
D03*
X6205000D02*
D03*
D99*
X7905000Y12109500D02*
D03*
Y12174500D02*
D03*
Y12239500D02*
D03*
X8105000D02*
D03*
Y12174500D02*
D03*
D100*
Y12109500D02*
D03*
D101*
X16364999Y4020500D02*
D03*
Y4147500D02*
D03*
Y4274500D02*
D03*
Y4401500D02*
D03*
Y4528500D02*
D03*
Y4655500D02*
D03*
Y4782500D02*
D03*
Y4909500D02*
D03*
Y5290500D02*
D03*
Y5417500D02*
D03*
Y5544500D02*
D03*
Y5671500D02*
D03*
Y5798500D02*
D03*
Y5925500D02*
D03*
X17635001D02*
D03*
Y5798500D02*
D03*
Y5671500D02*
D03*
Y5544500D02*
D03*
Y5417500D02*
D03*
Y5290500D02*
D03*
Y4909500D02*
D03*
Y4782500D02*
D03*
Y4655500D02*
D03*
Y4528500D02*
D03*
Y4401500D02*
D03*
Y4274500D02*
D03*
Y4147500D02*
D03*
Y4020500D02*
D03*
D102*
X16619000Y6306500D02*
D03*
X16746001D02*
D03*
X16873000D02*
D03*
X17000000D02*
D03*
X17127000D02*
D03*
X17253999D02*
D03*
X17381000D02*
D03*
Y3766500D02*
D03*
X17253999D02*
D03*
X17127000D02*
D03*
X17000000D02*
D03*
X16873000D02*
D03*
X16746001D02*
D03*
X16619000D02*
D03*
D103*
X14201601Y5600000D02*
D03*
Y5260000D02*
D03*
D104*
X7460000Y1750000D02*
D03*
X7800000D02*
D03*
D105*
X7185540Y9770000D02*
D03*
Y9720000D02*
D03*
Y9670000D02*
D03*
Y9620000D02*
D03*
Y9570000D02*
D03*
X7434460D02*
D03*
Y9620000D02*
D03*
Y9670000D02*
D03*
Y9720000D02*
D03*
Y9770000D02*
D03*
D106*
X7310000Y9670000D02*
D03*
D107*
X5970000Y4183000D02*
D03*
X6010000D02*
D03*
X6050000D02*
D03*
X6090000D02*
D03*
X6130000D02*
D03*
X6170000D02*
D03*
X6210000D02*
D03*
X6250000D02*
D03*
X6290000D02*
D03*
X6330000D02*
D03*
X6370000D02*
D03*
X6410000D02*
D03*
X6450000D02*
D03*
X6490000D02*
D03*
Y4870000D02*
D03*
X6450000D02*
D03*
X6410000D02*
D03*
X6370000D02*
D03*
X6330000D02*
D03*
X6290000D02*
D03*
X6250000D02*
D03*
X6210000D02*
D03*
X6170000D02*
D03*
X6130000D02*
D03*
X6090000D02*
D03*
X6050000D02*
D03*
X6010000D02*
D03*
X5970000D02*
D03*
D108*
X5886500Y4786500D02*
D03*
Y4746500D02*
D03*
Y4706500D02*
D03*
Y4666500D02*
D03*
Y4626500D02*
D03*
Y4586500D02*
D03*
Y4546500D02*
D03*
Y4506500D02*
D03*
Y4466500D02*
D03*
Y4426500D02*
D03*
Y4386500D02*
D03*
Y4346500D02*
D03*
Y4306500D02*
D03*
Y4266500D02*
D03*
X6573500D02*
D03*
Y4306500D02*
D03*
Y4346500D02*
D03*
Y4386500D02*
D03*
Y4426500D02*
D03*
Y4466500D02*
D03*
Y4506500D02*
D03*
Y4546500D02*
D03*
Y4586500D02*
D03*
Y4626500D02*
D03*
Y4666500D02*
D03*
Y4706500D02*
D03*
Y4746500D02*
D03*
Y4786500D02*
D03*
D109*
X6230000Y4526500D02*
D03*
D110*
X18360011Y1760002D02*
D03*
X24660014Y760002D02*
D03*
X23460014D02*
D03*
X22160013D02*
D03*
X18360011Y4160004D02*
D03*
X20200000Y3800000D02*
D03*
X9400000Y12354000D02*
D03*
X15700000Y4754000D02*
D03*
X9800000Y12054000D02*
D03*
D111*
X18360011Y1506002D02*
D03*
X24660014Y506002D02*
D03*
X23460014D02*
D03*
X22160013D02*
D03*
X18360011Y3906004D02*
D03*
X20200000Y3546000D02*
D03*
X8400000Y10900000D02*
D03*
X9400000Y12100000D02*
D03*
X15700000Y4500000D02*
D03*
X9800000Y11800000D02*
D03*
X1754016Y3799984D02*
D03*
X1500000Y3800000D02*
D03*
X2008000D02*
D03*
X1758017Y4499984D02*
D03*
X1504000Y4500000D02*
D03*
X2012000D02*
D03*
X1758017Y3049983D02*
D03*
X1504000Y3050000D02*
D03*
X2012000D02*
D03*
X1708016Y2199984D02*
D03*
X1454000Y2200000D02*
D03*
X1962000D02*
D03*
D112*
X232000Y8821000D02*
D03*
Y7957000D02*
D03*
D113*
X650000Y8821000D02*
D03*
Y7957000D02*
D03*
D114*
X600000Y8100000D02*
D03*
Y8678000D02*
D03*
D115*
X8146000Y10900000D02*
D03*
X1246000Y3800000D02*
D03*
X1250000Y4500000D02*
D03*
Y3050000D02*
D03*
X1200000Y2200000D02*
D03*
D116*
X6073000Y-400000D02*
D03*
D117*
X6200000D02*
D03*
X6327000D02*
D03*
X6454000D02*
D03*
X6581000D02*
D03*
X6073000Y-273000D02*
D03*
X6200000D02*
D03*
X6327000D02*
D03*
X6454000D02*
D03*
X6581000D02*
D03*
X15800000Y5719000D02*
D03*
Y5846000D02*
D03*
Y5973000D02*
D03*
Y6100000D02*
D03*
X15673000Y5592000D02*
D03*
Y5719000D02*
D03*
Y5846000D02*
D03*
Y5973000D02*
D03*
Y6100000D02*
D03*
D118*
X14201601Y5430000D02*
D03*
X7630000Y1750000D02*
D03*
D119*
X15800000Y5592000D02*
D03*
%TF.MD5,048e70e7ed92ef6c9d86fbf14533491e*%
M02*
