%TF.GenerationSoftware,Altium Limited,Altium Designer,24.2.2 (26)*%
G04 Layer_Color=65535*
%FSLAX45Y45*%
%MOMM*%
%TF.SameCoordinates,E801744C-0769-472F-B71A-A4CB6A2CC1AD*%
%TF.FilePolarity,Positive*%
%TF.FileFunction,Legend,Top*%
%TF.Part,Single*%
G01*
G75*
%TA.AperFunction,NonConductor*%
%ADD64C,0.20000*%
%ADD65C,0.15240*%
%ADD66C,0.25400*%
%ADD67C,0.27000*%
%ADD68C,0.30480*%
%ADD69C,0.12700*%
%ADD70C,0.15000*%
D64*
X3730500Y9400000D02*
G03*
X3730500Y9400000I-10000J0D01*
G01*
X8157500Y9925000D02*
G03*
X8157500Y9925000I-10000J0D01*
G01*
X2130000Y9820000D02*
G03*
X2130000Y9820000I-10000J0D01*
G01*
X842000Y8714000D02*
G03*
X842000Y8714000I-10000J0D01*
G01*
X5968000Y3600000D02*
G03*
X5968000Y3600000I-10000J0D01*
G01*
X7215000Y10100000D02*
G03*
X7205000Y10100000I-5000J0D01*
G01*
D02*
G03*
X7215000Y10100000I5000J0D01*
G01*
D02*
G03*
X7205000Y10100000I-5000J0D01*
G01*
X8460000Y12195000D02*
G03*
X8460000Y12195000I-10000J0D01*
G01*
X6215000Y11975500D02*
G03*
X6215000Y11975500I-10000J0D01*
G01*
X16622600Y3610500D02*
G03*
X16622600Y3610500I-10000J0D01*
G01*
X5792500Y4786500D02*
G03*
X5792500Y4786500I-10000J0D01*
G01*
X-28000Y8836000D02*
X100000D01*
X-28000Y7942000D02*
X100000D01*
X372000Y8836000D02*
X497000D01*
X372000Y7942000D02*
X497000D01*
X6935000Y10175000D02*
X7015000D01*
X6935000Y10025000D02*
X7015000D01*
X6009500Y-368250D02*
Y-220000D01*
Y-450000D02*
Y-304750D01*
Y-450000D02*
X6644500D01*
Y-220000D01*
X6009500D02*
X6644500D01*
X15620000Y5528500D02*
X15768250D01*
X15704750D02*
X15850000D01*
Y6163500D01*
X15620000D02*
X15850000D01*
X15620000Y5528500D02*
Y6163500D01*
D65*
X15774879Y769520D02*
G03*
X15774879Y830480I0J30480D01*
G01*
X5942800Y6290500D02*
G03*
X5942800Y6290500I-10160J0D01*
G01*
X15774879Y1079400D02*
X15818060D01*
X16381940Y520600D02*
X16425121D01*
Y1079400D01*
X16381940D02*
X16425121D01*
X15774879Y830480D02*
Y1079400D01*
Y769520D02*
Y830480D01*
Y520600D02*
Y769520D01*
Y520600D02*
X15818060D01*
X6717500Y6345364D02*
Y6367970D01*
Y6218364D02*
Y6235636D01*
Y6091364D02*
Y6108636D01*
Y5964364D02*
Y5981636D01*
X6082500Y5832030D02*
Y5854636D01*
Y5964364D02*
Y5981636D01*
Y6091364D02*
Y6108636D01*
Y6218364D02*
Y6235636D01*
Y6345364D02*
Y6367970D01*
X6717500D01*
Y5832030D02*
Y5854636D01*
X6082500Y5832030D02*
X6717500D01*
X7223640Y9527760D02*
X7396360D01*
X7223640Y9812240D02*
X7396360D01*
D66*
X8043100Y12103380D02*
G03*
X8043100Y12103380I-2540J0D01*
G01*
X18233011Y1379002D02*
Y1887002D01*
Y1379002D02*
X18487012D01*
Y1887002D01*
X18233011D02*
X18487012D01*
X24533015Y379002D02*
Y887002D01*
Y379002D02*
X24787015D01*
Y887002D01*
X24533015D02*
X24787015D01*
X23333014Y379002D02*
Y887002D01*
Y379002D02*
X23587013D01*
Y887002D01*
X23333014D02*
X23587013D01*
X22033012Y379002D02*
Y887002D01*
Y379002D02*
X22287013D01*
Y887002D01*
X22033012D02*
X22287013D01*
X18233011Y4287004D02*
X18487012D01*
Y3779004D02*
Y4287004D01*
X18233011Y3779004D02*
X18487012D01*
X18233011D02*
Y4287004D01*
X20073000Y3927000D02*
X20327000D01*
Y3419000D02*
Y3927000D01*
X20073000Y3419000D02*
X20327000D01*
X20073000D02*
Y3927000D01*
X8019000Y10773000D02*
Y11027000D01*
X8527000D01*
Y10773000D02*
Y11027000D01*
X8019000Y10773000D02*
X8527000D01*
X7942500Y12074500D02*
Y12274500D01*
X8070000Y12074500D02*
Y12274500D01*
X7942500Y12074500D02*
X8070000D01*
X7942500Y12274500D02*
X8070000D01*
X9273000Y12481000D02*
X9527000D01*
Y11973000D02*
Y12481000D01*
X9273000Y11973000D02*
X9527000D01*
X9273000D02*
Y12481000D01*
X15573000Y4881000D02*
X15827000D01*
Y4373000D02*
Y4881000D01*
X15573000Y4373000D02*
X15827000D01*
X15573000D02*
Y4881000D01*
X9673000Y12181000D02*
X9927000D01*
Y11673000D02*
Y12181000D01*
X9673000Y11673000D02*
X9927000D01*
X9673000D02*
Y12181000D01*
X1119000Y3673000D02*
Y3927000D01*
X2135000D01*
Y3673000D02*
Y3927000D01*
X1119000Y3673000D02*
X2135000D01*
X1123000Y4373000D02*
Y4627000D01*
X2139000D01*
Y4373000D02*
Y4627000D01*
X1123000Y4373000D02*
X2139000D01*
X1123000Y2923000D02*
Y3177000D01*
X2139000D01*
Y2923000D02*
Y3177000D01*
X1123000Y2923000D02*
X2139000D01*
X1073000Y2073000D02*
Y2327000D01*
X2089000D01*
Y2073000D02*
Y2327000D01*
X1073000Y2073000D02*
X2089000D01*
X18244441Y2101591D02*
Y1974632D01*
X18307921D01*
X18329082Y1995792D01*
Y2016952D01*
X18307921Y2038112D01*
X18244441D01*
X18307921D01*
X18329082Y2059272D01*
Y2080431D01*
X18307921Y2101591D01*
X18244441D01*
X18456039Y1974632D02*
X18371400D01*
X18456039Y2059272D01*
Y2080431D01*
X18434880Y2101591D01*
X18392560D01*
X18371400Y2080431D01*
X18498360D02*
X18519519Y2101591D01*
X18561838D01*
X18582999Y2080431D01*
Y1995792D01*
X18561838Y1974632D01*
X18519519D01*
X18498360Y1995792D01*
Y2080431D01*
X18625317D02*
X18646478Y2101591D01*
X18688797D01*
X18709956Y2080431D01*
Y1995792D01*
X18688797Y1974632D01*
X18646478D01*
X18625317Y1995792D01*
Y2080431D01*
X25254605Y908312D02*
Y1035270D01*
X25318085D01*
X25339244Y1014111D01*
Y971791D01*
X25318085Y950631D01*
X25254605D01*
X25296925D02*
X25339244Y908312D01*
X25381564Y1014111D02*
X25402724Y1035270D01*
X25445042D01*
X25466203Y1014111D01*
Y992951D01*
X25445042Y971791D01*
X25466203Y950631D01*
Y929471D01*
X25445042Y908312D01*
X25402724D01*
X25381564Y929471D01*
Y950631D01*
X25402724Y971791D01*
X25381564Y992951D01*
Y1014111D01*
X25402724Y971791D02*
X25445042D01*
X25508524Y1014111D02*
X25529681Y1035270D01*
X25572002D01*
X25593163Y1014111D01*
Y929471D01*
X25572002Y908312D01*
X25529681D01*
X25508524Y929471D01*
Y1014111D01*
X25720120Y908312D02*
X25635483D01*
X25720120Y992951D01*
Y1014111D01*
X25698962Y1035270D01*
X25656641D01*
X25635483Y1014111D01*
X24629083Y1101591D02*
X24586765D01*
X24607924D01*
Y995792D01*
X24586765Y974632D01*
X24565604D01*
X24544444Y995792D01*
X24671404Y1080431D02*
X24692563Y1101591D01*
X24734883D01*
X24756042Y1080431D01*
Y1059271D01*
X24734883Y1038111D01*
X24756042Y1016951D01*
Y995792D01*
X24734883Y974632D01*
X24692563D01*
X24671404Y995792D01*
Y1016951D01*
X24692563Y1038111D01*
X24671404Y1059271D01*
Y1080431D01*
X24692563Y1038111D02*
X24734883D01*
X24798363Y1080431D02*
X24819522Y1101591D01*
X24861842D01*
X24883002Y1080431D01*
Y995792D01*
X24861842Y974632D01*
X24819522D01*
X24798363Y995792D01*
Y1080431D01*
X25009961Y974632D02*
X24925320D01*
X25009961Y1059271D01*
Y1080431D01*
X24988802Y1101591D01*
X24946481D01*
X24925320Y1080431D01*
X23954604Y908312D02*
Y1035270D01*
X24018085D01*
X24039244Y1014111D01*
Y971791D01*
X24018085Y950631D01*
X23954604D01*
X23996924D02*
X24039244Y908312D01*
X24081563Y1014111D02*
X24102724Y1035270D01*
X24145042D01*
X24166203Y1014111D01*
Y992951D01*
X24145042Y971791D01*
X24166203Y950631D01*
Y929471D01*
X24145042Y908312D01*
X24102724D01*
X24081563Y929471D01*
Y950631D01*
X24102724Y971791D01*
X24081563Y992951D01*
Y1014111D01*
X24102724Y971791D02*
X24145042D01*
X24208522Y1014111D02*
X24229681Y1035270D01*
X24272002D01*
X24293161Y1014111D01*
Y929471D01*
X24272002Y908312D01*
X24229681D01*
X24208522Y929471D01*
Y1014111D01*
X24335481D02*
X24356641Y1035270D01*
X24398959D01*
X24420120Y1014111D01*
Y992951D01*
X24398959Y971791D01*
X24377802D01*
X24398959D01*
X24420120Y950631D01*
Y929471D01*
X24398959Y908312D01*
X24356641D01*
X24335481Y929471D01*
X23429083Y1101591D02*
X23386765D01*
X23407922D01*
Y995792D01*
X23386765Y974632D01*
X23365604D01*
X23344444Y995792D01*
X23471404Y1080431D02*
X23492563Y1101591D01*
X23534882D01*
X23556042Y1080431D01*
Y1059271D01*
X23534882Y1038111D01*
X23556042Y1016951D01*
Y995792D01*
X23534882Y974632D01*
X23492563D01*
X23471404Y995792D01*
Y1016951D01*
X23492563Y1038111D01*
X23471404Y1059271D01*
Y1080431D01*
X23492563Y1038111D02*
X23534882D01*
X23598363Y1080431D02*
X23619521Y1101591D01*
X23661841D01*
X23683002Y1080431D01*
Y995792D01*
X23661841Y974632D01*
X23619521D01*
X23598363Y995792D01*
Y1080431D01*
X23725320D02*
X23746480Y1101591D01*
X23788800D01*
X23809959Y1080431D01*
Y1059271D01*
X23788800Y1038111D01*
X23767641D01*
X23788800D01*
X23809959Y1016951D01*
Y995792D01*
X23788800Y974632D01*
X23746480D01*
X23725320Y995792D01*
X22654604Y908312D02*
Y1035270D01*
X22718083D01*
X22739243Y1014111D01*
Y971791D01*
X22718083Y950631D01*
X22654604D01*
X22696922D02*
X22739243Y908312D01*
X22781563Y1014111D02*
X22802722Y1035270D01*
X22845042D01*
X22866202Y1014111D01*
Y992951D01*
X22845042Y971791D01*
X22866202Y950631D01*
Y929471D01*
X22845042Y908312D01*
X22802722D01*
X22781563Y929471D01*
Y950631D01*
X22802722Y971791D01*
X22781563Y992951D01*
Y1014111D01*
X22802722Y971791D02*
X22845042D01*
X22908521Y1014111D02*
X22929681Y1035270D01*
X22972002D01*
X22993161Y1014111D01*
Y929471D01*
X22972002Y908312D01*
X22929681D01*
X22908521Y929471D01*
Y1014111D01*
X23098959Y908312D02*
Y1035270D01*
X23035480Y971791D01*
X23120120D01*
X22129083Y1101591D02*
X22086763D01*
X22107922D01*
Y995792D01*
X22086763Y974632D01*
X22065604D01*
X22044443Y995792D01*
X22171402Y1080431D02*
X22192561Y1101591D01*
X22234882D01*
X22256042Y1080431D01*
Y1059271D01*
X22234882Y1038111D01*
X22256042Y1016951D01*
Y995792D01*
X22234882Y974632D01*
X22192561D01*
X22171402Y995792D01*
Y1016951D01*
X22192561Y1038111D01*
X22171402Y1059271D01*
Y1080431D01*
X22192561Y1038111D02*
X22234882D01*
X22298361Y1080431D02*
X22319521Y1101591D01*
X22361839D01*
X22383000Y1080431D01*
Y995792D01*
X22361839Y974632D01*
X22319521D01*
X22298361Y995792D01*
Y1080431D01*
X22488799Y974632D02*
Y1101591D01*
X22425320Y1038111D01*
X22509959D01*
X21380003Y1033671D02*
Y906712D01*
X21443481D01*
X21464642Y927871D01*
Y1012511D01*
X21443481Y1033671D01*
X21380003D01*
X21506963Y1012511D02*
X21528122Y1033671D01*
X21570441D01*
X21591602Y1012511D01*
Y991351D01*
X21570441Y970191D01*
X21591602Y949031D01*
Y927871D01*
X21570441Y906712D01*
X21528122D01*
X21506963Y927871D01*
Y949031D01*
X21528122Y970191D01*
X21506963Y991351D01*
Y1012511D01*
X21528122Y970191D02*
X21570441D01*
X21633920Y1012511D02*
X21655080Y1033671D01*
X21697400D01*
X21718559Y1012511D01*
Y927871D01*
X21697400Y906712D01*
X21655080D01*
X21633920Y927871D01*
Y1012511D01*
X21760880D02*
X21782039Y1033671D01*
X21824359D01*
X21845518Y1012511D01*
Y927871D01*
X21824359Y906712D01*
X21782039D01*
X21760880Y927871D01*
Y1012511D01*
X20754604Y908312D02*
Y1035270D01*
X20818082D01*
X20839243Y1014111D01*
Y971791D01*
X20818082Y950631D01*
X20754604D01*
X20796922D02*
X20839243Y908312D01*
X20881561Y1014111D02*
X20902721Y1035270D01*
X20945041D01*
X20966200Y1014111D01*
Y992951D01*
X20945041Y971791D01*
X20966200Y950631D01*
Y929471D01*
X20945041Y908312D01*
X20902721D01*
X20881561Y929471D01*
Y950631D01*
X20902721Y971791D01*
X20881561Y992951D01*
Y1014111D01*
X20902721Y971791D02*
X20945041D01*
X21008521Y1014111D02*
X21029680Y1035270D01*
X21072000D01*
X21093159Y1014111D01*
Y929471D01*
X21072000Y908312D01*
X21029680D01*
X21008521Y929471D01*
Y1014111D01*
X21220119Y1035270D02*
X21135480D01*
Y971791D01*
X21177798Y992951D01*
X21198959D01*
X21220119Y971791D01*
Y929471D01*
X21198959Y908312D01*
X21156639D01*
X21135480Y929471D01*
X20180002Y1033671D02*
Y906712D01*
X20243481D01*
X20264642Y927871D01*
Y1012511D01*
X20243481Y1033671D01*
X20180002D01*
X20306961Y1012511D02*
X20328120Y1033671D01*
X20370441D01*
X20391602Y1012511D01*
Y991351D01*
X20370441Y970191D01*
X20391602Y949031D01*
Y927871D01*
X20370441Y906712D01*
X20328120D01*
X20306961Y927871D01*
Y949031D01*
X20328120Y970191D01*
X20306961Y991351D01*
Y1012511D01*
X20328120Y970191D02*
X20370441D01*
X20433920Y1012511D02*
X20455080Y1033671D01*
X20497398D01*
X20518559Y1012511D01*
Y927871D01*
X20497398Y906712D01*
X20455080D01*
X20433920Y927871D01*
Y1012511D01*
X20560880Y906712D02*
X20603198D01*
X20582039D01*
Y1033671D01*
X20560880Y1012511D01*
X19454602Y908312D02*
Y1035270D01*
X19518082D01*
X19539241Y1014111D01*
Y971791D01*
X19518082Y950631D01*
X19454602D01*
X19496922D02*
X19539241Y908312D01*
X19581561Y1014111D02*
X19602721Y1035270D01*
X19645039D01*
X19666200Y1014111D01*
Y992951D01*
X19645039Y971791D01*
X19666200Y950631D01*
Y929471D01*
X19645039Y908312D01*
X19602721D01*
X19581561Y929471D01*
Y950631D01*
X19602721Y971791D01*
X19581561Y992951D01*
Y1014111D01*
X19602721Y971791D02*
X19645039D01*
X19708521Y1014111D02*
X19729678Y1035270D01*
X19771999D01*
X19793159Y1014111D01*
Y929471D01*
X19771999Y908312D01*
X19729678D01*
X19708521Y929471D01*
Y1014111D01*
X19920119Y1035270D02*
X19877798Y1014111D01*
X19835478Y971791D01*
Y929471D01*
X19856638Y908312D01*
X19898958D01*
X19920119Y929471D01*
Y950631D01*
X19898958Y971791D01*
X19835478D01*
X18880002Y1033671D02*
Y906712D01*
X18943481D01*
X18964641Y927871D01*
Y1012511D01*
X18943481Y1033671D01*
X18880002D01*
X19006960Y1012511D02*
X19028120Y1033671D01*
X19070441D01*
X19091600Y1012511D01*
Y991351D01*
X19070441Y970191D01*
X19091600Y949031D01*
Y927871D01*
X19070441Y906712D01*
X19028120D01*
X19006960Y927871D01*
Y949031D01*
X19028120Y970191D01*
X19006960Y991351D01*
Y1012511D01*
X19028120Y970191D02*
X19070441D01*
X19133919Y1012511D02*
X19155080Y1033671D01*
X19197398D01*
X19218559Y1012511D01*
Y927871D01*
X19197398Y906712D01*
X19155080D01*
X19133919Y927871D01*
Y1012511D01*
X19345518Y906712D02*
X19260878D01*
X19345518Y991351D01*
Y1012511D01*
X19324358Y1033671D01*
X19282037D01*
X19260878Y1012511D01*
X18154601Y908312D02*
Y1035270D01*
X18218082D01*
X18239241Y1014111D01*
Y971791D01*
X18218082Y950631D01*
X18154601D01*
X18196921D02*
X18239241Y908312D01*
X18281560Y1014111D02*
X18302721Y1035270D01*
X18345039D01*
X18366199Y1014111D01*
Y992951D01*
X18345039Y971791D01*
X18366199Y950631D01*
Y929471D01*
X18345039Y908312D01*
X18302721D01*
X18281560Y929471D01*
Y950631D01*
X18302721Y971791D01*
X18281560Y992951D01*
Y1014111D01*
X18302721Y971791D02*
X18345039D01*
X18408519Y1014111D02*
X18429678Y1035270D01*
X18471999D01*
X18493158Y1014111D01*
Y929471D01*
X18471999Y908312D01*
X18429678D01*
X18408519Y929471D01*
Y1014111D01*
X18535478Y1035270D02*
X18620117D01*
Y1014111D01*
X18535478Y929471D01*
Y908312D01*
X3288402Y9563479D02*
Y9436521D01*
X3351882D01*
X3373042Y9457680D01*
Y9542320D01*
X3351882Y9563479D01*
X3288402D01*
X3500000Y9436521D02*
X3415361D01*
X3500000Y9521160D01*
Y9542320D01*
X3478840Y9563479D01*
X3436521D01*
X3415361Y9542320D01*
X3542320D02*
X3563480Y9563479D01*
X3605799D01*
X3626959Y9542320D01*
Y9457680D01*
X3605799Y9436521D01*
X3563480D01*
X3542320Y9457680D01*
Y9542320D01*
X3669279Y9436521D02*
X3711598D01*
X3690438D01*
Y9563479D01*
X3669279Y9542320D01*
X9022258Y11650784D02*
X8996866Y11676176D01*
X8946082D01*
X8920691Y11650784D01*
Y11549217D01*
X8946082Y11523825D01*
X8996866D01*
X9022258Y11549217D01*
X9174609Y11523825D02*
X9073041D01*
X9174609Y11625392D01*
Y11650784D01*
X9149217Y11676176D01*
X9098433D01*
X9073041Y11650784D01*
X9225392D02*
X9250784Y11676176D01*
X9301567D01*
X9326959Y11650784D01*
Y11549217D01*
X9301567Y11523825D01*
X9250784D01*
X9225392Y11549217D01*
Y11650784D01*
X9377743D02*
X9403135Y11676176D01*
X9453918D01*
X9479310Y11650784D01*
Y11625392D01*
X9453918Y11600000D01*
X9428526D01*
X9453918D01*
X9479310Y11574608D01*
Y11549217D01*
X9453918Y11523825D01*
X9403135D01*
X9377743Y11549217D01*
X8223825Y9620690D02*
X8350783D01*
X8376175Y9646082D01*
Y9696866D01*
X8350783Y9722257D01*
X8223825D01*
X8376175Y9874608D02*
Y9773041D01*
X8274608Y9874608D01*
X8249216D01*
X8223825Y9849216D01*
Y9798433D01*
X8249216Y9773041D01*
Y9925392D02*
X8223825Y9950784D01*
Y10001567D01*
X8249216Y10026959D01*
X8350783D01*
X8376175Y10001567D01*
Y9950784D01*
X8350783Y9925392D01*
X8249216D01*
Y10077742D02*
X8223825Y10103134D01*
Y10153918D01*
X8249216Y10179310D01*
X8274608D01*
X8300000Y10153918D01*
Y10128526D01*
Y10153918D01*
X8325392Y10179310D01*
X8350783D01*
X8376175Y10153918D01*
Y10103134D01*
X8350783Y10077742D01*
X8949217Y9720657D02*
X8923825Y9695265D01*
Y9644482D01*
X8949217Y9619090D01*
X9050784D01*
X9076175Y9644482D01*
Y9695265D01*
X9050784Y9720657D01*
X9076175Y9873008D02*
Y9771441D01*
X8974608Y9873008D01*
X8949217D01*
X8923825Y9847616D01*
Y9796833D01*
X8949217Y9771441D01*
Y9923791D02*
X8923825Y9949183D01*
Y9999967D01*
X8949217Y10025359D01*
X9050784D01*
X9076175Y9999967D01*
Y9949183D01*
X9050784Y9923791D01*
X8949217D01*
X9076175Y10177709D02*
Y10076142D01*
X8974608Y10177709D01*
X8949217D01*
X8923825Y10152318D01*
Y10101534D01*
X8949217Y10076142D01*
X6549216Y9620657D02*
X6523824Y9595266D01*
Y9544482D01*
X6549216Y9519090D01*
X6650783D01*
X6676175Y9544482D01*
Y9595266D01*
X6650783Y9620657D01*
X6676175Y9773008D02*
Y9671441D01*
X6574608Y9773008D01*
X6549216D01*
X6523824Y9747616D01*
Y9696833D01*
X6549216Y9671441D01*
Y9823792D02*
X6523824Y9849184D01*
Y9899967D01*
X6549216Y9925359D01*
X6650783D01*
X6676175Y9899967D01*
Y9849184D01*
X6650783Y9823792D01*
X6549216D01*
Y9976142D02*
X6523824Y10001534D01*
Y10052318D01*
X6549216Y10077710D01*
X6574608D01*
X6600000Y10052318D01*
X6625392Y10077710D01*
X6650783D01*
X6676175Y10052318D01*
Y10001534D01*
X6650783Y9976142D01*
X6625392D01*
X6600000Y10001534D01*
X6574608Y9976142D01*
X6549216D01*
X6600000Y10001534D02*
Y10052318D01*
X2473042Y10242320D02*
X2451882Y10263480D01*
X2409562D01*
X2388402Y10242320D01*
Y10157680D01*
X2409562Y10136521D01*
X2451882D01*
X2473042Y10157680D01*
X2600000Y10136521D02*
X2515361D01*
X2600000Y10221160D01*
Y10242320D01*
X2578840Y10263480D01*
X2536521D01*
X2515361Y10242320D01*
X2642320D02*
X2663480Y10263480D01*
X2705799D01*
X2726959Y10242320D01*
Y10157680D01*
X2705799Y10136521D01*
X2663480D01*
X2642320Y10157680D01*
Y10242320D01*
X2769279Y10136521D02*
X2811598D01*
X2790438D01*
Y10263480D01*
X2769279Y10242320D01*
X3251881Y9857680D02*
Y9942320D01*
X3230722Y9963479D01*
X3188402D01*
X3167242Y9942320D01*
Y9857680D01*
X3188402Y9836521D01*
X3230722D01*
X3209562Y9878840D02*
X3251881Y9836521D01*
X3230722D02*
X3251881Y9857680D01*
X3378840Y9836521D02*
X3294201D01*
X3378840Y9921160D01*
Y9942320D01*
X3357680Y9963479D01*
X3315361D01*
X3294201Y9942320D01*
X3421160D02*
X3442320Y9963479D01*
X3484639D01*
X3505799Y9942320D01*
Y9857680D01*
X3484639Y9836521D01*
X3442320D01*
X3421160Y9857680D01*
Y9942320D01*
X3548119D02*
X3569278Y9963479D01*
X3611598D01*
X3632758Y9942320D01*
Y9857680D01*
X3611598Y9836521D01*
X3569278D01*
X3548119Y9857680D01*
Y9942320D01*
X2636520Y10803763D02*
Y10888402D01*
Y10846083D01*
X2763479D01*
Y10930722D02*
X2636520D01*
Y10994201D01*
X2657680Y11015361D01*
X2700000D01*
X2721159Y10994201D01*
Y10930722D01*
X2763479Y11142320D02*
Y11057681D01*
X2678840Y11142320D01*
X2657680D01*
X2636520Y11121160D01*
Y11078840D01*
X2657680Y11057681D01*
Y11184640D02*
X2636520Y11205799D01*
Y11248119D01*
X2657680Y11269279D01*
X2742319D01*
X2763479Y11248119D01*
Y11205799D01*
X2742319Y11184640D01*
X2657680D01*
Y11311598D02*
X2636520Y11332758D01*
Y11375078D01*
X2657680Y11396238D01*
X2742319D01*
X2763479Y11375078D01*
Y11332758D01*
X2742319Y11311598D01*
X2657680D01*
X2236520Y9967242D02*
X2342319D01*
X2363479Y9988402D01*
Y10030722D01*
X2342319Y10051882D01*
X2236520D01*
X2363479Y10178840D02*
Y10094201D01*
X2278839Y10178840D01*
X2257680D01*
X2236520Y10157680D01*
Y10115361D01*
X2257680Y10094201D01*
Y10221160D02*
X2236520Y10242320D01*
Y10284639D01*
X2257680Y10305799D01*
X2342319D01*
X2363479Y10284639D01*
Y10242320D01*
X2342319Y10221160D01*
X2257680D01*
X2236520Y10432758D02*
Y10348119D01*
X2299999D01*
X2278839Y10390438D01*
Y10411598D01*
X2299999Y10432758D01*
X2342319D01*
X2363479Y10411598D01*
Y10369278D01*
X2342319Y10348119D01*
X2963479Y9198982D02*
X2836520D01*
Y9262461D01*
X2857680Y9283621D01*
X2900000D01*
X2921160Y9262461D01*
Y9198982D01*
Y9241301D02*
X2963479Y9283621D01*
Y9410580D02*
Y9325940D01*
X2878840Y9410580D01*
X2857680D01*
X2836520Y9389420D01*
Y9347100D01*
X2857680Y9325940D01*
X2963479Y9452899D02*
Y9495219D01*
Y9474059D01*
X2836520D01*
X2857680Y9452899D01*
X2963479Y9558698D02*
Y9601018D01*
Y9579858D01*
X2836520D01*
X2857680Y9558698D01*
X1663479Y9497062D02*
X1536520D01*
Y9560541D01*
X1557680Y9581701D01*
X1600000D01*
X1621159Y9560541D01*
Y9497062D01*
Y9539381D02*
X1663479Y9581701D01*
Y9708660D02*
Y9624021D01*
X1578840Y9708660D01*
X1557680D01*
X1536520Y9687500D01*
Y9645180D01*
X1557680Y9624021D01*
Y9750979D02*
X1536520Y9772139D01*
Y9814459D01*
X1557680Y9835619D01*
X1642319D01*
X1663479Y9814459D01*
Y9772139D01*
X1642319Y9750979D01*
X1557680D01*
X1663479Y9962578D02*
Y9877938D01*
X1578840Y9962578D01*
X1557680D01*
X1536520Y9941418D01*
Y9899098D01*
X1557680Y9877938D01*
X1957680Y10051882D02*
X1936520Y10030722D01*
Y9988402D01*
X1957680Y9967242D01*
X2042319D01*
X2063479Y9988402D01*
Y10030722D01*
X2042319Y10051882D01*
X2063479Y10178840D02*
Y10094201D01*
X1978840Y10178840D01*
X1957680D01*
X1936520Y10157680D01*
Y10115361D01*
X1957680Y10094201D01*
Y10221160D02*
X1936520Y10242320D01*
Y10284639D01*
X1957680Y10305799D01*
X2042319D01*
X2063479Y10284639D01*
Y10242320D01*
X2042319Y10221160D01*
X1957680D01*
Y10348119D02*
X1936520Y10369278D01*
Y10411598D01*
X1957680Y10432758D01*
X2042319D01*
X2063479Y10411598D01*
Y10369278D01*
X2042319Y10348119D01*
X1957680D01*
X18210481Y660992D02*
Y787950D01*
X18273961D01*
X18295120Y766791D01*
Y724471D01*
X18273961Y703311D01*
X18210481D01*
X18252802D02*
X18295120Y660992D01*
X18422079D02*
X18337440D01*
X18422079Y745631D01*
Y766791D01*
X18400920Y787950D01*
X18358600D01*
X18337440Y766791D01*
X18464400Y660992D02*
X18506718D01*
X18485559D01*
Y787950D01*
X18464400Y766791D01*
X18570198D02*
X18591357Y787950D01*
X18633678D01*
X18654837Y766791D01*
Y682151D01*
X18633678Y660992D01*
X18591357D01*
X18570198Y682151D01*
Y766791D01*
X2054860Y9309059D02*
Y9182100D01*
X2118339D01*
X2139499Y9203260D01*
Y9287899D01*
X2118339Y9309059D01*
X2054860D01*
X2266458Y9182100D02*
X2181819D01*
X2266458Y9266739D01*
Y9287899D01*
X2245298Y9309059D01*
X2202979D01*
X2181819Y9287899D01*
X2308778D02*
X2329937Y9309059D01*
X2372257D01*
X2393417Y9287899D01*
Y9203260D01*
X2372257Y9182100D01*
X2329937D01*
X2308778Y9203260D01*
Y9287899D01*
X2435737D02*
X2456896Y9309059D01*
X2499216D01*
X2520376Y9287899D01*
Y9203260D01*
X2499216Y9182100D01*
X2456896D01*
X2435737Y9203260D01*
Y9287899D01*
X1455420Y9204960D02*
Y9331919D01*
X1518899D01*
X1540059Y9310759D01*
Y9268439D01*
X1518899Y9247280D01*
X1455420D01*
X1497740D02*
X1540059Y9204960D01*
X1667018D02*
X1582379D01*
X1667018Y9289599D01*
Y9310759D01*
X1645858Y9331919D01*
X1603539D01*
X1582379Y9310759D01*
X1709338D02*
X1730497Y9331919D01*
X1772817D01*
X1793977Y9310759D01*
Y9226120D01*
X1772817Y9204960D01*
X1730497D01*
X1709338Y9226120D01*
Y9310759D01*
X1836297D02*
X1857456Y9331919D01*
X1899776D01*
X1920936Y9310759D01*
Y9226120D01*
X1899776Y9204960D01*
X1857456D01*
X1836297Y9226120D01*
Y9310759D01*
X2600960Y9050020D02*
Y9176979D01*
X2664439D01*
X2685599Y9155819D01*
Y9113499D01*
X2664439Y9092340D01*
X2600960D01*
X2643280D02*
X2685599Y9050020D01*
X2812558D02*
X2727919D01*
X2812558Y9134659D01*
Y9155819D01*
X2791398Y9176979D01*
X2749079D01*
X2727919Y9155819D01*
X2854878D02*
X2876037Y9176979D01*
X2918357D01*
X2939517Y9155819D01*
Y9071180D01*
X2918357Y9050020D01*
X2876037D01*
X2854878Y9071180D01*
Y9155819D01*
X2981837Y9071180D02*
X3002996Y9050020D01*
X3045316D01*
X3066476Y9071180D01*
Y9155819D01*
X3045316Y9176979D01*
X3002996D01*
X2981837Y9155819D01*
Y9134659D01*
X3002996Y9113499D01*
X3066476D01*
X3271520Y9050020D02*
Y9176979D01*
X3334999D01*
X3356159Y9155819D01*
Y9113499D01*
X3334999Y9092340D01*
X3271520D01*
X3313840D02*
X3356159Y9050020D01*
X3483118D02*
X3398479D01*
X3483118Y9134659D01*
Y9155819D01*
X3461958Y9176979D01*
X3419639D01*
X3398479Y9155819D01*
X3525438D02*
X3546597Y9176979D01*
X3588917D01*
X3610077Y9155819D01*
Y9071180D01*
X3588917Y9050020D01*
X3546597D01*
X3525438Y9071180D01*
Y9155819D01*
X3652397D02*
X3673556Y9176979D01*
X3715876D01*
X3737036Y9155819D01*
Y9134659D01*
X3715876Y9113499D01*
X3737036Y9092340D01*
Y9071180D01*
X3715876Y9050020D01*
X3673556D01*
X3652397Y9071180D01*
Y9092340D01*
X3673556Y9113499D01*
X3652397Y9134659D01*
Y9155819D01*
X3673556Y9113499D02*
X3715876D01*
X54159Y9100779D02*
X11840D01*
X32999D01*
Y8994980D01*
X11840Y8973820D01*
X-9320D01*
X-30480Y8994980D01*
X96479Y9079619D02*
X117639Y9100779D01*
X159958D01*
X181118Y9079619D01*
Y9058459D01*
X159958Y9037299D01*
X181118Y9016140D01*
Y8994980D01*
X159958Y8973820D01*
X117639D01*
X96479Y8994980D01*
Y9016140D01*
X117639Y9037299D01*
X96479Y9058459D01*
Y9079619D01*
X117639Y9037299D02*
X159958D01*
X223438Y9079619D02*
X244597Y9100779D01*
X286917D01*
X308077Y9079619D01*
Y8994980D01*
X286917Y8973820D01*
X244597D01*
X223438Y8994980D01*
Y9079619D01*
X350397D02*
X371556Y9100779D01*
X413876D01*
X435036Y9079619D01*
Y8994980D01*
X413876Y8973820D01*
X371556D01*
X350397Y8994980D01*
Y9079619D01*
X14732001Y9210040D02*
Y9336999D01*
X14795479D01*
X14816640Y9315839D01*
Y9273519D01*
X14795479Y9252360D01*
X14732001D01*
X14774319D02*
X14816640Y9210040D01*
X14943597D02*
X14858958D01*
X14943597Y9294679D01*
Y9315839D01*
X14922438Y9336999D01*
X14880119D01*
X14858958Y9315839D01*
X14985918Y9210040D02*
X15028236D01*
X15007077D01*
Y9336999D01*
X14985918Y9315839D01*
X15176357Y9210040D02*
X15091718D01*
X15176357Y9294679D01*
Y9315839D01*
X15155196Y9336999D01*
X15112877D01*
X15091718Y9315839D01*
X14330679Y9210040D02*
Y9336999D01*
X14394159D01*
X14415318Y9315839D01*
Y9273519D01*
X14394159Y9252360D01*
X14330679D01*
X14373000D02*
X14415318Y9210040D01*
X14542278D02*
X14457639D01*
X14542278Y9294679D01*
Y9315839D01*
X14521118Y9336999D01*
X14478799D01*
X14457639Y9315839D01*
X14584598Y9210040D02*
X14626917D01*
X14605757D01*
Y9336999D01*
X14584598Y9315839D01*
X14690398D02*
X14711557Y9336999D01*
X14753876D01*
X14775037Y9315839D01*
Y9294679D01*
X14753876Y9273519D01*
X14732716D01*
X14753876D01*
X14775037Y9252360D01*
Y9231200D01*
X14753876Y9210040D01*
X14711557D01*
X14690398Y9231200D01*
X5963920Y3926799D02*
Y3905639D01*
X6006240Y3863319D01*
X6048559Y3905639D01*
Y3926799D01*
X6006240Y3863319D02*
Y3799840D01*
X6090879Y3905639D02*
X6112039Y3926799D01*
X6154358D01*
X6175518Y3905639D01*
Y3884479D01*
X6154358Y3863319D01*
X6133199D01*
X6154358D01*
X6175518Y3842160D01*
Y3821000D01*
X6154358Y3799840D01*
X6112039D01*
X6090879Y3821000D01*
X6217838Y3905639D02*
X6238997Y3926799D01*
X6281317D01*
X6302477Y3905639D01*
Y3821000D01*
X6281317Y3799840D01*
X6238997D01*
X6217838Y3821000D01*
Y3905639D01*
X6344797D02*
X6365956Y3926799D01*
X6408276D01*
X6429436Y3905639D01*
Y3821000D01*
X6408276Y3799840D01*
X6365956D01*
X6344797Y3821000D01*
Y3905639D01*
X6720840Y10497779D02*
Y10476619D01*
X6763160Y10434299D01*
X6805479Y10476619D01*
Y10497779D01*
X6763160Y10434299D02*
Y10370820D01*
X6932438D02*
X6847799D01*
X6932438Y10455459D01*
Y10476619D01*
X6911278Y10497779D01*
X6868959D01*
X6847799Y10476619D01*
X6974758D02*
X6995917Y10497779D01*
X7038237D01*
X7059397Y10476619D01*
Y10391980D01*
X7038237Y10370820D01*
X6995917D01*
X6974758Y10391980D01*
Y10476619D01*
X7101717D02*
X7122876Y10497779D01*
X7165196D01*
X7186356Y10476619D01*
Y10391980D01*
X7165196Y10370820D01*
X7122876D01*
X7101717Y10391980D01*
Y10476619D01*
X15793719Y1457919D02*
Y1352120D01*
X15814880Y1330960D01*
X15857199D01*
X15878358Y1352120D01*
Y1457919D01*
X15920679D02*
X16005318D01*
Y1436759D01*
X15920679Y1352120D01*
Y1330960D01*
X16047638Y1436759D02*
X16068797Y1457919D01*
X16111118D01*
X16132277Y1436759D01*
Y1352120D01*
X16111118Y1330960D01*
X16068797D01*
X16047638Y1352120D01*
Y1436759D01*
X16174597D02*
X16195757Y1457919D01*
X16238075D01*
X16259236Y1436759D01*
Y1352120D01*
X16238075Y1330960D01*
X16195757D01*
X16174597Y1352120D01*
Y1436759D01*
X17404900Y687459D02*
X17383739Y708619D01*
X17341420D01*
X17320261Y687459D01*
Y602820D01*
X17341420Y581660D01*
X17383739D01*
X17404900Y602820D01*
X17447218Y708619D02*
X17531857D01*
Y687459D01*
X17447218Y602820D01*
Y581660D01*
X17574178Y687459D02*
X17595337Y708619D01*
X17637657D01*
X17658817Y687459D01*
Y602820D01*
X17637657Y581660D01*
X17595337D01*
X17574178Y602820D01*
Y687459D01*
X17701137D02*
X17722296Y708619D01*
X17764616D01*
X17785776Y687459D01*
Y602820D01*
X17764616Y581660D01*
X17722296D01*
X17701137Y602820D01*
Y687459D01*
X15664999Y9412359D02*
X15643839Y9433519D01*
X15601520D01*
X15580360Y9412359D01*
Y9327720D01*
X15601520Y9306560D01*
X15643839D01*
X15664999Y9327720D01*
X15707320Y9433519D02*
X15791959D01*
Y9412359D01*
X15707320Y9327720D01*
Y9306560D01*
X15834277Y9412359D02*
X15855437Y9433519D01*
X15897757D01*
X15918916Y9412359D01*
Y9327720D01*
X15897757Y9306560D01*
X15855437D01*
X15834277Y9327720D01*
Y9412359D01*
X16024716Y9306560D02*
Y9433519D01*
X15961237Y9370039D01*
X16045876D01*
X15004599Y8787519D02*
X14983440Y8808679D01*
X14941119D01*
X14919960Y8787519D01*
Y8702880D01*
X14941119Y8681720D01*
X14983440D01*
X15004599Y8702880D01*
X15046919Y8808679D02*
X15131558D01*
Y8787519D01*
X15046919Y8702880D01*
Y8681720D01*
X15173878Y8787519D02*
X15195036Y8808679D01*
X15237357D01*
X15258517Y8787519D01*
Y8702880D01*
X15237357Y8681720D01*
X15195036D01*
X15173878Y8702880D01*
Y8787519D01*
X15300838D02*
X15321996Y8808679D01*
X15364316D01*
X15385477Y8787519D01*
Y8766359D01*
X15364316Y8745199D01*
X15343156D01*
X15364316D01*
X15385477Y8724040D01*
Y8702880D01*
X15364316Y8681720D01*
X15321996D01*
X15300838Y8702880D01*
X15804700Y2351159D02*
X15783539Y2372319D01*
X15741220D01*
X15720061Y2351159D01*
Y2266520D01*
X15741220Y2245360D01*
X15783539D01*
X15804700Y2266520D01*
X15847018Y2372319D02*
X15931657D01*
Y2351159D01*
X15847018Y2266520D01*
Y2245360D01*
X15973978Y2351159D02*
X15995137Y2372319D01*
X16037457D01*
X16058617Y2351159D01*
Y2266520D01*
X16037457Y2245360D01*
X15995137D01*
X15973978Y2266520D01*
Y2351159D01*
X16185576Y2245360D02*
X16100937D01*
X16185576Y2329999D01*
Y2351159D01*
X16164417Y2372319D01*
X16122096D01*
X16100937Y2351159D01*
X16104419Y9486019D02*
X16083260Y9507179D01*
X16040939D01*
X16019780Y9486019D01*
Y9401380D01*
X16040939Y9380220D01*
X16083260D01*
X16104419Y9401380D01*
X16146739Y9507179D02*
X16231378D01*
Y9486019D01*
X16146739Y9401380D01*
Y9380220D01*
X16273698Y9486019D02*
X16294856Y9507179D01*
X16337177D01*
X16358337Y9486019D01*
Y9401380D01*
X16337177Y9380220D01*
X16294856D01*
X16273698Y9401380D01*
Y9486019D01*
X16400658Y9380220D02*
X16442976D01*
X16421815D01*
Y9507179D01*
X16400658Y9486019D01*
X2148840Y68531D02*
X2250407D01*
X2199623D01*
Y-83820D01*
X2301191D02*
Y68531D01*
X2377366D01*
X2402758Y43139D01*
Y-7645D01*
X2377366Y-33037D01*
X2301191D01*
X2453541Y43139D02*
X2478933Y68531D01*
X2529717D01*
X2555109Y43139D01*
Y17747D01*
X2529717Y-7645D01*
X2504325D01*
X2529717D01*
X2555109Y-33037D01*
Y-58428D01*
X2529717Y-83820D01*
X2478933D01*
X2453541Y-58428D01*
X2605892Y43139D02*
X2631284Y68531D01*
X2682068D01*
X2707459Y43139D01*
Y-58428D01*
X2682068Y-83820D01*
X2631284D01*
X2605892Y-58428D01*
Y43139D01*
X2758243D02*
X2783635Y68531D01*
X2834418D01*
X2859810Y43139D01*
Y17747D01*
X2834418Y-7645D01*
X2809026D01*
X2834418D01*
X2859810Y-33037D01*
Y-58428D01*
X2834418Y-83820D01*
X2783635D01*
X2758243Y-58428D01*
X8448040Y-1730449D02*
X8549607D01*
X8498823D01*
Y-1882800D01*
X8600391D02*
Y-1730449D01*
X8676566D01*
X8701958Y-1755841D01*
Y-1806625D01*
X8676566Y-1832016D01*
X8600391D01*
X8752741Y-1755841D02*
X8778133Y-1730449D01*
X8828917D01*
X8854309Y-1755841D01*
Y-1781233D01*
X8828917Y-1806625D01*
X8803525D01*
X8828917D01*
X8854309Y-1832016D01*
Y-1857408D01*
X8828917Y-1882800D01*
X8778133D01*
X8752741Y-1857408D01*
X8905092Y-1755841D02*
X8930484Y-1730449D01*
X8981268D01*
X9006659Y-1755841D01*
Y-1857408D01*
X8981268Y-1882800D01*
X8930484D01*
X8905092Y-1857408D01*
Y-1755841D01*
X9159010Y-1882800D02*
X9057443D01*
X9159010Y-1781233D01*
Y-1755841D01*
X9133618Y-1730449D01*
X9082835D01*
X9057443Y-1755841D01*
X4648200Y68531D02*
X4749767D01*
X4698983D01*
Y-83820D01*
X4800551D02*
Y68531D01*
X4876726D01*
X4902118Y43139D01*
Y-7645D01*
X4876726Y-33037D01*
X4800551D01*
X4952901Y43139D02*
X4978293Y68531D01*
X5029077D01*
X5054469Y43139D01*
Y17747D01*
X5029077Y-7645D01*
X5003685D01*
X5029077D01*
X5054469Y-33037D01*
Y-58428D01*
X5029077Y-83820D01*
X4978293D01*
X4952901Y-58428D01*
X5105252Y43139D02*
X5130644Y68531D01*
X5181428D01*
X5206819Y43139D01*
Y-58428D01*
X5181428Y-83820D01*
X5130644D01*
X5105252Y-58428D01*
Y43139D01*
X5257603Y-83820D02*
X5308386D01*
X5282995D01*
Y68531D01*
X5257603Y43139D01*
X3749040Y68531D02*
X3850607D01*
X3799823D01*
Y-83820D01*
X3901391D02*
Y68531D01*
X3977566D01*
X4002958Y43139D01*
Y-7645D01*
X3977566Y-33037D01*
X3901391D01*
X4053741Y43139D02*
X4079133Y68531D01*
X4129917D01*
X4155309Y43139D01*
Y17747D01*
X4129917Y-7645D01*
X4104525D01*
X4129917D01*
X4155309Y-33037D01*
Y-58428D01*
X4129917Y-83820D01*
X4079133D01*
X4053741Y-58428D01*
X4206092Y43139D02*
X4231484Y68531D01*
X4282268D01*
X4307659Y43139D01*
Y-58428D01*
X4282268Y-83820D01*
X4231484D01*
X4206092Y-58428D01*
Y43139D01*
X4358443D02*
X4383835Y68531D01*
X4434618D01*
X4460010Y43139D01*
Y-58428D01*
X4434618Y-83820D01*
X4383835D01*
X4358443Y-58428D01*
Y43139D01*
X18154601Y2908313D02*
Y3060663D01*
X18230777D01*
X18256168Y3035272D01*
Y2984488D01*
X18230777Y2959096D01*
X18154601D01*
X18205385D02*
X18256168Y2908313D01*
X18383127D02*
Y3060663D01*
X18306952Y2984488D01*
X18408519D01*
X18459303Y3035272D02*
X18484695Y3060663D01*
X18535478D01*
X18560870Y3035272D01*
Y2933705D01*
X18535478Y2908313D01*
X18484695D01*
X18459303Y2933705D01*
Y3035272D01*
X18611653Y2908313D02*
X18662437D01*
X18637045D01*
Y3060663D01*
X18611653Y3035272D01*
X3055620Y-50800D02*
Y101551D01*
X3131795D01*
X3157187Y76159D01*
Y25375D01*
X3131795Y-17D01*
X3055620D01*
X3106403D02*
X3157187Y-50800D01*
X3207971Y76159D02*
X3233363Y101551D01*
X3284146D01*
X3309538Y76159D01*
Y50767D01*
X3284146Y25375D01*
X3258754D01*
X3284146D01*
X3309538Y-17D01*
Y-25408D01*
X3284146Y-50800D01*
X3233363D01*
X3207971Y-25408D01*
X3360321Y76159D02*
X3385713Y101551D01*
X3436497D01*
X3461889Y76159D01*
Y-25408D01*
X3436497Y-50800D01*
X3385713D01*
X3360321Y-25408D01*
Y76159D01*
X3512672D02*
X3538064Y101551D01*
X3588848D01*
X3614239Y76159D01*
Y50767D01*
X3588848Y25375D01*
X3563456D01*
X3588848D01*
X3614239Y-17D01*
Y-25408D01*
X3588848Y-50800D01*
X3538064D01*
X3512672Y-25408D01*
X5455920Y-50800D02*
Y101551D01*
X5532095D01*
X5557487Y76159D01*
Y25375D01*
X5532095Y-17D01*
X5455920D01*
X5506703D02*
X5557487Y-50800D01*
X5608271Y76159D02*
X5633663Y101551D01*
X5684446D01*
X5709838Y76159D01*
Y50767D01*
X5684446Y25375D01*
X5659054D01*
X5684446D01*
X5709838Y-17D01*
Y-25408D01*
X5684446Y-50800D01*
X5633663D01*
X5608271Y-25408D01*
X5760621Y76159D02*
X5786013Y101551D01*
X5836797D01*
X5862189Y76159D01*
Y-25408D01*
X5836797Y-50800D01*
X5786013D01*
X5760621Y-25408D01*
Y76159D01*
X5912972Y-50800D02*
X5963756D01*
X5938364D01*
Y101551D01*
X5912972Y76159D01*
X6080727Y13332419D02*
X6055335Y13357811D01*
X6004552D01*
X5979160Y13332419D01*
Y13230852D01*
X6004552Y13205460D01*
X6055335D01*
X6080727Y13230852D01*
X6233078Y13205460D02*
X6131511D01*
X6233078Y13307027D01*
Y13332419D01*
X6207686Y13357811D01*
X6156903D01*
X6131511Y13332419D01*
X6283861D02*
X6309253Y13357811D01*
X6360037D01*
X6385429Y13332419D01*
Y13230852D01*
X6360037Y13205460D01*
X6309253D01*
X6283861Y13230852D01*
Y13332419D01*
X6537779Y13357811D02*
X6486996Y13332419D01*
X6436212Y13281635D01*
Y13230852D01*
X6461604Y13205460D01*
X6512388D01*
X6537779Y13230852D01*
Y13256242D01*
X6512388Y13281635D01*
X6436212D01*
X7114540Y14477951D02*
X7216107D01*
X7165323D01*
Y14325600D01*
X7266891D02*
Y14477951D01*
X7343066D01*
X7368458Y14452559D01*
Y14401775D01*
X7343066Y14376382D01*
X7266891D01*
X7520809Y14325600D02*
X7419241D01*
X7520809Y14427167D01*
Y14452559D01*
X7495417Y14477951D01*
X7444633D01*
X7419241Y14452559D01*
X7571592D02*
X7596984Y14477951D01*
X7647768D01*
X7673159Y14452559D01*
Y14350992D01*
X7647768Y14325600D01*
X7596984D01*
X7571592Y14350992D01*
Y14452559D01*
X7723943D02*
X7749335Y14477951D01*
X7800118D01*
X7825510Y14452559D01*
Y14427167D01*
X7800118Y14401775D01*
X7825510Y14376382D01*
Y14350992D01*
X7800118Y14325600D01*
X7749335D01*
X7723943Y14350992D01*
Y14376382D01*
X7749335Y14401775D01*
X7723943Y14427167D01*
Y14452559D01*
X7749335Y14401775D02*
X7800118D01*
X6215380Y14477951D02*
X6316947D01*
X6266163D01*
Y14325600D01*
X6367731D02*
Y14477951D01*
X6443906D01*
X6469298Y14452559D01*
Y14401775D01*
X6443906Y14376382D01*
X6367731D01*
X6621649Y14325600D02*
X6520081D01*
X6621649Y14427167D01*
Y14452559D01*
X6596257Y14477951D01*
X6545473D01*
X6520081Y14452559D01*
X6672432D02*
X6697824Y14477951D01*
X6748608D01*
X6773999Y14452559D01*
Y14350992D01*
X6748608Y14325600D01*
X6697824D01*
X6672432Y14350992D01*
Y14452559D01*
X6824783Y14477951D02*
X6926350D01*
Y14452559D01*
X6824783Y14350992D01*
Y14325600D01*
X7114540Y15178992D02*
X7216107D01*
X7165323D01*
Y15026640D01*
X7266891D02*
Y15178992D01*
X7343066D01*
X7368458Y15153600D01*
Y15102815D01*
X7343066Y15077423D01*
X7266891D01*
X7520809Y15026640D02*
X7419241D01*
X7520809Y15128207D01*
Y15153600D01*
X7495417Y15178992D01*
X7444633D01*
X7419241Y15153600D01*
X7571592D02*
X7596984Y15178992D01*
X7647768D01*
X7673159Y15153600D01*
Y15052032D01*
X7647768Y15026640D01*
X7596984D01*
X7571592Y15052032D01*
Y15153600D01*
X7825510Y15178992D02*
X7774726Y15153600D01*
X7723943Y15102815D01*
Y15052032D01*
X7749335Y15026640D01*
X7800118D01*
X7825510Y15052032D01*
Y15077423D01*
X7800118Y15102815D01*
X7723943D01*
X6215380Y15178992D02*
X6316947D01*
X6266163D01*
Y15026640D01*
X6367731D02*
Y15178992D01*
X6443906D01*
X6469298Y15153600D01*
Y15102815D01*
X6443906Y15077423D01*
X6367731D01*
X6621649Y15026640D02*
X6520081D01*
X6621649Y15128207D01*
Y15153600D01*
X6596257Y15178992D01*
X6545473D01*
X6520081Y15153600D01*
X6672432D02*
X6697824Y15178992D01*
X6748608D01*
X6773999Y15153600D01*
Y15052032D01*
X6748608Y15026640D01*
X6697824D01*
X6672432Y15052032D01*
Y15153600D01*
X6926350Y15178992D02*
X6824783D01*
Y15102815D01*
X6875566Y15128207D01*
X6900958D01*
X6926350Y15102815D01*
Y15052032D01*
X6900958Y15026640D01*
X6850175D01*
X6824783Y15052032D01*
X7914640Y14477951D02*
X8016207D01*
X7965423D01*
Y14325600D01*
X8066991D02*
Y14477951D01*
X8143166D01*
X8168558Y14452559D01*
Y14401775D01*
X8143166Y14376382D01*
X8066991D01*
X8320909Y14325600D02*
X8219341D01*
X8320909Y14427167D01*
Y14452559D01*
X8295517Y14477951D01*
X8244733D01*
X8219341Y14452559D01*
X8371692D02*
X8397084Y14477951D01*
X8447868D01*
X8473259Y14452559D01*
Y14350992D01*
X8447868Y14325600D01*
X8397084D01*
X8371692Y14350992D01*
Y14452559D01*
X8600218Y14325600D02*
Y14477951D01*
X8524043Y14401775D01*
X8625610D01*
X10416540Y14378891D02*
X10518107D01*
X10467323D01*
Y14226540D01*
X10568891D02*
Y14378891D01*
X10645066D01*
X10670458Y14353499D01*
Y14302715D01*
X10645066Y14277322D01*
X10568891D01*
X10822809Y14226540D02*
X10721241D01*
X10822809Y14328107D01*
Y14353499D01*
X10797417Y14378891D01*
X10746633D01*
X10721241Y14353499D01*
X10873592D02*
X10898984Y14378891D01*
X10949768D01*
X10975159Y14353499D01*
Y14251932D01*
X10949768Y14226540D01*
X10898984D01*
X10873592Y14251932D01*
Y14353499D01*
X11025943D02*
X11051335Y14378891D01*
X11102118D01*
X11127510Y14353499D01*
Y14328107D01*
X11102118Y14302715D01*
X11076726D01*
X11102118D01*
X11127510Y14277322D01*
Y14251932D01*
X11102118Y14226540D01*
X11051335D01*
X11025943Y14251932D01*
X11315700Y14378891D02*
X11417267D01*
X11366483D01*
Y14226540D01*
X11468051D02*
Y14378891D01*
X11544226D01*
X11569618Y14353499D01*
Y14302715D01*
X11544226Y14277322D01*
X11468051D01*
X11721969Y14226540D02*
X11620401D01*
X11721969Y14328107D01*
Y14353499D01*
X11696577Y14378891D01*
X11645793D01*
X11620401Y14353499D01*
X11772752D02*
X11798144Y14378891D01*
X11848928D01*
X11874319Y14353499D01*
Y14251932D01*
X11848928Y14226540D01*
X11798144D01*
X11772752Y14251932D01*
Y14353499D01*
X12026670Y14226540D02*
X11925103D01*
X12026670Y14328107D01*
Y14353499D01*
X12001278Y14378891D01*
X11950495D01*
X11925103Y14353499D01*
X4874260Y13738811D02*
X4975827D01*
X4925043D01*
Y13586459D01*
X5026611D02*
Y13738811D01*
X5102786D01*
X5128178Y13713419D01*
Y13662634D01*
X5102786Y13637244D01*
X5026611D01*
X5280529Y13586459D02*
X5178961D01*
X5280529Y13688026D01*
Y13713419D01*
X5255137Y13738811D01*
X5204353D01*
X5178961Y13713419D01*
X5331312D02*
X5356704Y13738811D01*
X5407488D01*
X5432879Y13713419D01*
Y13611852D01*
X5407488Y13586459D01*
X5356704D01*
X5331312Y13611852D01*
Y13713419D01*
X5483663Y13586459D02*
X5534446D01*
X5509055D01*
Y13738811D01*
X5483663Y13713419D01*
X5554980Y-1951380D02*
Y-1799029D01*
X5631155D01*
X5656547Y-1824421D01*
Y-1875205D01*
X5631155Y-1900596D01*
X5554980D01*
X5605763D02*
X5656547Y-1951380D01*
X5707331Y-1824421D02*
X5732723Y-1799029D01*
X5783506D01*
X5808898Y-1824421D01*
Y-1849813D01*
X5783506Y-1875205D01*
X5758114D01*
X5783506D01*
X5808898Y-1900596D01*
Y-1925988D01*
X5783506Y-1951380D01*
X5732723D01*
X5707331Y-1925988D01*
X5859681Y-1824421D02*
X5885073Y-1799029D01*
X5935857D01*
X5961249Y-1824421D01*
Y-1925988D01*
X5935857Y-1951380D01*
X5885073D01*
X5859681Y-1925988D01*
Y-1824421D01*
X6113599Y-1799029D02*
X6012032D01*
Y-1875205D01*
X6062816Y-1849813D01*
X6088208D01*
X6113599Y-1875205D01*
Y-1925988D01*
X6088208Y-1951380D01*
X6037424D01*
X6012032Y-1925988D01*
X6995160Y-1054100D02*
Y-901749D01*
X7071335D01*
X7096727Y-927141D01*
Y-977925D01*
X7071335Y-1003317D01*
X6995160D01*
X7045943D02*
X7096727Y-1054100D01*
X7147511Y-927141D02*
X7172903Y-901749D01*
X7223686D01*
X7249078Y-927141D01*
Y-952533D01*
X7223686Y-977925D01*
X7198294D01*
X7223686D01*
X7249078Y-1003317D01*
Y-1028708D01*
X7223686Y-1054100D01*
X7172903D01*
X7147511Y-1028708D01*
X7299861Y-927141D02*
X7325253Y-901749D01*
X7376037D01*
X7401429Y-927141D01*
Y-1028708D01*
X7376037Y-1054100D01*
X7325253D01*
X7299861Y-1028708D01*
Y-927141D01*
X7553779Y-1054100D02*
X7452212D01*
X7553779Y-952533D01*
Y-927141D01*
X7528388Y-901749D01*
X7477604D01*
X7452212Y-927141D01*
X6355080Y-1951380D02*
Y-1799029D01*
X6431255D01*
X6456647Y-1824421D01*
Y-1875205D01*
X6431255Y-1900596D01*
X6355080D01*
X6405863D02*
X6456647Y-1951380D01*
X6507431Y-1824421D02*
X6532823Y-1799029D01*
X6583606D01*
X6608998Y-1824421D01*
Y-1849813D01*
X6583606Y-1875205D01*
X6558214D01*
X6583606D01*
X6608998Y-1900596D01*
Y-1925988D01*
X6583606Y-1951380D01*
X6532823D01*
X6507431Y-1925988D01*
X6659781Y-1824421D02*
X6685173Y-1799029D01*
X6735957D01*
X6761349Y-1824421D01*
Y-1925988D01*
X6735957Y-1951380D01*
X6685173D01*
X6659781Y-1925988D01*
Y-1824421D01*
X6888308Y-1951380D02*
Y-1799029D01*
X6812132Y-1875205D01*
X6913699D01*
X7696200Y-1282700D02*
Y-1130349D01*
X7772375D01*
X7797767Y-1155741D01*
Y-1206525D01*
X7772375Y-1231917D01*
X7696200D01*
X7746983D02*
X7797767Y-1282700D01*
X7848551Y-1155741D02*
X7873943Y-1130349D01*
X7924726D01*
X7950118Y-1155741D01*
Y-1181133D01*
X7924726Y-1206525D01*
X7899334D01*
X7924726D01*
X7950118Y-1231917D01*
Y-1257308D01*
X7924726Y-1282700D01*
X7873943D01*
X7848551Y-1257308D01*
X8000901Y-1155741D02*
X8026293Y-1130349D01*
X8077077D01*
X8102469Y-1155741D01*
Y-1257308D01*
X8077077Y-1282700D01*
X8026293D01*
X8000901Y-1257308D01*
Y-1155741D01*
X8153252D02*
X8178644Y-1130349D01*
X8229428D01*
X8254819Y-1155741D01*
Y-1257308D01*
X8229428Y-1282700D01*
X8178644D01*
X8153252Y-1257308D01*
Y-1155741D01*
X5095240Y13119099D02*
Y13271451D01*
X5171415D01*
X5196807Y13246059D01*
Y13195274D01*
X5171415Y13169884D01*
X5095240D01*
X5146023D02*
X5196807Y13119099D01*
X5349158D02*
X5247591D01*
X5349158Y13220667D01*
Y13246059D01*
X5323766Y13271451D01*
X5272983D01*
X5247591Y13246059D01*
X5399941D02*
X5425333Y13271451D01*
X5476117D01*
X5501509Y13246059D01*
Y13144492D01*
X5476117Y13119099D01*
X5425333D01*
X5399941Y13144492D01*
Y13246059D01*
X5552292Y13271451D02*
X5653859D01*
Y13246059D01*
X5552292Y13144492D01*
Y13119099D01*
X11155680Y13307060D02*
Y13459412D01*
X11231855D01*
X11257247Y13434019D01*
Y13383235D01*
X11231855Y13357843D01*
X11155680D01*
X11206463D02*
X11257247Y13307060D01*
X11409598D02*
X11308031D01*
X11409598Y13408627D01*
Y13434019D01*
X11384206Y13459412D01*
X11333423D01*
X11308031Y13434019D01*
X11460381D02*
X11485773Y13459412D01*
X11536557D01*
X11561949Y13434019D01*
Y13332452D01*
X11536557Y13307060D01*
X11485773D01*
X11460381Y13332452D01*
Y13434019D01*
X11688908Y13307060D02*
Y13459412D01*
X11612732Y13383235D01*
X11714299D01*
X19174460Y3505151D02*
Y3352800D01*
X19276027D01*
X19402986D02*
Y3505151D01*
X19326811Y3428975D01*
X19428378D01*
X19479161Y3479759D02*
X19504553Y3505151D01*
X19555338D01*
X19580730Y3479759D01*
Y3378192D01*
X19555338Y3352800D01*
X19504553D01*
X19479161Y3378192D01*
Y3479759D01*
X19631512D02*
X19656905Y3505151D01*
X19707687D01*
X19733080Y3479759D01*
Y3378192D01*
X19707687Y3352800D01*
X19656905D01*
X19631512Y3378192D01*
Y3479759D01*
X18346008Y4526984D02*
X18295226D01*
X18320618D01*
Y4400025D01*
X18295226Y4374634D01*
X18269833D01*
X18244441Y4400025D01*
X18396793Y4526984D02*
X18498360D01*
Y4501592D01*
X18396793Y4400025D01*
Y4374634D01*
X18549142Y4501592D02*
X18574535Y4526984D01*
X18625317D01*
X18650710Y4501592D01*
Y4400025D01*
X18625317Y4374634D01*
X18574535D01*
X18549142Y4400025D01*
Y4501592D01*
X18701492D02*
X18726884Y4526984D01*
X18777669D01*
X18803061Y4501592D01*
Y4400025D01*
X18777669Y4374634D01*
X18726884D01*
X18701492Y4400025D01*
Y4501592D01*
X20187888Y4168091D02*
X20137103D01*
X20162495D01*
Y4041132D01*
X20137103Y4015740D01*
X20111713D01*
X20086320Y4041132D01*
X20314845Y4015740D02*
Y4168091D01*
X20238670Y4091915D01*
X20340237D01*
X20391022Y4142699D02*
X20416412Y4168091D01*
X20467197D01*
X20492589Y4142699D01*
Y4041132D01*
X20467197Y4015740D01*
X20416412D01*
X20391022Y4041132D01*
Y4142699D01*
X20543372Y4015740D02*
X20594156D01*
X20568764D01*
Y4168091D01*
X20543372Y4142699D01*
X8133047Y11267391D02*
X8082263D01*
X8107655D01*
Y11140432D01*
X8082263Y11115040D01*
X8056872D01*
X8031480Y11140432D01*
X8285398Y11115040D02*
X8183831D01*
X8285398Y11216607D01*
Y11241999D01*
X8260006Y11267391D01*
X8209223D01*
X8183831Y11241999D01*
X8336181D02*
X8361573Y11267391D01*
X8412357D01*
X8437749Y11241999D01*
Y11140432D01*
X8412357Y11115040D01*
X8361573D01*
X8336181Y11140432D01*
Y11241999D01*
X8590099Y11115040D02*
X8488532D01*
X8590099Y11216607D01*
Y11241999D01*
X8564708Y11267391D01*
X8513924D01*
X8488532Y11241999D01*
X16261079Y6664911D02*
Y6537952D01*
X16286472Y6512560D01*
X16337254D01*
X16362646Y6537952D01*
Y6664911D01*
X16489606Y6512560D02*
Y6664911D01*
X16413431Y6588735D01*
X16514998D01*
X16565781Y6639519D02*
X16591173Y6664911D01*
X16641957D01*
X16667349Y6639519D01*
Y6537952D01*
X16641957Y6512560D01*
X16591173D01*
X16565781Y6537952D01*
Y6639519D01*
X16718132D02*
X16743524Y6664911D01*
X16794308D01*
X16819699Y6639519D01*
Y6537952D01*
X16794308Y6512560D01*
X16743524D01*
X16718132Y6537952D01*
Y6639519D01*
X9387807Y12722811D02*
X9337023D01*
X9362415D01*
Y12595852D01*
X9337023Y12570460D01*
X9311632D01*
X9286240Y12595852D01*
X9540158Y12570460D02*
X9438591D01*
X9540158Y12672027D01*
Y12697419D01*
X9514766Y12722811D01*
X9463983D01*
X9438591Y12697419D01*
X9590941D02*
X9616333Y12722811D01*
X9667117D01*
X9692509Y12697419D01*
Y12595852D01*
X9667117Y12570460D01*
X9616333D01*
X9590941Y12595852D01*
Y12697419D01*
X9743292D02*
X9768684Y12722811D01*
X9819468D01*
X9844859Y12697419D01*
Y12672027D01*
X9819468Y12646635D01*
X9794076D01*
X9819468D01*
X9844859Y12621243D01*
Y12595852D01*
X9819468Y12570460D01*
X9768684D01*
X9743292Y12595852D01*
X9788147Y12422191D02*
X9737364D01*
X9762755D01*
Y12295232D01*
X9737364Y12269840D01*
X9711972D01*
X9686580Y12295232D01*
X9940498Y12269840D02*
X9838931D01*
X9940498Y12371407D01*
Y12396799D01*
X9915106Y12422191D01*
X9864323D01*
X9838931Y12396799D01*
X9991282D02*
X10016673Y12422191D01*
X10067457D01*
X10092849Y12396799D01*
Y12295232D01*
X10067457Y12269840D01*
X10016673D01*
X9991282Y12295232D01*
Y12396799D01*
X10143632Y12269840D02*
X10194416D01*
X10169024D01*
Y12422191D01*
X10143632Y12396799D01*
X15687007Y5123131D02*
X15636223D01*
X15661615D01*
Y4996172D01*
X15636223Y4970780D01*
X15610832D01*
X15585440Y4996172D01*
X15813966Y4970780D02*
Y5123131D01*
X15737791Y5046955D01*
X15839359D01*
X15890141Y5097739D02*
X15915533Y5123131D01*
X15966318D01*
X15991708Y5097739D01*
Y4996172D01*
X15966318Y4970780D01*
X15915533D01*
X15890141Y4996172D01*
Y5097739D01*
X16042493D02*
X16067883Y5123131D01*
X16118668D01*
X16144060Y5097739D01*
Y4996172D01*
X16118668Y4970780D01*
X16067883D01*
X16042493Y4996172D01*
Y5097739D01*
X7857780Y12617771D02*
Y12490812D01*
X7883172Y12465420D01*
X7933955D01*
X7959347Y12490812D01*
Y12617771D01*
X8111698Y12465420D02*
X8010131D01*
X8111698Y12566987D01*
Y12592379D01*
X8086306Y12617771D01*
X8035523D01*
X8010131Y12592379D01*
X8162482D02*
X8187873Y12617771D01*
X8238657D01*
X8264049Y12592379D01*
Y12490812D01*
X8238657Y12465420D01*
X8187873D01*
X8162482Y12490812D01*
Y12592379D01*
X8391008Y12465420D02*
Y12617771D01*
X8314832Y12541595D01*
X8416399D01*
X6151880Y12666931D02*
Y12539972D01*
X6177272Y12514580D01*
X6228055D01*
X6253447Y12539972D01*
Y12666931D01*
X6405798Y12514580D02*
X6304231D01*
X6405798Y12616147D01*
Y12641539D01*
X6380406Y12666931D01*
X6329623D01*
X6304231Y12641539D01*
X6456581D02*
X6481973Y12666931D01*
X6532757D01*
X6558149Y12641539D01*
Y12539972D01*
X6532757Y12514580D01*
X6481973D01*
X6456581Y12539972D01*
Y12641539D01*
X6710499Y12514580D02*
X6608932D01*
X6710499Y12616147D01*
Y12641539D01*
X6685108Y12666931D01*
X6634324D01*
X6608932Y12641539D01*
X8454680Y12500931D02*
Y12373972D01*
X8480072Y12348580D01*
X8530855D01*
X8556247Y12373972D01*
Y12500931D01*
X8708598Y12348580D02*
X8607031D01*
X8708598Y12450147D01*
Y12475539D01*
X8683206Y12500931D01*
X8632423D01*
X8607031Y12475539D01*
X8759382D02*
X8784773Y12500931D01*
X8835557D01*
X8860949Y12475539D01*
Y12373972D01*
X8835557Y12348580D01*
X8784773D01*
X8759382Y12373972D01*
Y12475539D01*
X8911732Y12348580D02*
X8962516D01*
X8937124D01*
Y12500931D01*
X8911732Y12475539D01*
X15796260Y-980440D02*
Y-828089D01*
X15872435D01*
X15897827Y-853481D01*
Y-904265D01*
X15872435Y-929657D01*
X15796260D01*
X15847043D02*
X15897827Y-980440D01*
X15948611Y-853481D02*
X15974004Y-828089D01*
X16024786D01*
X16050179Y-853481D01*
Y-878873D01*
X16024786Y-904265D01*
X16050179Y-929657D01*
Y-955048D01*
X16024786Y-980440D01*
X15974004D01*
X15948611Y-955048D01*
Y-929657D01*
X15974004Y-904265D01*
X15948611Y-878873D01*
Y-853481D01*
X15974004Y-904265D02*
X16024786D01*
X16100961Y-853481D02*
X16126353Y-828089D01*
X16177138D01*
X16202528Y-853481D01*
Y-955048D01*
X16177138Y-980440D01*
X16126353D01*
X16100961Y-955048D01*
Y-853481D01*
X16253313Y-980440D02*
X16304095D01*
X16278703D01*
Y-828089D01*
X16253313Y-853481D01*
X14897099Y-980440D02*
Y-828089D01*
X14973276D01*
X14998666Y-853481D01*
Y-904265D01*
X14973276Y-929657D01*
X14897099D01*
X14947884D02*
X14998666Y-980440D01*
X15049451Y-853481D02*
X15074843Y-828089D01*
X15125626D01*
X15151018Y-853481D01*
Y-878873D01*
X15125626Y-904265D01*
X15151018Y-929657D01*
Y-955048D01*
X15125626Y-980440D01*
X15074843D01*
X15049451Y-955048D01*
Y-929657D01*
X15074843Y-904265D01*
X15049451Y-878873D01*
Y-853481D01*
X15074843Y-904265D02*
X15125626D01*
X15201801Y-853481D02*
X15227193Y-828089D01*
X15277977D01*
X15303369Y-853481D01*
Y-955048D01*
X15277977Y-980440D01*
X15227193D01*
X15201801Y-955048D01*
Y-853481D01*
X15354152D02*
X15379544Y-828089D01*
X15430328D01*
X15455719Y-853481D01*
Y-955048D01*
X15430328Y-980440D01*
X15379544D01*
X15354152Y-955048D01*
Y-853481D01*
X6126447Y17731D02*
X6075663D01*
X6101055D01*
Y-109228D01*
X6075663Y-134620D01*
X6050272D01*
X6024880Y-109228D01*
X6177231Y-7661D02*
X6202623Y17731D01*
X6253406D01*
X6278798Y-7661D01*
Y-33053D01*
X6253406Y-58445D01*
X6278798Y-83837D01*
Y-109228D01*
X6253406Y-134620D01*
X6202623D01*
X6177231Y-109228D01*
Y-83837D01*
X6202623Y-58445D01*
X6177231Y-33053D01*
Y-7661D01*
X6202623Y-58445D02*
X6253406D01*
X6329581Y-7661D02*
X6354973Y17731D01*
X6405757D01*
X6431149Y-7661D01*
Y-109228D01*
X6405757Y-134620D01*
X6354973D01*
X6329581Y-109228D01*
Y-7661D01*
X6481932Y-134620D02*
X6532716D01*
X6507324D01*
Y17731D01*
X6481932Y-7661D01*
X15737807Y6403291D02*
X15687022D01*
X15712415D01*
Y6276332D01*
X15687022Y6250940D01*
X15661632D01*
X15636240Y6276332D01*
X15864766Y6250940D02*
Y6403291D01*
X15788591Y6327115D01*
X15890158D01*
X15940941Y6377899D02*
X15966333Y6403291D01*
X16017117D01*
X16042509Y6377899D01*
Y6276332D01*
X16017117Y6250940D01*
X15966333D01*
X15940941Y6276332D01*
Y6377899D01*
X16194859Y6250940D02*
X16093292D01*
X16194859Y6352507D01*
Y6377899D01*
X16169469Y6403291D01*
X16118684D01*
X16093292Y6377899D01*
X15420691Y3776175D02*
Y3623825D01*
X15496866D01*
X15522258Y3649216D01*
Y3750783D01*
X15496866Y3776175D01*
X15420691D01*
X15649217Y3623825D02*
Y3776175D01*
X15573041Y3700000D01*
X15674608D01*
X15725392Y3750783D02*
X15750784Y3776175D01*
X15801567D01*
X15826959Y3750783D01*
Y3649216D01*
X15801567Y3623825D01*
X15750784D01*
X15725392Y3649216D01*
Y3750783D01*
X15979311Y3623825D02*
X15877744D01*
X15979311Y3725392D01*
Y3750783D01*
X15953918Y3776175D01*
X15903136D01*
X15877744Y3750783D01*
X15446082Y4176175D02*
Y4023825D01*
X15522258D01*
X15547650Y4049216D01*
Y4150783D01*
X15522258Y4176175D01*
X15446082D01*
X15674608Y4023825D02*
Y4176175D01*
X15598433Y4100000D01*
X15700000D01*
X15750784Y4150783D02*
X15776176Y4176175D01*
X15826959D01*
X15852351Y4150783D01*
Y4049216D01*
X15826959Y4023825D01*
X15776176D01*
X15750784Y4049216D01*
Y4150783D01*
X15903136Y4023825D02*
X15953918D01*
X15928526D01*
Y4176175D01*
X15903136Y4150783D01*
X2034795Y4011128D02*
X2085579D01*
X2060187D01*
Y4138087D01*
X2085579Y4163479D01*
X2110970D01*
X2136362Y4138087D01*
X1882444Y4011128D02*
X1933228Y4036520D01*
X1984011Y4087303D01*
Y4138087D01*
X1958619Y4163479D01*
X1907836D01*
X1882444Y4138087D01*
Y4112695D01*
X1907836Y4087303D01*
X1984011D01*
X1831661Y4036520D02*
X1806269Y4011128D01*
X1755485D01*
X1730093Y4036520D01*
Y4138087D01*
X1755485Y4163479D01*
X1806269D01*
X1831661Y4138087D01*
Y4036520D01*
X1679310D02*
X1653918Y4011128D01*
X1603134D01*
X1577743Y4036520D01*
Y4138087D01*
X1603134Y4163479D01*
X1653918D01*
X1679310Y4138087D01*
Y4036520D01*
X1526959Y4188871D02*
X1425392D01*
X1374608Y4011128D02*
X1273041D01*
X1323825D01*
Y4163479D01*
X1120690Y4011128D02*
X1222258D01*
Y4163479D01*
X1120690D01*
X1222258Y4087303D02*
X1171474D01*
X1069907Y4163479D02*
Y4011128D01*
X1019123Y4061912D01*
X968340Y4011128D01*
Y4163479D01*
X917556D02*
Y4011128D01*
X841381D01*
X815989Y4036520D01*
Y4087303D01*
X841381Y4112695D01*
X917556D01*
X689030Y4163479D02*
Y4011128D01*
X765205Y4087303D01*
X663638D01*
X2004782Y3301164D02*
X2055565D01*
X2030173D01*
Y3428123D01*
X2055565Y3453515D01*
X2080957D01*
X2106349Y3428123D01*
X1852431Y3301164D02*
X1903215Y3326556D01*
X1953998Y3377339D01*
Y3428123D01*
X1928606Y3453515D01*
X1877823D01*
X1852431Y3428123D01*
Y3402731D01*
X1877823Y3377339D01*
X1953998D01*
X1801647Y3326556D02*
X1776256Y3301164D01*
X1725472D01*
X1700080Y3326556D01*
Y3428123D01*
X1725472Y3453515D01*
X1776256D01*
X1801647Y3428123D01*
Y3326556D01*
X1649297D02*
X1623905Y3301164D01*
X1573121D01*
X1547729Y3326556D01*
Y3428123D01*
X1573121Y3453515D01*
X1623905D01*
X1649297Y3428123D01*
Y3326556D01*
X1496946Y3478907D02*
X1395379D01*
X1344595Y3301164D02*
X1243028D01*
X1293812D01*
Y3453515D01*
X1090677Y3301164D02*
X1192245D01*
Y3453515D01*
X1090677D01*
X1192245Y3377339D02*
X1141461D01*
X1039894Y3453515D02*
Y3301164D01*
X989110Y3351948D01*
X938327Y3301164D01*
Y3453515D01*
X887543D02*
Y3301164D01*
X811368D01*
X785976Y3326556D01*
Y3377339D01*
X811368Y3402731D01*
X887543D01*
X735192Y3326556D02*
X709800Y3301164D01*
X659017D01*
X633625Y3326556D01*
Y3351948D01*
X659017Y3377339D01*
X684409D01*
X659017D01*
X633625Y3402731D01*
Y3428123D01*
X659017Y3453515D01*
X709800D01*
X735192Y3428123D01*
X2024785Y4751164D02*
X2075568D01*
X2050176D01*
Y4878123D01*
X2075568Y4903515D01*
X2100960D01*
X2126352Y4878123D01*
X1872434Y4751164D02*
X1923218Y4776556D01*
X1974001Y4827340D01*
Y4878123D01*
X1948609Y4903515D01*
X1897826D01*
X1872434Y4878123D01*
Y4852731D01*
X1897826Y4827340D01*
X1974001D01*
X1821650Y4776556D02*
X1796259Y4751164D01*
X1745475D01*
X1720083Y4776556D01*
Y4878123D01*
X1745475Y4903515D01*
X1796259D01*
X1821650Y4878123D01*
Y4776556D01*
X1669300D02*
X1643908Y4751164D01*
X1593124D01*
X1567732Y4776556D01*
Y4878123D01*
X1593124Y4903515D01*
X1643908D01*
X1669300Y4878123D01*
Y4776556D01*
X1516949Y4928907D02*
X1415382D01*
X1364598Y4751164D02*
X1263031D01*
X1313815D01*
Y4903515D01*
X1110680Y4751164D02*
X1212248D01*
Y4903515D01*
X1110680D01*
X1212248Y4827340D02*
X1161464D01*
X1059897Y4903515D02*
Y4751164D01*
X1009113Y4801948D01*
X958330Y4751164D01*
Y4903515D01*
X907546D02*
Y4751164D01*
X831371D01*
X805979Y4776556D01*
Y4827340D01*
X831371Y4852731D01*
X907546D01*
X653628Y4903515D02*
X755195D01*
X653628Y4801948D01*
Y4776556D01*
X679020Y4751164D01*
X729803D01*
X755195Y4776556D01*
X1983403Y2441128D02*
X2034187D01*
X2008795D01*
Y2568087D01*
X2034187Y2593479D01*
X2059578D01*
X2084970Y2568087D01*
X1831052Y2441128D02*
X1881836Y2466520D01*
X1932619Y2517304D01*
Y2568087D01*
X1907228Y2593479D01*
X1856444D01*
X1831052Y2568087D01*
Y2542695D01*
X1856444Y2517304D01*
X1932619D01*
X1780269Y2466520D02*
X1754877Y2441128D01*
X1704093D01*
X1678701Y2466520D01*
Y2568087D01*
X1704093Y2593479D01*
X1754877D01*
X1780269Y2568087D01*
Y2466520D01*
X1627918D02*
X1602526Y2441128D01*
X1551743D01*
X1526351Y2466520D01*
Y2568087D01*
X1551743Y2593479D01*
X1602526D01*
X1627918Y2568087D01*
Y2466520D01*
X1475567Y2618871D02*
X1374000D01*
X1323217Y2441128D02*
X1221649D01*
X1272433D01*
Y2593479D01*
X1069299Y2441128D02*
X1170866D01*
Y2593479D01*
X1069299D01*
X1170866Y2517304D02*
X1120082D01*
X1018515Y2593479D02*
Y2441128D01*
X967732Y2491912D01*
X916948Y2441128D01*
Y2593479D01*
X866164D02*
Y2441128D01*
X789989D01*
X764597Y2466520D01*
Y2517304D01*
X789989Y2542695D01*
X866164D01*
X713814Y2593479D02*
X663030D01*
X688422D01*
Y2441128D01*
X713814Y2466520D01*
X6050280Y11760200D02*
Y11912551D01*
X6126455D01*
X6151847Y11887159D01*
Y11836375D01*
X6126455Y11810983D01*
X6050280D01*
X6101063D02*
X6151847Y11760200D01*
X6304198D02*
X6202631D01*
X6304198Y11861767D01*
Y11887159D01*
X6278806Y11912551D01*
X6228023D01*
X6202631Y11887159D01*
X6354981D02*
X6380373Y11912551D01*
X6431157D01*
X6456549Y11887159D01*
Y11785592D01*
X6431157Y11760200D01*
X6380373D01*
X6354981Y11785592D01*
Y11887159D01*
X6608899Y11912551D02*
X6558116Y11887159D01*
X6507332Y11836375D01*
Y11785592D01*
X6532724Y11760200D01*
X6583508D01*
X6608899Y11785592D01*
Y11810983D01*
X6583508Y11836375D01*
X6507332D01*
X8394700Y9418320D02*
Y9570671D01*
X8470875D01*
X8496267Y9545279D01*
Y9494495D01*
X8470875Y9469103D01*
X8394700D01*
X8445483D02*
X8496267Y9418320D01*
X8648618D02*
X8547051D01*
X8648618Y9519887D01*
Y9545279D01*
X8623226Y9570671D01*
X8572443D01*
X8547051Y9545279D01*
X8699401D02*
X8724793Y9570671D01*
X8775577D01*
X8800969Y9545279D01*
Y9443712D01*
X8775577Y9418320D01*
X8724793D01*
X8699401Y9443712D01*
Y9545279D01*
X8851752Y9418320D02*
X8902536D01*
X8877144D01*
Y9570671D01*
X8851752Y9545279D01*
X6771607Y12453579D02*
X6746215Y12478971D01*
X6695432D01*
X6670040Y12453579D01*
Y12352012D01*
X6695432Y12326620D01*
X6746215D01*
X6771607Y12352012D01*
X6923958Y12326620D02*
X6822391D01*
X6923958Y12428187D01*
Y12453579D01*
X6898566Y12478971D01*
X6847783D01*
X6822391Y12453579D01*
X6974741D02*
X7000133Y12478971D01*
X7050917D01*
X7076309Y12453579D01*
Y12352012D01*
X7050917Y12326620D01*
X7000133D01*
X6974741Y12352012D01*
Y12453579D01*
X7127092Y12478971D02*
X7228659D01*
Y12453579D01*
X7127092Y12352012D01*
Y12326620D01*
X7795260Y10546080D02*
Y10698431D01*
X7871435D01*
X7896827Y10673039D01*
Y10622255D01*
X7871435Y10596863D01*
X7795260D01*
X7846043D02*
X7896827Y10546080D01*
X8049178D02*
X7947611D01*
X8049178Y10647647D01*
Y10673039D01*
X8023786Y10698431D01*
X7973003D01*
X7947611Y10673039D01*
X8099961D02*
X8125353Y10698431D01*
X8176137D01*
X8201529Y10673039D01*
Y10571472D01*
X8176137Y10546080D01*
X8125353D01*
X8099961Y10571472D01*
Y10673039D01*
X8252312D02*
X8277704Y10698431D01*
X8328488D01*
X8353879Y10673039D01*
Y10647647D01*
X8328488Y10622255D01*
X8303096D01*
X8328488D01*
X8353879Y10596863D01*
Y10571472D01*
X8328488Y10546080D01*
X8277704D01*
X8252312Y10571472D01*
X9621487Y10873699D02*
X9596095Y10899091D01*
X9545312D01*
X9519920Y10873699D01*
Y10772132D01*
X9545312Y10746740D01*
X9596095D01*
X9621487Y10772132D01*
X9773838Y10746740D02*
X9672271D01*
X9773838Y10848307D01*
Y10873699D01*
X9748446Y10899091D01*
X9697663D01*
X9672271Y10873699D01*
X9824621D02*
X9850013Y10899091D01*
X9900797D01*
X9926189Y10873699D01*
Y10772132D01*
X9900797Y10746740D01*
X9850013D01*
X9824621Y10772132D01*
Y10873699D01*
X10078539Y10899091D02*
X9976972D01*
Y10822915D01*
X10027756Y10848307D01*
X10053148D01*
X10078539Y10822915D01*
Y10772132D01*
X10053148Y10746740D01*
X10002364D01*
X9976972Y10772132D01*
X9022047Y10873699D02*
X8996655Y10899091D01*
X8945872D01*
X8920480Y10873699D01*
Y10772132D01*
X8945872Y10746740D01*
X8996655D01*
X9022047Y10772132D01*
X9174398Y10746740D02*
X9072831D01*
X9174398Y10848307D01*
Y10873699D01*
X9149006Y10899091D01*
X9098223D01*
X9072831Y10873699D01*
X9225181D02*
X9250573Y10899091D01*
X9301357D01*
X9326749Y10873699D01*
Y10772132D01*
X9301357Y10746740D01*
X9250573D01*
X9225181Y10772132D01*
Y10873699D01*
X9453708Y10746740D02*
Y10899091D01*
X9377532Y10822915D01*
X9479099D01*
X7061167Y1277579D02*
X7035775Y1302971D01*
X6984992D01*
X6959600Y1277579D01*
Y1176012D01*
X6984992Y1150620D01*
X7035775D01*
X7061167Y1176012D01*
X7111951Y1277579D02*
X7137343Y1302971D01*
X7188126D01*
X7213518Y1277579D01*
Y1252187D01*
X7188126Y1226795D01*
X7162734D01*
X7188126D01*
X7213518Y1201403D01*
Y1176012D01*
X7188126Y1150620D01*
X7137343D01*
X7111951Y1176012D01*
X7264301Y1150620D02*
X7315085D01*
X7289693D01*
Y1302971D01*
X7264301Y1277579D01*
X7391260Y1150620D02*
X7442044D01*
X7416652D01*
Y1302971D01*
X7391260Y1277579D01*
X7899367Y1287739D02*
X7873975Y1313131D01*
X7823192D01*
X7797800Y1287739D01*
Y1186172D01*
X7823192Y1160780D01*
X7873975D01*
X7899367Y1186172D01*
X7950151Y1287739D02*
X7975543Y1313131D01*
X8026326D01*
X8051718Y1287739D01*
Y1262347D01*
X8026326Y1236955D01*
X8000934D01*
X8026326D01*
X8051718Y1211563D01*
Y1186172D01*
X8026326Y1160780D01*
X7975543D01*
X7950151Y1186172D01*
X8102501Y1287739D02*
X8127893Y1313131D01*
X8178677D01*
X8204069Y1287739D01*
Y1186172D01*
X8178677Y1160780D01*
X8127893D01*
X8102501Y1186172D01*
Y1287739D01*
X8254852D02*
X8280244Y1313131D01*
X8331028D01*
X8356419Y1287739D01*
Y1262347D01*
X8331028Y1236955D01*
X8305636D01*
X8331028D01*
X8356419Y1211563D01*
Y1186172D01*
X8331028Y1160780D01*
X8280244D01*
X8254852Y1186172D01*
X14949249Y5950783D02*
X14923859Y5976175D01*
X14873074D01*
X14847682Y5950783D01*
Y5849216D01*
X14873074Y5823825D01*
X14923859D01*
X14949249Y5849216D01*
X15076208Y5823825D02*
Y5976175D01*
X15000034Y5900000D01*
X15101601D01*
X15152383Y5950783D02*
X15177776Y5976175D01*
X15228558D01*
X15253951Y5950783D01*
Y5849216D01*
X15228558Y5823825D01*
X15177776D01*
X15152383Y5849216D01*
Y5950783D01*
X15304733Y5823825D02*
X15355518D01*
X15330125D01*
Y5976175D01*
X15304733Y5950783D01*
X4780247Y1249639D02*
X4754855Y1275031D01*
X4704072D01*
X4678680Y1249639D01*
Y1148072D01*
X4704072Y1122680D01*
X4754855D01*
X4780247Y1148072D01*
X4831031Y1249639D02*
X4856423Y1275031D01*
X4907206D01*
X4932598Y1249639D01*
Y1224247D01*
X4907206Y1198855D01*
X4881814D01*
X4907206D01*
X4932598Y1173463D01*
Y1148072D01*
X4907206Y1122680D01*
X4856423D01*
X4831031Y1148072D01*
X4983381Y1249639D02*
X5008773Y1275031D01*
X5059557D01*
X5084949Y1249639D01*
Y1148072D01*
X5059557Y1122680D01*
X5008773D01*
X4983381Y1148072D01*
Y1249639D01*
X5237299Y1122680D02*
X5135732D01*
X5237299Y1224247D01*
Y1249639D01*
X5211908Y1275031D01*
X5161124D01*
X5135732Y1249639D01*
X14822258Y5550783D02*
X14796866Y5576175D01*
X14746082D01*
X14720689Y5550783D01*
Y5449216D01*
X14746082Y5423825D01*
X14796866D01*
X14822258Y5449216D01*
X14949216Y5423825D02*
Y5576175D01*
X14873041Y5500000D01*
X14974608D01*
X15025392Y5550783D02*
X15050784Y5576175D01*
X15101567D01*
X15126959Y5550783D01*
Y5449216D01*
X15101567Y5423825D01*
X15050784D01*
X15025392Y5449216D01*
Y5550783D01*
X15177744D02*
X15203134Y5576175D01*
X15253918D01*
X15279311Y5550783D01*
Y5449216D01*
X15253918Y5423825D01*
X15203134D01*
X15177744Y5449216D01*
Y5550783D01*
X7541260Y9522411D02*
Y9370060D01*
X7642827D01*
X7795178D02*
X7693611D01*
X7795178Y9471627D01*
Y9497019D01*
X7769786Y9522411D01*
X7719003D01*
X7693611Y9497019D01*
X7845961D02*
X7871353Y9522411D01*
X7922137D01*
X7947529Y9497019D01*
Y9395452D01*
X7922137Y9370060D01*
X7871353D01*
X7845961Y9395452D01*
Y9497019D01*
X7998312D02*
X8023704Y9522411D01*
X8074488D01*
X8099879Y9497019D01*
Y9395452D01*
X8074488Y9370060D01*
X8023704D01*
X7998312Y9395452D01*
Y9497019D01*
X5222207Y3497539D02*
X5196815Y3522931D01*
X5146032D01*
X5120640Y3497539D01*
Y3395972D01*
X5146032Y3370580D01*
X5196815D01*
X5222207Y3395972D01*
X5272991Y3497539D02*
X5298383Y3522931D01*
X5349166D01*
X5374558Y3497539D01*
Y3472147D01*
X5349166Y3446755D01*
X5323774D01*
X5349166D01*
X5374558Y3421363D01*
Y3395972D01*
X5349166Y3370580D01*
X5298383D01*
X5272991Y3395972D01*
X5425341Y3497539D02*
X5450733Y3522931D01*
X5501517D01*
X5526909Y3497539D01*
Y3395972D01*
X5501517Y3370580D01*
X5450733D01*
X5425341Y3395972D01*
Y3497539D01*
X5679259Y3522931D02*
X5577692D01*
Y3446755D01*
X5628476Y3472147D01*
X5653868D01*
X5679259Y3446755D01*
Y3395972D01*
X5653868Y3370580D01*
X5603084D01*
X5577692Y3395972D01*
X7381207Y3497539D02*
X7355815Y3522931D01*
X7305032D01*
X7279640Y3497539D01*
Y3395972D01*
X7305032Y3370580D01*
X7355815D01*
X7381207Y3395972D01*
X7431991Y3497539D02*
X7457383Y3522931D01*
X7508166D01*
X7533558Y3497539D01*
Y3472147D01*
X7508166Y3446755D01*
X7482774D01*
X7508166D01*
X7533558Y3421363D01*
Y3395972D01*
X7508166Y3370580D01*
X7457383D01*
X7431991Y3395972D01*
X7584341Y3370580D02*
X7635125D01*
X7609733D01*
Y3522931D01*
X7584341Y3497539D01*
X7711300D02*
X7736692Y3522931D01*
X7787476D01*
X7812868Y3497539D01*
Y3395972D01*
X7787476Y3370580D01*
X7736692D01*
X7711300Y3395972D01*
Y3497539D01*
X4792947D02*
X4767555Y3522931D01*
X4716772D01*
X4691380Y3497539D01*
Y3395972D01*
X4716772Y3370580D01*
X4767555D01*
X4792947Y3395972D01*
X4843731Y3497539D02*
X4869123Y3522931D01*
X4919906D01*
X4945298Y3497539D01*
Y3472147D01*
X4919906Y3446755D01*
X4894514D01*
X4919906D01*
X4945298Y3421363D01*
Y3395972D01*
X4919906Y3370580D01*
X4869123D01*
X4843731Y3395972D01*
X4996081Y3497539D02*
X5021473Y3522931D01*
X5072257D01*
X5097649Y3497539D01*
Y3395972D01*
X5072257Y3370580D01*
X5021473D01*
X4996081Y3395972D01*
Y3497539D01*
X5224608Y3370580D02*
Y3522931D01*
X5148432Y3446755D01*
X5249999D01*
X6080727Y3497539D02*
X6055335Y3522931D01*
X6004552D01*
X5979160Y3497539D01*
Y3395972D01*
X6004552Y3370580D01*
X6055335D01*
X6080727Y3395972D01*
X6131511Y3497539D02*
X6156903Y3522931D01*
X6207686D01*
X6233078Y3497539D01*
Y3472147D01*
X6207686Y3446755D01*
X6182294D01*
X6207686D01*
X6233078Y3421363D01*
Y3395972D01*
X6207686Y3370580D01*
X6156903D01*
X6131511Y3395972D01*
X6283861Y3497539D02*
X6309253Y3522931D01*
X6360037D01*
X6385429Y3497539D01*
Y3395972D01*
X6360037Y3370580D01*
X6309253D01*
X6283861Y3395972D01*
Y3497539D01*
X6436212Y3522931D02*
X6537779D01*
Y3497539D01*
X6436212Y3395972D01*
Y3370580D01*
X5651467Y3497539D02*
X5626075Y3522931D01*
X5575292D01*
X5549900Y3497539D01*
Y3395972D01*
X5575292Y3370580D01*
X5626075D01*
X5651467Y3395972D01*
X5702251Y3497539D02*
X5727643Y3522931D01*
X5778426D01*
X5803818Y3497539D01*
Y3472147D01*
X5778426Y3446755D01*
X5753034D01*
X5778426D01*
X5803818Y3421363D01*
Y3395972D01*
X5778426Y3370580D01*
X5727643D01*
X5702251Y3395972D01*
X5854601Y3497539D02*
X5879993Y3522931D01*
X5930777D01*
X5956169Y3497539D01*
Y3395972D01*
X5930777Y3370580D01*
X5879993D01*
X5854601Y3395972D01*
Y3497539D01*
X6108519Y3522931D02*
X6057736Y3497539D01*
X6006952Y3446755D01*
Y3395972D01*
X6032344Y3370580D01*
X6083128D01*
X6108519Y3395972D01*
Y3421363D01*
X6083128Y3446755D01*
X6006952D01*
X6941787Y3497539D02*
X6916395Y3522931D01*
X6865612D01*
X6840220Y3497539D01*
Y3395972D01*
X6865612Y3370580D01*
X6916395D01*
X6941787Y3395972D01*
X6992571Y3497539D02*
X7017963Y3522931D01*
X7068746D01*
X7094138Y3497539D01*
Y3472147D01*
X7068746Y3446755D01*
X7043354D01*
X7068746D01*
X7094138Y3421363D01*
Y3395972D01*
X7068746Y3370580D01*
X7017963D01*
X6992571Y3395972D01*
X7144921Y3497539D02*
X7170313Y3522931D01*
X7221097D01*
X7246489Y3497539D01*
Y3395972D01*
X7221097Y3370580D01*
X7170313D01*
X7144921Y3395972D01*
Y3497539D01*
X7297272Y3395972D02*
X7322664Y3370580D01*
X7373448D01*
X7398839Y3395972D01*
Y3497539D01*
X7373448Y3522931D01*
X7322664D01*
X7297272Y3497539D01*
Y3472147D01*
X7322664Y3446755D01*
X7398839D01*
X4350987Y3497539D02*
X4325595Y3522931D01*
X4274812D01*
X4249420Y3497539D01*
Y3395972D01*
X4274812Y3370580D01*
X4325595D01*
X4350987Y3395972D01*
X4401771Y3497539D02*
X4427163Y3522931D01*
X4477946D01*
X4503338Y3497539D01*
Y3472147D01*
X4477946Y3446755D01*
X4452554D01*
X4477946D01*
X4503338Y3421363D01*
Y3395972D01*
X4477946Y3370580D01*
X4427163D01*
X4401771Y3395972D01*
X4554121Y3370580D02*
X4604905D01*
X4579513D01*
Y3522931D01*
X4554121Y3497539D01*
X4681080D02*
X4706472Y3522931D01*
X4757256D01*
X4782648Y3497539D01*
Y3472147D01*
X4757256Y3446755D01*
X4731864D01*
X4757256D01*
X4782648Y3421363D01*
Y3395972D01*
X4757256Y3370580D01*
X4706472D01*
X4681080Y3395972D01*
X3921727Y3497539D02*
X3896335Y3522931D01*
X3845552D01*
X3820160Y3497539D01*
Y3395972D01*
X3845552Y3370580D01*
X3896335D01*
X3921727Y3395972D01*
X3972511Y3497539D02*
X3997903Y3522931D01*
X4048686D01*
X4074078Y3497539D01*
Y3472147D01*
X4048686Y3446755D01*
X4023294D01*
X4048686D01*
X4074078Y3421363D01*
Y3395972D01*
X4048686Y3370580D01*
X3997903D01*
X3972511Y3395972D01*
X4124861Y3370580D02*
X4175645D01*
X4150253D01*
Y3522931D01*
X4124861Y3497539D01*
X4353388Y3370580D02*
X4251820D01*
X4353388Y3472147D01*
Y3497539D01*
X4327996Y3522931D01*
X4277212D01*
X4251820Y3497539D01*
X6512527D02*
X6487135Y3522931D01*
X6436352D01*
X6410960Y3497539D01*
Y3395972D01*
X6436352Y3370580D01*
X6487135D01*
X6512527Y3395972D01*
X6563311Y3497539D02*
X6588703Y3522931D01*
X6639486D01*
X6664878Y3497539D01*
Y3472147D01*
X6639486Y3446755D01*
X6614094D01*
X6639486D01*
X6664878Y3421363D01*
Y3395972D01*
X6639486Y3370580D01*
X6588703D01*
X6563311Y3395972D01*
X6715661Y3497539D02*
X6741053Y3522931D01*
X6791837D01*
X6817229Y3497539D01*
Y3395972D01*
X6791837Y3370580D01*
X6741053D01*
X6715661Y3395972D01*
Y3497539D01*
X6868012D02*
X6893404Y3522931D01*
X6944188D01*
X6969579Y3497539D01*
Y3472147D01*
X6944188Y3446755D01*
X6969579Y3421363D01*
Y3395972D01*
X6944188Y3370580D01*
X6893404D01*
X6868012Y3395972D01*
Y3421363D01*
X6893404Y3446755D01*
X6868012Y3472147D01*
Y3497539D01*
X6893404Y3446755D02*
X6944188D01*
X5941060Y6616651D02*
Y6489692D01*
X5966452Y6464300D01*
X6017235D01*
X6042627Y6489692D01*
Y6616651D01*
X6093411Y6591259D02*
X6118803Y6616651D01*
X6169586D01*
X6194978Y6591259D01*
Y6565867D01*
X6169586Y6540475D01*
X6144194D01*
X6169586D01*
X6194978Y6515083D01*
Y6489692D01*
X6169586Y6464300D01*
X6118803D01*
X6093411Y6489692D01*
X6245761Y6591259D02*
X6271153Y6616651D01*
X6321937D01*
X6347329Y6591259D01*
Y6489692D01*
X6321937Y6464300D01*
X6271153D01*
X6245761Y6489692D01*
Y6591259D01*
X6398112Y6464300D02*
X6448896D01*
X6423504D01*
Y6616651D01*
X6398112Y6591259D01*
X7523447Y2095459D02*
X7498055Y2120851D01*
X7447272D01*
X7421880Y2095459D01*
Y2070067D01*
X7447272Y2044675D01*
X7498055D01*
X7523447Y2019283D01*
Y1993892D01*
X7498055Y1968500D01*
X7447272D01*
X7421880Y1993892D01*
X7574231Y2120851D02*
Y1968500D01*
X7625014Y2019283D01*
X7675798Y1968500D01*
Y2120851D01*
X7726581Y2095459D02*
X7751973Y2120851D01*
X7802757D01*
X7828149Y2095459D01*
Y2070067D01*
X7802757Y2044675D01*
X7777365D01*
X7802757D01*
X7828149Y2019283D01*
Y1993892D01*
X7802757Y1968500D01*
X7751973D01*
X7726581Y1993892D01*
X7878932Y2095459D02*
X7904324Y2120851D01*
X7955108D01*
X7980499Y2095459D01*
Y1993892D01*
X7955108Y1968500D01*
X7904324D01*
X7878932Y1993892D01*
Y2095459D01*
X8031283D02*
X8056675Y2120851D01*
X8107458D01*
X8132850Y2095459D01*
Y1993892D01*
X8107458Y1968500D01*
X8056675D01*
X8031283Y1993892D01*
Y2095459D01*
X7127240Y10048191D02*
Y9921232D01*
X7152632Y9895840D01*
X7203415D01*
X7228807Y9921232D01*
Y10048191D01*
X7381158Y9895840D02*
X7279591D01*
X7381158Y9997407D01*
Y10022799D01*
X7355766Y10048191D01*
X7304983D01*
X7279591Y10022799D01*
X7431941D02*
X7457333Y10048191D01*
X7508117D01*
X7533509Y10022799D01*
Y9921232D01*
X7508117Y9895840D01*
X7457333D01*
X7431941Y9921232D01*
Y10022799D01*
X7584292D02*
X7609684Y10048191D01*
X7660468D01*
X7685859Y10022799D01*
Y9921232D01*
X7660468Y9895840D01*
X7609684D01*
X7584292Y9921232D01*
Y10022799D01*
X5788660Y5168851D02*
Y5041892D01*
X5814052Y5016500D01*
X5864835D01*
X5890227Y5041892D01*
Y5168851D01*
X5941011Y5143459D02*
X5966403Y5168851D01*
X6017186D01*
X6042578Y5143459D01*
Y5118067D01*
X6017186Y5092675D01*
X5991794D01*
X6017186D01*
X6042578Y5067283D01*
Y5041892D01*
X6017186Y5016500D01*
X5966403D01*
X5941011Y5041892D01*
X6093361Y5143459D02*
X6118753Y5168851D01*
X6169537D01*
X6194929Y5143459D01*
Y5041892D01*
X6169537Y5016500D01*
X6118753D01*
X6093361Y5041892D01*
Y5143459D01*
X6245712D02*
X6271104Y5168851D01*
X6321888D01*
X6347279Y5143459D01*
Y5041892D01*
X6321888Y5016500D01*
X6271104D01*
X6245712Y5041892D01*
Y5143459D01*
X14988541Y6766511D02*
X15090108D01*
X15039323D01*
Y6614160D01*
X15140891D02*
Y6766511D01*
X15217065D01*
X15242458Y6741119D01*
Y6690335D01*
X15217065Y6664943D01*
X15140891D01*
X15369417Y6614160D02*
Y6766511D01*
X15293240Y6690335D01*
X15394809D01*
X15445592Y6741119D02*
X15470984Y6766511D01*
X15521768D01*
X15547159Y6741119D01*
Y6639552D01*
X15521768Y6614160D01*
X15470984D01*
X15445592Y6639552D01*
Y6741119D01*
X15597943Y6614160D02*
X15648726D01*
X15623335D01*
Y6766511D01*
X15597943Y6741119D01*
X16987520Y3365451D02*
X17089087D01*
X17038303D01*
Y3213100D01*
X17139871D02*
Y3365451D01*
X17216046D01*
X17241438Y3340059D01*
Y3289275D01*
X17216046Y3263883D01*
X17139871D01*
X17368398Y3213100D02*
Y3365451D01*
X17292221Y3289275D01*
X17393790D01*
X17444572Y3340059D02*
X17469965Y3365451D01*
X17520747D01*
X17546140Y3340059D01*
Y3238492D01*
X17520747Y3213100D01*
X17469965D01*
X17444572Y3238492D01*
Y3340059D01*
X17596922D02*
X17622314Y3365451D01*
X17673099D01*
X17698489Y3340059D01*
Y3238492D01*
X17673099Y3213100D01*
X17622314D01*
X17596922Y3238492D01*
Y3340059D01*
X13950816Y5246082D02*
X13925426Y5220690D01*
Y5169907D01*
X13950816Y5144515D01*
X13976208D01*
X14001601Y5169907D01*
Y5220690D01*
X14026991Y5246082D01*
X14052383D01*
X14077776Y5220690D01*
Y5169907D01*
X14052383Y5144515D01*
X13925426Y5296866D02*
X14077776D01*
X14026991Y5347649D01*
X14077776Y5398433D01*
X13925426D01*
X14077776Y5525392D02*
X13925426D01*
X14001601Y5449216D01*
Y5550784D01*
X13950816Y5601567D02*
X13925426Y5626959D01*
Y5677743D01*
X13950816Y5703134D01*
X14052383D01*
X14077776Y5677743D01*
Y5626959D01*
X14052383Y5601567D01*
X13950816D01*
Y5753918D02*
X13925426Y5779310D01*
Y5830093D01*
X13950816Y5855485D01*
X14052383D01*
X14077776Y5830093D01*
Y5779310D01*
X14052383Y5753918D01*
X13950816D01*
X4732020Y2689860D02*
Y2842211D01*
X4808195D01*
X4833587Y2816819D01*
Y2766035D01*
X4808195Y2740643D01*
X4732020D01*
X4782803D02*
X4833587Y2689860D01*
X4884371Y2816819D02*
X4909763Y2842211D01*
X4960546D01*
X4985938Y2816819D01*
Y2791427D01*
X4960546Y2766035D01*
X4935154D01*
X4960546D01*
X4985938Y2740643D01*
Y2715252D01*
X4960546Y2689860D01*
X4909763D01*
X4884371Y2715252D01*
X5036721Y2689860D02*
X5087505D01*
X5062113D01*
Y2842211D01*
X5036721Y2816819D01*
X5163680D02*
X5189072Y2842211D01*
X5239856D01*
X5265248Y2816819D01*
Y2715252D01*
X5239856Y2689860D01*
X5189072D01*
X5163680Y2715252D01*
Y2816819D01*
X14720689Y4023825D02*
Y4176176D01*
X14796866D01*
X14822256Y4150784D01*
Y4100000D01*
X14796866Y4074608D01*
X14720689D01*
X14771474D02*
X14822256Y4023825D01*
X14949216D02*
Y4176176D01*
X14873041Y4100000D01*
X14974608D01*
X15025392Y4150784D02*
X15050783Y4176176D01*
X15101567D01*
X15126959Y4150784D01*
Y4049217D01*
X15101567Y4023825D01*
X15050783D01*
X15025392Y4049217D01*
Y4150784D01*
X15177742D02*
X15203134Y4176176D01*
X15253918D01*
X15279311Y4150784D01*
Y4125392D01*
X15253918Y4100000D01*
X15228526D01*
X15253918D01*
X15279311Y4074608D01*
Y4049217D01*
X15253918Y4023825D01*
X15203134D01*
X15177742Y4049217D01*
X14720689Y3623825D02*
Y3776176D01*
X14796866D01*
X14822256Y3750784D01*
Y3700000D01*
X14796866Y3674608D01*
X14720689D01*
X14771474D02*
X14822256Y3623825D01*
X14949216D02*
Y3776176D01*
X14873041Y3700000D01*
X14974608D01*
X15025392Y3750784D02*
X15050783Y3776176D01*
X15101567D01*
X15126959Y3750784D01*
Y3649217D01*
X15101567Y3623825D01*
X15050783D01*
X15025392Y3649217D01*
Y3750784D01*
X15253918Y3623825D02*
Y3776176D01*
X15177742Y3700000D01*
X15279311D01*
X5595620Y11719560D02*
Y11871911D01*
X5671795D01*
X5697187Y11846519D01*
Y11795735D01*
X5671795Y11770343D01*
X5595620D01*
X5646403D02*
X5697187Y11719560D01*
X5849538D02*
X5747971D01*
X5849538Y11821127D01*
Y11846519D01*
X5824146Y11871911D01*
X5773363D01*
X5747971Y11846519D01*
X5900321D02*
X5925713Y11871911D01*
X5976497D01*
X6001889Y11846519D01*
Y11744952D01*
X5976497Y11719560D01*
X5925713D01*
X5900321Y11744952D01*
Y11846519D01*
X6154239Y11871911D02*
X6052672D01*
Y11795735D01*
X6103456Y11821127D01*
X6128848D01*
X6154239Y11795735D01*
Y11744952D01*
X6128848Y11719560D01*
X6078064D01*
X6052672Y11744952D01*
X14277776Y6020690D02*
X14125426D01*
Y6096866D01*
X14150816Y6122258D01*
X14201601D01*
X14226991Y6096866D01*
Y6020690D01*
Y6071474D02*
X14277776Y6122258D01*
Y6249216D02*
X14125426D01*
X14201601Y6173041D01*
Y6274608D01*
X14150816Y6325392D02*
X14125426Y6350784D01*
Y6401567D01*
X14150816Y6426959D01*
X14252383D01*
X14277776Y6401567D01*
Y6350784D01*
X14252383Y6325392D01*
X14150816D01*
Y6477742D02*
X14125426Y6503134D01*
Y6553918D01*
X14150816Y6579310D01*
X14252383D01*
X14277776Y6553918D01*
Y6503134D01*
X14252383Y6477742D01*
X14150816D01*
X14577776Y6020690D02*
X14425426D01*
Y6096865D01*
X14450816Y6122257D01*
X14501601D01*
X14526991Y6096865D01*
Y6020690D01*
Y6071474D02*
X14577776Y6122257D01*
Y6249216D02*
X14425426D01*
X14501601Y6173041D01*
Y6274608D01*
X14450816Y6325391D02*
X14425426Y6350783D01*
Y6401567D01*
X14450816Y6426959D01*
X14552383D01*
X14577776Y6401567D01*
Y6350783D01*
X14552383Y6325391D01*
X14450816D01*
X14577776Y6579309D02*
Y6477742D01*
X14476208Y6579309D01*
X14450816D01*
X14425426Y6553918D01*
Y6503134D01*
X14450816Y6477742D01*
D67*
X7125000Y9770000D02*
G03*
X7125000Y9770000I-5000J0D01*
G01*
D68*
X25245715Y333002D02*
Y523502D01*
X25474315Y333002D02*
Y523502D01*
Y625102D02*
Y815602D01*
X25245715Y625102D02*
Y815602D01*
Y333002D02*
X25474315D01*
X25245715Y815602D02*
X25474315D01*
X23945714Y333002D02*
Y523502D01*
X24174313Y333002D02*
Y523502D01*
Y625102D02*
Y815602D01*
X23945714Y625102D02*
Y815602D01*
Y333002D02*
X24174313D01*
X23945714Y815602D02*
X24174313D01*
X22645714Y333002D02*
Y523502D01*
X22874313Y333002D02*
Y523502D01*
Y625102D02*
Y815602D01*
X22645714Y625102D02*
Y815602D01*
Y333002D02*
X22874313D01*
X22645714Y815602D02*
X22874313D01*
X21370013Y470002D02*
Y615002D01*
X21550014Y470002D02*
Y615002D01*
X21370013Y470002D02*
X21550014D01*
X21370013Y670002D02*
Y762102D01*
X21422913Y815002D01*
X21497113D01*
X21550014Y762102D01*
Y670002D02*
Y762102D01*
X20745712Y333002D02*
Y523502D01*
X20974313Y333002D02*
Y523502D01*
Y625102D02*
Y815602D01*
X20745712Y625102D02*
Y815602D01*
Y333002D02*
X20974313D01*
X20745712Y815602D02*
X20974313D01*
X20170012Y470002D02*
Y615002D01*
X20350012Y470002D02*
Y615002D01*
X20170012Y470002D02*
X20350012D01*
X20170012Y670002D02*
Y762102D01*
X20222913Y815002D01*
X20297112D01*
X20350012Y762102D01*
Y670002D02*
Y762102D01*
X19445712Y333002D02*
Y523502D01*
X19674312Y333002D02*
Y523502D01*
Y625102D02*
Y815602D01*
X19445712Y625102D02*
Y815602D01*
Y333002D02*
X19674312D01*
X19445712Y815602D02*
X19674312D01*
X18870012Y470002D02*
Y615002D01*
X19050012Y470002D02*
Y615002D01*
X18870012Y470002D02*
X19050012D01*
X18870012Y670002D02*
Y762102D01*
X18922913Y815002D01*
X18997112D01*
X19050012Y762102D01*
Y670002D02*
Y762102D01*
X18145711Y333002D02*
Y523502D01*
X18374310Y333002D02*
Y523502D01*
Y625102D02*
Y815602D01*
X18145711Y625102D02*
Y815602D01*
Y333002D02*
X18374310D01*
X18145711Y815602D02*
X18374310D01*
X3541300Y9901600D02*
Y10015900D01*
X3249200Y9901600D02*
Y10015900D01*
X3490500D02*
X3541300D01*
X3388900Y9787300D02*
X3401600D01*
X3249200Y10015900D02*
X3300000D01*
X2045000Y9090000D02*
X2190000D01*
X2045000Y8910000D02*
X2190000D01*
X2045000D02*
Y9090000D01*
X2245000D02*
X2337100D01*
X2390000Y9037100D01*
Y8962900D02*
Y9037100D01*
X2337100Y8910000D02*
X2390000Y8962900D01*
X2245000Y8910000D02*
X2337100D01*
X1736500Y8885700D02*
X1927000D01*
X1736500Y9114300D02*
X1927000D01*
X1444400D02*
X1634900D01*
X1444400Y8885700D02*
X1634900D01*
X1927000D02*
Y9114300D01*
X1444400Y8885700D02*
Y9114300D01*
X7530100Y9277800D02*
X7720600D01*
X7530100Y8922200D02*
X7720600D01*
X7936500D02*
X8127000D01*
X7936500Y9277800D02*
X8127000D01*
X7530100Y8922200D02*
Y9277800D01*
X8127000Y8922200D02*
Y9277800D01*
X15410001Y3790000D02*
X15555000D01*
X15410001Y3610000D02*
X15555000D01*
X15410001D02*
Y3790000D01*
X15610001D02*
X15702100D01*
X15755000Y3737100D01*
Y3662900D02*
Y3737100D01*
X15702100Y3610000D02*
X15755000Y3662900D01*
X15610001Y3610000D02*
X15702100D01*
X15410001Y4190000D02*
X15555000D01*
X15410001Y4010000D02*
X15555000D01*
X15410001D02*
Y4190000D01*
X15610001D02*
X15702100D01*
X15755000Y4137100D01*
Y4062900D02*
Y4137100D01*
X15702100Y4010000D02*
X15755000Y4062900D01*
X15610001Y4010000D02*
X15702100D01*
X17310001Y145000D02*
Y290000D01*
X17489999Y145000D02*
Y290000D01*
X17310001Y145000D02*
X17489999D01*
X17310001Y490000D02*
X17489999D01*
X17310001Y345000D02*
Y490000D01*
X17489999Y345000D02*
Y490000D01*
X15570012Y8870002D02*
Y9015002D01*
X15750012Y8870002D02*
Y9015002D01*
X15570012Y8870002D02*
X15750012D01*
X15570012Y9215002D02*
X15750012D01*
X15570012Y9070002D02*
Y9215002D01*
X15750012Y9070002D02*
Y9215002D01*
X14910001Y8245000D02*
Y8390000D01*
X15089999Y8245000D02*
Y8390000D01*
X14910001Y8245000D02*
X15089999D01*
X14910001Y8590000D02*
X15089999D01*
X14910001Y8445000D02*
Y8590000D01*
X15089999Y8445000D02*
Y8590000D01*
X15710001Y1810000D02*
Y1955000D01*
X15889999Y1810000D02*
Y1955000D01*
X15710001Y1810000D02*
X15889999D01*
X15710001Y2155000D02*
X15889999D01*
X15710001Y2010000D02*
Y2155000D01*
X15889999Y2010000D02*
Y2155000D01*
X16010001Y8945000D02*
Y9090000D01*
X16189999Y8945000D02*
Y9090000D01*
X16010001Y8945000D02*
X16189999D01*
X16010001Y9290000D02*
X16189999D01*
X16010001Y9145000D02*
Y9290000D01*
X16189999Y9145000D02*
Y9290000D01*
X18145711Y2333003D02*
Y2523503D01*
X18374310Y2333003D02*
Y2523503D01*
Y2625103D02*
Y2815603D01*
X18145711Y2625103D02*
Y2815603D01*
Y2333003D02*
X18374310D01*
X18145711Y2815603D02*
X18374310D01*
X6150011Y12970003D02*
Y13115002D01*
X5970011Y12970003D02*
Y13115002D01*
X6150011D01*
X5970011Y12770002D02*
X6150011D01*
Y12915002D01*
X5970011Y12770002D02*
Y12915002D01*
X5445716Y-624760D02*
Y-434260D01*
X5674316Y-624760D02*
Y-434260D01*
Y-332660D02*
Y-142160D01*
X5445716Y-332660D02*
Y-142160D01*
Y-624760D02*
X5674316D01*
X5445716Y-142160D02*
X5674316D01*
X3045715Y-624760D02*
Y-434260D01*
X3274315Y-624760D02*
Y-434260D01*
Y-332660D02*
Y-142160D01*
X3045715Y-332660D02*
Y-142160D01*
Y-624760D02*
X3274315D01*
X3045715Y-142160D02*
X3274315D01*
X11145714Y12733002D02*
Y12923502D01*
X11374314Y12733002D02*
Y12923502D01*
Y13025102D02*
Y13215602D01*
X11145714Y13025102D02*
Y13215602D01*
Y12733002D02*
X11374314D01*
X11145714Y13215602D02*
X11374314D01*
X5085700Y12544400D02*
Y12734900D01*
X5314300Y12544400D02*
Y12734900D01*
Y12836501D02*
Y13027000D01*
X5085700Y12836501D02*
Y13027000D01*
Y12544400D02*
X5314300D01*
X5085700Y13027000D02*
X5314300D01*
X7685700Y-1855600D02*
Y-1665100D01*
X7914300Y-1855600D02*
Y-1665100D01*
Y-1563500D02*
Y-1373000D01*
X7685700Y-1563500D02*
Y-1373000D01*
Y-1855600D02*
X7914300D01*
X7685700Y-1373000D02*
X7914300D01*
X6985700Y-1627000D02*
Y-1436500D01*
X7214300Y-1627000D02*
Y-1436500D01*
Y-1334900D02*
Y-1144400D01*
X6985700Y-1334900D02*
Y-1144400D01*
Y-1627000D02*
X7214300D01*
X6985700Y-1144400D02*
X7214300D01*
X6345713Y-2524760D02*
Y-2334260D01*
X6574313Y-2524760D02*
Y-2334260D01*
Y-2232660D02*
Y-2042160D01*
X6345713Y-2232660D02*
Y-2042160D01*
Y-2524760D02*
X6574313D01*
X6345713Y-2042160D02*
X6574313D01*
X5545713Y-2524760D02*
Y-2334260D01*
X5774313Y-2524760D02*
Y-2334260D01*
Y-2232660D02*
Y-2042160D01*
X5545713Y-2232660D02*
Y-2042160D01*
Y-2524760D02*
X5774313D01*
X5545713Y-2042160D02*
X5774313D01*
X15785699Y-1555600D02*
Y-1365100D01*
X16014301Y-1555600D02*
Y-1365100D01*
Y-1263500D02*
Y-1073000D01*
X15785699Y-1263500D02*
Y-1073000D01*
Y-1555600D02*
X16014301D01*
X15785699Y-1073000D02*
X16014301D01*
X14885699Y-1555600D02*
Y-1365100D01*
X15114301Y-1555600D02*
Y-1365100D01*
Y-1263500D02*
Y-1073000D01*
X14885699Y-1263500D02*
Y-1073000D01*
Y-1555600D02*
X15114301D01*
X14885699Y-1073000D02*
X15114301D01*
X9690000Y10510000D02*
Y10655000D01*
X9510000Y10510000D02*
Y10655000D01*
X9690000D01*
X9510000Y10310000D02*
X9690000D01*
Y10455000D01*
X9510000Y10310000D02*
Y10455000D01*
X9090000Y10510000D02*
Y10655000D01*
X8910000Y10510000D02*
Y10655000D01*
X9090000D01*
X8910000Y10310000D02*
X9090000D01*
Y10455000D01*
X8910000Y10310000D02*
Y10455000D01*
X14387300Y5973000D02*
X14615900D01*
X14387300Y6455600D02*
X14615900D01*
Y5973000D02*
Y6163500D01*
X14387300Y5973000D02*
Y6163500D01*
Y6265100D02*
Y6455600D01*
X14615900Y6265100D02*
Y6455600D01*
X14087300D02*
X14315900D01*
X14087300Y5973000D02*
X14315900D01*
X14087300Y6265100D02*
Y6455600D01*
X14315900Y6265100D02*
Y6455600D01*
Y5973000D02*
Y6163500D01*
X14087300Y5973000D02*
Y6163500D01*
X15155600Y3985700D02*
Y4214300D01*
X14673000Y3985700D02*
Y4214300D01*
X14965100D02*
X15155600D01*
X14965100Y3985700D02*
X15155600D01*
X14673000D02*
X14863499D01*
X14673000Y4214300D02*
X14863499D01*
X15155600Y3585700D02*
Y3814300D01*
X14673000Y3585700D02*
Y3814300D01*
X14965100D02*
X15155600D01*
X14965100Y3585700D02*
X15155600D01*
X14673000D02*
X14863499D01*
X14673000Y3814300D02*
X14863499D01*
X8385700Y8844400D02*
Y9034900D01*
X8614300Y8844400D02*
Y9034900D01*
Y9136500D02*
Y9327000D01*
X8385700Y9136500D02*
Y9327000D01*
Y8844400D02*
X8614300D01*
X8385700Y9327000D02*
X8614300D01*
X6040895Y11185240D02*
Y11375740D01*
X6269495Y11185240D02*
Y11375740D01*
Y11477340D02*
Y11667840D01*
X6040895Y11477340D02*
Y11667840D01*
Y11185240D02*
X6269495D01*
X6040895Y11667840D02*
X6269495D01*
X8014300Y10265100D02*
Y10455600D01*
X7785700Y10265100D02*
Y10455600D01*
Y9973000D02*
Y10163500D01*
X8014300Y9973000D02*
Y10163500D01*
X7785700Y10455600D02*
X8014300D01*
X7785700Y9973000D02*
X8014300D01*
X5585700Y11144400D02*
Y11334900D01*
X5814300Y11144400D02*
Y11334900D01*
Y11436500D02*
Y11627000D01*
X5585700Y11436500D02*
Y11627000D01*
Y11144400D02*
X5814300D01*
X5585700Y11627000D02*
X5814300D01*
X4722400Y2115300D02*
Y2305800D01*
X4951000Y2115300D02*
Y2305800D01*
Y2407400D02*
Y2597900D01*
X4722400Y2407400D02*
Y2597900D01*
Y2115300D02*
X4951000D01*
X4722400Y2597900D02*
X4951000D01*
D69*
X3320500Y9405000D02*
X3600500D01*
X3320500Y9595000D02*
X3600500D01*
X8848260Y11669520D02*
Y11743180D01*
X8751740Y11669520D02*
Y11743180D01*
X8848260D01*
Y11555220D02*
Y11628880D01*
X8751740Y11555220D02*
X8848260D01*
X8751740D02*
Y11628880D01*
X8222500Y9950000D02*
X8422500D01*
X8222500Y9650000D02*
X8422500D01*
X8848260Y9769520D02*
Y9843180D01*
X8751740D02*
X8848260D01*
X8751740Y9769520D02*
Y9843180D01*
Y9655220D02*
X8848260D01*
Y9728880D01*
X8751740Y9655220D02*
Y9728880D01*
X6848260Y9669520D02*
Y9743180D01*
X6751740D02*
X6848260D01*
X6751740Y9669520D02*
Y9743180D01*
Y9555220D02*
X6848260D01*
Y9628880D01*
X6751740Y9555220D02*
Y9628880D01*
X2455220Y10048260D02*
X2528880D01*
X2455220Y9951740D02*
Y10048260D01*
Y9951740D02*
X2528880D01*
X2643180D02*
Y10048260D01*
X2569520D02*
X2643180D01*
X2569520Y9951740D02*
X2643180D01*
X2200000Y9625500D02*
X2400000D01*
X2200000Y9864500D02*
X2400000D01*
X2641580Y9390780D02*
Y9439040D01*
X2758420Y9390780D02*
Y9439040D01*
X1858420Y9690780D02*
Y9739040D01*
X1741580Y9690780D02*
Y9739040D01*
X1951740Y9655220D02*
Y9728880D01*
Y9655220D02*
X2048260D01*
Y9728880D01*
X1951740Y9843180D02*
X2048260D01*
X1951740Y9769520D02*
Y9843180D01*
X2048260Y9769520D02*
Y9843180D01*
X18318431Y420962D02*
Y469222D01*
X18201591Y420962D02*
Y469222D01*
X2690780Y8841580D02*
X2739040D01*
X2690780Y8958420D02*
X2739040D01*
X3360960D02*
X3409220D01*
X3360960Y8841580D02*
X3409220D01*
X14820972Y9118422D02*
X14869232D01*
X14820972Y9001582D02*
X14869232D01*
X14420972Y9118422D02*
X14469231D01*
X14420972Y9001582D02*
X14469231D01*
X6008000Y3535000D02*
Y3665000D01*
X6352000Y3535000D02*
Y3665000D01*
X14956821Y5948260D02*
X15030479D01*
X14956821Y5851740D02*
Y5948260D01*
Y5851740D02*
X15030479D01*
X15144780D02*
Y5948260D01*
X15071120D02*
X15144780D01*
X15071120Y5851740D02*
X15144780D01*
X14956821Y5548260D02*
X15030479D01*
X14956821Y5451740D02*
Y5548260D01*
Y5451740D02*
X15030479D01*
X15144780D02*
Y5548260D01*
X15071120D02*
X15144780D01*
X15071120Y5451740D02*
X15144780D01*
X4286783Y3238255D02*
X4360443D01*
X4286783Y3141735D02*
Y3238255D01*
Y3141735D02*
X4360443D01*
X4474743D02*
Y3238255D01*
X4401083D02*
X4474743D01*
X4401083Y3141735D02*
X4474743D01*
X3856784Y3238255D02*
X3930444D01*
X3856784Y3141735D02*
Y3238255D01*
Y3141735D02*
X3930444D01*
X4044744D02*
Y3238255D01*
X3971084D02*
X4044744D01*
X3971084Y3141735D02*
X4044744D01*
X7316777Y3238255D02*
X7390437D01*
X7316777Y3141735D02*
Y3238255D01*
Y3141735D02*
X7390437D01*
X7504737D02*
Y3238255D01*
X7431077D02*
X7504737D01*
X7431077Y3141735D02*
X7504737D01*
X6876778Y3238255D02*
X6950438D01*
X6876778Y3141735D02*
Y3238255D01*
Y3141735D02*
X6950438D01*
X7064738D02*
Y3238255D01*
X6991078D02*
X7064738D01*
X6991078Y3141735D02*
X7064738D01*
X6446779Y3238255D02*
X6520439D01*
X6446779Y3141735D02*
Y3238255D01*
Y3141735D02*
X6520439D01*
X6634739D02*
Y3238255D01*
X6561079D02*
X6634739D01*
X6561079Y3141735D02*
X6634739D01*
X6016780Y3238255D02*
X6090440D01*
X6016780Y3141735D02*
Y3238255D01*
Y3141735D02*
X6090440D01*
X6204740D02*
Y3238255D01*
X6131080D02*
X6204740D01*
X6131080Y3141735D02*
X6204740D01*
X5586781Y3238255D02*
X5660441D01*
X5586781Y3141735D02*
Y3238255D01*
Y3141735D02*
X5660441D01*
X5774741D02*
Y3238255D01*
X5701081D02*
X5774741D01*
X5701081Y3141735D02*
X5774741D01*
X5156781Y3238255D02*
X5230441D01*
X5156781Y3141735D02*
Y3238255D01*
Y3141735D02*
X5230441D01*
X5344741D02*
Y3238255D01*
X5271081D02*
X5344741D01*
X5271081Y3141735D02*
X5344741D01*
X4726782Y3238255D02*
X4800442D01*
X4726782Y3141735D02*
Y3238255D01*
Y3141735D02*
X4800442D01*
X4914742D02*
Y3238255D01*
X4841082D02*
X4914742D01*
X4841082Y3141735D02*
X4914742D01*
X4715220Y988260D02*
X4788880D01*
X4715220Y891740D02*
Y988260D01*
Y891740D02*
X4788880D01*
X4903180D02*
Y988260D01*
X4829520D02*
X4903180D01*
X4829520Y891740D02*
X4903180D01*
X6996820Y1018260D02*
X7070480D01*
X6996820Y921740D02*
Y1018260D01*
Y921740D02*
X7070480D01*
X7184780D02*
Y1018260D01*
X7111120D02*
X7184780D01*
X7111120Y921740D02*
X7184780D01*
X7835220Y1028260D02*
X7908880D01*
X7835220Y931740D02*
Y1028260D01*
Y931740D02*
X7908880D01*
X8023180D02*
Y1028260D01*
X7949520D02*
X8023180D01*
X7949520Y931740D02*
X8023180D01*
X6651740Y12055220D02*
Y12128880D01*
Y12055220D02*
X6748260D01*
Y12128880D01*
X6651740Y12243180D02*
X6748260D01*
X6651740Y12169520D02*
Y12243180D01*
X6748260Y12169520D02*
Y12243180D01*
X8620000Y12256000D02*
X8780000D01*
X8620000Y11944000D02*
X8780000D01*
X6456000Y12145500D02*
Y12305500D01*
X6144000Y12145500D02*
Y12305500D01*
X16364999Y3759700D02*
X16539999D01*
X16364999D02*
Y3940000D01*
Y4990000D02*
Y5210000D01*
Y6010000D02*
Y6299700D01*
X16539999D01*
X17460001Y3759700D02*
X17635001D01*
Y3940000D01*
Y4990000D02*
Y5210000D01*
Y6010000D02*
Y6299700D01*
X17460001D02*
X17635001D01*
X6532000Y4176500D02*
X6580000D01*
X6532000Y4876500D02*
X6580000D01*
X5880000Y4176500D02*
X5928000D01*
X5880000Y4876500D02*
X5928000D01*
X6580000Y4176500D02*
Y4224500D01*
Y4828500D02*
Y4876500D01*
X5880000Y4176500D02*
Y4224500D01*
Y4828500D02*
Y4876500D01*
D70*
X14311600Y5300000D02*
Y5560000D01*
X14091600Y5300000D02*
Y5560000D01*
X7500000Y1860000D02*
X7760000D01*
X7500000Y1640000D02*
X7760000D01*
%TF.MD5,b621bc6ac17de328d956c45c7dc8f0e7*%
M02*
